<svg width="18" height="18" viewBox="0 0 18 18" fill="none" xmlns="http://www.w3.org/2000/svg">
<circle cx="8.5" cy="8.5" r="8.5" transform="matrix(-1 0 0 1 17.3315 0.705078)" fill="#3CD856"/>
<path fill-rule="evenodd" clip-rule="evenodd" d="M6.86524 6.34264L8.26767 6.54299C8.48192 6.5736 8.65698 6.67573 8.78197 6.81687L12.0542 10.0891C12.3862 10.4211 12.3862 10.9592 12.0542 11.2912L10.8522 12.4933C10.5202 12.8252 9.98202 12.8252 9.65007 12.4933L6.37781 9.22103C6.23667 9.09603 6.13455 8.92098 6.10394 8.70672L5.90359 7.30429C5.82343 6.74335 6.30429 6.26248 6.86524 6.34264ZM7.84695 8.286C7.68099 8.45196 7.41188 8.45198 7.24591 8.286C7.07993 8.12003 7.07994 7.85092 7.24591 7.68496C7.41187 7.519 7.68097 7.51899 7.84695 7.68496C8.01292 7.85094 8.01291 8.12004 7.84695 8.286Z" fill="white"/>
</svg>
