<svg fill="none" height="20" viewBox="0 0 20 20" width="20" xmlns="http://www.w3.org/2000/svg">
    <path
        d="M9.16663 10.8332H4.99996C4.76385 10.8332 4.56607 10.7532 4.40663 10.5932C4.24718 10.4332 4.16718 10.2354 4.16663 9.99984C4.16607 9.76428 4.24607 9.56651 4.40663 9.40651C4.56718 9.24651 4.76496 9.16651 4.99996 9.16651H9.16663V4.99984C9.16663 4.76373 9.24663 4.56595 9.40663 4.40651C9.56663 4.24706 9.76441 4.16706 9.99996 4.16651C10.2355 4.16595 10.4336 4.24595 10.5941 4.40651C10.7547 4.56706 10.8344 4.76484 10.8333 4.99984V9.16651H15C15.2361 9.16651 15.4341 9.24651 15.5941 9.40651C15.7541 9.56651 15.8339 9.76428 15.8333 9.99984C15.8327 10.2354 15.7527 10.4335 15.5933 10.594C15.4339 10.7546 15.2361 10.8343 15 10.8332H10.8333V14.9998C10.8333 15.236 10.7533 15.434 10.5933 15.594C10.4333 15.754 10.2355 15.8337 9.99996 15.8332C9.76441 15.8326 9.56663 15.7526 9.40663 15.5932C9.24663 15.4337 9.16663 15.236 9.16663 14.9998V10.8332Z"
        fill="#292929" />
</svg>
