<svg fill="none" height="20" viewBox="0 0 20 20" width="20" xmlns="http://www.w3.org/2000/svg">
    <rect fill="#F7741A" height="20" rx="10" width="20" />
    <g clip-path="url(#clip0_37_2022)">
        <path
            d="M13.7123 13.1288L10 16.8411L6.28767 13.1288C5.55345 12.3946 5.05344 11.4591 4.85087 10.4407C4.64831 9.42231 4.75228 8.36671 5.14964 7.4074C5.547 6.44809 6.21991 5.62816 7.08327 5.05128C7.94662 4.47441 8.96165 4.1665 10 4.1665C11.0384 4.1665 12.0534 4.47441 12.9167 5.05128C13.7801 5.62816 14.453 6.44809 14.8504 7.4074C15.2477 8.36671 15.3517 9.42231 15.1491 10.4407C14.9466 11.4591 14.4466 12.3946 13.7123 13.1288ZM10 10.5831C10.3094 10.5831 10.6062 10.4602 10.825 10.2414C11.0438 10.0226 11.1667 9.72588 11.1667 9.41646C11.1667 9.10704 11.0438 8.81029 10.825 8.5915C10.6062 8.37271 10.3094 8.24979 10 8.24979C9.69058 8.24979 9.39384 8.37271 9.17504 8.5915C8.95625 8.81029 8.83334 9.10704 8.83334 9.41646C8.83334 9.72588 8.95625 10.0226 9.17504 10.2414C9.39384 10.4602 9.69058 10.5831 10 10.5831Z"
            fill="white" />
    </g>
    <defs>
        <clipPath id="clip0_37_2022">
            <rect fill="white" height="14" transform="translate(3 3)" width="14" />
        </clipPath>
    </defs>
</svg>
