<svg width="18" height="18" viewBox="0 0 18 18" fill="none" xmlns="http://www.w3.org/2000/svg">
<circle cx="8.5" cy="8.5" r="8.5" transform="matrix(-1 0 0 1 17.3315 0.745117)" fill="#FF947A"/>
<path fill-rule="evenodd" clip-rule="evenodd" d="M12.8203 6.69414C12.8203 5.75526 12.0592 4.99414 11.1203 4.99414H8.57031V6.69414C8.57031 7.63302 7.8092 8.39414 6.87031 8.39414H6.02031V11.7941C6.02031 12.733 6.78143 13.4941 7.72031 13.4941H11.1203C12.0592 13.4941 12.8203 12.733 12.8203 11.7941V6.69414ZM11.1203 8.81914C11.355 8.81914 11.5453 9.00942 11.5453 9.24414C11.5453 9.47886 11.355 9.66914 11.1203 9.66914H10.2703C10.0356 9.66914 9.84531 9.47886 9.84531 9.24414C9.84531 9.00942 10.0356 8.81914 10.2703 8.81914H11.1203ZM11.1203 10.5191C11.355 10.5191 11.5453 10.7094 11.5453 10.9441C11.5453 11.1789 11.355 11.3691 11.1203 11.3691H9.42031C9.18559 11.3691 8.99531 11.1789 8.99531 10.9441C8.99531 10.7094 9.18559 10.5191 9.42031 10.5191H11.1203ZM7.43055 5.92863L7.4862 6.76336C7.5033 7.01993 7.29044 7.2328 7.03387 7.21569L6.19913 7.16004C5.8348 7.13575 5.66869 6.69366 5.92688 6.43546L6.70597 5.65638C6.96417 5.39818 7.40626 5.56429 7.43055 5.92863Z" fill="white"/>
</svg>
