<?xml version="1.0" encoding="UTF-8"?>
<svg height="512" version="1.1" width="512" xmlns="http://www.w3.org/2000/svg">
    <path
        d="M0 0 C28.50221408 -0.06838447 57.00441789 -0.12150143 85.50669789 -0.15319599 C88.86888597 -0.15694827 92.23107388 -0.16083122 95.59326172 -0.16479492 C96.26263481 -0.16558185 96.93200789 -0.16636878 97.62166502 -0.16717956 C108.47117052 -0.18024638 119.32062851 -0.2039072 130.1701058 -0.23145839 C141.2962111 -0.25947716 152.42230007 -0.2759441 163.54844105 -0.28226548 C169.80055921 -0.28618648 176.05256949 -0.29544179 182.30465317 -0.31719017 C188.18309628 -0.33747414 194.06138652 -0.34385025 199.9398613 -0.33932304 C202.10308156 -0.34015188 204.26630666 -0.34616543 206.42949677 -0.35761642 C209.37171713 -0.37243401 212.3133522 -0.36899309 215.25558472 -0.36076355 C216.12133145 -0.36950207 216.98707819 -0.3782406 217.87905967 -0.38724393 C220.25561333 -0.36914349 220.25561333 -0.36914349 224 0 C226.18217942 3.27326912 226.24931034 4.18775902 226.24609566 7.97626781 C226.25007775 9.00984266 226.25405985 10.0434175 226.25816262 11.10831279 C226.25233693 12.24740401 226.24651125 13.38649523 226.24050903 14.56010437 C226.24307231 16.3709212 226.24307231 16.3709212 226.24568737 18.21832019 C226.24841794 21.57509298 226.24214512 24.931634 226.23213124 28.28837883 C226.22351185 31.90594683 226.22641583 35.52350739 226.22793579 39.14108276 C226.2289856 45.41073498 226.22269898 51.68034565 226.21146011 57.94998741 C226.19522107 67.01488332 226.18999875 76.07975908 226.18748413 85.14466796 C226.18310452 99.85109538 226.1697882 114.55750063 226.15087891 129.26391602 C226.13252699 143.5516753 226.11836712 157.83942858 226.10986328 172.12719727 C226.10933783 173.00757279 226.10881239 173.88794832 226.10827102 174.79500189 C226.10566098 179.21149097 226.10313356 183.62798009 226.10064721 188.04446924 C226.07990642 224.69632847 226.04467365 261.34816251 226 298 C224.93491211 298.11899658 223.86982422 298.23799316 222.77246094 298.3605957 C221.34306043 298.52782852 219.91370056 298.69540903 218.484375 298.86328125 C217.78618652 298.94034302 217.08799805 299.01740479 216.36865234 299.09680176 C197.38936091 301.36224897 181.07114125 310.95964119 168.90234375 325.5078125 C158.59263359 339.60152618 155.02327361 354.03562893 153 371 C146.73 371 140.46 371 134 371 C133.99191315 369.19310699 133.98382629 367.38621399 133.97549438 365.52456665 C133.89796944 348.48632128 133.81032991 331.44815432 133.71247292 314.4100132 C133.66242336 305.65080117 133.61597976 296.89159814 133.578125 288.13232422 C133.54510853 280.49473145 133.50522445 272.85721014 133.45720994 265.2196964 C133.43204063 261.17843608 133.4102315 257.13722258 133.39665604 253.0959053 C133.38374832 249.28574912 133.36160173 245.47575428 133.33261681 241.66568756 C133.32360864 240.27343118 133.31786677 238.88114887 133.31578636 237.4888649 C133.2902472 222.98270334 131.58795563 209.77414323 121.375 198.625 C114.04043063 191.85571536 105.03565876 188.13064265 95.13671875 187.68359375 C94.25048828 187.64169922 93.36425781 187.59980469 92.45117188 187.55664062 C91.53916016 187.51732422 90.62714844 187.47800781 89.6875 187.4375 C88.75615234 187.39431641 87.82480469 187.35113281 86.86523438 187.30664062 C84.57695546 187.20102775 82.28857628 187.09892248 80 187 C79.97812622 186.13834229 79.97812622 186.13834229 79.95581055 185.25927734 C79.88086275 182.63054304 79.78436006 180.00301448 79.6875 177.375 C79.66494141 176.47136719 79.64238281 175.56773437 79.61914062 174.63671875 C79.37386425 168.5271072 78.75668874 163.57883785 74.0625 159.1875 C69.54626829 156.58724538 64.85617248 156.82511302 59.76171875 156.796875 C58.96272659 156.79117493 58.16373444 156.78547485 57.3405304 156.77960205 C55.65191972 156.77017129 53.9632908 156.76362572 52.2746582 156.75976562 C49.70686286 156.75007309 47.13987287 156.71903764 44.57226562 156.6875 C42.92708806 156.68096782 41.2819048 156.67571819 39.63671875 156.671875 C38.49573982 156.6533548 38.49573982 156.6533548 37.33171082 156.63446045 C32.16077994 156.65579672 28.59396616 157.58273054 24 160 C19.19616804 165.03931392 19.34993178 170.28256143 19.25 176.875 C19.1675 180.21625 19.085 183.5575 19 187 C10.09 187 1.18 187 -8 187 C-8.1875 176.375 -8.1875 176.375 -8.20776367 173.06005859 C-8.39404806 166.83359087 -8.39404806 166.83359087 -11.17578125 161.4140625 C-16.3799559 156.96568085 -21.76961829 156.68364843 -28.3984375 156.6640625 C-29.19222809 156.6574057 -29.98601868 156.6507489 -30.80386353 156.64389038 C-32.47631529 156.63380659 -34.14880693 156.62907203 -35.82128906 156.62939453 C-38.36071004 156.62502459 -40.89838624 156.58867113 -43.4375 156.55078125 C-45.07030662 156.54491123 -46.70312141 156.54094308 -48.3359375 156.5390625 C-49.45976334 156.51750595 -49.45976334 156.51750595 -50.60629272 156.49551392 C-56.99616067 156.55006255 -62.42161853 158.42161853 -67 163 C-67 131.32 -67 99.64 -67 67 C-36.25 66.75 -36.25 66.75 -26.55175781 66.70214844 C-24.0188616 66.67278793 -21.48598174 66.64196382 -18.953125 66.609375 C-16.97578369 66.60768311 -16.97578369 66.60768311 -14.95849609 66.60595703 C-13.07106689 66.57622803 -13.07106689 66.57622803 -11.14550781 66.54589844 C-10.05296692 66.53701599 -8.96042603 66.52813354 -7.83477783 66.51898193 C-4.24010726 65.8608813 -3.24817162 64.84711198 -1 62 C-0.38555158 59.10273656 -0.38555158 59.10273656 -0.45410156 55.85449219 C-0.43438293 54.61350769 -0.41466431 53.37252319 -0.39434814 52.09393311 C-0.39268512 50.74491419 -0.39145418 49.39589468 -0.390625 48.046875 C-0.37564039 46.66251695 -0.35891263 45.27817676 -0.34051514 43.89385986 C-0.29685982 40.25739717 -0.27684697 36.62117561 -0.26177979 32.98449707 C-0.24220182 29.27076978 -0.20023271 25.55730265 -0.16015625 21.84375 C-0.08487413 14.56256997 -0.03457103 7.28149921 0 0 Z M52.13671875 47.19921875 C50.54317606 51.12557652 50.67551945 54.62229996 50.8125 58.8125 C50.82603516 59.60076172 50.83957031 60.38902344 50.85351562 61.20117188 C50.88866544 63.13441169 50.94246639 65.06729682 51 67 C49.91460937 66.96519531 48.82921875 66.93039063 47.7109375 66.89453125 C46.26564058 66.86637612 44.82032679 66.83907781 43.375 66.8125 C42.30572266 66.77479492 42.30572266 66.77479492 41.21484375 66.73632812 C36.3862972 66.66988024 33.19941758 67.36519404 29 70 C24.3506911 75.02627989 23.82920838 79.04409361 23.76171875 85.66796875 C23.753647 86.42161209 23.74557526 87.17525543 23.73725891 87.95173645 C23.723435 89.54796054 23.71270527 91.14421398 23.70483398 92.74047852 C23.69334078 94.36296325 23.67293106 95.98541097 23.64331055 97.60766602 C23.12183059 109.98436876 23.12183059 109.98436876 28 121 C32.22302984 124.87301295 36.89510922 124.35425473 42.3125 124.1875 C43.14845703 124.17396484 43.98441406 124.16042969 44.84570312 124.14648438 C46.89741498 124.11131217 48.94879275 124.05751048 51 124 C50.96519531 125.24136719 50.93039062 126.48273438 50.89453125 127.76171875 C50.86638416 129.40363226 50.83908499 131.04556046 50.8125 132.6875 C50.78736328 133.50412109 50.76222656 134.32074219 50.73632812 135.16210938 C50.67885244 139.89427401 50.65325727 143.35080115 54 147 C61.00042135 152.18385632 68.87853946 151.57722073 77.22753906 151.46655273 C79.62635048 151.43748363 82.0229612 151.44598944 84.421875 151.45898438 C85.96094814 151.45274865 87.50001438 151.444359 89.0390625 151.43359375 C89.74858063 151.43652939 90.45809875 151.43946503 91.18911743 151.44248962 C95.84657581 151.35489845 99.03823055 150.43837738 103 148 C107.82284492 142.7861136 108.14040145 138.67381994 108.0625 131.8125 C108.05798828 131.06291016 108.05347656 130.31332031 108.04882812 129.54101562 C108.03706354 127.69397617 108.01912865 125.84697787 108 124 C109.15757812 124.04640625 110.31515625 124.0928125 111.5078125 124.140625 C113.04684906 124.17816248 114.5859137 124.21456051 116.125 124.25 C116.88554687 124.28351563 117.64609375 124.31703125 118.4296875 124.3515625 C123.77567673 124.44373473 126.82361536 123.64349283 131 120 C134.49036046 115.53856266 134.45331073 111.62128722 134.43359375 106.19140625 C134.4388356 105.34706528 134.44407745 104.5027243 134.44947815 103.63279724 C134.45588499 101.85180762 134.45457869 100.07077562 134.44604492 98.28979492 C134.43753787 95.57458636 134.46630831 92.86148518 134.49804688 90.14648438 C134.49965923 88.41145896 134.4990807 86.67642984 134.49609375 84.94140625 C134.50732773 84.13498184 134.51856171 83.32855743 134.53013611 82.49769592 C134.4652464 77.2114662 133.50514241 74.19033115 130 70 C125.23164856 66.7413988 121.18098321 66.61658377 115.625 66.8125 C114.88894531 66.82603516 114.15289062 66.83957031 113.39453125 66.85351562 C111.59603257 66.88855131 109.79791578 66.94234712 108 67 C108.04640625 65.92621094 108.0928125 64.85242188 108.140625 63.74609375 C108.73713014 53.11847813 108.73713014 53.11847813 104 44 C99.54242157 40.5070089 95.61925244 40.54669666 90.19140625 40.56640625 C89.34706528 40.5611644 88.5027243 40.55592255 87.63279724 40.55052185 C85.85180762 40.54411501 84.07077562 40.54542131 82.28979492 40.55395508 C79.57458636 40.56246213 76.86148518 40.53369169 74.14648438 40.50195312 C72.41145896 40.50034077 70.67642984 40.5009193 68.94140625 40.50390625 C68.13498184 40.49267227 67.32855743 40.48143829 66.49769592 40.46986389 C60.23150196 40.54678289 56.29942376 42.28600508 52.13671875 47.19921875 Z "
        fill="#0CA838" transform="translate(212,15)" />
    <path
        d="M0 0 C104.94 0 209.88 0 318 0 C318.061875 44.983125 318.061875 44.983125 318.125 90.875 C318.14320801 100.33784668 318.16141602 109.80069336 318.18017578 119.55029297 C318.18920898 131.12133789 318.18920898 131.12133789 318.19088745 136.54129028 C318.19274786 140.32004147 318.20023144 144.09873625 318.21115112 147.87747192 C318.22491347 152.70416866 318.22897411 157.53078387 318.22614455 162.35749841 C318.22673586 164.12471799 318.2306755 165.89194054 318.23843026 167.65914321 C318.34348904 192.77639609 318.34348904 192.77639609 310 202 C304.78163493 206.23880848 300.15127436 209.11800597 293.31716061 209.13701439 C292.34897048 209.14208893 291.38078035 209.14716347 290.38325113 209.15239179 C288.78406527 209.15313843 288.78406527 209.15313843 287.15257263 209.15390015 C286.02183746 209.1582824 284.89110229 209.16266465 283.72610241 209.1671797 C279.91692796 209.18059117 276.10777665 209.18675188 272.29858398 209.19287109 C269.57548237 209.20024287 266.85238563 209.20903396 264.12928772 209.21765137 C255.94206885 209.2421751 247.75484392 209.25680347 239.56759962 209.26971143 C237.25468911 209.2734237 234.94177921 209.27739692 232.6288693 209.2814641 C218.26312912 209.30670344 203.89738798 209.32875457 189.53163052 209.34119225 C186.2039483 209.34412191 182.87626612 209.34708357 179.54858398 209.35009766 C178.72151269 209.35084371 177.89444139 209.35158976 177.04230732 209.35235842 C163.65054587 209.36500632 150.25891735 209.39822154 136.86721801 209.43989949 C123.11482295 209.48234866 109.36249588 209.50589081 95.61003548 209.51111281 C87.88995669 209.5145238 80.17008557 209.52624175 72.45007133 209.55921555 C65.87373993 209.58725845 59.29765876 209.59819697 52.72127222 209.58702008 C49.36787881 209.58184374 46.01543223 209.58739436 42.66204453 209.60948563 C39.01969878 209.6321717 35.37866572 209.6238826 31.73631287 209.60800171 C30.68580401 209.6218838 29.63529516 209.63576588 28.55295271 209.65006864 C19.46461588 209.55266694 12.5237619 206.77194872 6.0625 200.3125 C-1.77404544 191.62876046 -0.41093986 178.65955369 -0.34057617 167.79052734 C-0.339656 165.92702058 -0.34005964 164.06351278 -0.34167194 162.20000648 C-0.34234623 157.23217024 -0.32502204 152.26455298 -0.30384064 147.29676819 C-0.28669234 142.62663114 -0.28594784 137.95654601 -0.28381348 133.28637695 C-0.2681028 119.64922256 -0.22621907 106.01210847 -0.1875 92.375 C-0.125625 61.89125 -0.06375 31.4075 0 0 Z M43.28991699 13.28417969 C41.01578449 16.30918267 41.55349439 20.07614512 41.56640625 23.71875 C41.5611644 24.57303589 41.55592255 25.42732178 41.55052185 26.30749512 C41.54410062 28.11302605 41.54543998 29.91859882 41.55395508 31.72412109 C41.56246926 34.49001317 41.53370021 37.25384309 41.50195312 40.01953125 C41.50034115 41.77343688 41.50091857 43.52734617 41.50390625 45.28125 C41.49267227 46.10943237 41.48143829 46.93761475 41.46986389 47.79089355 C41.51489432 52.20637137 41.51489432 52.20637137 43.52539062 56.015625 C47.02809417 57.40896564 50.37469061 57.46775377 54.08984375 57.46875 C55.26215294 57.48017029 55.26215294 57.48017029 56.45814514 57.49182129 C58.10805066 57.50260721 59.75802436 57.5054815 61.40795898 57.50097656 C63.92613096 57.50000439 66.44125237 57.5416329 68.95898438 57.5859375 C70.56509784 57.5911451 72.17122185 57.59383268 73.77734375 57.59375 C74.52644516 57.61014526 75.27554657 57.62654053 76.04734802 57.64343262 C79.81127431 57.59392454 81.84963849 57.10307119 84.97460938 54.9609375 C87.49791349 51.27209561 87.70805434 48.35388381 87.62890625 44.03125 C87.63131821 43.27332153 87.63373016 42.51539307 87.63621521 41.73449707 C87.63523896 40.13756052 87.62189809 38.54058921 87.59692383 36.94384766 C87.56259807 34.50696235 87.5762761 32.07370391 87.59570312 29.63671875 C87.58880424 28.08071382 87.57913145 26.52471819 87.56640625 24.96875 C87.57136612 24.24465942 87.57632599 23.52056885 87.58143616 22.77453613 C87.50345035 19.40515247 87.02779249 17.05493275 85.50195312 14.0390625 C81.97323481 11.1631984 78.75847529 11.31710294 74.40234375 11.40625 C73.57166885 11.40620972 72.74099396 11.40616943 71.88514709 11.40612793 C70.13258276 11.41148037 68.38001883 11.4290516 66.62768555 11.45800781 C63.94310344 11.49991253 61.26102628 11.49907237 58.57617188 11.4921875 C56.87237838 11.50267861 55.16859782 11.51561629 53.46484375 11.53125 C52.26008644 11.53155212 52.26008644 11.53155212 51.0309906 11.53186035 C46.89682885 11.52690153 46.89682885 11.52690153 43.28991699 13.28417969 Z M106.51171875 13.51171875 C104.36667724 17.04244598 104.42690205 20.33238456 104.46875 24.34375 C104.4649231 25.14985718 104.46109619 25.95596436 104.45715332 26.78649902 C104.4544361 28.48772432 104.4617841 30.18899153 104.47851562 31.89013672 C104.4999301 34.49150896 104.47870981 37.09011972 104.453125 39.69140625 C104.45576831 41.34636025 104.46089337 43.00131254 104.46875 44.65625 C104.46065308 45.43238647 104.45255615 46.20852295 104.44421387 47.00817871 C104.50195159 50.33981128 104.76888955 52.62387762 106.52758789 55.48608398 C109.98060541 57.60044773 113.15708322 57.59237525 117.08984375 57.56640625 C118.26215294 57.57570412 118.26215294 57.57570412 119.45814514 57.58518982 C121.10807044 57.59228103 122.7580674 57.58912605 124.40795898 57.57641602 C126.9263144 57.56256154 129.44094345 57.59660976 131.95898438 57.63476562 C133.56510507 57.63571702 135.1712304 57.63385691 136.77734375 57.62890625 C137.52644516 57.64216446 138.27554657 57.65542267 139.04734802 57.66908264 C142.79599156 57.60267287 144.85664248 57.09761113 147.97460938 54.97460938 C150.53560621 51.21337679 150.70679622 48.17820088 150.62890625 43.77734375 C150.63131821 42.99484756 150.63373016 42.21235138 150.63621521 41.40614319 C150.63523889 39.75793368 150.62189628 38.10969052 150.59692383 36.46166992 C150.56255336 33.94141237 150.57628742 31.42465213 150.59570312 28.90429688 C150.58880572 27.29946428 150.57913428 25.6946407 150.56640625 24.08984375 C150.57136612 23.33871811 150.57632599 22.58759247 150.58143616 21.81370544 C150.50808474 18.55146815 150.20214614 16.33012965 148.48608398 13.52758789 C144.95939191 11.36059267 141.67343447 11.42684134 137.65625 11.46875 C136.85014282 11.4649231 136.04403564 11.46109619 135.21350098 11.45715332 C133.51227568 11.4544361 131.81100847 11.4617841 130.10986328 11.47851562 C127.50849104 11.4999301 124.90988028 11.47870981 122.30859375 11.453125 C120.65363975 11.45576831 118.99868746 11.46089337 117.34375 11.46875 C116.17954529 11.45660461 116.17954529 11.45660461 114.99182129 11.44421387 C111.66926462 11.5017943 109.37420258 11.77265872 106.51171875 13.51171875 Z M169.51171875 13.51171875 C167.36667724 17.04244598 167.42690205 20.33238456 167.46875 24.34375 C167.4649231 25.14985718 167.46109619 25.95596436 167.45715332 26.78649902 C167.4544361 28.48772432 167.4617841 30.18899153 167.47851562 31.89013672 C167.4999301 34.49150896 167.47870981 37.09011972 167.453125 39.69140625 C167.45576831 41.34636025 167.46089337 43.00131254 167.46875 44.65625 C167.46065308 45.43238647 167.45255615 46.20852295 167.44421387 47.00817871 C167.5017943 50.33073538 167.77265872 52.62579742 169.51171875 55.48828125 C173.04244598 57.63332276 176.33238456 57.57309795 180.34375 57.53125 C181.14985718 57.5350769 181.95596436 57.53890381 182.78649902 57.54284668 C184.48772432 57.5455639 186.18899153 57.5382159 187.89013672 57.52148438 C190.49150896 57.5000699 193.09011972 57.52129019 195.69140625 57.546875 C197.34636025 57.54423169 199.00131254 57.53910663 200.65625 57.53125 C201.43238647 57.53934692 202.20852295 57.54744385 203.00817871 57.55578613 C206.33073538 57.4982057 208.62579742 57.22734128 211.48828125 55.48828125 C213.63332276 51.95755402 213.57309795 48.66761544 213.53125 44.65625 C213.5350769 43.85014282 213.53890381 43.04403564 213.54284668 42.21350098 C213.5455639 40.51227568 213.5382159 38.81100847 213.52148438 37.10986328 C213.5000699 34.50849104 213.52129019 31.90988028 213.546875 29.30859375 C213.54423169 27.65363975 213.53910663 25.99868746 213.53125 24.34375 C213.53934692 23.56761353 213.54744385 22.79147705 213.55578613 21.99182129 C213.4982057 18.66926462 213.22734128 16.37420258 211.48828125 13.51171875 C207.95755402 11.36667724 204.66761544 11.42690205 200.65625 11.46875 C199.85014282 11.4649231 199.04403564 11.46109619 198.21350098 11.45715332 C196.51227568 11.4544361 194.81100847 11.4617841 193.10986328 11.47851562 C190.50849104 11.4999301 187.90988028 11.47870981 185.30859375 11.453125 C183.65363975 11.45576831 181.99868746 11.46089337 180.34375 11.46875 C179.17954529 11.45660461 179.17954529 11.45660461 177.99182129 11.44421387 C174.66926462 11.5017943 172.37420258 11.77265872 169.51171875 13.51171875 Z M232.51171875 13.51171875 C230.36667724 17.04244598 230.42690205 20.33238456 230.46875 24.34375 C230.4649231 25.14985718 230.46109619 25.95596436 230.45715332 26.78649902 C230.4544361 28.48772432 230.4617841 30.18899153 230.47851562 31.89013672 C230.4999301 34.49150896 230.47870981 37.09011972 230.453125 39.69140625 C230.45576831 41.34636025 230.46089337 43.00131254 230.46875 44.65625 C230.46065308 45.43238647 230.45255615 46.20852295 230.44421387 47.00817871 C230.5017943 50.33073538 230.77265872 52.62579742 232.51171875 55.48828125 C236.04244598 57.63332276 239.33238456 57.57309795 243.34375 57.53125 C244.14985718 57.5350769 244.95596436 57.53890381 245.78649902 57.54284668 C247.48772432 57.5455639 249.18899153 57.5382159 250.89013672 57.52148438 C253.49150896 57.5000699 256.09011972 57.52129019 258.69140625 57.546875 C260.34636025 57.54423169 262.00131254 57.53910663 263.65625 57.53125 C264.43238647 57.53934692 265.20852295 57.54744385 266.00817871 57.55578613 C269.33073538 57.4982057 271.62579742 57.22734128 274.48828125 55.48828125 C276.63332276 51.95755402 276.57309795 48.66761544 276.53125 44.65625 C276.5350769 43.85014282 276.53890381 43.04403564 276.54284668 42.21350098 C276.5455639 40.51227568 276.5382159 38.81100847 276.52148438 37.10986328 C276.5000699 34.50849104 276.52129019 31.90988028 276.546875 29.30859375 C276.54423169 27.65363975 276.53910663 25.99868746 276.53125 24.34375 C276.53934692 23.56761353 276.54744385 22.79147705 276.55578613 21.99182129 C276.4982057 18.66926462 276.22734128 16.37420258 274.48828125 13.51171875 C270.95755402 11.36667724 267.66761544 11.42690205 263.65625 11.46875 C262.85014282 11.4649231 262.04403564 11.46109619 261.21350098 11.45715332 C259.51227568 11.4544361 257.81100847 11.4617841 256.10986328 11.47851562 C253.50849104 11.4999301 250.90988028 11.47870981 248.30859375 11.453125 C246.65363975 11.45576831 244.99868746 11.46089337 243.34375 11.46875 C242.17954529 11.45660461 242.17954529 11.45660461 240.99182129 11.44421387 C237.66926462 11.5017943 235.37420258 11.77265872 232.51171875 13.51171875 Z M43.51171875 75.984375 C41.06589536 79.24547285 41.43047937 82.8042932 41.46875 86.71875 C41.4649231 87.57303589 41.46109619 88.42732178 41.45715332 89.30749512 C41.45443225 91.1130491 41.46180715 92.91864237 41.47851562 94.72412109 C41.49992377 97.49015056 41.47872196 100.25358271 41.453125 103.01953125 C41.45576824 104.77344324 41.46089315 106.52735361 41.46875 108.28125 C41.46065308 109.10943237 41.45255615 109.93761475 41.44421387 110.79089355 C41.51162972 115.20171017 41.51162972 115.20171017 43.51171875 119.015625 C47.09492079 120.43315548 50.54581323 120.46776439 54.34375 120.46875 C55.14985718 120.47636353 55.95596436 120.48397705 56.78649902 120.49182129 C58.48768013 120.50260754 60.18892738 120.50548137 61.89013672 120.50097656 C64.4916815 120.50000311 67.0902864 120.54165893 69.69140625 120.5859375 C71.34634803 120.59114399 73.00130004 120.5938327 74.65625 120.59375 C75.43238647 120.61014526 76.20852295 120.62654053 77.00817871 120.64343262 C80.66727074 120.59663287 82.62572354 120.30670693 85.48828125 117.9609375 C87.37607149 114.26340521 87.57665559 111.09177483 87.53125 107.03125 C87.5350769 106.27332153 87.53890381 105.51539307 87.54284668 104.73449707 C87.54555955 103.13760036 87.53824203 101.54065874 87.52148438 99.94384766 C87.50006264 97.50712506 87.52130389 95.07335024 87.546875 92.63671875 C87.54423161 91.0807227 87.53910639 89.52472847 87.53125 87.96875 C87.53934692 87.24465942 87.54744385 86.52056885 87.55578613 85.77453613 C87.49343855 82.39123358 87.0318664 80.06241533 85.48828125 77.0390625 C82.02609922 74.20192119 78.93983319 74.31576272 74.65625 74.40625 C73.44708923 74.40618958 73.44708923 74.40618958 72.21350098 74.40612793 C70.51220894 74.41148024 68.81091729 74.42905096 67.10986328 74.45800781 C64.50866995 74.4998605 61.91006699 74.49907621 59.30859375 74.4921875 C57.65362788 74.50268073 55.99867533 74.51561955 54.34375 74.53125 C53.17954529 74.53155212 53.17954529 74.53155212 51.99182129 74.53186035 C48.94621148 74.59846884 46.35459882 74.85971915 43.51171875 75.984375 Z M106.51171875 76.51391602 C104.36566072 80.04319717 104.42691094 83.33323646 104.46875 87.34375 C104.4649231 88.14985718 104.46109619 88.95596436 104.45715332 89.78649902 C104.4544361 91.48772432 104.4617841 93.18899153 104.47851562 94.89013672 C104.4999301 97.49150896 104.47870981 100.09011972 104.453125 102.69140625 C104.45576831 104.34636025 104.46089337 106.00131254 104.46875 107.65625 C104.46065308 108.43238647 104.45255615 109.20852295 104.44421387 110.00817871 C104.50178334 113.33010303 104.7718166 115.62474297 106.51171875 118.48608398 C110.03906738 120.63218768 113.33293602 120.5920372 117.34375 120.56640625 C118.14985718 120.57260483 118.95596436 120.57880341 119.78649902 120.58518982 C121.48769932 120.59228124 123.18896912 120.5891257 124.89013672 120.57641602 C127.49185887 120.56254341 130.08998754 120.59663248 132.69140625 120.63476562 C134.34635505 120.63571681 136.00130834 120.63385801 137.65625 120.62890625 C138.43238647 120.64216446 139.20852295 120.65542267 140.00817871 120.66908264 C143.66406847 120.60610503 145.62987421 120.30363243 148.48828125 117.95874023 C150.37689392 114.26234215 150.57664748 111.09104939 150.53125 107.03125 C150.5350769 106.27332153 150.53890381 105.51539307 150.54284668 104.73449707 C150.54555955 103.13760036 150.53824203 101.54065874 150.52148438 99.94384766 C150.50006264 97.50712506 150.52130389 95.07335024 150.546875 92.63671875 C150.54423161 91.0807227 150.53910639 89.52472847 150.53125 87.96875 C150.53934692 87.24465942 150.54744385 86.52056885 150.55578613 85.77453613 C150.4934493 82.39181695 150.03251871 80.06364572 148.48828125 77.04125977 C145.02988141 74.2041639 141.93936951 74.29792815 137.65625 74.37109375 C136.85014282 74.36868179 136.04403564 74.36626984 135.21350098 74.36378479 C133.51223828 74.3647626 131.81094351 74.37814072 130.10986328 74.40307617 C127.50833881 74.43739001 124.9102113 74.42373396 122.30859375 74.40429688 C120.6536314 74.41119556 118.9986778 74.42086815 117.34375 74.43359375 C116.56761353 74.42863388 115.79147705 74.42367401 114.99182129 74.41856384 C111.67223567 74.49081965 109.37026173 74.77472596 106.51171875 76.51391602 Z M169.51171875 76.51171875 C167.36667724 80.04244598 167.42690205 83.33238456 167.46875 87.34375 C167.4649231 88.14985718 167.46109619 88.95596436 167.45715332 89.78649902 C167.4544361 91.48772432 167.4617841 93.18899153 167.47851562 94.89013672 C167.4999301 97.49150896 167.47870981 100.09011972 167.453125 102.69140625 C167.45576831 104.34636025 167.46089337 106.00131254 167.46875 107.65625 C167.46065308 108.43238647 167.45255615 109.20852295 167.44421387 110.00817871 C167.5017943 113.33073538 167.77265872 115.62579742 169.51171875 118.48828125 C173.04244598 120.63332276 176.33238456 120.57309795 180.34375 120.53125 C181.14985718 120.5350769 181.95596436 120.53890381 182.78649902 120.54284668 C184.48772432 120.5455639 186.18899153 120.5382159 187.89013672 120.52148438 C190.49150896 120.5000699 193.09011972 120.52129019 195.69140625 120.546875 C197.34636025 120.54423169 199.00131254 120.53910663 200.65625 120.53125 C201.43238647 120.53934692 202.20852295 120.54744385 203.00817871 120.55578613 C206.33073538 120.4982057 208.62579742 120.22734128 211.48828125 118.48828125 C213.63332276 114.95755402 213.57309795 111.66761544 213.53125 107.65625 C213.5350769 106.85014282 213.53890381 106.04403564 213.54284668 105.21350098 C213.5455639 103.51227568 213.5382159 101.81100847 213.52148438 100.10986328 C213.5000699 97.50849104 213.52129019 94.90988028 213.546875 92.30859375 C213.54423169 90.65363975 213.53910663 88.99868746 213.53125 87.34375 C213.53934692 86.56761353 213.54744385 85.79147705 213.55578613 84.99182129 C213.4982057 81.66926462 213.22734128 79.37420258 211.48828125 76.51171875 C207.95755402 74.36667724 204.66761544 74.42690205 200.65625 74.46875 C199.85014282 74.4649231 199.04403564 74.46109619 198.21350098 74.45715332 C196.51227568 74.4544361 194.81100847 74.4617841 193.10986328 74.47851562 C190.50849104 74.4999301 187.90988028 74.47870981 185.30859375 74.453125 C183.65363975 74.45576831 181.99868746 74.46089337 180.34375 74.46875 C179.17954529 74.45660461 179.17954529 74.45660461 177.99182129 74.44421387 C174.66926462 74.5017943 172.37420258 74.77265872 169.51171875 76.51171875 Z M232.51171875 76.51171875 C230.36667724 80.04244598 230.42690205 83.33238456 230.46875 87.34375 C230.4649231 88.14985718 230.46109619 88.95596436 230.45715332 89.78649902 C230.4544361 91.48772432 230.4617841 93.18899153 230.47851562 94.89013672 C230.4999301 97.49150896 230.47870981 100.09011972 230.453125 102.69140625 C230.45576831 104.34636025 230.46089337 106.00131254 230.46875 107.65625 C230.46065308 108.43238647 230.45255615 109.20852295 230.44421387 110.00817871 C230.5017943 113.33073538 230.77265872 115.62579742 232.51171875 118.48828125 C236.04244598 120.63332276 239.33238456 120.57309795 243.34375 120.53125 C244.14985718 120.5350769 244.95596436 120.53890381 245.78649902 120.54284668 C247.48772432 120.5455639 249.18899153 120.5382159 250.89013672 120.52148438 C253.49150896 120.5000699 256.09011972 120.52129019 258.69140625 120.546875 C260.34636025 120.54423169 262.00131254 120.53910663 263.65625 120.53125 C264.43238647 120.53934692 265.20852295 120.54744385 266.00817871 120.55578613 C269.33073538 120.4982057 271.62579742 120.22734128 274.48828125 118.48828125 C276.63332276 114.95755402 276.57309795 111.66761544 276.53125 107.65625 C276.5350769 106.85014282 276.53890381 106.04403564 276.54284668 105.21350098 C276.5455639 103.51227568 276.5382159 101.81100847 276.52148438 100.10986328 C276.5000699 97.50849104 276.52129019 94.90988028 276.546875 92.30859375 C276.54423169 90.65363975 276.53910663 88.99868746 276.53125 87.34375 C276.53934692 86.56761353 276.54744385 85.79147705 276.55578613 84.99182129 C276.4982057 81.66926462 276.22734128 79.37420258 274.48828125 76.51171875 C270.95755402 74.36667724 267.66761544 74.42690205 263.65625 74.46875 C262.85014282 74.4649231 262.04403564 74.46109619 261.21350098 74.45715332 C259.51227568 74.4544361 257.81100847 74.4617841 256.10986328 74.47851562 C253.50849104 74.4999301 250.90988028 74.47870981 248.30859375 74.453125 C246.65363975 74.45576831 244.99868746 74.46089337 243.34375 74.46875 C242.17954529 74.45660461 242.17954529 74.45660461 240.99182129 74.44421387 C237.66926462 74.5017943 235.37420258 74.77265872 232.51171875 76.51171875 Z M43.52539062 139.49804688 C41.32824168 143.10182126 41.44648351 146.50257304 41.50390625 150.59765625 C41.50245102 151.42833115 41.50099579 152.25900604 41.49949646 153.11485291 C41.50115362 154.86737584 41.51269452 156.61991361 41.53344727 158.37231445 C41.56243822 161.05677942 41.55404625 163.73927349 41.54101562 166.42382812 C41.5472522 168.12761377 41.55564251 169.83139319 41.56640625 171.53515625 C41.56347061 172.33832779 41.56053497 173.14149933 41.55751038 173.9690094 C41.60694502 176.88286667 41.68196523 179.36276351 42.99804688 181.99975586 C46.33107481 183.66505043 49.81812931 183.46783549 53.46484375 183.46875 C54.29456192 183.47636353 55.12428009 183.48397705 55.97914124 183.49182129 C57.73337801 183.502623 59.4876791 183.50547509 61.24194336 183.50097656 C63.92475784 183.50000462 66.60470833 183.5416125 69.28710938 183.5859375 C70.99218154 183.5911449 72.69726364 183.59383269 74.40234375 183.59375 C75.20349106 183.61014526 76.00463837 183.62654053 76.83006287 183.64343262 C80.54354448 183.59740791 82.58810545 183.33568924 85.50195312 180.9609375 C87.37040667 177.26787938 87.59415749 174.0826491 87.56640625 170.03125 C87.57260483 169.27332153 87.57880341 168.51539307 87.58518982 167.73449707 C87.59226989 166.13762695 87.58914558 164.54068273 87.57641602 162.94384766 C87.56253845 160.50675192 87.59665264 158.07349115 87.63476562 155.63671875 C87.63571684 154.08072823 87.63385786 152.52473293 87.62890625 150.96875 C87.64216446 150.24465942 87.65542267 149.52056885 87.66908264 148.77453613 C87.601503 145.08521457 87.07131996 143.10418594 84.97460938 140.04125977 C81.21436503 137.46087541 78.18631041 137.29306025 73.77734375 137.37109375 C72.99484756 137.36868179 72.21235138 137.36626984 71.40614319 137.36378479 C69.75793368 137.36476111 68.10969052 137.37810372 66.46166992 137.40307617 C63.94141237 137.43744664 61.42465213 137.42371258 58.90429688 137.40429688 C57.29946428 137.41119428 55.6946407 137.42086572 54.08984375 137.43359375 C53.33871811 137.42863388 52.58759247 137.42367401 51.81370544 137.41856384 C48.56059697 137.49171 46.3280436 137.80141323 43.52539062 139.49804688 Z M106.52539062 139.49804688 C104.32824168 143.10182126 104.44648351 146.50257304 104.50390625 150.59765625 C104.50245102 151.42833115 104.50099579 152.25900604 104.49949646 153.11485291 C104.50115362 154.86737584 104.51269452 156.61991361 104.53344727 158.37231445 C104.56243822 161.05677942 104.55404625 163.73927349 104.54101562 166.42382812 C104.5472522 168.12761377 104.55564251 169.83139319 104.56640625 171.53515625 C104.56347061 172.33832779 104.56053497 173.14149933 104.55751038 173.9690094 C104.60695745 176.88359959 104.68285269 179.36384347 105.99804688 182.00195312 C109.33267887 183.66438917 112.81904562 183.44691935 116.46484375 183.43359375 C117.29456192 183.4388356 118.12428009 183.44407745 118.97914124 183.44947815 C120.73339723 183.45589946 122.48769628 183.4545599 124.24194336 183.44604492 C126.924447 183.43754138 129.60481655 183.46628191 132.28710938 183.49804688 C133.99218686 183.49965917 135.69726812 183.49908081 137.40234375 183.49609375 C138.60406471 183.51294472 138.60406471 183.51294472 139.83006287 183.53013611 C143.22133831 183.48776365 145.58009031 183.25601051 148.50195312 181.47460938 C150.59457495 178.0178273 150.59233595 174.8369665 150.56640625 170.91015625 C150.57260483 170.12861679 150.57880341 169.34707733 150.58518982 168.54185486 C150.59228103 166.89192956 150.58912605 165.2419326 150.57641602 163.59204102 C150.56256154 161.0736856 150.59660976 158.55905655 150.63476562 156.04101562 C150.63571702 154.43489493 150.63385691 152.8287696 150.62890625 151.22265625 C150.64216446 150.47355484 150.65542267 149.72445343 150.66908264 148.95265198 C150.60267287 145.20400844 150.09761113 143.14335752 147.97460938 140.02539062 C144.21337679 137.46439379 141.17820088 137.29320378 136.77734375 137.37109375 C135.99484756 137.36868179 135.21235138 137.36626984 134.40614319 137.36378479 C132.75793368 137.36476111 131.10969052 137.37810372 129.46166992 137.40307617 C126.94141237 137.43744664 124.42465213 137.42371258 121.90429688 137.40429688 C120.29946428 137.41119428 118.6946407 137.42086572 117.08984375 137.43359375 C116.33871811 137.42863388 115.58759247 137.42367401 114.81370544 137.41856384 C111.56059697 137.49171 109.3280436 137.80141323 106.52539062 139.49804688 Z M168 142 C167.50401944 144.97626713 167.32032509 147.37174899 167.37109375 150.34375 C167.36868179 151.14985718 167.36626984 151.95596436 167.36378479 152.78649902 C167.3647626 154.48776172 167.37814072 156.18905649 167.40307617 157.89013672 C167.43739001 160.49166119 167.42373396 163.0897887 167.40429688 165.69140625 C167.41119556 167.3463686 167.42086815 169.0013222 167.43359375 170.65625 C167.42863388 171.43238647 167.42367401 172.20852295 167.41856384 173.00817871 C167.49081965 176.32776433 167.77472596 178.62973827 169.51391602 181.48828125 C173.04319717 183.63433928 176.33323646 183.57308906 180.34375 183.53125 C181.14985718 183.5350769 181.95596436 183.53890381 182.78649902 183.54284668 C184.48772432 183.5455639 186.18899153 183.5382159 187.89013672 183.52148438 C190.49150896 183.5000699 193.09011972 183.52129019 195.69140625 183.546875 C197.34636025 183.54423169 199.00131254 183.53910663 200.65625 183.53125 C201.43238647 183.53934692 202.20852295 183.54744385 203.00817871 183.55578613 C206.33010303 183.49821666 208.62474297 183.2281834 211.48608398 181.48828125 C213.63218768 177.96093262 213.5920372 174.66706398 213.56640625 170.65625 C213.57260483 169.85014282 213.57880341 169.04403564 213.58518982 168.21350098 C213.59228124 166.51230068 213.5891257 164.81103088 213.57641602 163.10986328 C213.56254341 160.50814113 213.59663248 157.91001246 213.63476562 155.30859375 C213.63571681 153.65364495 213.63385801 151.99869166 213.62890625 150.34375 C213.64216446 149.56761353 213.65542267 148.79147705 213.66908264 147.99182129 C213.60610503 144.33593153 213.30363243 142.37012579 210.95874023 139.51171875 C207.26234215 137.62310608 204.09104939 137.42335252 200.03125 137.46875 C199.27332153 137.4649231 198.51539307 137.46109619 197.73449707 137.45715332 C196.13760036 137.45444045 194.54065874 137.46175797 192.94384766 137.47851562 C190.50712506 137.49993736 188.07335024 137.47869611 185.63671875 137.453125 C184.0807227 137.45576839 182.52472847 137.46089361 180.96875 137.46875 C179.88261414 137.45660461 179.88261414 137.45660461 178.77453613 137.44421387 C173.93694139 137.53336118 171.11118516 138.20748724 168 142 Z M233.02539062 140.02539062 C230.46439379 143.78662321 230.29320378 146.82179912 230.37109375 151.22265625 C230.36868179 152.00515244 230.36626984 152.78764862 230.36378479 153.59385681 C230.36476111 155.24206632 230.37810372 156.89030948 230.40307617 158.53833008 C230.43744664 161.05858763 230.42371258 163.57534787 230.40429688 166.09570312 C230.41119428 167.70053572 230.42086572 169.3053593 230.43359375 170.91015625 C230.42863388 171.66128189 230.42367401 172.41240753 230.41856384 173.18629456 C230.49191526 176.44853185 230.79785386 178.66987035 232.51391602 181.47241211 C236.04060809 183.63940733 239.32656553 183.57315866 243.34375 183.53125 C244.14985718 183.5350769 244.95596436 183.53890381 245.78649902 183.54284668 C247.48772432 183.5455639 249.18899153 183.5382159 250.89013672 183.52148438 C253.49150896 183.5000699 256.09011972 183.52129019 258.69140625 183.546875 C260.34636025 183.54423169 262.00131254 183.53910663 263.65625 183.53125 C264.43238647 183.53934692 265.20852295 183.54744385 266.00817871 183.55578613 C269.33073538 183.4982057 271.62579742 183.22734128 274.48828125 181.48828125 C276.63332276 177.95755402 276.57309795 174.66761544 276.53125 170.65625 C276.5350769 169.85014282 276.53890381 169.04403564 276.54284668 168.21350098 C276.5455639 166.51227568 276.5382159 164.81100847 276.52148438 163.10986328 C276.5000699 160.50849104 276.52129019 157.90988028 276.546875 155.30859375 C276.54423169 153.65363975 276.53910663 151.99868746 276.53125 150.34375 C276.53934692 149.56761353 276.54744385 148.79147705 276.55578613 147.99182129 C276.49804841 144.66018872 276.23111045 142.37612238 274.47241211 139.51391602 C271.01939459 137.39955227 267.84291678 137.40762475 263.91015625 137.43359375 C263.12861679 137.42739517 262.34707733 137.42119659 261.54185486 137.41481018 C259.89192956 137.40771897 258.2419326 137.41087395 256.59204102 137.42358398 C254.0736856 137.43743846 251.55905655 137.40339024 249.04101562 137.36523438 C247.43489493 137.36428298 245.8287696 137.36614309 244.22265625 137.37109375 C243.09900414 137.35120644 243.09900414 137.35120644 241.95265198 137.33091736 C238.20400844 137.39732713 236.14335752 137.90238887 233.02539062 140.02539062 Z "
        fill="#0DA838" transform="translate(15,288)" />
    <path
        d="M0 0 C0.89267578 0.00322266 1.78535156 0.00644531 2.70507812 0.00976562 C4.09823242 0.02233398 4.09823242 0.02233398 5.51953125 0.03515625 C6.93008789 0.04192383 6.93008789 0.04192383 8.36914062 0.04882812 C10.69016837 0.06060999 13.01106769 0.07706067 15.33203125 0.09765625 C15.34137695 1.09619629 15.35072266 2.09473633 15.36035156 3.12353516 C15.4003887 6.84761267 15.46618391 10.57087592 15.53955078 14.29443359 C15.5676813 15.90239966 15.58893514 17.51050197 15.60302734 19.11865234 C15.62456816 21.43787992 15.67126997 23.7554832 15.72265625 26.07421875 C15.72388489 26.78695953 15.72511353 27.49970032 15.72637939 28.23403931 C15.87334364 33.3040057 17.00817511 36.27723573 20.33203125 40.09765625 C25.19512413 43.43816729 29.54764947 43.5391138 35.23828125 43.49609375 C36.08120728 43.49896393 36.9241333 43.50183411 37.79260254 43.50479126 C39.56763382 43.50682487 41.34268788 43.50134438 43.11767578 43.48876953 C45.82375534 43.47270538 48.52834151 43.48864169 51.234375 43.5078125 C52.96484702 43.50582994 54.69531812 43.50198601 56.42578125 43.49609375 C57.63071228 43.50520279 57.63071228 43.50520279 58.85998535 43.51449585 C63.72426697 43.4540496 67.20357875 42.93353488 71.33203125 40.09765625 C75.21147278 35.63864918 75.93151491 31.81224917 75.94140625 26.07421875 C75.9579425 25.32804291 75.97447876 24.58186707 75.99151611 23.81307983 C76.03977416 21.44951975 76.06131601 19.0866019 76.08203125 16.72265625 C76.11020975 15.11194724 76.14013981 13.50126786 76.171875 11.890625 C76.24880012 7.95934644 76.28951881 4.03005698 76.33203125 0.09765625 C84.91203125 0.09765625 93.49203125 0.09765625 102.33203125 0.09765625 C102.38810547 3.44083984 102.38810547 3.44083984 102.4453125 6.8515625 C102.49163117 9.02947348 102.54282683 11.20721959 102.59448242 13.38500977 C102.62757034 14.88913812 102.6556517 16.39338583 102.6784668 17.89770508 C102.71231291 20.07033769 102.76463745 22.24189238 102.8203125 24.4140625 C102.84649658 25.71802979 102.87268066 27.02199707 102.8996582 28.36547852 C103.46880897 33.27830049 104.61570368 37.48859915 108.33203125 40.97265625 C112.81248161 43.49290958 117.17223327 43.27554507 122.1640625 43.30078125 C123.03342941 43.30648132 123.90279633 43.3121814 124.79850769 43.3180542 C126.63852727 43.32749903 128.47856373 43.33403613 130.31860352 43.33789062 C133.12351269 43.34758362 135.92768504 43.37860635 138.73242188 43.41015625 C140.52213108 43.41668793 142.31184551 43.42193775 144.1015625 43.42578125 C144.9361348 43.43812805 145.77070709 43.45047485 146.63056946 43.4631958 C151.58197341 43.44440262 155.12108854 42.98817523 159.33203125 40.09765625 C162.73146834 36.07948469 162.80005213 32.01212638 162.84375 26.953125 C162.8617012 26.18333817 162.8796524 25.41355133 162.89814758 24.62043762 C162.95208512 22.17539861 162.98609198 19.73055293 163.01953125 17.28515625 C163.05271907 15.62171799 163.08721009 13.95830518 163.12304688 12.29492188 C163.21024316 8.22914143 163.27044871 4.16422722 163.33203125 0.09765625 C172.24203125 0.09765625 181.15203125 0.09765625 190.33203125 0.09765625 C190.38810547 3.69220703 190.38810547 3.69220703 190.4453125 7.359375 C190.49157168 9.68946268 190.54278918 12.01939252 190.59448242 14.34936523 C190.62766235 15.96417588 190.65571583 17.57910056 190.6784668 19.1940918 C190.7121415 21.52051217 190.76446088 23.84589408 190.8203125 26.171875 C190.82989738 27.2487281 190.82989738 27.2487281 190.8396759 28.34733582 C190.96796241 32.75656043 191.66964249 35.56453376 194.33203125 39.09765625 C199.16189111 43.32378363 203.77824137 43.26877072 209.9453125 43.30078125 C210.79248337 43.30648132 211.63965424 43.3121814 212.51249695 43.3180542 C214.30543776 43.32749827 216.09839588 43.33403583 217.89135742 43.33789062 C220.62384633 43.34758288 223.35557863 43.37860587 226.08789062 43.41015625 C227.8320268 43.41668803 229.57616833 43.42193782 231.3203125 43.42578125 C232.13301102 43.43812805 232.94570953 43.45047485 233.78303528 43.4631958 C238.71381563 43.44399472 242.043811 42.7958069 246.33203125 40.09765625 C250.34481535 35.66975656 250.51266497 31.32434146 250.6484375 25.5859375 C250.67960915 24.49360054 250.67960915 24.49360054 250.71141052 23.37919617 C250.77671871 21.0562775 250.83570362 18.73324719 250.89453125 16.41015625 C250.9377343 14.8339729 250.98134917 13.25780077 251.02539062 11.68164062 C251.13238085 7.8204265 251.23370086 3.95910022 251.33203125 0.09765625 C275.30752668 -0.78850169 275.30752668 -0.78850169 284.20703125 7.34765625 C297.29044288 21.78878041 292.33203125 41.61377202 292.33203125 60.09765625 C187.39203125 60.09765625 82.45203125 60.09765625 -25.66796875 60.09765625 C-25.66796875 16.91062617 -25.66796875 16.91062617 -18.484375 7.890625 C-13.50115282 2.97170246 -6.98579077 -0.04449548 0 0 Z "
        fill="#0DA738" transform="translate(40.66796875,214.90234375)" />
    <path
        d="M0 0 C13.56966886 11.69021334 20.75726129 26.54884029 22.1484375 44.33984375 C22.46915446 61.20421043 16.82506346 76.4991954 5.20068359 88.68041992 C-7.76538757 101.6266922 -22.50502854 106.06688655 -40.3996582 106.12719727 C-56.03032047 105.8902332 -68.82769459 99.76151223 -80.2421875 89.1796875 C-91.80644217 77.00872312 -97.7529111 61.56390703 -97.52783203 44.73413086 C-96.72726102 26.97660038 -88.82392373 12.69091056 -76.0546875 0.7421875 C-53.62146906 -17.01609106 -22.78129027 -16.83834498 0 0 Z M-6.4140625 23.62109375 C-7.20296875 24.17667969 -7.991875 24.73226562 -8.8046875 25.3046875 C-9.7534375 25.96082031 -10.7021875 26.61695313 -11.6796875 27.29296875 C-12.80551431 28.10823445 -13.9304376 28.92474862 -15.0546875 29.7421875 C-16.45001278 30.7363905 -17.8458809 31.72983194 -19.2421875 32.72265625 C-25.35451967 37.09324538 -31.44159817 41.4916874 -37.40625 46.0625 C-38.0859082 46.57780273 -38.76556641 47.09310547 -39.46582031 47.62402344 C-40.74699038 48.59812042 -42.02025139 49.5827347 -43.28417969 50.57910156 C-47.5242515 53.79084237 -47.5242515 53.79084237 -50.03759766 53.56030273 C-52.45623291 52.57932395 -53.62075346 51.43660227 -55.3671875 49.50390625 C-55.96789062 48.84841797 -56.56859375 48.19292969 -57.1875 47.51757812 C-58.11175781 46.48407227 -58.11175781 46.48407227 -59.0546875 45.4296875 C-60.86488596 43.4396053 -62.67658634 41.4508997 -64.48852539 39.46240234 C-65.76150947 38.06420346 -67.031583 36.66335508 -68.30078125 35.26171875 C-70.05369462 33.40796546 -70.05369462 33.40796546 -73.1171875 33.7421875 C-76.08281367 34.53576149 -76.08281367 34.53576149 -77.9921875 36.4921875 C-79.37098155 39.41198666 -78.94719891 40.67620271 -78.0546875 43.7421875 C-76.76922796 45.68704582 -76.76922796 45.68704582 -75.0546875 47.4296875 C-74.425625 48.11417969 -73.7965625 48.79867187 -73.1484375 49.50390625 C-72.11203125 50.61185547 -72.11203125 50.61185547 -71.0546875 51.7421875 C-69.5519123 53.40635229 -68.05199418 55.07310078 -66.5546875 56.7421875 C-65.41580078 57.99322266 -65.41580078 57.99322266 -64.25390625 59.26953125 C-62.84430486 60.85439391 -61.46798816 62.46988586 -60.13671875 64.12109375 C-59.55277344 64.84167969 -58.96882813 65.56226563 -58.3671875 66.3046875 C-57.61888672 67.26568359 -57.61888672 67.26568359 -56.85546875 68.24609375 C-54.1707089 70.47659922 -52.55256695 70.77970945 -49.0546875 70.7421875 C-46.20254853 69.3903945 -43.80126055 67.53395454 -41.3046875 65.6171875 C-40.56951904 65.07529785 -39.83435059 64.5334082 -39.0769043 63.97509766 C-37.51881011 62.82602174 -35.96576589 61.67007118 -34.41748047 60.5078125 C-31.35282049 58.21770908 -28.24926744 55.98433906 -25.14208984 53.75244141 C-22.88263971 52.12829492 -20.63047982 50.49441693 -18.37890625 48.859375 C-15.58701645 46.83764019 -12.77926218 44.8429518 -9.94921875 42.875 C-9.31072998 42.42850098 -8.67224121 41.98200195 -8.0144043 41.52197266 C-6.83655297 40.7003763 -5.6547298 39.88442857 -4.46801758 39.07568359 C-1.03586288 36.6739643 1.63297567 34.25036519 3.9453125 30.7421875 C3.77466402 27.48019264 3.77466402 27.48019264 1.9453125 24.7421875 C-2.1368728 22.79266667 -2.1368728 22.79266667 -6.4140625 23.62109375 Z "
        fill="#0CA838" transform="translate(475.0546875,338.2578125)" />
    <path
        d="M0 0 C10.23 0 20.46 0 31 0 C31 8.58 31 17.16 31 26 C39.58 26 48.16 26 57 26 C57 36.23 57 46.46 57 57 C48.42 57 39.84 57 31 57 C31 65.91 31 74.82 31 84 C20.77 84 10.54 84 0 84 C0 75.09 0 66.18 0 57 C-8.91 57 -17.82 57 -27 57 C-27 46.77 -27 36.54 -27 26 C-18.09 26 -9.18 26 0 26 C0 17.42 0 8.84 0 0 Z "
        fill="#0DA839" transform="translate(276,69)" />
    <path
        d="M0 0 C1.18722656 -0.00386719 2.37445313 -0.00773438 3.59765625 -0.01171875 C4.83386719 -0.00011719 6.07007813 0.01148438 7.34375 0.0234375 C9.19806641 0.00603516 9.19806641 0.00603516 11.08984375 -0.01171875 C12.27707031 -0.00785156 13.46429688 -0.00398437 14.6875 0 C16.31461914 0.00507568 16.31461914 0.00507568 17.97460938 0.01025391 C21.282808 0.45784034 22.47664452 1.07823532 24.84375 3.3984375 C25.34495544 5.86499023 25.34495544 5.86499023 25.34545898 8.83203125 C25.35483994 9.94328369 25.36422089 11.05453613 25.37388611 12.19946289 C25.36265213 13.39949951 25.35141815 14.59953613 25.33984375 15.8359375 C25.34129898 17.06755615 25.34275421 18.2991748 25.34425354 19.56811523 C25.34216649 22.84205914 25.32110254 26.11523608 25.29327393 29.38903809 C25.2812612 31.3965653 25.28288332 33.4035868 25.28979492 35.41113281 C25.30236323 39.26130275 25.29373023 43.11079228 25.27734375 46.9609375 C25.28027939 48.16097412 25.28321503 49.36101074 25.28623962 50.59741211 C25.27355545 51.70866455 25.26087128 52.81991699 25.24780273 53.96484375 C25.24239975 54.94396729 25.23699677 55.92309082 25.23143005 56.93188477 C24.84375 59.3984375 24.84375 59.3984375 23.50318909 61.21377563 C20.87751517 63.08822573 18.49295608 62.78775572 15.3125 62.796875 C14.02730469 62.80074219 12.74210937 62.80460937 11.41796875 62.80859375 C10.74942871 62.80230957 10.08088867 62.79602539 9.39208984 62.78955078 C7.3505567 62.77349104 5.31100292 62.78940421 3.26953125 62.80859375 C1.98433594 62.80472656 0.69914062 62.80085938 -0.625 62.796875 C-1.80513672 62.79349121 -2.98527344 62.79010742 -4.20117188 62.78662109 C-7.15625 62.3984375 -7.15625 62.3984375 -8.81568909 61.21377563 C-10.65329624 58.72535582 -10.54331542 57.04326831 -10.56030273 53.96484375 C-10.57298691 52.85359131 -10.58567108 51.74233887 -10.59873962 50.59741211 C-10.59580399 49.39737549 -10.59286835 48.19733887 -10.58984375 46.9609375 C-10.5950856 45.72931885 -10.60032745 44.4977002 -10.60572815 43.22875977 C-10.61380374 39.9549711 -10.6066689 36.68159991 -10.59539795 33.40783691 C-10.59375149 31.40025787 -10.60573817 29.39324406 -10.62280273 27.38574219 C-10.65339381 23.53553579 -10.65689312 19.68624558 -10.65234375 15.8359375 C-10.66357773 14.63590088 -10.67481171 13.43586426 -10.68638611 12.19946289 C-10.67700516 11.08821045 -10.66762421 9.97695801 -10.65795898 8.83203125 C-10.65779282 7.85290771 -10.65762665 6.87378418 -10.65745544 5.86499023 C-10.15625 3.3984375 -10.15625 3.3984375 -8.30421448 1.58309937 C-5.43000739 -0.0021054 -3.27329334 0.01021081 0 0 Z "
        fill="#0CA838" transform="translate(79.15625,183.6015625)" />
    <path
        d="M0 0 C1.19302734 -0.020625 2.38605469 -0.04125 3.61523438 -0.0625 C4.76185547 -0.06765625 5.90847656 -0.0728125 7.08984375 -0.078125 C8.66366821 -0.09214355 8.66366821 -0.09214355 10.26928711 -0.10644531 C13.54520977 0.31159918 14.72062528 0.94940629 17.0625 3.25 C17.56370544 5.76124573 17.56370544 5.76124573 17.56420898 8.79125977 C17.57358994 9.92576065 17.58297089 11.06026154 17.59263611 12.22914124 C17.57578514 14.06671242 17.57578514 14.06671242 17.55859375 15.94140625 C17.56004898 17.19759262 17.56150421 18.45377899 17.56300354 19.74803162 C17.56134207 22.40573612 17.55183111 25.06201441 17.52905273 27.71948242 C17.50063792 31.12844516 17.50341265 34.53651306 17.51614285 37.94554234 C17.52476138 41.19422166 17.50966015 44.44275505 17.49609375 47.69140625 C17.49902939 48.91847794 17.50196503 50.14554962 17.50498962 51.4098053 C17.48596336 53.10682838 17.48596336 53.10682838 17.46655273 54.83813477 C17.46114975 55.8372438 17.45574677 56.83635284 17.45018005 57.86573792 C17.25827843 59.04594765 17.25827843 59.04594765 17.0625 60.25 C12.00288043 63.62307971 6.06666867 62.61907315 0.125 62.625 C-1.80762695 62.66173828 -1.80762695 62.66173828 -3.77929688 62.69921875 C-5.01615234 62.70308594 -6.25300781 62.70695312 -7.52734375 62.7109375 C-8.66034912 62.71915527 -9.79335449 62.72737305 -10.96069336 62.73583984 C-14.66171975 62.13180126 -15.62036486 61.14574316 -17.9375 58.25 C-18.43197632 55.73912048 -18.43197632 55.73912048 -18.42333984 52.88647461 C-18.4294931 51.8153392 -18.43564636 50.7442038 -18.44198608 49.64060974 C-18.42042953 47.91391808 -18.42042953 47.91391808 -18.3984375 46.15234375 C-18.39752106 44.96653214 -18.39660461 43.78072052 -18.3956604 42.55897522 C-18.38962006 40.05319209 -18.37386129 37.54741632 -18.34912109 35.04174805 C-18.31260724 31.19878651 -18.30810177 27.35678877 -18.30859375 23.51367188 C-18.29876308 21.0807208 -18.2871063 18.64777628 -18.2734375 16.21484375 C-18.27121185 15.06169174 -18.26898621 13.90853973 -18.26669312 12.72044373 C-18.25393341 11.65246048 -18.24117371 10.58447723 -18.22802734 9.48413086 C-18.22040375 8.54355331 -18.21278015 7.60297577 -18.20492554 6.63389587 C-17.9375 4.25 -17.9375 4.25 -15.9375 1.25 C-10.79585643 -0.46388119 -5.38229988 0.02318708 0 0 Z "
        fill="#0CA839" transform="translate(173.9375,183.75)" />
    <path
        d="M0 0 C1.85431641 -0.0299707 1.85431641 -0.0299707 3.74609375 -0.06054688 C4.93332031 -0.05990234 6.12054688 -0.05925781 7.34375 -0.05859375 C8.97086914 -0.06137329 8.97086914 -0.06137329 10.63085938 -0.06420898 C14.24014858 0.56692523 15.22539719 1.61071039 17.5 4.4375 C18.00793457 6.94165039 18.00793457 6.94165039 18.01757812 9.78515625 C18.03018677 10.85306396 18.04279541 11.92097168 18.05578613 13.02124023 C18.04768921 14.16923096 18.03959229 15.31722168 18.03125 16.5 C18.0350769 17.68343994 18.03890381 18.86687988 18.04284668 20.08618164 C18.04556809 22.58773652 18.03819103 25.08931974 18.02148438 27.59082031 C18.00008003 31.42317049 18.02128045 35.25364574 18.046875 39.0859375 C18.04423177 41.51562914 18.03910689 43.94531962 18.03125 46.375 C18.03934692 47.52299072 18.04744385 48.67098145 18.05578613 49.85375977 C18.04317749 50.92166748 18.03056885 51.9895752 18.01757812 53.08984375 C18.01280457 54.49737915 18.01280457 54.49737915 18.00793457 55.93334961 C17.34540616 59.19965764 16.08740895 60.39860818 13.5 62.4375 C10.52319336 62.93920898 10.52319336 62.93920898 7.08984375 62.93359375 C5.23456055 62.93456055 5.23456055 62.93456055 3.34179688 62.93554688 C2.05337891 62.91556641 0.76496094 62.89558594 -0.5625 62.875 C-2.50092773 62.88563477 -2.50092773 62.88563477 -4.47851562 62.89648438 C-13.94974062 62.83225593 -13.94974062 62.83225593 -16.15270996 61.25184631 C-17.99965129 58.76463784 -17.88704217 57.0865448 -17.90405273 54.00390625 C-17.91673691 52.89265381 -17.92942108 51.78140137 -17.94248962 50.63647461 C-17.93955399 49.43643799 -17.93661835 48.23640137 -17.93359375 47 C-17.9388356 45.76838135 -17.94407745 44.5367627 -17.94947815 43.26782227 C-17.95755374 39.9940336 -17.9504189 36.72066241 -17.93914795 33.44689941 C-17.93750149 31.43932037 -17.94948817 29.43230656 -17.96655273 27.42480469 C-17.99714381 23.57459829 -18.00064312 19.72530808 -17.99609375 15.875 C-18.00732773 14.67496338 -18.01856171 13.47492676 -18.03013611 12.23852539 C-18.02075516 11.12727295 -18.01137421 10.01602051 -18.00170898 8.87109375 C-18.00154282 7.89197021 -18.00137665 6.91284668 -18.00120544 5.90405273 C-17.5 3.4375 -17.5 3.4375 -15.64796448 1.62315369 C-11.00652964 -0.93886928 -5.16619587 -0.02962886 0 0 Z "
        fill="#0DA739" transform="translate(261.5,183.5625)" />
    <path
        d="M0 0 C0 15.51 0 31.02 0 47 C-15.51 47 -31.02 47 -47 47 C-45.15430559 43.30861119 -43.70945413 41.45668845 -40.85742188 38.59863281 C-40.00313599 37.7380426 -39.1488501 36.87745239 -38.26867676 35.99078369 C-37.34470093 35.07085632 -36.4207251 34.15092896 -35.46875 33.203125 C-34.51203629 32.24506363 -33.5556196 31.28670557 -32.5994873 30.32806396 C-30.59869437 28.32432736 -28.59434051 26.32424111 -26.58740234 24.32666016 C-24.01137893 21.7620617 -21.44447901 19.18854789 -18.88014984 16.61226273 C-16.9089754 14.63387554 -14.93308003 12.660259 -12.95570374 10.6880722 C-11.54487229 9.2792281 -10.13807611 7.86634682 -8.73132324 6.45343018 C-7.87703735 5.60544861 -7.02275146 4.75746704 -6.14257812 3.88378906 C-5.38916138 3.1319635 -4.63574463 2.38013794 -3.85949707 1.60552979 C-2 0 -2 0 0 0 Z "
        fill="#0DA839" transform="translate(199,22)" />
    <path
        d="M0 0 C6.27 0 12.54 0 19 0 C19 6.27 19 12.54 19 19 C12.73 19 6.46 19 0 19 C0 12.73 0 6.46 0 0 Z "
        fill="#0CA839" transform="translate(259,439)" />
    <path
        d="M0 0 C6.27 0 12.54 0 19 0 C19 6.27 19 12.54 19 19 C12.73 19 6.46 19 0 19 C0 12.73 0 6.46 0 0 Z "
        fill="#0CA839" transform="translate(196,439)" />
    <path
        d="M0 0 C6.27 0 12.54 0 19 0 C19 6.27 19 12.54 19 19 C12.73 19 6.46 19 0 19 C0 12.73 0 6.46 0 0 Z "
        fill="#0DA839" transform="translate(133,439)" />
    <path
        d="M0 0 C6.27 0 12.54 0 19 0 C19 6.27 19 12.54 19 19 C12.73 19 6.46 19 0 19 C0 12.73 0 6.46 0 0 Z "
        fill="#0DA738" transform="translate(70,439)" />
    <path
        d="M0 0 C6.27 0 12.54 0 19 0 C19 6.27 19 12.54 19 19 C12.73 19 6.46 19 0 19 C0 12.73 0 6.46 0 0 Z "
        fill="#0CA839" transform="translate(259,376)" />
    <path
        d="M0 0 C6.27 0 12.54 0 19 0 C19 6.27 19 12.54 19 19 C12.73 19 6.46 19 0 19 C0 12.73 0 6.46 0 0 Z "
        fill="#0CA838" transform="translate(196,376)" />
    <path
        d="M0 0 C6.27 0 12.54 0 19 0 C19 6.27 19 12.54 19 19 C12.73 19 6.46 19 0 19 C0 12.73 0 6.46 0 0 Z "
        fill="#0DA838" transform="translate(133,376)" />
    <path
        d="M0 0 C6.27 0 12.54 0 19 0 C19 6.27 19 12.54 19 19 C12.73 19 6.46 19 0 19 C0 12.73 0 6.46 0 0 Z "
        fill="#0DA838" transform="translate(70,376)" />
    <path
        d="M0 0 C6.27 0 12.54 0 19 0 C19 6.27 19 12.54 19 19 C12.73 19 6.46 19 0 19 C0 12.73 0 6.46 0 0 Z "
        fill="#0DA739" transform="translate(259,313)" />
    <path
        d="M0 0 C6.27 0 12.54 0 19 0 C19 6.27 19 12.54 19 19 C12.73 19 6.46 19 0 19 C0 12.73 0 6.46 0 0 Z "
        fill="#0DA839" transform="translate(196,313)" />
    <path
        d="M0 0 C6.27 0 12.54 0 19 0 C19 6.27 19 12.54 19 19 C12.73 19 6.46 19 0 19 C0 12.73 0 6.46 0 0 Z "
        fill="#0DA839" transform="translate(133,313)" />
    <path
        d="M0 0 C6.27 0 12.54 0 19 0 C19 6.27 19 12.54 19 19 C12.73 19 6.46 19 0 19 C0 12.73 0 6.46 0 0 Z "
        fill="#0DA838" transform="translate(70,313)" />
</svg>
