<svg fill="none" height="21" viewBox="0 0 20 21" width="20" xmlns="http://www.w3.org/2000/svg">
    <path
        d="M17.3867 8.72021L18.2539 9.5874C18.6211 9.95459 18.6211 10.5483 18.2539 10.9116L10.6641 18.5054C10.2969 18.8726 9.70313 18.8726 9.33984 18.5054L1.74609 10.9116C1.37891 10.5444 1.37891 9.95068 1.74609 9.5874L2.61328 8.72021C2.98438 8.34912 3.58984 8.35693 3.95312 8.73584L8.4375 13.4429V2.21631C8.4375 1.69678 8.85547 1.27881 9.375 1.27881H10.625C11.1445 1.27881 11.5625 1.69678 11.5625 2.21631V13.4429L16.0469 8.73584C16.4102 8.35303 17.0156 8.34521 17.3867 8.72021Z"
        fill="white" />
</svg>
