<svg fill="none" height="12" viewBox="0 0 12 12" width="12" xmlns="http://www.w3.org/2000/svg">
    <path
        d="M5.56003 9.12502C5.46503 9.12502 5.37003 9.09002 5.29503 9.01502L4.54503 8.26502C4.40003 8.12002 4.40003 7.88002 4.54503 7.73502C4.69003 7.59002 4.93003 7.59002 5.07503 7.73502L5.57003 8.23002L6.93003 6.97502C7.08003 6.83502 7.32003 6.84502 7.46003 6.99502C7.60003 7.14502 7.59003 7.38502 7.44003 7.52502L5.81503 9.02502C5.74503 9.09002 5.65503 9.12502 5.56003 9.12502Z"
        fill="#676767" />
    <path
        d="M2.59494 3.19021C2.49994 3.19021 2.39994 3.15021 2.32994 3.08021C2.18494 2.93521 2.18494 2.69521 2.32994 2.55021L4.14494 0.735215C4.28994 0.590215 4.52994 0.590215 4.67494 0.735215C4.81994 0.880215 4.81994 1.12021 4.67494 1.26521L2.85994 3.08021C2.78494 3.15021 2.68994 3.19021 2.59494 3.19021Z"
        fill="#676767" />
    <path
        d="M9.40506 3.19021C9.31006 3.19021 9.21506 3.15521 9.14006 3.08021L7.32506 1.26521C7.18006 1.12021 7.18006 0.880215 7.32506 0.735215C7.47006 0.590215 7.71006 0.590215 7.85506 0.735215L9.67006 2.55021C9.81506 2.69521 9.81506 2.93521 9.67006 3.08021C9.60006 3.15021 9.50006 3.19021 9.40506 3.19021Z"
        fill="#676767" />
    <path
        d="M10.105 5.2998C10.07 5.2998 10.035 5.2998 10 5.2998H9.885H2C1.65 5.30481 1.25 5.3048 0.96 5.0148C0.73 4.7898 0.625 4.4398 0.625 3.9248C0.625 2.5498 1.63 2.5498 2.11 2.5498H9.89C10.37 2.5498 11.375 2.5498 11.375 3.9248C11.375 4.4448 11.27 4.7898 11.04 5.0148C10.78 5.2748 10.43 5.2998 10.105 5.2998ZM2.11 4.5498H10.005C10.23 4.55481 10.44 4.5548 10.51 4.4848C10.545 4.4498 10.62 4.3298 10.62 3.9248C10.62 3.3598 10.48 3.2998 9.885 3.2998H2.11C1.515 3.2998 1.375 3.3598 1.375 3.9248C1.375 4.3298 1.455 4.4498 1.485 4.4848C1.555 4.5498 1.77 4.5498 1.99 4.5498H2.11Z"
        fill="#676767" />
    <path
        d="M7.445 11.3749H4.43C2.64 11.3749 2.24 10.3099 2.085 9.38488L1.38 5.05988C1.345 4.85488 1.485 4.66488 1.69 4.62988C1.89 4.59488 2.085 4.73488 2.12 4.93988L2.825 9.25988C2.97 10.1449 3.27 10.6249 4.43 10.6249H7.445C8.73 10.6249 8.875 10.1749 9.04 9.30488L9.88 4.92988C9.92 4.72488 10.115 4.58988 10.32 4.63488C10.525 4.67488 10.655 4.86988 10.615 5.07488L9.775 9.44988C9.58 10.4649 9.255 11.3749 7.445 11.3749Z"
        fill="#676767" />
</svg>
