<svg width="18" height="18" viewBox="0 0 18 18" fill="none" xmlns="http://www.w3.org/2000/svg">
<circle cx="8.83179" cy="9.1416" r="8.5" fill="#FA5A7D"/>
<path fill-rule="evenodd" clip-rule="evenodd" d="M5.85659 5.31738C5.38715 5.31738 5.00659 5.69795 5.00659 6.16738V12.1174C5.00659 12.5868 5.38715 12.9674 5.85659 12.9674H11.8066C12.276 12.9674 12.6566 12.5868 12.6566 12.1174V6.16738C12.6566 5.69795 12.276 5.31738 11.8066 5.31738H5.85659ZM7.13159 9.56738C7.13159 9.33265 6.94131 9.14238 6.70659 9.14238C6.47187 9.14238 6.28159 9.33265 6.28159 9.56738V11.2674C6.28159 11.5021 6.47187 11.6924 6.70659 11.6924C6.94131 11.6924 7.13159 11.5021 7.13159 11.2674V9.56738ZM8.83159 7.86738C9.06631 7.86738 9.25659 8.05765 9.25659 8.29238V11.2674C9.25659 11.5021 9.06631 11.6924 8.83159 11.6924C8.59687 11.6924 8.40659 11.5021 8.40659 11.2674V8.29238C8.40659 8.05765 8.59687 7.86738 8.83159 7.86738ZM11.3816 7.01738C11.3816 6.78265 11.1913 6.59238 10.9566 6.59238C10.7219 6.59238 10.5316 6.78265 10.5316 7.01738V11.2674C10.5316 11.5021 10.7219 11.6924 10.9566 11.6924C11.1913 11.6924 11.3816 11.5021 11.3816 11.2674V7.01738Z" fill="white"/>
</svg>
