<svg width="12" height="12" viewBox="0 0 12 12" fill="none" xmlns="http://www.w3.org/2000/svg">
<g clip-path="url(#clip0_118_751)">
<path d="M4.03994 10.17L1.77493 10.495C1.73493 10.5 1.69994 10.495 1.65994 10.49C1.62494 10.48 1.58993 10.46 1.56493 10.43C1.53993 10.405 1.51994 10.37 1.50994 10.335C1.49994 10.3 1.49994 10.26 1.50994 10.22L1.83492 7.96001C1.86992 7.70001 1.98992 7.465 2.17492 7.28L7.42492 2.03C7.59492 1.86 7.78994 1.73 8.00994 1.64C8.22994 1.55 8.46494 1.5 8.69994 1.5C8.93494 1.5 9.16995 1.545 9.38995 1.64C9.60995 1.73 9.80994 1.865 9.97494 2.03C10.1449 2.2 10.2749 2.39501 10.3649 2.61501C10.4549 2.83501 10.5049 3.06999 10.5049 3.30499C10.5049 3.53999 10.4599 3.775 10.3649 3.995C10.2749 4.215 10.1399 4.415 9.97494 4.58L4.72494 9.825C4.53994 10.01 4.29994 10.13 4.04495 10.17H4.03994Z" stroke="#545454" stroke-width="1.5" stroke-miterlimit="10"/>
<path d="M5.76984 8.78535L3.21484 6.23535" stroke="#545454" stroke-width="1.5" stroke-miterlimit="10" stroke-linecap="round"/>
</g>
<defs>
<clipPath id="clip0_118_751">
<rect width="12" height="12" fill="white"/>
</clipPath>
</defs>
</svg>
