<svg fill="none" height="16" viewBox="0 0 16 16" width="16" xmlns="http://www.w3.org/2000/svg">
    <g clip-path="url(#clip0_92_1425)">
        <path
            d="M7 1.33536C6.54997 1.34146 6.2798 1.36751 6.06135 1.47882C5.81046 1.60665 5.60649 1.81063 5.47866 2.06151C5.36735 2.27996 5.3413 2.55013 5.3352 3.00016M13 1.33536C13.45 1.34146 13.7202 1.36751 13.9387 1.47882C14.1895 1.60665 14.3935 1.81063 14.5213 2.06151C14.6326 2.27996 14.6587 2.55013 14.6648 3.00015M14.6648 9.00016C14.6587 9.45019 14.6327 9.72036 14.5213 9.93882C14.3935 10.1897 14.1895 10.3937 13.9387 10.5215C13.7202 10.6328 13.45 10.6589 13 10.665M14.6667 5.33349V6.66683M9.33337 1.3335H10.6666M3.46667 14.6668H8.53333C9.28007 14.6668 9.65344 14.6668 9.93865 14.5215C10.1895 14.3937 10.3935 14.1897 10.5213 13.9388C10.6667 13.6536 10.6667 13.2802 10.6667 12.5335V7.46683C10.6667 6.72009 10.6667 6.34672 10.5213 6.06151C10.3935 5.81063 10.1895 5.60665 9.93865 5.47882C9.65344 5.3335 9.28007 5.3335 8.53333 5.3335H3.46667C2.71993 5.3335 2.34656 5.3335 2.06135 5.47882C1.81046 5.60665 1.60649 5.81063 1.47866 6.06151C1.33333 6.34672 1.33333 6.72009 1.33333 7.46683V12.5335C1.33333 13.2802 1.33333 13.6536 1.47866 13.9388C1.60649 14.1897 1.81046 14.3937 2.06135 14.5215C2.34656 14.6668 2.71993 14.6668 3.46667 14.6668Z"
            stroke="#71028C" stroke-linecap="round" stroke-linejoin="round"
            stroke-width="1.33333" />
    </g>
    <defs>
        <clipPath id="clip0_92_1425">
            <rect fill="white" height="16" width="16" />
        </clipPath>
    </defs>
</svg>
