<svg fill="none" height="17" viewBox="0 0 16 17" width="16" xmlns="http://www.w3.org/2000/svg">
    <path
        d="M14.653 7.64887L11.8343 10.1089L12.6787 13.7714C12.7233 13.9628 12.7106 14.1632 12.642 14.3475C12.5734 14.5317 12.452 14.6917 12.293 14.8073C12.134 14.923 11.9445 14.9892 11.7481 14.9977C11.5516 15.0062 11.3571 14.9566 11.1887 14.8551L7.99429 12.9176L4.80679 14.8551C4.6384 14.9566 4.44383 15.0062 4.2474 14.9977C4.05097 14.9892 3.86141 14.923 3.70241 14.8073C3.54341 14.6917 3.42203 14.5317 3.35345 14.3475C3.28486 14.1632 3.27211 13.9628 3.31679 13.7714L4.15992 10.1126L1.34054 7.64887C1.19142 7.52026 1.08359 7.35048 1.03058 7.16084C0.97756 6.97119 0.981716 6.77011 1.04252 6.58281C1.10333 6.39552 1.21808 6.23034 1.37239 6.108C1.5267 5.98567 1.71369 5.91161 1.90992 5.89512L5.62617 5.57324L7.07679 2.11324C7.15254 1.93169 7.28032 1.77661 7.44403 1.66753C7.60774 1.55845 7.80007 1.50024 7.99679 1.50024C8.19351 1.50024 8.38584 1.55845 8.54955 1.66753C8.71326 1.77661 8.84104 1.93169 8.91679 2.11324L10.3718 5.57324L14.0868 5.89512C14.283 5.91161 14.47 5.98567 14.6243 6.108C14.7786 6.23034 14.8934 6.39552 14.9542 6.58281C15.015 6.77011 15.0191 6.97119 14.9661 7.16084C14.9131 7.35048 14.8053 7.52026 14.6562 7.64887H14.653Z"
        fill="#E39233" />
</svg>
