<svg fill="none" height="20" viewBox="0 0 19 20" width="19" xmlns="http://www.w3.org/2000/svg">
    <g clip-path="url(#clip0_75_927)">
        <path
            d="M12.1389 14.2223C12.1389 14.3623 12.0833 14.4965 11.9843 14.5955C11.8853 14.6945 11.7511 14.7501 11.6111 14.7501H4.22221C4.1061 14.7501 3.99526 14.8557 3.90026 14.9243L2.1111 16.3334V7.889C2.1111 7.74902 2.1667 7.61478 2.26568 7.5158C2.36466 7.41682 2.4989 7.36122 2.63888 7.36122H4.6761V6.30566H2.63888C2.21895 6.30566 1.81622 6.47248 1.51929 6.76941C1.22236 7.06634 1.05554 7.46907 1.05554 7.889V17.389C1.05633 17.487 1.08439 17.5829 1.1366 17.6658C1.1888 17.7488 1.26307 17.8156 1.3511 17.8587C1.4359 17.8973 1.5294 17.9127 1.6221 17.9034C1.7148 17.8942 1.80339 17.8605 1.87888 17.8059L4.59693 15.8057H11.6903C11.8903 15.8116 12.0894 15.7764 12.2753 15.7022C12.4611 15.628 12.6298 15.5165 12.7708 15.3745C12.9118 15.2325 13.0222 15.063 13.0951 14.8767C13.1679 14.6903 13.2017 14.4909 13.1944 14.2909V13.6946H12.1389V14.2223Z"
            fill="#404040" />
        <path
            d="M16.3611 2.61133H7.38888C6.96895 2.61133 6.56622 2.77814 6.26929 3.07508C5.97236 3.37201 5.80554 3.77474 5.80554 4.19466V10.528C5.80554 10.9479 5.97236 11.3506 6.26929 11.6476C6.56622 11.9445 6.96895 12.1113 7.38888 12.1113H14.5403L17.063 14.0694C17.138 14.1248 17.2264 14.1594 17.3191 14.1696C17.4118 14.1798 17.5056 14.1653 17.5908 14.1274C17.6806 14.0847 17.7565 14.0174 17.8098 13.9333C17.863 13.8493 17.8914 13.7519 17.8917 13.6524V4.19466C17.8919 3.78372 17.7323 3.38879 17.4467 3.09333C17.1611 2.79787 16.7718 2.62503 16.3611 2.61133ZM16.8889 12.6074L15.0417 11.1666C14.9495 11.0951 14.8363 11.0561 14.7197 11.0558H7.38888C7.2489 11.0558 7.11466 11.0002 7.01568 10.9012C6.9167 10.8022 6.8611 10.668 6.8611 10.528V4.19466C6.8611 4.05469 6.9167 3.92044 7.01568 3.82147C7.11466 3.72249 7.2489 3.66688 7.38888 3.66688H16.3611C16.5022 3.67969 16.6337 3.74363 16.7309 3.84667C16.8281 3.94972 16.8843 4.08474 16.8889 4.22633V12.6074Z"
            fill="#404040" />
    </g>
    <defs>
        <clipPath id="clip0_75_927">
            <rect fill="white" height="19" transform="translate(0 0.5)" width="19" />
        </clipPath>
    </defs>
</svg>
