<svg fill="none" height="20" viewBox="0 0 20 20" width="20" xmlns="http://www.w3.org/2000/svg">
    <path
        d="M10.0233 14.3583C10.2078 14.3583 10.3633 14.295 10.49 14.1683C10.6167 14.0417 10.68 13.8861 10.68 13.7017C10.68 13.5172 10.6161 13.3617 10.4883 13.235C10.3617 13.1083 10.2061 13.045 10.0217 13.045C9.83722 13.045 9.68167 13.1086 9.555 13.2358C9.42833 13.3631 9.36528 13.5186 9.36583 13.7025C9.36583 13.8869 9.42917 14.0425 9.55583 14.1692C9.68361 14.2958 9.83944 14.3592 10.0233 14.3592M9.5925 11.5992H10.3975C10.4186 11.2369 10.4867 10.9425 10.6017 10.7158C10.7167 10.4897 10.9531 10.2008 11.3108 9.84917C11.6831 9.4775 11.9597 9.14444 12.1408 8.85C12.3219 8.55556 12.4128 8.215 12.4133 7.82833C12.4133 7.17167 12.1828 6.64833 11.7217 6.25833C11.26 5.86833 10.7139 5.67333 10.0833 5.67333C9.48389 5.67333 8.975 5.83611 8.55667 6.16167C8.13833 6.48778 7.83194 6.86222 7.6375 7.285L8.40417 7.6025C8.5375 7.29917 8.72833 7.03111 8.97667 6.79833C9.225 6.565 9.58333 6.44833 10.0517 6.44833C10.5917 6.44833 10.9861 6.59667 11.235 6.89333C11.4844 7.19 11.6092 7.51611 11.6092 7.87167C11.6092 8.16056 11.5311 8.41833 11.375 8.645C11.2194 8.87222 11.0167 9.10056 10.7667 9.33C10.2833 9.77556 9.96667 10.1533 9.81667 10.4633C9.66667 10.7733 9.59194 11.1519 9.5925 11.5992ZM10.0025 17.5C8.96583 17.5 7.99083 17.3033 7.0775 16.91C6.16472 16.5161 5.37056 15.9817 4.695 15.3067C4.01944 14.6317 3.48472 13.8383 3.09083 12.9267C2.69694 12.015 2.5 11.0403 2.5 10.0025C2.5 8.96472 2.69694 7.98972 3.09083 7.0775C3.48417 6.16472 4.01778 5.37056 4.69167 4.695C5.36556 4.01944 6.15917 3.48472 7.0725 3.09083C7.98583 2.69694 8.96083 2.5 9.9975 2.5C11.0342 2.5 12.0092 2.69694 12.9225 3.09083C13.8353 3.48417 14.6294 4.01806 15.305 4.6925C15.9806 5.36694 16.5153 6.16056 16.9092 7.07333C17.3031 7.98611 17.5 8.96083 17.5 9.9975C17.5 11.0342 17.3033 12.0092 16.91 12.9225C16.5167 13.8358 15.9822 14.63 15.3067 15.305C14.6311 15.98 13.8378 16.5147 12.9267 16.9092C12.0156 17.3036 11.0408 17.5006 10.0025 17.5ZM10 16.6667C11.8611 16.6667 13.4375 16.0208 14.7292 14.7292C16.0208 13.4375 16.6667 11.8611 16.6667 10C16.6667 8.13889 16.0208 6.5625 14.7292 5.27083C13.4375 3.97917 11.8611 3.33333 10 3.33333C8.13889 3.33333 6.5625 3.97917 5.27083 5.27083C3.97917 6.5625 3.33333 8.13889 3.33333 10C3.33333 11.8611 3.97917 13.4375 5.27083 14.7292C6.5625 16.0208 8.13889 16.6667 10 16.6667Z"
        fill="#404040" />
</svg>
