<svg fill="none" height="25" viewBox="0 0 24 25" width="24" xmlns="http://www.w3.org/2000/svg">
    <path
        d="M10.1992 3.84471C11.1288 3.09815 12.6029 3.05393 13.6162 3.71483L13.8125 3.85643L20.3564 9.09081V9.09178C20.6932 9.36646 20.9982 9.8092 21.1973 10.3301C21.3964 10.8511 21.4646 11.3864 21.3984 11.8164L20.1406 19.3418C19.9121 20.657 18.6203 21.75 17.2998 21.75H6.7002C5.44183 21.75 4.25554 20.8145 3.92383 19.5996L3.86914 19.3535L2.60938 11.8164V11.8144L2.58887 11.6484C2.55478 11.2498 2.62487 10.7847 2.79785 10.331C2.97081 9.87747 3.2282 9.48274 3.52051 9.20702L3.64746 9.09666L3.64941 9.09569L10.1992 3.84569V3.84471ZM12 14C11.1758 14 10.5 14.6758 10.5 15.5V18.5C10.5 19.3242 11.1758 20 12 20C12.8242 20 13.5 19.3242 13.5 18.5V15.5C13.5 14.6758 12.8242 14 12 14Z"
        stroke="#9CA3AF" stroke-width="1.5" />
</svg>
