<svg fill="none" height="20" viewBox="0 0 20 20" width="20" xmlns="http://www.w3.org/2000/svg">
    <path
        d="M1.66669 9.1665L4.00585 6.53567C4.31858 6.18374 4.70232 5.90205 5.13179 5.70915C5.56126 5.51625 6.02672 5.41651 6.49752 5.4165H6.66669M1.66669 16.2498H6.25002L9.58335 13.7498C9.58335 13.7498 10.2584 13.294 11.25 12.4998C13.3334 10.8332 11.25 8.19484 9.16669 9.58317C7.47002 10.714 5.83335 11.6665 5.83335 11.6665"
        stroke="#56596F" stroke-linecap="round" stroke-linejoin="round" stroke-width="1.5" />
    <path
        d="M6.66669 11.2498V5.83317C6.66669 5.39114 6.84228 4.96722 7.15484 4.65466C7.4674 4.3421 7.89133 4.1665 8.33335 4.1665H16.6667C17.1087 4.1665 17.5326 4.3421 17.8452 4.65466C18.1578 4.96722 18.3334 5.39114 18.3334 5.83317V10.8332C18.3334 11.2752 18.1578 11.6991 17.8452 12.0117C17.5326 12.3242 17.1087 12.4998 16.6667 12.4998H11.25"
        stroke="#56596F" stroke-width="1.5" />
    <path
        d="M16.25 8.3415L16.2583 8.33234M8.75 8.3415L8.75833 8.33234M12.5 9.99984C12.058 9.99984 11.634 9.82424 11.3215 9.51168C11.0089 9.19912 10.8333 8.7752 10.8333 8.33317C10.8333 7.89114 11.0089 7.46722 11.3215 7.15466C11.634 6.8421 12.058 6.6665 12.5 6.6665C12.942 6.6665 13.366 6.8421 13.6785 7.15466C13.9911 7.46722 14.1667 7.89114 14.1667 8.33317C14.1667 8.7752 13.9911 9.19912 13.6785 9.51168C13.366 9.82424 12.942 9.99984 12.5 9.99984Z"
        stroke="#56596F" stroke-linecap="round" stroke-linejoin="round" stroke-width="1.5" />
</svg>
