<svg fill="none" height="228" viewBox="0 0 343 228" width="343" xmlns="http://www.w3.org/2000/svg">
    <g clip-path="url(#clip0_2_282)">
        <path
            d="M33.973 108.134C33.1161 104.431 34.1243 100.942 35.2346 97.481C36.78 92.6637 39.103 88.1776 42.0465 84.1293C46.6712 77.7687 47.3371 70.9665 45.426 63.5972C43.2308 55.1323 43.1513 46.6051 45.0629 38.0774C45.7072 35.2034 46.8973 32.5267 48.472 30.031C52.5843 23.5132 58.6362 20.9563 66.1235 21.3849C68.4003 21.5153 70.6327 21.948 72.7725 22.7669C73.9868 23.2316 75.1753 23.7578 76.1395 24.6739C76.4212 25.4548 75.9388 26.0193 75.5514 26.5751C73.9362 28.8923 72.3631 31.2376 70.8029 33.5934C68.0017 38.5982 67.8443 43.9993 68.6246 49.4669C69.1362 53.052 70.1584 56.5454 71.18 60.0216C71.3232 60.5274 71.4094 61.0553 71.6875 61.5155C71.3288 60.8924 71.3143 60.1455 70.9868 59.5082C69.8326 55.8414 69.8295 51.9909 69.1687 48.2472C68.8839 46.6338 68.8764 45.0119 68.897 43.3845C68.9059 42.6827 68.904 41.951 69.2019 41.3276C70.2889 39.053 70.5529 36.6216 70.693 34.1595C72.6066 32.7711 73.9577 30.8258 75.594 29.1611C76.7398 27.9954 77.7697 26.7618 78.5869 25.3486C78.9174 24.7771 79.2589 24.2229 80.0126 24.166C80.8311 23.4889 81.6551 22.8185 82.4672 22.1339C91.6041 14.4321 101.68 12.9084 112.677 17.5379C114.083 18.1298 115.48 18.7636 116.815 19.4992C117.562 19.9112 118.088 19.8631 118.822 19.4543C123.726 16.7236 129.948 18.0055 133.168 22.3508C132.708 23.0363 131.978 23.0005 131.296 23.0066C130.302 23.0154 129.374 23.2715 128.468 23.6361C127.166 24.1601 127.087 24.3648 127.619 25.6858C126.942 29.4631 125.08 32.6115 122.495 35.3734C121.956 35.9499 121.824 36.667 121.698 37.4075C120.832 42.4861 118.121 46.3944 114.002 49.3504C110.772 51.6684 107.108 52.1046 103.27 51.5867C102.87 51.1653 102.765 51.9565 102.428 51.7976C100.305 51.6827 98.813 52.9407 97.5627 54.3496C95.3012 56.8982 94.9992 56.9752 92.6154 54.8322C91.4859 53.8169 90.1489 53.3364 88.687 54.2981C86.084 56.3364 85.4842 58.5957 86.7493 61.6318C87.5463 63.5447 88.7962 65.1271 90.3172 66.5119C91.0879 67.2036 91.2009 68.1166 91.1578 69.0697C90.9789 73.0228 90.4815 76.9406 89.7821 80.8312C89.0327 84.9995 88.0982 89.1269 86.8288 93.1702C86.5348 94.1067 86.5405 95.1017 86.1961 96.021C85.6398 96.6424 84.9889 96.2992 84.3849 96.1621C80.3805 95.2533 80.3254 95.2892 78.4904 98.914C77.1993 101.464 76.2917 104.124 75.9958 106.979C74.7874 109.009 73.3337 110.876 72.1504 112.931C69.65 117.273 67.9832 121.94 66.5942 126.72C66.0374 128.637 65.4929 130.561 65.0905 132.52C64.4986 134.648 64.3371 136.87 63.6836 138.983C62.8385 139.578 62.4982 138.781 62.1765 138.329C60.2117 135.567 58.0782 132.943 55.8987 130.352C51.5658 125.2 46.8642 120.413 41.9129 115.859C39.8988 114.006 37.8085 112.249 35.7216 110.486C34.6966 109.62 35.1617 108.394 34.768 107.388C34.3328 103.631 35.4686 100.121 36.5044 96.6081C37.1646 94.369 38.1782 92.2581 39.1542 90.1392C36.6521 95.9587 33.813 101.703 34.7898 108.36C34.7084 108.619 34.6654 108.987 34.3187 108.936C33.8714 108.869 34.1678 108.373 33.973 108.134Z"
            fill="#3F272B" />
        <path
            d="M295.012 124.336C290.276 116.461 284.741 109.183 278.669 102.306C270.353 92.8851 261.393 84.1046 252.255 75.4939C238.927 62.9351 225.715 50.2518 212.37 37.7114C204.244 30.0761 195.428 23.3682 185.361 18.4347C180.838 16.2181 176.098 14.6211 171.276 13.2327C170.898 13.1239 170.447 13.152 170.33 12.9602C173.808 12.9602 177.405 12.8132 180.987 12.9863C194.515 13.6403 207.828 15.8745 221.054 18.6944C222.072 18.9115 222.973 19.3048 223.833 19.8974C246.021 35.1895 266.259 52.7857 285.144 71.9884C300.514 87.617 314.836 104.164 328.39 121.389C328.789 121.896 329.183 122.408 329.579 122.918C329.052 123.445 328.449 123.185 327.88 123.053C325.759 122.561 323.66 121.989 321.594 121.299C317.879 120.058 314.04 119.424 310.154 119.201C308.022 119.078 305.925 119.616 303.969 120.549C302.924 121.046 301.914 121.611 300.909 122.182C297.286 123.824 294.21 126.219 291.445 129.054C290.763 129.754 290.167 130.511 289.614 131.312C289.343 131.613 289.024 131.797 288.603 131.74C282.166 131.631 275.882 129.795 269.41 130.048C268.206 130.095 267.006 130.108 265.82 130.336C265.37 130.361 264.913 130.43 264.499 130.164C264.199 129.803 264.096 129.333 263.825 128.955C262.616 127.33 260.76 126.444 259.261 125.024C259.828 124.597 260.391 124.768 260.903 124.768C271.811 124.756 282.718 124.766 293.626 124.734C294.072 124.733 294.763 125.178 295.012 124.336Z"
            fill="#323748" />
        <path
            d="M78.9992 216.568C67.58 216.226 56.1873 215.459 44.8113 214.425C40.9745 214.077 37.1405 213.696 33.3027 213.358C32.4938 213.287 32.0128 213.041 31.7118 212.175C23.6882 189.074 15.8704 165.91 10.0844 142.114C7.38098 130.996 4.89578 119.831 2.80766 108.579C2.7484 108.259 2.72472 107.933 2.68448 107.61C2.55631 107.209 2.39713 106.722 2.7836 106.465C3.10006 106.255 3.48011 106.585 3.79739 106.772C9.77615 110.299 15.309 114.435 20.5817 118.949C25.3206 123.007 29.7053 127.43 34.0017 131.932C40.3935 138.628 46.205 145.823 51.4677 153.451C56.596 160.883 61.3355 168.548 65.2963 176.684C69.2711 184.849 72.7319 193.224 75.7841 201.775C77.3641 206.202 78.8113 210.672 80.2783 215.136C80.7705 216.634 80.6892 216.732 78.9992 216.568Z"
            fill="#20181F" />
        <path
            d="M196.393 116.586C196.279 112.287 196.063 107.994 195.861 103.698C195.759 101.524 195.465 99.3547 195.529 97.1762C195.686 91.8354 194.955 86.5317 194.884 81.1959C194.858 79.2659 194.778 77.3099 194.677 75.3681C194.628 74.4158 195.019 74.1265 195.968 74.0261C200.915 73.5029 205.89 73.3013 210.832 72.6966C213.621 72.3554 216.446 72.3216 219.249 72.0897C223.288 71.7557 227.324 71.3699 231.36 71.0005C232.415 70.9039 233.487 71.1297 234.535 70.7741C234.948 70.6339 235.251 70.9289 235.324 71.3521C235.448 72.08 235.609 72.812 235.629 73.5457C235.746 77.9068 235.685 82.2779 235.961 86.628C236.231 90.8849 236.173 95.1499 236.488 99.4008C236.504 99.6153 236.642 99.8207 236.723 100.03C237.179 101.358 237.197 102.747 237.169 104.116C237.088 108.094 237.414 112.056 237.531 116.024C237.588 117.524 237.135 119.045 237.702 120.527C237.741 120.672 237.745 120.82 237.72 120.968C237.603 121.337 237.359 121.628 237.062 121.845C233.994 124.072 232.949 127.446 231.956 130.852C231.791 131.417 231.847 132.079 231.272 132.474C229.599 132.86 227.883 132.828 226.189 132.974C222.084 133.328 217.966 133.522 213.851 133.749C210.569 133.93 207.286 134.122 204.001 134.256C203.226 134.288 202.894 134.081 202.736 133.218C202.214 130.363 202.858 127.449 202.306 125.455C202.772 127.466 202.251 130.385 202.736 133.251C202.866 134.021 203.111 134.329 203.865 134.259C205.344 134.122 206.836 134.209 208.309 134.09C213.894 133.642 219.497 133.511 225.083 133.065C226.783 132.929 228.48 132.573 230.203 132.729C231.341 133.261 231.253 134.201 229.972 135.203C224.184 135.258 218.43 135.836 212.665 136.299C209.721 136.535 206.768 136.816 204.6 136.77C206.997 136.756 210.171 136.447 213.351 136.224C218.701 135.848 224.035 135.19 229.41 135.266C229.912 135.368 229.999 135.747 229.804 136.104C228.593 138.329 227.59 140.688 225.804 142.558C224.244 143.029 222.621 143.005 221.021 143.175C217.014 143.568 212.997 143.845 208.987 144.188C206.034 144.441 203.078 144.66 200.122 144.855C198.246 144.978 197.896 144.587 197.886 142.737C197.877 141.248 197.846 139.764 197.634 138.29C197.783 134.479 197.196 130.685 197.342 126.87C197.383 125.796 197.638 124.888 198.308 124.044C200.503 121.279 202.608 118.445 204.707 115.606C205.166 114.985 205.574 114.242 206.528 114.278C211.694 114.147 216.819 113.518 221.956 113.024C222.141 113.012 221.891 112.726 221.971 112.894C221.98 112.912 221.954 112.929 221.892 112.938C217.823 113.537 213.725 113.831 209.627 114.129C208.705 114.196 207.785 114.381 206.854 114.245C206.485 114.171 206.199 113.913 206.345 113.575C207.005 112.054 206.931 110.381 207.394 108.824C210.741 108.336 214.121 108.295 217.489 108.168C219.562 108.09 221.613 107.6 223.082 107.823C218.355 108.142 213.004 108.293 207.67 108.709C204.692 111.463 201.174 113.493 197.962 115.936C197.514 116.277 197.113 116.854 196.393 116.586Z"
            fill="#FBF1E9" />
        <path
            d="M63.434 139.145C63.8629 136.889 64.0232 134.577 64.8337 132.401C66.167 131.988 66.4873 132.939 66.6624 133.877C67.134 136.405 67.9246 138.818 68.8786 141.202C72.1007 149.253 76.7368 156.359 82.8963 162.449C85.4128 164.938 87.5618 167.74 89.8598 170.415C94.7468 176.104 100.108 181.286 106.128 185.768C115.733 192.92 126.517 197.47 138.058 200.385C140.269 200.943 142.492 201.358 144.745 201.659C145.146 201.713 145.611 201.685 145.731 202.234C145.8 204.127 146.508 205.9 146.777 207.756C146.543 206.236 146.107 204.757 145.838 203.243C145.761 202.813 145.623 202.438 146.029 202.116C146.973 201.946 147.876 202.087 148.753 202.452C149.598 203.879 149.599 205.458 149.572 207.042C148.642 210.871 146.768 214.228 144.428 217.353C144.122 217.761 143.826 218.17 143.354 218.403C140.503 218.327 137.652 218.251 134.801 218.175C134.152 216.721 134.163 215.132 133.816 213.727C133.895 215.149 134.547 216.61 134.469 218.167C128.631 218.052 122.792 217.962 116.954 217.814C111.161 217.668 105.37 217.467 99.5783 217.278C98.4211 217.24 97.2658 217.149 96.1096 217.082C95.0248 215.771 94.9094 214.085 94.4381 212.553C90.5645 199.968 86.7868 187.35 82.0055 175.07C77.3779 163.184 71.4179 152 64.2184 141.476C63.7594 140.805 62.8939 140.188 63.434 139.145Z"
            fill="#8771B0" />
        <path
            d="M289.423 131.05C292.379 127.097 296.038 124.023 300.595 122.073C303.976 120.718 307.19 121.666 310.275 122.99C314.319 124.727 317.743 127.42 320.95 130.428C326.573 135.701 331.25 141.738 335.486 148.147C335.997 148.921 336.545 149.676 336.782 150.596C335.988 153.303 334.921 155.905 333.774 158.476C327.39 158.407 322.21 161.107 317.806 165.524C311.108 172.24 306.849 180.327 304.533 189.489C297.657 193.944 290.333 197.519 282.769 200.623C281.735 200.851 281.97 200.136 282.094 199.631C282.396 198.413 282.642 197.176 283.038 195.986C286.233 186.368 289.432 176.751 293.311 167.383C296.745 159.09 300.585 150.987 304.953 143.142C305.766 141.681 306.434 140.141 307.305 138.709C307.549 138.308 307.676 137.853 307.689 137.381C307.778 134.207 307.231 131.173 305.595 128.409C304.009 125.728 301.449 124.88 298.243 125.905C295.518 126.776 293.481 128.724 291.368 130.544C290.846 130.994 290.336 131.93 289.423 131.05Z"
            fill="#4D5762" />
        <path
            d="M289.423 131.05C290.292 131.417 290.667 130.686 291.165 130.25C293.218 128.452 295.212 126.579 297.871 125.657C301.953 124.243 304.668 125.682 306.271 128.816C307.674 131.558 308.164 134.506 308.086 137.567C308.07 138.211 307.742 138.722 307.456 139.244C302.903 147.586 298.552 156.02 294.827 164.782C291.416 172.807 288.465 180.996 285.668 189.241C284.511 192.653 283.235 196.045 282.463 199.583C282.38 199.964 281.913 200.502 282.769 200.623C275.633 203.87 268.234 206.363 260.665 208.368C260.133 208.508 259.586 208.591 259.045 208.701C258.342 207.752 258.58 206.645 258.666 205.628C258.931 202.507 259.198 199.382 259.832 196.306C260.638 191.46 261.742 186.68 263.085 181.955C265.904 171.95 269.413 162.207 274.197 152.96C277.926 145.752 282.38 139.014 287.468 132.697C287.842 132.233 288.209 131.728 288.856 131.597C289.045 131.414 289.234 131.232 289.423 131.05Z"
            fill="#6C7182" />
        <path
            d="M260.203 196.149C259.714 199.814 259.116 203.467 259.025 207.174C259.013 207.682 259.038 208.192 259.045 208.701C255.139 209.874 251.134 210.628 247.154 211.48C245.026 211.936 242.874 212.277 240.732 212.669C239.611 212.99 239.257 212.241 238.958 211.399C238.095 208.965 236.937 206.712 235.053 204.885C232.517 202.426 229.311 201.814 225.984 201.557C223.922 201.397 221.918 201.895 219.923 202.297C206.462 205.006 193.062 208.004 179.688 211.114C170.967 213.142 162.25 215.184 153.663 217.737C152.728 218.015 151.921 217.878 151.662 216.853C150.854 213.658 149.698 210.551 149.244 207.267C149.089 205.714 148.935 204.162 148.78 202.609C149.227 202.048 149.872 202.139 150.45 202.17C154.953 202.415 159.294 201.413 163.623 200.416C171.708 198.555 179.634 196.125 187.501 193.502C188.29 193.239 189.069 192.919 189.93 192.974C192.267 193.385 194.644 193.274 196.989 193.357C200.689 193.488 204.391 193.736 208.095 193.716C215.508 193.676 222.902 194.227 230.311 194.349C235.352 194.432 240.401 194.6 245.435 194.891C249.875 195.148 254.328 194.975 258.756 195.423C259.308 195.479 260.024 195.304 260.203 196.149Z"
            fill="#1F151D" />
        <path
            d="M78.9992 216.568C79.4086 216.515 79.8178 216.461 80.3117 216.397C79.0354 212.503 77.8386 208.611 76.4848 204.774C74.0287 197.813 71.3782 190.929 68.4036 184.167C64.4457 175.169 59.7647 166.582 54.3696 158.376C48.6232 149.635 42.2537 141.396 35.139 133.72C26.9735 124.91 18.3141 116.684 8.29299 110C6.52486 108.82 4.68547 107.748 2.81875 106.589C2.76629 106.988 2.72539 107.299 2.68449 107.61C2.39118 105.576 2.09793 103.541 1.80463 101.507C1.88553 101.356 2.00162 101.24 2.15186 101.159C2.93475 100.842 3.75121 100.758 4.59112 100.759C9.10608 100.766 13.6259 100.812 18.004 99.4213C18.3047 99.3257 18.6404 99.2726 18.9293 99.5072C21.6196 101.067 24.42 102.435 27.009 104.171C31.3213 108.611 35.0856 113.506 38.7948 118.447C43.2896 124.435 47.5421 130.589 51.5362 136.924C57.6415 146.608 63.2639 156.563 68.1973 166.898C73.5699 178.152 78.3913 189.64 82.5433 201.408C84.107 205.841 85.5441 210.314 87.0585 214.762C87.2526 215.332 87.5005 215.891 87.5386 216.506C87.5366 216.656 87.4761 216.777 87.3589 216.869C84.5724 216.769 81.7858 216.668 78.9992 216.568Z"
            fill="#4D5762" />
        <path
            d="M63.4341 139.145C63.4077 139.751 63.7665 140.195 64.0817 140.649C70.801 150.334 76.4408 160.618 80.9648 171.502C84.8882 180.942 88.0375 190.662 91.0605 200.421C92.7776 205.964 94.4284 211.528 96.1094 217.082C93.1902 217.117 90.2719 217.106 87.359 216.869C87.3953 216.823 87.4314 216.776 87.4674 216.73C87.1826 214.403 86.167 212.296 85.4685 210.095C82.012 199.205 77.8582 188.579 73.3075 178.106C70.2149 170.989 66.9046 163.973 63.2533 157.127C57.7945 146.892 51.8593 136.938 45.253 127.404C40.2833 120.232 35.1159 113.201 29.358 106.63C29.1023 106.338 28.6582 106.092 28.934 105.574C30.3797 106.523 31.8321 107.463 33.2672 108.428C33.7021 108.721 33.999 108.865 33.973 108.133C34.1103 108.333 34.2476 108.532 34.3849 108.732C34.4311 108.607 34.4773 108.483 34.5235 108.359C34.7584 108.398 34.9673 108.454 34.796 108.766C35.0548 108.617 34.8246 108.436 34.8151 108.277C34.7983 107.996 34.8118 107.747 35.0696 107.576C35.125 107.649 35.2372 107.731 35.2276 107.795C34.8998 109.985 36.6584 110.849 37.944 111.922C43.2581 116.357 48.1812 121.188 52.8113 126.329C56.2856 130.187 59.6612 134.123 62.6199 138.402C62.8236 138.697 63.1596 138.899 63.4341 139.145Z"
            fill="#4D5763" />
        <path
            d="M149.244 207.267C150.336 209.538 150.656 212.042 151.396 214.42C151.71 215.431 151.569 216.801 152.371 217.383C153.259 218.027 154.361 217.058 155.352 216.783C169.167 212.955 183.16 209.873 197.142 206.751C205.933 204.788 214.681 202.501 223.606 201.323C230.406 200.425 235.816 202.773 238.674 209.584C238.962 210.269 239.286 210.951 239.456 211.668C239.631 212.404 240.067 212.643 240.732 212.669C236.979 213.509 233.167 214.01 229.368 214.567C205.46 218.074 181.417 219.145 157.282 218.589C152.641 218.483 147.998 218.463 143.355 218.403C144.888 215.917 146.721 213.625 147.926 210.925C148.46 209.729 148.619 208.417 149.244 207.267Z"
            fill="#4D4D5E" />
        <path
            d="M103.053 51.482C103.354 51.188 103.712 51.2135 104.091 51.2699C113.568 52.6778 120.537 44.178 121.394 36.996C121.487 36.2179 121.755 35.6096 122.283 35.0282C124.611 32.4648 126.667 29.7418 127.036 26.1206C127.065 25.8385 127.288 25.7628 127.534 25.7417C128.866 26.0232 129.628 27.068 130.389 28.0261C133.694 32.1882 135.039 36.991 134.876 42.2674C134.859 42.7975 134.593 43.2319 134.502 43.7255C134.001 44.2351 134.446 44.9828 134.052 45.5194C132.389 46.5992 131.914 48.1588 132.237 50.0401C132.313 50.4159 132.388 50.7918 132.464 51.1676C132.139 51.874 132.813 52.3922 132.814 53.0373C132.506 53.7688 133.257 54.3476 133.103 55.057C132.306 55.1526 131.733 55.5699 131.415 56.3038C130.389 58.6737 129.838 61.1007 130.313 63.7154C130.54 64.963 131.202 65.6734 132.334 66.0947C133.138 66.3938 134.052 66.5325 134.548 67.3777C133.893 68.4144 134.632 69.405 134.655 70.4196C134.668 70.9846 135.065 71.5712 134.524 72.0913C131.921 73.1005 129.198 73.1108 126.467 73.0556C124.457 72.9354 123.825 72.2596 124.639 70.4512C126.261 66.8457 125.601 63.5192 123.998 60.1748C123.708 59.5703 123.331 58.9262 123.656 58.1903C123.773 57.9995 123.935 57.8593 124.142 57.7731C126.143 58.1371 127.018 57.4416 127.176 55.3584C127.293 53.8256 127.293 53.8256 127.946 52.9696C124.721 51.865 121.432 52.9486 119.181 55.8585C118.566 56.3093 118.131 55.7845 117.673 55.5486C113.834 53.5749 109.224 54.3486 106.296 57.4615C105.095 58.7388 104.545 60.3102 104.296 61.9864C103.446 67.7107 105.706 72.6989 110.772 75.5385C113.388 77.0049 116.367 77.5532 119.4 76.9233C121.027 76.5854 122.038 75.2499 123.222 74.2203C123.567 73.9196 123.806 73.4862 124.306 73.3911C124.714 73.4002 125.005 73.6536 125.234 73.9333C126.89 75.9501 129.077 77.1908 131.406 78.2296C131.175 82.9752 128.919 85.2751 123.926 85.7201C122.052 85.8872 120.168 85.7828 118.331 85.275C118.358 85.2374 118.379 85.1918 118.414 85.1645C118.448 85.1379 118.496 85.1299 118.539 85.1138C112.795 83.2966 107.523 80.5079 102.465 77.2749C101.526 76.6747 100.654 75.9985 99.8806 75.1971C99.6678 75.0415 99.4809 74.8385 99.1683 75.018C98.4486 75.4315 98.2248 74.9156 98.0161 74.3792C97.6831 72.9238 98.112 71.6295 98.8805 70.4244C100.06 68.574 100.877 66.5763 101.368 64.4404C101.608 63.1761 101.631 61.9151 101.328 60.6572C100.576 57.3482 100.87 54.2362 103.053 51.482Z"
            fill="#F9A57D" />
        <path
            d="M295.012 124.336C295.311 124.664 295.126 124.849 294.797 124.885C294.337 124.934 293.87 124.918 293.406 124.918C282.17 124.919 270.934 124.919 259.68 124.919C261.286 126.27 263.333 127.088 264.338 129.078C263.571 132.395 262.198 135.504 261.061 138.694C258.788 145.066 256.235 151.332 253.814 157.648C255.993 152.52 257.987 147.319 259.964 142.11C261.316 138.545 262.552 134.937 263.974 131.398C264.143 130.975 264.211 130.486 264.665 130.229C264.912 130.012 265.163 130.016 265.416 130.219C267.523 131.29 268.306 133.297 267.753 135.089C264.924 144.263 261.433 153.164 257.355 161.848C256.031 164.669 254.666 167.467 253.259 170.245C252.617 171.514 252.297 171.592 251.092 170.855C245.511 167.442 239.607 167.324 233.512 169.08C233.289 169.144 233.077 169.243 232.854 169.308C232.462 169.422 232.037 169.656 231.698 169.244C231.39 168.869 231.532 168.437 231.709 168.056C232.588 166.157 233.447 164.25 234.265 162.325C234.864 160.913 235.504 159.517 236.032 158.076C236.47 157.294 237.279 156.982 238.001 156.591C240.621 155.173 243.094 153.536 245.454 151.72C246.812 150.675 247.86 149.419 248.433 147.775C248.955 146.277 249.668 144.896 250.674 143.632C251.957 142.018 252.379 140.038 252.535 138.018C252.585 137.371 252.524 136.642 251.897 136.268C251.251 135.883 250.776 136.478 250.28 136.774C249.683 137.132 249.166 137.61 248.591 138.004C248.216 138.26 247.863 138.621 247.337 138.375C246.934 137.719 247.472 137.342 247.792 136.927C249.237 135.054 250.689 133.183 251.683 131.02C252.159 129.986 252.55 128.89 251.26 128.077C248.739 126.5 248.706 126.492 249.475 123.545C249.656 122.852 249.43 121.908 250.378 121.538C250.637 122.022 251.147 121.989 251.576 122.124C253.208 122.635 254.903 123.005 256.455 123.697C258.244 124.495 260.045 124.705 261.966 124.697C272.523 124.655 283.081 124.68 293.639 124.661C294.098 124.66 294.673 124.934 295.012 124.336Z"
            fill="#4C5562" />
        <path
            d="M250.378 121.538C250.033 122.945 249.687 124.351 249.343 125.758C249.194 126.366 249.528 126.673 250.016 126.943C250.523 127.225 251.16 127.322 251.482 127.893C250.966 128.74 249.997 128.878 249.236 129.342C247.092 130.134 245.21 131.44 243.174 132.447C241.18 133.433 239.001 133.669 236.906 134.237C236.108 134.452 235.888 133.933 236.211 133.254C236.61 132.416 237.027 131.584 237.509 130.789C238.113 129.795 238.6 128.742 239.103 127.695C240.225 125.356 240.317 123.052 238.99 120.761C238.873 120.559 238.807 120.335 238.795 120.098C240.672 113.258 242.022 106.305 243.19 99.3128C243.236 99.1331 242.948 99.2807 243.132 99.2589C243.207 99.2501 243.239 99.286 243.222 99.3653C242.705 101.779 241.687 104.023 240.844 106.323C239.821 109.117 238.949 111.955 238.073 114.794C237.912 115.318 237.856 115.904 237.307 116.222C237.023 116.135 237.029 115.9 237.022 115.669C236.88 110.866 236.733 106.063 236.602 101.259C236.591 100.851 236.68 100.44 236.723 100.03C238.218 96.5493 239.983 93.2135 242.121 90.0856C242.67 89.2821 243.33 88.5556 243.9 87.7655C245.447 85.6215 247.545 85.2008 249.95 85.8303C252.17 86.4117 253.305 87.9972 253.772 90.166C254.726 94.6003 254.413 99.0484 253.876 103.488C253.139 109.586 251.797 115.57 250.378 121.538Z"
            fill="#1F151D" />
        <path
            d="M1.80464 101.507C0.71124 94.218 -0.0423925 86.9262 1.29128 79.573C1.50373 78.4018 2.01738 77.8626 3.15425 77.5304C6.62946 76.515 10.1451 76.0502 13.7469 76.4246C18.0335 76.8701 20.9383 79.2847 22.6421 83.1232C24.1585 86.5396 24.6781 90.1534 24.2238 93.8987C24.0037 95.7133 23.4083 97.2317 21.647 98.0563C20.2046 98.5377 18.8528 99.2464 17.3965 99.7032C14.6742 100.557 11.8744 100.674 9.06029 100.711C6.80291 100.741 4.54091 100.698 2.31529 101.183C2.17685 101.213 2.05909 101.284 1.94319 101.361C1.89558 101.408 1.84935 101.457 1.80464 101.507Z"
            fill="#4A535F" />
        <path
            d="M336.782 150.596C335.668 149.008 334.524 147.441 333.445 145.83C328.497 138.448 322.78 131.769 315.603 126.469C311.854 123.699 307.767 121.666 302.926 121.819C302.147 121.843 301.371 121.985 300.595 122.073C303.848 119.801 307.32 118.648 311.417 118.902C317.261 119.266 322.615 121.496 328.221 122.736C328.676 122.837 329.112 122.957 329.579 122.918C331.496 123.943 333.666 124.038 335.717 124.561C337.605 125.042 339.544 125.313 341.495 125.385C342.194 125.41 342.504 125.561 342.4 126.338C341.291 134.602 339.686 142.75 336.782 150.596Z"
            fill="#1F181F" />
        <path
            d="M75.7773 107.034C75.6942 103.589 77.1949 100.647 78.7321 97.7198C80.2371 94.8543 80.3995 94.8048 83.6002 95.5418C84.4028 95.7266 85.1445 96.1789 86.0059 96.1063C85.7759 98.2023 87.191 99.0074 88.7845 99.6861C89.597 100.032 90.4225 100.342 91.251 100.649C95.8499 102.088 100.471 103.449 105.225 104.261C106.32 104.449 107.505 104.748 108.573 104.035C108.836 103.698 108.967 103.299 109.122 102.91C109.384 102.249 109.818 101.939 110.536 102.248C112.317 102.984 114.091 103.737 115.882 104.446C116.539 104.706 116.627 105.109 116.511 105.75C116.291 106.971 116.184 108.212 115.975 109.436C115.886 109.959 115.839 110.434 116.174 110.879C116.006 112.021 115.245 112.618 114.228 112.934C113.575 113.137 112.893 113.237 112.218 113.355C111.228 113.528 110.711 113.179 110.82 112.115C110.88 111.057 111.14 110.028 111.256 108.976C111.153 110.118 110.832 111.226 110.762 112.374C110.532 113.36 109.747 113.599 108.907 113.738C107.508 113.97 106.111 114.218 104.712 114.446C104.123 114.542 103.547 114.685 103.037 115.018C101.807 115.357 100.663 114.786 99.4771 114.663C96.1166 114.313 92.7363 114.234 89.3792 113.838C85.371 113.366 81.7991 111.81 78.4942 109.567C77.9632 109.206 77.4668 108.77 77.1155 108.209C78.9061 105.535 80.9988 103.08 82.5621 100.691C80.8827 102.863 79.2653 105.546 77.1361 107.836C76.3847 108.076 76.0209 107.657 75.7773 107.034Z"
            fill="#8771B0" />
        <path
            d="M132.493 124.034C151.289 124.043 170.085 124.053 188.882 124.062C188.654 125.479 187.215 125.706 186.432 126.579C185.885 127.066 185.329 127.53 184.517 127.356C180.482 126.778 176.837 128.23 173.17 129.551C169.376 131.004 165.557 132.387 161.833 134.034C157.82 135.809 154.142 138.045 150.879 140.976C150.673 141.161 150.467 141.349 150.218 141.477C149.356 141.735 148.966 141.091 148.526 140.569C146.945 138.695 145.394 136.794 143.514 135.201C140.766 132.182 137.762 129.436 134.702 126.74C133.839 125.98 132.706 125.361 132.493 124.034Z"
            fill="#323748" />
        <path
            d="M132.493 124.034C134.856 126.709 137.743 128.826 140.256 131.34C141.426 132.512 142.759 133.53 143.693 134.931C143.77 135.004 143.801 135.082 143.784 135.164C143.767 135.247 143.747 135.289 143.725 135.289C143.073 135.732 142.478 135.379 141.883 135.141C141.24 134.883 140.747 135.006 140.281 135.55C139.109 136.917 138.261 138.225 138.653 140.285C138.964 141.92 138.519 143.697 139.366 145.301C139.517 145.587 139.49 145.971 139.139 146.159C138.766 146.36 138.522 146.085 138.324 145.826C137.608 144.89 136.603 144.275 135.727 143.528C133.89 141.96 133.52 140.525 134.672 138.45C135.008 137.843 135.149 137.235 134.855 136.586C134.623 136.072 134.566 135.512 134.392 134.984C134.793 136.875 134.558 137.3 132.836 137.67C132.457 137.751 132.187 138.029 131.821 138.11C131.354 138.049 131.108 137.697 130.872 137.355C127.956 133.127 124.549 129.324 120.836 125.794C116.171 121.359 111.035 117.681 104.773 115.818C104.137 115.628 103.366 115.586 103.017 114.837C103.897 113.606 105.342 114.153 106.491 113.755C107.384 113.446 108.362 113.339 109.311 113.257C109.978 113.2 110.256 112.821 110.489 112.307C110.624 112.366 110.663 112.473 110.642 112.611C110.758 112.549 110.677 112.445 110.691 112.362C110.728 112.126 110.803 111.95 111.095 112.042C110.998 112.98 111.281 113.144 112.268 112.97C113.846 112.693 115.283 112.358 116.174 110.879C119.952 113.415 123.332 116.459 126.88 119.288C128.798 120.817 130.455 122.651 132.493 124.034Z"
            fill="#8771B0" />
        <path
            d="M304.533 189.489C303.932 189.132 304.307 188.674 304.425 188.264C306.499 181.053 309.721 174.43 314.494 168.61C317.615 164.805 321.165 161.532 325.778 159.607C327.93 158.708 330.188 158.258 332.51 158.139C332.951 158.117 333.455 157.981 333.774 158.476C331.507 163.774 328.369 168.512 324.573 172.824C318.76 179.427 311.979 184.86 304.533 189.489Z"
            fill="#1F171F" />
        <path
            d="M186.337 126.323C187.065 125.433 188.209 125.015 188.881 124.062C189.725 123.892 190.276 123.255 190.699 122.632C192.28 120.306 194.315 118.43 196.393 116.586C199.843 114.147 203.295 111.712 206.736 109.261C206.911 109.137 206.997 108.889 207.124 108.698C207.23 108.723 207.279 108.768 207.27 108.834C207.26 108.911 207.241 108.949 207.213 108.949C207.79 110.111 207.55 111.225 207.109 112.374C206.909 112.895 206.465 113.377 206.638 114.014C206.83 114.364 206.513 114.423 206.329 114.558C205.193 115.062 204.775 116.219 204.08 117.108C202.144 119.587 200.314 122.151 198.374 124.628C197.873 125.267 197.677 125.884 197.702 126.659C197.824 130.412 197.923 134.165 198.031 137.918C197.887 138.251 197.585 138.371 197.274 138.458C194.754 139.167 192.247 139.915 189.764 140.746C189.413 140.863 189.044 140.891 188.674 140.807C188.02 140.622 187.935 140.043 187.787 139.512C186.965 136.554 186.498 133.541 186.484 130.471C186.477 129.085 186.382 127.705 186.337 126.323Z"
            fill="#F8A87F" />
        <path
            d="M110.536 102.248C109.908 102.238 109.467 102.432 109.415 103.16C109.385 103.579 109.219 103.963 108.86 104.227C108.358 104.673 107.803 104.44 107.271 104.331C104.53 103.769 101.949 102.719 99.3723 101.673C98.1754 101.187 98.1677 100.868 99.1236 99.899C100.228 98.7787 101.461 97.7796 102.251 96.3691C103.966 93.3075 104.142 90.2041 102.544 87.0535C101.364 84.7279 99.7583 82.6676 98.3753 80.4681C98.0557 79.9598 97.616 79.524 97.4807 78.9081C97.6866 77.4618 97.6407 75.9662 98.3169 74.6124C98.5229 74.674 98.6044 75.2574 98.9627 74.7058C99.3216 74.1533 99.6855 74.402 99.9623 74.8529C101.783 78.3253 104.87 80.3236 108.243 81.9768C109.491 82.5886 110.773 83.1277 112.117 83.5064C112.403 83.5869 112.801 83.5968 112.746 84.0779C112.012 83.9808 111.82 84.4123 111.712 85.0418C110.856 90.059 110.201 95.1019 109.757 100.172C109.688 100.964 109.462 101.865 110.536 102.248Z"
            fill="#EB8568" />
        <path
            d="M134.502 43.7255C134.449 41.5258 134.604 39.3207 134.139 37.1366C133.177 32.608 131.272 28.6453 127.534 25.7418C126.318 24.8629 126.409 24.2462 127.73 23.5102C129.438 22.5584 131.378 22.8355 133.168 22.3509C133.528 22.6322 133.857 22.9722 134.254 23.186C140.14 26.359 141.118 34.5 139.116 38.9058C138.128 41.0797 136.518 42.5796 134.502 43.7255Z"
            fill="#321E23" />
        <path
            d="M28.934 105.574C31.0185 108.111 33.153 110.609 35.1791 113.193C44.3592 124.901 52.5163 137.291 59.8285 150.253C67.0517 163.057 73.1596 176.376 78.5837 190.034C81.8766 198.325 84.7725 206.748 87.4723 215.244C87.6217 215.715 88.111 216.241 87.4673 216.73C86.1965 213.889 85.4077 210.878 84.4278 207.937C80.551 196.301 76.0084 184.934 70.9931 173.746C65.6278 161.776 59.4193 150.262 52.5311 139.121C45.9884 128.538 38.7497 118.441 30.8189 108.852C29.726 107.531 28.5064 106.315 27.3758 105.024C27.1844 104.805 26.598 104.678 27.0091 104.171C27.7615 104.486 28.3392 105.041 28.934 105.574Z"
            fill="#1D191E" />
        <path
            d="M134.548 67.3777C133.699 67.0412 132.869 66.6397 131.996 66.3817C130.224 65.8573 129.943 64.3787 129.798 62.9045C129.558 60.4649 130.094 58.12 131.181 55.9464C131.502 55.3041 131.945 54.2066 133.103 55.0571C134.45 57.7055 136.1 60.1445 138.065 62.3747C138.605 62.9878 138.718 63.7649 138.142 64.4033C137.095 65.5657 136.056 66.764 134.548 67.3777Z"
            fill="#F68968" />
        <path
            d="M126.456 72.6769C129.031 72.6486 131.633 72.8403 134.085 71.7769C134.431 71.6269 134.453 71.8823 134.524 72.0916C134.452 72.2069 134.404 72.3536 134.303 72.4334C133.049 73.4253 131.623 74.2186 132.797 76.312C133.284 77.1789 132.14 77.7641 131.406 78.2295C128.314 77.7998 126.356 75.6856 124.437 73.5138C123.933 73.0418 124.153 72.8077 124.715 72.775C125.295 72.7412 125.886 72.9168 126.456 72.6769Z"
            fill="#D33439" />
        <path
            d="M112.746 84.0779C108.657 82.7998 104.803 81.0679 101.782 77.9166C100.97 77.0704 99.9075 76.2644 99.9624 74.8532C104.396 78.7917 109.771 81.0837 115.064 83.5158C116.194 84.0353 117.378 84.4365 118.528 84.9152C118.58 84.937 119.147 84.783 118.729 85.1871C118.646 85.2678 118.466 85.2483 118.331 85.2751C116.435 85.0384 114.588 84.5731 112.746 84.0779Z"
            fill="#B64029" />
        <path
            d="M70.7245 33.2859C71.9737 30.862 73.7442 28.7827 75.1915 26.4897C75.5567 25.911 76.0555 25.4004 76.1385 24.6734C77.3368 23.7771 78.5877 23.2915 80.0143 24.1655C78.8248 24.9907 78.5111 26.4563 77.5928 27.4804C75.9336 29.3305 74.2856 31.1907 72.629 33.0431C72.1914 33.5324 71.7286 33.986 70.9815 33.8397C70.4317 33.8717 70.7319 33.507 70.7245 33.2859Z"
            fill="#F9B13D" />
        <path
            d="M1.9433 101.361C2.32963 100.501 3.16982 100.677 3.83514 100.615C6.27392 100.39 8.71992 100.255 11.1734 100.324C14.4253 100.415 17.4693 99.5932 20.3932 98.2122C20.7519 98.0428 21.1733 97.6124 21.6471 98.0563C20.9262 98.8884 19.8712 99.091 18.9294 99.5071C15.628 100.696 12.1991 101.086 8.71802 101.122C6.45735 101.146 4.19412 101.068 1.9433 101.361Z"
            fill="#23212A" />
        <path
            d="M132.814 53.0373C132.323 52.4847 131.331 52.0263 132.464 51.1681C133.353 52.1912 134.615 51.9878 135.779 52.1189C135.265 53.4677 134.72 53.6278 132.814 53.0373Z"
            fill="#31262C" />
        <path
            d="M132.237 50.0401C132.108 49.9952 131.896 49.9835 131.863 49.9003C131.372 48.6607 132.412 46.008 133.591 45.4122C133.8 45.3064 133.928 45.3576 134.052 45.5199C133.405 47.0092 132.685 48.4696 132.237 50.0401Z"
            fill="#322021" />
        <path
            d="M134.469 218.167C133.859 216.665 133.681 215.062 133.414 213.483C133.357 213.144 133.308 212.604 133.769 212.565C134.274 212.522 134.17 213.058 134.213 213.401C134.41 214.992 134.605 216.584 134.801 218.175C134.691 218.172 134.58 218.17 134.469 218.167Z"
            fill="white" />
        <path
            d="M103.017 114.837C107.385 116.272 111.635 117.931 115.362 120.741C120.351 124.503 124.724 128.877 128.621 133.754C129.722 135.132 130.756 136.551 131.734 138.015C132.668 138.664 133.108 139.662 133.354 140.688C133.808 142.58 134.819 144.068 136.266 145.305C137.059 146.127 138.04 146.74 138.824 147.574C139.333 147.952 139.831 148.342 140.293 148.777C144.795 152.446 149.384 155.995 154.366 159.001C154.829 159.338 155.357 159.57 155.831 159.89C156.37 160.257 156.972 160.5 157.56 160.773C157.688 160.829 157.818 160.882 157.933 160.959C159.68 162.139 161.465 162.31 163.412 161.38C165.037 160.604 166.793 160.16 168.56 159.797C174.144 158.063 179.725 156.32 185.357 154.75C185.935 154.589 186.508 154.346 187.115 154.637C188.415 155.977 190.062 156.859 191.535 157.97C196.421 161.658 199.017 166.44 198.678 172.669C198.562 175.977 197.542 179.052 196.13 181.988C194.665 185.035 193.222 188.097 191.545 191.036C191.237 191.575 191.199 192.187 190.964 192.74C190.674 193.336 190.046 193.091 189.598 193.294C184.296 194.935 179.012 196.638 173.687 198.2C167.645 199.973 161.554 201.563 155.298 202.407C153.134 202.699 150.957 202.696 148.78 202.609C147.822 202.506 146.864 202.404 145.907 202.301C145.8 202.368 145.719 202.345 145.666 202.23C143.63 201.874 141.568 201.625 139.562 201.145C128.818 198.572 118.605 194.651 109.364 188.507C102.743 184.105 96.8809 178.794 91.5731 172.849C87.9313 168.77 84.4458 164.559 80.6528 160.602C75.1125 154.822 71.1147 147.984 68.2028 140.508C67.3579 138.339 66.6835 136.131 66.316 133.842C66.163 132.889 65.6664 132.531 64.8337 132.401C65.4412 128.928 66.4874 125.574 67.613 122.246C69.1792 117.615 71.3054 113.251 74.0558 109.207C74.5741 108.444 75.2006 107.756 75.7772 107.034C76.2262 107.303 76.675 107.572 77.1239 107.842L77.1199 107.839C80.8201 111.208 85.1747 112.963 90.1421 113.489C94.4331 113.944 98.7763 113.914 103.017 114.837Z"
            fill="#C2B3DC" />
        <path
            d="M91.0348 100.879C89.4021 100.529 87.988 99.6734 86.5558 98.881C85.3366 98.2065 85.6565 97.1389 86.006 96.1061C86.0584 92.8875 87.4887 89.9893 88.143 86.9083C89.428 80.8586 90.5664 74.7967 90.7384 68.5885C90.7623 67.7232 90.5443 67.0651 89.9034 66.5235C89.9648 65.7491 90.5505 66.0528 90.9496 66.0342C92.539 65.96 93.7133 64.9895 94.0867 63.4089C94.6854 60.8753 94.1248 58.5017 92.9129 56.2994C92.2635 55.1192 91.1496 54.4259 89.701 54.4564C89.2854 54.4652 88.7386 54.7048 88.5638 54.0263C90.297 53.0406 91.4748 53.1924 92.9632 54.5973C93.0972 54.7237 93.2127 54.8695 93.3443 54.9986C94.8778 56.5029 95.0812 56.5253 96.492 54.9528C97.9636 53.3125 99.541 51.8642 101.767 51.3446C102.125 51.261 102.523 51.0256 102.471 51.7085C102.517 52.3968 102.089 52.9337 101.859 53.5256C101.014 55.7046 100.868 57.9006 101.295 60.2062C101.942 63.7028 101.096 66.9557 99.2555 69.9387C98.2712 71.5341 97.8165 73.1344 97.9344 75.0659C98.0612 77.1448 97.434 79.1969 96.6848 81.1625C96.4202 81.8564 96.0863 82.5267 95.9967 83.2765C95.9518 83.554 95.905 83.9126 95.6857 84.0291C93.417 85.2347 93.7718 87.5499 93.4302 89.5151C93.1803 90.9524 93.3189 92.4334 93.4054 93.9158C93.5266 95.9927 93.3516 98.2866 91.3016 99.608C90.5711 100.079 91.4095 100.535 91.0348 100.879Z"
            fill="#F79C79" />
        <path
            d="M88.5638 54.0264C89.1434 54.5427 89.7062 53.8504 90.2804 54.0023C91.5818 54.3467 92.7476 55.0034 93.3496 56.2011C94.6061 58.7012 95.0886 61.3576 94.3575 64.1351C94.0226 65.4077 92.0791 66.6187 90.7676 66.3599C90.4301 66.2933 90.1413 66.1906 89.9035 66.5236C87.9516 64.807 86.483 62.7802 85.9355 60.1864C85.3857 57.5822 86.2981 55.4764 88.5638 54.0264Z"
            fill="#F6896B" />
        <path
            d="M70.7244 33.2859C70.8101 33.4704 70.8958 33.655 70.9815 33.8396C70.9377 34.8125 70.861 35.7852 70.8584 36.758C70.855 38.0352 70.5862 39.2134 69.9931 40.3629C68.9651 42.3551 69.1463 44.5242 69.3721 46.6466C69.7643 50.3339 70.2399 54.0128 70.7233 57.6895C70.8152 58.3884 71.1055 59.061 71.3043 59.7457C71.3415 59.9926 71.5697 60.3231 71.0512 60.3267C68.8359 53.712 66.9861 47.0392 68.1865 39.9498C68.589 37.5725 69.1796 35.2391 70.7244 33.2859Z"
            fill="#FBFAFA" />
        <path
            d="M104.248 50.5222C112.53 49.2953 117.651 44.3407 120.632 36.5773C121.722 43.4233 112.037 51.6384 104.248 50.5222Z"
            fill="#F6A883" />
        <path
            d="M95.7676 83.2497C95.5356 82.2292 96.2258 81.4517 96.5044 80.5744C97.1976 78.3921 97.8266 76.227 97.5455 73.8854C97.414 72.7906 97.8282 71.761 98.4226 70.8557C100.802 67.2321 101.662 63.3633 100.839 59.0333C100.348 56.4538 101.081 53.9619 102.471 51.7085C102.707 51.7432 102.674 51.0806 103.053 51.482C101.666 54.4021 100.822 57.4039 101.676 60.6618C101.817 61.9532 101.805 63.2449 101.685 64.5369C101.228 66.8347 100.275 68.9287 99.0457 70.9017C98.3275 72.054 98.0313 73.271 98.317 74.6124C98.299 76.1179 98.0453 77.5875 97.6475 79.0352C97.538 80.6719 97.0474 82.1378 95.7676 83.2497Z"
            fill="#331916" />
        <path
            d="M44.4723 55.3716C45.4698 59.7186 47.2996 63.841 47.7392 68.2991C47.9865 70.8076 48.0145 73.3121 47.2592 75.7543C47.0014 76.5876 46.7347 77.4359 45.9555 78.0847C48.8719 70.2784 45.1572 62.9347 44.4723 55.3716Z"
            fill="#F7F3F5" />
        <path
            d="M35.0696 107.576C35.0696 108.076 35.0696 108.576 35.0696 109.098C34.5755 109.026 34.7969 108.522 34.5235 108.359C33.8135 105.462 34.2927 102.638 35.0482 99.8329C36.0426 96.1416 37.5464 92.6671 39.5668 89.1454C39.5507 90.1626 39.0625 90.7592 38.8092 91.4333C38.5483 92.1279 38.2358 92.8031 37.9787 93.499C36.2997 98.0433 34.8066 102.628 35.0696 107.576Z"
            fill="#F5F1F3" />
        <path
            d="M126.549 26.1199C125.775 29.4506 124.232 32.3208 121.651 34.5899C122.373 31.2448 124.569 28.7362 126.549 26.1199Z"
            fill="#F5A37F" />
        <path
            d="M75.7472 68.1194C73.559 66.6661 71.8177 60.9139 71.3288 56.1839C72.6058 60.2399 74.1536 64.1943 75.7472 68.1194Z"
            fill="#F1EEEF" />
        <path
            d="M70.7538 40.3214C70.6301 43.0988 70.5065 45.8761 70.3828 48.6534C69.7064 45.8404 69.346 43.0415 70.7538 40.3214Z"
            fill="#EFEAEB" />
        <path
            d="M71.0513 60.3267C71.1356 60.1331 71.22 59.9394 71.3043 59.7457C71.6197 60.3961 71.7877 61.0789 71.8235 61.9183C71.2863 61.4254 71.1822 60.8696 71.0513 60.3267Z"
            fill="#CCC3C2" />
        <path
            d="M236.211 158.113C235.809 160.408 234.557 162.37 233.71 164.491C233.095 166.032 232.366 167.528 231.539 169.375C233.715 168.554 235.654 168.114 237.636 167.822C242.553 167.097 247.143 167.925 251.333 170.627C252.159 171.16 252.462 171.134 252.918 170.226C258.166 159.752 262.901 149.064 266.481 137.888C266.622 137.447 266.661 136.956 266.874 136.557C268.238 134.005 267.499 131.962 265.416 130.219C266.183 129.731 267.043 129.67 267.92 129.639C272.268 129.481 276.559 129.85 280.841 130.669C282.628 131.011 284.494 131.173 286.35 131.054C287.222 130.999 288.086 131.116 288.856 131.597C277.784 144.732 270.289 159.78 265.193 176.109C264.599 178.015 264.037 179.932 263.46 181.843C263.023 182.051 262.64 181.84 262.271 181.659C258.29 179.703 254.559 177.383 251.481 174.126C250.435 173.018 250.436 173.008 248.846 173.038C247.538 173.062 246.253 172.837 244.975 172.638C240.65 171.965 236.3 171.866 231.937 171.911C231.032 171.92 230.522 172.282 230.096 173.08C228.674 175.743 227.337 178.456 225.531 180.899C224.837 181.84 224.088 182.717 223.246 183.519C221.85 184.851 220.409 185.106 218.658 184.342C216.629 183.457 215.155 181.304 215.559 179.225C216.212 175.86 217.269 172.584 218.124 169.261C218.46 168.867 218.913 168.636 219.366 168.42C221.297 167.499 222.339 165.913 222.791 163.875C222.9 163.382 222.998 162.884 223.336 162.479C223.692 162.155 224.146 162.057 224.587 161.924C227.983 160.898 231.406 159.954 234.633 158.434C235.115 158.206 235.621 157.898 236.211 158.113Z"
            fill="#1E151D" />
        <path
            d="M264.665 130.229C263.425 133.675 262.234 137.14 260.933 140.563C258.824 146.113 256.644 151.636 254.491 157.17C254.357 157.516 254.185 157.848 254.055 158.195C253.95 158.48 253.82 158.745 253.473 158.607C253.133 158.471 253.21 158.165 253.311 157.896C253.867 156.419 254.395 154.932 254.99 153.471C258.141 145.736 261.025 137.9 263.79 130.019C263.912 129.67 264.008 129.306 264.338 129.079C264.447 129.462 264.556 129.846 264.665 130.229Z"
            fill="#1C171C" />
        <path
            d="M236.211 158.113C232.124 160.161 227.769 161.439 223.375 162.607C222.643 162.522 222.802 161.902 222.726 161.459C222.641 160.969 222.568 160.475 222.496 159.983C221.986 156.87 221.077 153.917 219.074 151.403C218.896 151.179 218.731 150.972 218.814 150.666C220.328 149.622 221.891 148.664 223.231 147.361C224.412 146.213 225.22 144.947 225.46 143.316C225.514 142.954 225.566 142.577 225.834 142.286C227.149 140.036 228.464 137.787 229.78 135.537C229.576 135.23 229.825 135.132 230.023 135.011C230.361 134.353 231.03 133.762 230.445 132.917C230.545 132.353 231.153 132.599 231.421 132.301C232.569 130.04 233.717 127.778 234.816 125.494C235.597 123.871 236.447 122.299 237.61 120.915C237.593 120.847 237.588 120.779 237.595 120.71C237.904 120.109 238.367 119.918 238.999 120.18C240.621 122.47 240.746 124.871 239.608 127.411C238.608 129.644 237.378 131.755 236.183 134.03C239.757 133.319 243.133 132.484 246.104 130.463C247.045 129.823 248.041 129.242 249.191 129.024C250.032 129.24 249.416 129.603 249.22 129.787C247.82 131.097 246.713 132.641 245.615 134.196C245.508 134.348 245.391 134.492 245.288 134.647C243.94 136.684 244.175 137.329 246.542 138.05C246.816 138.134 247.051 138.268 247.261 138.456C248.314 137.704 249.35 136.924 250.426 136.207C251.889 135.231 252.83 135.665 252.874 137.448C252.934 139.824 252.304 142.07 250.849 143.973C249.988 145.099 249.294 146.277 248.882 147.618C248.313 149.469 247.15 150.839 245.654 152.027C242.703 154.369 239.402 156.152 236.211 158.113Z"
            fill="#F8A87F" />
        <path
            d="M188.856 140.565C191.923 139.712 194.911 138.584 198.031 137.919C198.13 139.722 198.299 141.526 198.302 143.331C198.303 144.329 198.607 144.572 199.572 144.489C206.393 143.904 213.218 143.368 220.042 142.822C220.409 142.792 220.779 142.811 221.148 142.808C220.018 143.934 219.849 145.443 219.509 146.892C219.324 147.682 219.212 148.546 218.315 148.936C217.587 149.145 216.842 149.092 216.103 149.092C204.802 149.096 193.501 149.097 182.199 149.089C181.375 149.088 180.524 149.213 179.754 148.774C179.19 147.868 180.019 147.651 180.518 147.39C181.906 146.661 183.432 146.281 184.919 145.808C186.318 145.363 186.524 145.061 186.345 143.61C186.254 142.878 186.124 142.149 186.437 141.435C187.047 140.597 188.008 140.741 188.856 140.565Z"
            fill="#323849" />
        <path
            d="M238.999 120.18C238.531 120.356 238.063 120.533 237.595 120.71C236.478 119.544 237.181 118.166 237.158 116.875C237.154 116.658 237.255 116.439 237.307 116.222C238.861 110.295 241.054 104.592 243.344 98.9101C243.167 101.81 242.655 104.651 242.12 107.491C241.399 111.329 240.471 115.118 239.51 118.899C239.398 119.341 239.172 119.754 238.999 120.18Z"
            fill="#FCFCFC" />
        <path
            d="M218.626 148.651C218.984 147.269 219.456 145.904 219.663 144.5C219.81 143.506 220.318 143.075 221.148 142.808C222.71 142.634 224.272 142.46 225.834 142.286C225.847 144.209 225.404 145.978 223.873 147.261C222.338 148.546 221.029 150.183 218.927 150.642C218.704 150.768 218.491 150.754 218.287 150.598C217.95 149.87 218.207 149.246 218.626 148.651Z"
            fill="#1F151E" />
        <path
            d="M221.119 90.6429C216.465 91.4344 211.753 91.7109 207.042 91.9813C204.43 92.1312 204.429 92.103 204.633 94.6429C204.652 94.8747 204.684 95.1105 204.662 95.3396C204.57 96.2747 204.842 96.5657 205.892 96.4962C212.927 96.0296 219.967 95.6539 227.007 95.2628C227.834 95.2169 228.666 95.2565 229.497 95.3476C225.843 96.0497 222.135 96.1027 218.449 96.3629C214.099 96.6699 209.742 96.8697 205.391 97.1547C204.545 97.2102 204.113 97.0998 204.15 96.0847C204.189 95.024 204.054 93.9482 203.904 92.892C203.774 91.9756 203.989 91.5555 205.005 91.4999C208.386 91.3153 211.76 91.0182 215.14 90.823C217.125 90.7085 219.104 90.4005 221.119 90.6429Z"
            fill="#7F7577" />
        <path
            d="M231.459 132.504C231.258 132.983 230.711 132.607 230.443 132.918C224.249 133.316 218.055 133.733 211.858 134.106C209.083 134.273 206.302 134.355 203.524 134.469C203.017 134.489 202.491 134.576 202.457 133.771C202.304 130.244 202.119 126.718 201.954 123.191C201.949 123.085 202.034 122.976 202.095 122.826C202.66 123.228 202.466 123.79 202.495 124.256C202.681 127.223 202.856 130.192 202.978 133.163C203.009 133.908 203.261 134.104 203.979 134.058C212.763 133.494 221.567 133.224 230.333 132.368C230.695 132.333 231.046 132.192 231.402 132.1C231.583 132.212 231.602 132.346 231.459 132.504Z"
            fill="#807779" />
        <path
            d="M226.244 78.5773C229.906 78.4315 229.906 78.4315 230.135 80.9568C230.494 84.9303 230.494 84.9181 226.472 85.2177C223.334 85.4515 220.197 85.7064 217.062 85.9872C216.501 86.0374 216.183 85.976 216.121 85.3364C215.959 83.675 215.793 82.0129 215.566 80.3595C215.451 79.5193 215.817 79.3465 216.554 79.2967C220.157 79.0537 223.757 78.7654 226.244 78.5773Z"
            fill="#867C7D" />
        <path
            d="M205.001 119.033C212.964 118.546 220.928 118.06 228.891 117.574C228.899 117.698 228.908 117.823 228.916 117.948C220.977 118.757 213.013 119.21 205.045 119.609C205.03 119.417 205.016 119.225 205.001 119.033Z"
            fill="#7C7174" />
        <path
            d="M231.459 132.504C231.44 132.369 231.421 132.235 231.402 132.1C232.207 127.667 233.717 123.626 237.61 120.915C236.22 123.607 234.832 126.302 233.438 128.993C232.82 130.186 232.347 131.463 231.459 132.504Z"
            fill="#83443A" />
        <path
            d="M230.023 135.011C229.942 135.186 229.861 135.362 229.78 135.537C225.41 135.394 221.077 135.965 216.728 136.22C212.342 136.476 207.973 137.14 203.553 136.699C205.946 136.507 208.337 136.281 210.732 136.13C216.702 135.753 222.651 135.073 228.637 134.95C229.099 134.94 229.561 134.989 230.023 135.011Z"
            fill="#837A7B" />
        <path
            d="M207.213 108.949C207.215 108.854 207.186 108.77 207.124 108.697C207.724 108.084 208.525 108.334 209.217 108.285C214.288 107.927 219.363 107.612 224.459 107.762C218.738 108.538 212.977 108.759 207.213 108.949Z"
            fill="#898081" />
        <path
            d="M206.329 114.558C206.432 114.377 206.536 114.195 206.639 114.014C211.815 113.622 216.991 113.229 222.167 112.837C216.933 113.879 211.663 114.532 206.329 114.558Z"
            fill="#83787B" />
        <path
            d="M218.575 121.754C214.042 122.779 209.45 123.117 204.841 123.209C204.827 123.023 204.813 122.838 204.799 122.652C209.391 122.353 213.983 122.054 218.575 121.754Z"
            fill="#867C80" />
        <path
            d="M218.646 99.7277C214.091 100.411 209.536 100.695 204.954 100.511C209.502 99.8662 214.08 99.7292 218.646 99.7277Z"
            fill="#786F73" />
        <path
            d="M218.272 76.2668C221.793 75.9032 225.314 75.5396 228.835 75.176C228.85 75.3159 228.864 75.4558 228.879 75.5958C225.369 76.0693 221.866 76.6084 218.306 76.6023C218.295 76.4906 218.283 76.3787 218.272 76.2668Z"
            fill="#8B8282" />
        <path
            d="M201.705 89.5354C203.988 89.5965 206.256 89.0062 208.566 89.1284C208.89 89.1455 209.215 89.1317 209.539 89.12C211.895 89.0347 211.895 89.0327 211.966 86.7358C211.973 86.5147 212.003 86.2943 212.093 86.0693C212.308 86.8263 212.219 87.6176 212.455 88.3766C212.667 89.0607 212.251 89.4503 211.554 89.4155C208.276 89.2516 205.015 89.8966 201.705 89.5354Z"
            fill="#D2C8C4" />
        <path
            d="M202.189 77.1264C200.193 78.3454 201.138 80.7026 199.99 82.3235C200.053 80.5812 200.463 79.0218 200.849 77.4679C201.08 76.5401 201.732 77.2779 202.189 77.1264Z"
            fill="#BCB3AE" />
        <path
            d="M231.99 113.405C231.99 114.814 231.99 116.223 231.99 117.632C231.923 117.634 231.857 117.635 231.79 117.636C231.79 116.217 231.79 114.797 231.79 113.378C231.857 113.387 231.923 113.396 231.99 113.405Z"
            fill="#88817F" />
        <path
            d="M205.246 106.582C205.653 107.178 205.606 107.824 205.582 108.809C205.141 107.892 204.958 107.273 205.246 106.582Z"
            fill="#908682" />
        <path
            d="M141.914 202.968C143.038 206.547 143.723 210.224 144.386 213.906C144.25 213.937 144.114 213.969 143.978 214C143.159 210.351 142.34 206.702 141.521 203.053C141.652 203.025 141.783 202.996 141.914 202.968Z"
            fill="white" />
        <path
            d="M139.396 216.571C138.779 213.599 138.068 210.642 138.462 207.517C138.924 210.52 139.386 213.523 139.847 216.526C139.697 216.541 139.546 216.556 139.396 216.571Z"
            fill="white" />
        <path
            d="M145.666 202.23C145.749 202.245 145.829 202.268 145.907 202.3C146.324 204.133 146.733 205.967 147.165 207.797C147.265 208.223 147.396 208.752 146.857 208.805C146.316 208.858 146.563 208.262 146.496 207.945C146.156 206.33 145.839 204.71 145.489 203.097C145.416 202.76 145.349 202.467 145.666 202.23Z"
            fill="white" />
        <path
            d="M93.934 188.969C92.3117 187.93 91.104 186.592 90.865 184.592C92.0808 185.912 92.7659 187.609 93.934 188.969Z"
            fill="white" />
        <path
            d="M114.601 202.625C112.199 201.131 109.837 199.252 110.41 197.345C111.14 199.739 113.141 200.955 114.601 202.625Z"
            fill="white" />
        <path
            d="M125.931 203.143C125.907 203.642 125.886 204.141 125.856 204.639C125.841 204.902 125.882 205.267 125.502 205.243C125.207 205.224 125.104 204.911 125.064 204.624C124.984 204.065 125.111 203.537 125.289 203.015C125.376 202.762 125.43 202.417 125.774 202.48C126.138 202.548 126.046 202.88 125.931 203.143Z"
            fill="white" />
        <path
            d="M218.37 169.302C217.752 172.574 216.654 175.727 215.929 178.965C215.275 181.882 218.116 184.751 221.077 184.377C222.767 184.163 223.647 182.73 224.564 181.574C226.788 178.773 228.44 175.592 230.002 172.383C230.299 171.775 230.598 171.536 231.232 171.537C235.9 171.545 240.572 171.431 245.19 172.332C246.048 172.499 246.925 172.603 247.798 172.644C248.975 172.699 250.183 172.849 251.39 172.087C250.472 172.808 251.074 173.187 251.506 173.645C254.903 177.242 259.043 179.745 263.46 181.844C262.239 186.581 261.092 191.336 260.202 196.149C260.013 195.905 259.747 195.861 259.46 195.85C256.965 195.759 254.47 195.61 251.975 195.582C245.403 195.508 238.846 195.065 232.274 194.948C227.006 194.854 221.734 194.631 216.47 194.387C212.672 194.211 208.872 194.37 205.087 194.131C200.562 193.846 196.031 193.845 191.507 193.601C190.867 193.567 190.234 193.4 189.598 193.294C189.994 193.102 190.391 192.91 190.788 192.718C192.076 191.739 193.68 191.513 195.126 190.91C200.096 188.841 205.09 186.827 209.34 183.394C211.949 181.287 212.841 178.553 212.568 175.243C212.447 173.783 211.701 172.38 212.137 170.87C214.024 169.589 216.075 168.956 218.37 169.302Z"
            fill="#333849" />
        <path
            d="M283.596 161.242C282.334 160.1 280.927 159.392 279.599 158.588C278.576 157.967 278.26 157.252 278.791 156.177C278.811 156.136 278.814 156.087 278.828 156.042C279.678 153.355 279.661 153.387 282.092 154.706C283.116 155.261 284.097 155.984 285.466 155.819C284.127 155.084 282.835 154.24 281.436 153.648C280.24 153.143 280.162 152.597 280.823 151.6C281.466 150.631 282.043 149.616 282.911 148.829C284.481 147.405 286.236 147.695 287.34 149.5C288.579 151.524 288.381 153.689 287.973 155.858C287.395 158.934 286.374 161.865 284.928 164.645C284.087 166.265 282.936 167.56 281.211 168.25C279.25 169.035 277.442 168.045 277.193 165.968C276.912 163.628 277.413 161.344 277.916 159.073C278.12 158.154 278.623 158.595 279.034 158.858C280.168 159.581 281.28 160.339 282.412 161.066C282.701 161.251 282.961 161.615 283.596 161.242Z"
            fill="#1E151D" />
        <path
            d="M273.647 190.947C272.149 189.304 270.83 187.761 269.401 186.328C268.586 185.511 268.735 185.064 269.657 184.567C270.569 184.076 271.537 183.757 272.543 183.616C274.094 183.4 275.307 184.526 275.491 186.254C275.896 190.042 272.905 195.081 269.378 196.553C267.974 197.139 267.012 196.747 266.644 195.23C265.886 192.103 266.773 189.163 267.92 186.294C268.248 185.473 268.539 186.186 268.762 186.437C269.964 187.788 271.091 189.21 272.453 190.412C272.714 190.643 272.887 191.032 273.647 190.947Z"
            fill="#1E151E" />
        <path
            d="M295.343 143.867C293.539 141.769 291.738 139.667 289.928 137.574C289.42 136.986 288.689 136.508 289.702 135.677C291.085 134.541 291.319 134.523 292.242 135.533C293.619 137.04 295.036 138.514 296.502 139.933C297.103 140.514 297.25 141.051 296.85 141.748C295.914 143.385 295.535 145.323 294.092 146.694C293.386 147.364 292.975 147.407 292.35 146.558C290.729 144.355 288.989 142.24 287.327 140.067C286.747 139.307 287.605 137.366 288.538 137.228C288.945 137.167 289.09 137.514 289.29 137.747C290.647 139.33 291.982 140.932 293.349 142.508C293.87 143.109 294.291 143.843 295.081 144.143C295.169 144.051 295.256 143.959 295.343 143.867Z"
            fill="#1E151E" />
        <path
            d="M271.544 178.771C271.637 176.793 272.171 174.803 273.24 172.95C273.705 172.143 274.203 171.933 275.033 172.45C277.064 173.718 278.423 175.484 278.963 177.812C279.337 179.426 278.647 180.753 277.421 181.746C276.153 182.773 274.642 183.13 273.114 182.494C271.548 181.842 271.565 180.338 271.544 178.771Z"
            fill="#1E141D" />
        <path
            d="M301.151 136.256C301.681 137.857 301.149 139.305 300.511 140.694C298.264 145.592 296.022 150.494 293.679 155.347C288.485 166.107 283.718 177.043 279.691 188.301C278.565 191.448 277.259 194.542 275.208 197.24C274.62 198.013 274.614 198.008 273.452 198.406C276.335 195.108 277.812 191.314 279.287 187.547C281.369 182.228 283.153 176.792 285.475 171.567C288.55 164.647 291.743 157.783 295.02 150.958C296.789 147.273 298.486 143.553 300.201 139.842C300.721 138.716 300.871 137.481 301.151 136.256Z"
            fill="#1E1B23" />
        <path
            d="M286.391 139.796C288.154 142.189 289.721 144.495 291.628 146.526C292.245 147.183 292.266 147.524 291.387 147.911C289.581 148.705 288.394 148.4 287.146 146.816C286.111 145.503 285.647 143.925 285.166 142.398C284.863 141.435 285.842 140.69 286.391 139.796Z"
            fill="#1E141E" />
        <path
            d="M291.936 134.592C293.669 133.762 294.879 133.931 296.072 135.04C297.578 136.44 298.022 138.052 297.303 139.931C296.388 138.995 295.534 138.101 294.659 137.229C293.806 136.38 292.93 135.553 291.936 134.592Z"
            fill="#1F1520" />
        <path
            d="M126.456 72.6769C125.973 73.0695 125.398 72.8936 124.864 72.9108C124.393 72.926 124.32 73.1277 124.437 73.5137C123.169 74.6338 122.128 76.0071 120.604 76.8424C118.969 77.7385 117.234 77.5449 115.503 77.3992C109.372 76.8827 103.371 70.7606 103.842 64.9193C103.953 63.5402 103.782 62.152 104.138 60.7748C105.115 56.992 108.038 54.8774 111.616 54.2329C114.106 53.7843 116.454 54.2444 118.57 55.6946C118.79 55.8449 118.985 55.8765 119.173 55.6579C119.579 55.3746 119.996 55.4332 120.419 55.6142C121.347 56.7875 122.779 57.2658 123.913 58.1546C123.565 58.913 124.099 59.5249 124.38 60.0829C125.051 61.4165 125.34 62.8688 125.877 64.2399C126.588 66.0554 125.782 67.7647 125.344 69.4878C125.253 69.8432 125.075 70.1751 124.965 70.5265C124.403 72.3191 124.606 72.6074 126.456 72.6769Z"
            fill="#F8936F" />
        <path
            d="M114.564 49.9165C116.17 46.538 120.832 44.1608 125.122 44.5644C125.994 44.6465 126.864 44.8005 127.718 44.9944C128.393 45.1477 129.17 45.3557 129.045 46.288C128.928 47.1663 128.212 47.3042 127.467 47.2772C126.496 47.2421 125.523 47.2251 124.556 47.1444C121.058 46.8529 117.847 47.5699 115.044 49.7845C114.908 49.8921 114.771 50.0433 114.564 49.9165Z"
            fill="#241721" />
        <path
            d="M120.19 55.6249C119.857 55.8125 119.514 55.6983 119.173 55.6579C119.474 54.3179 120.669 53.8322 121.641 53.2101C123.784 51.8391 126.129 51.9364 128.496 52.5354C128.667 52.5785 128.881 52.5438 128.943 52.7717C129.022 53.0614 128.809 53.2716 128.609 53.2899C127.344 53.4053 127.581 54.3391 127.57 55.1373C127.557 56.0436 127.361 56.8921 126.806 57.6268C126.062 58.6125 125.28 58.6907 124.219 57.898C122.921 56.8713 123.48 55.3877 123.334 54.0334C121.996 54.0778 121.396 55.4657 120.19 55.6249Z"
            fill="#23171E" />
        <path
            d="M120.19 55.6249C121.05 54.7841 121.979 54.036 123.074 53.5222C123.694 53.2311 124.108 53.3235 123.867 54.1261C123.471 55.4412 123.731 56.675 124.219 57.8975C124.117 57.9835 124.015 58.069 123.913 58.1545C122.419 57.6855 120.967 57.1546 120.19 55.6249Z"
            fill="#FBF9F9" />
        <path
            d="M101.685 64.5369C101.682 63.2451 101.679 61.9533 101.676 60.6617C102.054 61.9526 102.043 63.2443 101.685 64.5369Z"
            fill="#F8936F" />
        <path
            d="M247.261 138.456C247.174 138.479 247.081 138.537 247.003 138.521C242.856 137.716 243.755 136.255 245.402 133.941C246.573 132.296 247.681 130.606 249.289 129.332C249.439 129.214 249.304 129.102 249.191 129.024C249.955 128.647 250.718 128.27 251.482 127.893C252.626 128.534 252.842 129.36 252.128 130.926C251.221 132.913 249.945 134.673 248.639 136.414C248.149 137.069 247.426 137.577 247.261 138.456Z"
            fill="#F89471" />
        <path
            d="M95.7676 83.2497C96.3942 81.8449 97.0208 80.4401 97.6475 79.0352C99.8328 81.7264 101.737 84.6097 103.266 87.7183C104.79 90.8165 103.929 95.5252 101.512 98.0541C100.593 99.0155 99.6919 99.9937 98.7251 101.026C101.991 102.311 105.262 103.77 108.86 104.227C108.731 105.015 108.106 104.762 107.646 104.779C104.359 104.901 101.271 103.902 98.1706 103.016C95.7835 102.335 93.2792 102.04 91.0349 100.879C90.8395 100.531 90.6442 100.182 90.4494 99.833C92.5922 99.0398 93.3477 95.8359 92.9746 93.547C92.6231 91.3901 93.1491 89.3621 93.3798 87.2857C93.5286 85.9457 93.5315 84.483 95.3116 84.0713C95.5157 84.0241 95.618 83.5343 95.7676 83.2497Z"
            fill="#F8A87E" />
        <path
            d="M77.1239 107.842C79.0587 105.005 81.0562 102.216 83.3511 99.6516C81.9622 102.141 80.2386 104.391 78.4986 106.628C78.1212 107.113 77.9486 107.861 77.1198 107.839C77.1198 107.839 77.1239 107.842 77.1239 107.842Z"
            fill="white" />
        <path
            d="M84.2192 109.294C85.3579 106.945 87.0748 105.035 88.6859 103.046C87.6863 105.479 85.795 107.288 84.2192 109.294Z"
            fill="white" />
        <path
            d="M99.413 106.391C99.5326 108.675 98.2748 110.49 97.5974 112.503C97.4752 112.461 97.3532 112.419 97.231 112.377C97.9584 110.382 98.6857 108.387 99.413 106.391Z"
            fill="white" />
        <path
            d="M91.0101 109.684C91.7758 108.146 92.6027 106.647 93.9644 105.524C93.3596 107.168 92.1695 108.416 91.0101 109.684Z"
            fill="white" />
        <path
            d="M111.095 112.042C110.756 112.244 110.908 112.688 110.603 113.085C110.551 112.732 110.52 112.52 110.489 112.307C110.702 111.093 110.916 109.879 111.191 108.316C111.662 109.828 111.011 110.918 111.095 112.042Z"
            fill="white" />
        <path
            d="M150.115 141.435C152.254 138.917 154.959 137.125 157.834 135.61C162.676 133.056 167.753 131.042 172.951 129.333C173.327 130.253 173.28 131.338 174.035 132.108C174.14 132.183 174.24 132.263 174.34 132.343C175.236 133.026 174.842 134.188 175.333 135.021C175.466 135.371 174.852 135.867 175.55 136.11C176.119 137.227 175.649 138.449 175.915 139.594C175.982 139.719 176.041 139.845 176.1 139.973C176.537 140.814 176.609 141.756 176.852 142.653C177.068 143.968 176.723 145.235 176.486 146.503C176.267 147.673 175.318 148.235 174.37 148.747C171.591 150.247 168.591 151.206 165.636 152.268C164.678 152.612 163.767 153.099 162.785 153.349C159.347 154.225 156.099 153.645 153.018 151.947C151.137 150.59 150.712 148.559 150.591 146.444C150.519 145.185 150.47 143.962 149.826 142.828C149.545 142.333 149.382 141.765 150.115 141.435Z"
            fill="#8771B0" />
        <path
            d="M175.185 135.24C174.847 134.752 174.501 134.264 174.624 133.617C174.724 133.089 174.416 132.765 174.063 132.461C174.37 131.547 175.308 131.407 175.973 130.971C177.863 129.733 179.795 128.545 181.24 128.184C178.979 128.903 176.323 130.549 173.796 132.433C173.151 131.5 172.644 130.528 172.95 129.333C176.259 127.852 179.67 126.793 183.339 126.803C183.798 126.804 184.269 126.797 184.663 127.104C185.126 127.327 185.579 127.576 185.572 128.18C185.535 131.633 185.791 135.068 186.176 138.495C185.744 139.058 185.108 138.965 184.524 138.973C183.642 138.985 182.78 139.109 181.928 139.311C180.393 139.827 179.062 140.767 177.595 141.429C177.241 141.589 177.033 141.893 176.861 142.227C176.784 142.338 176.688 142.428 176.571 142.495C176.295 141.654 176.019 140.813 175.743 139.972C176.649 138.738 178.053 138.189 179.28 137.399C180.003 136.934 180.801 136.587 181.646 135.98C179.949 137.061 178.305 137.889 176.777 138.911C176.339 139.204 176.014 139.547 175.745 139.975C175.176 139.292 175.58 138.484 175.459 137.743C175.367 137.181 175.68 136.548 175.163 136.061C175.219 135.406 175.789 135.227 176.223 134.94C177.678 133.977 179.17 133.071 180.675 132.188C179.198 133.046 177.741 133.936 176.299 134.85C175.98 135.052 175.667 135.439 175.185 135.24Z"
            fill="#8771B0" />
        <path
            d="M150.115 141.436C149.992 141.679 149.701 141.973 149.885 142.193C151.265 143.84 150.836 145.896 151.124 147.769C151.369 149.369 152.022 150.64 153.17 151.711C152.442 152.114 151.661 151.925 151.042 151.609C149.757 150.954 148.439 150.483 147.044 150.12C144.878 149.555 143.716 147.56 142.025 146.305C141.727 146.084 141.677 145.653 141.675 145.278C141.668 143.694 141.334 142.149 141.142 140.587C140.858 138.268 142.117 136.67 143.692 135.23C143.692 135.131 143.693 135.031 143.693 134.931C145.653 136.484 147.129 138.496 148.788 140.335C149.172 140.761 149.39 141.414 150.115 141.436Z"
            fill="#8771B0" />
        <path
            d="M186.035 138.585C185.111 135.398 185.181 132.125 185.213 128.856C185.22 128.203 185.245 127.562 184.663 127.104C185.476 127.393 185.731 126.48 186.337 126.323C186.857 126.873 186.918 127.544 186.886 128.261C186.715 132.219 187.277 136.09 188.269 139.913C188.365 140.279 188.487 140.503 188.856 140.565C188.108 140.845 187.361 141.125 186.613 141.405C185.847 140.583 185.519 139.671 186.035 138.585Z"
            fill="#EC8B6B" />
        <path
            d="M186.035 138.585C186.024 139.567 186.425 140.464 186.613 141.405C186.671 142.324 186.73 143.243 186.786 144.162C186.849 145.209 186.495 145.815 185.358 146.115C183.379 146.637 181.321 147.043 179.667 148.407C179.476 149.581 178.627 150.363 177.913 151.185C175.48 153.984 172.972 156.715 170.1 159.082C169.595 159.498 168.959 159.696 168.485 160.149C166.689 160.567 164.872 161.008 163.237 161.83C160.984 162.961 159.157 162.235 157.336 160.963C156.856 160.328 157.176 159.837 157.625 159.373C158.113 158.87 158.532 158.309 158.847 157.687C159.462 156.476 158.928 155.419 157.611 155.211C156.917 155.101 156.184 155.053 155.578 155.447C154.558 156.11 153.448 156.231 152.274 156.322C151.278 156.4 150.418 156.487 150.015 155.326C149.956 155.156 149.795 155.012 149.61 154.965C147.032 154.304 145.467 152.071 143.25 150.851C142.164 150.253 141.303 149.281 140.068 148.93C139.616 148.548 139.164 148.166 138.712 147.784C138.296 146.551 137.086 146.228 136.176 145.561C134.793 144.524 133.638 143.343 133.303 141.532C133.065 140.246 132.274 139.181 131.733 138.015C132.062 137.701 132.079 137.101 132.831 137.198C134.079 137.359 134.617 136.546 134.153 135.365C134.034 135.064 133.849 134.784 133.772 134.475C133.74 134.345 133.868 134.107 133.993 134.019C134.227 133.854 134.51 133.986 134.526 134.23C134.613 135.54 135.707 136.634 135.325 138.033C135.266 138.249 135.191 138.476 135.064 138.655C133.844 140.37 134.331 141.829 135.877 143.17C136.911 144.067 138.364 144.584 138.931 146.053C139.222 145.161 138.67 144.501 138.45 143.798C138.249 143.154 138.167 142.614 138.32 141.931C138.509 141.088 138.498 140.19 138.234 139.318C137.872 138.124 138.236 137.128 139.21 136.375C139.476 136.17 139.672 135.97 139.807 135.65C140.268 134.562 141.008 134.174 142.101 134.85C142.588 135.151 143.118 135.287 143.692 135.23C142.88 136.885 141.209 138.171 141.476 140.288C141.695 142.029 142.116 143.747 142.041 145.522C142.032 145.733 142.117 146.06 142.267 146.148C144.463 147.445 145.767 150.023 148.839 150.173C150.239 150.241 151.549 151.631 153.17 151.711C156.125 153.113 159.203 153.905 162.443 153.059C164.222 152.595 165.909 151.785 167.648 151.158C169.852 150.362 171.985 149.397 174.145 148.494C176.468 147.523 176.244 145.469 176.567 143.61C176.63 143.249 176.573 142.867 176.571 142.495C176.581 142.389 176.592 142.284 176.602 142.179C177.702 141.075 179.232 140.691 180.484 139.843C180.848 139.597 181.384 139.608 181.577 139.11C182.994 138.341 184.535 138.639 186.035 138.585Z"
            fill="#8771B0" />
        <path
            d="M134.38 133.421C132.482 132.342 131.979 130.395 131.258 128.587C131.185 128.405 131.312 128.224 131.51 128.161C131.735 128.09 131.853 128.257 131.915 128.429C132.546 130.182 133.445 131.8 134.38 133.421Z"
            fill="white" />
        <path
            d="M120.756 116.784C121.507 118.33 120.955 119.679 120.109 121.371C119.891 119.529 120.743 118.209 120.756 116.784Z"
            fill="white" />
        <path
            d="M135.294 42.533C138.913 37.4924 138.809 32.28 135.129 24.5305C139.914 27.1145 141.871 38.3629 135.294 42.533Z"
            fill="#F9F8F9" />
        <path
            d="M218.393 150.568C218.571 150.592 218.749 150.617 218.927 150.642C221.31 153.236 222.255 156.445 222.825 159.814C222.687 159.868 222.514 159.874 222.442 159.764C221.048 157.647 218.922 156.123 217.691 153.874C217.464 153.459 217.361 153.011 217.267 152.562C214.809 152.97 212.397 153.507 210.153 154.615C210.498 155.928 211.094 157.144 211.496 158.432C212.358 161.189 212.568 163.987 212.19 166.838C212.1 166.993 211.987 167.213 211.804 167.154C210.872 166.855 210.203 167.466 209.45 167.792C209.155 167.773 208.909 167.628 208.75 167.4C207.761 165.978 206.301 165.373 204.653 165.083C205.874 165.515 207.266 165.674 207.907 167.035C205.505 168.894 203.486 171.217 200.9 172.856C200.661 173.008 200.424 173.142 200.129 173.114C199.63 173.092 199.404 172.357 198.803 172.608C198.647 172.686 198.492 172.773 198.315 172.666C198.413 169.424 197.975 166.28 196.216 163.493C194.776 161.211 192.884 159.317 190.65 157.784C189.662 157.106 188.694 156.394 187.68 155.756C187.258 155.491 187.131 155.17 187.147 154.726C187.199 154.246 187.605 154.153 187.946 154.075C190.872 153.404 193.444 151.843 196.222 150.801C197.396 150.361 198.572 149.935 199.798 149.652C203.125 148.884 206.068 149.68 208.607 151.905C209.419 152.616 210.18 152.73 211.151 152.381C212.897 151.753 214.57 150.915 216.389 150.492C217.06 150.336 217.742 150.073 218.393 150.568Z"
            fill="#8771B0" />
        <path
            d="M198.315 172.666C198.408 172.568 198.5 172.471 198.593 172.373C199.555 172.372 199.61 173.289 200.034 173.77C200.094 173.999 200.287 173.749 200.117 173.823C200.083 173.837 200.06 173.802 200.034 173.72C199.952 173.461 199.808 173.205 200.004 172.936C202.21 171.347 204.77 170.129 206.176 167.663C206.662 166.811 207.334 167.507 207.772 167.1C208.362 166.884 208.528 167.416 208.792 167.719C209.099 168.071 209.278 167.987 209.458 167.632C210.101 166.588 210.94 166.429 211.958 167.075C212.145 167.23 212.232 167.439 212.281 167.669C212.31 167.819 212.325 167.971 212.333 168.124C212.227 169.093 212.633 170.077 212.259 171.04C212.434 172.501 212.833 173.919 212.953 175.399C213.221 178.692 212.288 181.437 209.702 183.57C205.519 187.018 200.599 189.078 195.649 191.07C194.064 191.709 192.475 192.368 190.788 192.718C190.732 191.953 191 191.314 191.349 190.625C193.752 185.885 196.559 181.318 197.842 176.082C198.114 174.972 198.163 173.806 198.315 172.666Z"
            fill="#8771B0" />
        <path
            d="M78.7448 140.534C77.753 142.693 77.3642 145.023 76.8263 147.311C76.7206 147.761 76.636 148.218 76.4921 148.655C76.359 149.06 76.0319 149.225 75.6111 149.158C75.1812 149.088 75.1633 148.747 75.1587 148.413C75.0806 142.747 75.0744 137.074 77.1361 131.677C79.395 125.765 82.8214 120.724 88.456 117.527C92.0887 115.465 95.9575 114.653 100.157 115.404C104.09 116.108 107.886 117.142 111.415 119.051C111.78 119.248 112.14 119.465 112.468 119.718C112.933 120.077 113.499 120.388 113.308 121.159C113.131 121.876 112.713 122.293 111.971 122.364C110.887 122.308 110.252 121.426 109.41 120.935C106.794 119.408 104.086 118.129 101.026 117.925C97.2859 117.676 94.02 119.129 91.1489 121.321C85.7536 125.442 81.8038 130.643 80.0047 137.325C79.7065 138.433 79.3754 139.548 78.7448 140.534Z"
            fill="#C2B3DC" />
        <path
            d="M218.393 150.568C215.922 150.684 213.743 151.788 211.51 152.673C210.274 153.162 209.41 153.124 208.31 152.135C205.624 149.72 202.411 149.154 198.954 150.246C197.805 150.609 196.658 150.999 195.556 151.484C192.802 152.695 190.087 154 187.147 154.726C183.568 155.498 180.108 156.691 176.6 157.716C173.89 158.508 171.19 159.336 168.485 160.149C169.445 158.941 170.753 158.118 171.861 157.072C174.698 154.395 177.296 151.505 179.667 148.407C180.152 148.823 180.734 148.63 181.268 148.63C193.721 148.646 206.173 148.647 218.626 148.651C218.548 149.29 218.47 149.929 218.393 150.568Z"
            fill="#4C4D5D" />
        <path
            d="M140.068 148.93C140.372 148.522 140.68 148.656 141.02 148.898C143.331 150.547 145.801 151.978 147.901 153.922C148.163 154.164 148.548 154.381 148.889 154.404C149.784 154.464 150.515 154.616 150.601 155.719C150.618 155.94 150.87 156.206 151.093 156.115C152.374 155.591 153.866 156.306 155.097 155.292C156.169 154.409 157.469 154.657 158.673 155.102C159.393 155.368 159.794 156.892 159.343 157.63C158.912 158.337 158.46 159.07 157.863 159.625C157.417 160.039 157.335 160.447 157.336 160.963C156.719 160.799 156.145 160.552 155.672 160.106C155.265 159.731 155.597 158.141 154.283 159.258C149.178 156.323 144.535 152.749 140.068 148.93Z"
            fill="#8771B0" />
        <path
            d="M78.7448 140.534C79.3621 138.585 79.883 136.6 80.6141 134.695C83.1548 128.077 87.5084 122.944 93.6504 119.445C97.8055 117.078 102.144 117.122 106.479 119.103C108.428 119.994 110.271 121.056 111.971 122.364C114.215 124.578 116.695 126.521 119.145 128.489C124.052 132.431 128.265 137.056 132.425 141.742C132.472 141.796 132.446 141.915 132.461 142.086C131.826 142.194 131.589 141.653 131.285 141.328C129.258 139.157 127.285 136.935 125.24 134.781C122.389 131.779 119.133 129.231 115.932 126.626C113.493 124.641 111.306 122.364 108.533 120.769C101.375 116.654 95.8325 117.57 89.5711 122.947C85.1558 126.739 81.9306 131.398 80.344 137.103C80.0113 138.299 79.4463 139.43 78.9779 140.587C78.9731 140.599 78.8257 140.553 78.7448 140.534Z"
            fill="white" />
        <path
            d="M190.192 184.14C191.585 181.117 192.92 178.075 193.434 174.748C193.992 177.051 191.989 182.869 190.192 184.14Z"
            fill="white" />
        <path
            d="M138.165 172.44C137.313 172.896 136.641 172.643 135.979 172.538C134.508 172.304 133.044 172.186 131.604 172.706C131.309 172.813 130.955 173.057 130.792 172.599C130.673 172.263 131.052 172.167 131.272 172.029C132.731 171.117 134.332 171.475 135.863 171.648C136.566 171.728 137.447 171.66 138.165 172.44Z"
            fill="white" />
        <path
            d="M112.52 171.333C114.774 168.892 116.103 165.906 117.454 162.934C117.366 165.615 114.711 170.21 112.52 171.333Z"
            fill="white" />
        <path
            d="M124.026 184.763C122.925 183.007 121.922 179.021 122.251 177.788C123.158 180.029 124.004 182.287 124.026 184.763Z"
            fill="white" />
        <path
            d="M169.54 178.526C168.704 176.113 168.151 173.831 168.245 171.413C168.257 171.128 168.375 170.852 168.723 170.85C168.952 170.848 169.028 171.06 169.008 171.245C168.753 173.6 169.685 175.806 169.854 178.106C169.859 178.167 169.762 178.236 169.54 178.526Z"
            fill="white" />
        <path
            d="M74.3316 146.852C73.6761 146.93 73.4387 146.614 73.3249 146.272C72.7888 144.661 72.1667 143.073 71.8663 141.391C71.8252 141.161 71.6582 140.805 72.0914 140.744C72.3283 140.711 72.5543 140.848 72.6273 141.091C73.1988 142.999 73.7589 144.911 74.3316 146.852Z"
            fill="white" />
        <path
            d="M100.427 129.384C100.471 129.675 100.421 129.961 100.106 130.062C99.7838 130.165 99.7375 129.895 99.6855 129.667C99.3164 128.046 98.9281 126.429 98.5949 124.801C98.5313 124.49 98.3657 123.959 98.8797 123.864C99.4325 123.762 99.369 124.28 99.4109 124.63C99.6049 126.247 100.314 127.749 100.427 129.384Z"
            fill="white" />
        <path
            d="M92.5607 146.035C90.9415 147.705 89.2719 149.332 86.9872 150.12C88.5821 148.415 90.5256 147.173 92.5607 146.035Z"
            fill="white" />
        <path
            d="M161.49 172.47C159.281 171.375 157.583 169.67 156.01 167.816C156.11 167.693 156.21 167.57 156.311 167.447C158.119 169.006 159.928 170.564 161.737 172.123C161.654 172.239 161.572 172.354 161.49 172.47Z"
            fill="white" />
        <path
            d="M148.471 160.971C147.01 160.91 145.751 160.468 144.496 160.022C144.19 159.913 143.875 159.658 144.025 159.293C144.22 158.817 144.563 159.175 144.832 159.265C146.009 159.656 147.194 160.001 148.434 160.131C148.894 160.179 149.695 159.948 149.644 160.627C149.59 161.335 148.787 160.761 148.471 160.971Z"
            fill="white" />
        <path
            d="M189.501 168.688C187.749 169.5 185.972 169.509 184.187 168.902C183.949 168.822 183.607 168.72 183.667 168.359C183.71 168.103 183.973 167.938 184.194 168.043C185.897 168.844 187.745 168.236 189.501 168.688Z"
            fill="white" />
        <path
            d="M120.585 140.143C118.848 138.37 116.761 137.814 114.936 136.585C116.649 136.226 120.281 138.343 120.585 140.143Z"
            fill="white" />
        <path
            d="M150.769 192.548C150.879 192.625 151.001 192.692 151.102 192.783C152.123 193.708 153.146 194.633 154.155 195.571C154.343 195.746 154.609 195.971 154.367 196.264C154.196 196.471 153.936 196.394 153.741 196.259C152.522 195.417 151.46 194.4 150.525 193.257C150.32 193.008 150.247 192.643 150.769 192.548Z"
            fill="white" />
        <path
            d="M88.2838 164.071C86.6716 163 86.5978 161.323 86.4072 159.695C86.3823 159.482 86.4949 159.341 86.7117 159.327C86.9837 159.309 87.1827 159.488 87.2059 159.717C87.3578 161.217 88.0592 162.575 88.2838 164.071Z"
            fill="white" />
        <path
            d="M143.261 181.074C143.4 181.229 143.549 181.346 143.634 181.499C144.261 182.632 144.88 183.769 145.489 184.912C145.621 185.159 145.719 185.472 145.418 185.647C145.182 185.783 145.003 185.57 144.86 185.374C144.096 184.324 143.409 183.226 142.955 182.004C142.836 181.684 142.741 181.286 143.261 181.074Z"
            fill="white" />
        <path
            d="M100.447 165.37C101.315 166.003 101.772 166.98 102.291 167.887C102.647 168.51 103.066 169.191 102.883 169.947C102.81 170.247 102.357 170.185 102.261 169.861C101.83 168.41 100.935 167.229 100.117 165.999C99.9281 165.714 100.027 165.476 100.447 165.37Z"
            fill="white" />
        <path
            d="M84.3535 117.612C84.7712 116.07 86.0432 115.655 87.2446 115.156C87.4464 115.073 87.7309 115.072 87.8474 115.314C87.9695 115.568 87.7731 115.754 87.5709 115.866C86.5024 116.455 85.4267 117.031 84.3535 117.612Z"
            fill="white" />
        <path
            d="M166.755 187.115C165.388 187.064 163.303 185.367 163.045 184.385C162.995 184.197 162.936 184.007 163.133 183.898C163.369 183.767 163.582 183.861 163.728 184.077C164.48 185.191 165.518 186.036 166.755 187.115Z"
            fill="white" />
        <path
            d="M136.176 145.561C137.392 145.539 138.879 146.843 138.712 147.784C137.845 147.068 136.881 146.463 136.176 145.561Z"
            fill="white" />
        <path
            d="M102.105 134.59C101.596 135.219 100.875 135.585 100.045 135.746C99.8259 135.788 99.6626 135.518 99.7727 135.397C100.333 134.781 101.063 134.407 101.844 134.157C102.049 134.092 102.138 134.311 102.105 134.59Z"
            fill="white" />
        <path
            d="M154.283 159.258C154.396 158.837 154.384 158.14 154.982 158.293C155.899 158.528 155.812 159.354 155.672 160.106C155.209 159.824 154.746 159.541 154.283 159.258Z"
            fill="white" />
        <path
            d="M211.97 167.654C211.966 167.461 211.962 167.268 211.958 167.075C212.232 162.694 211.64 158.483 209.534 154.563C209.498 154.496 209.638 154.334 209.696 154.217C211.982 154.076 214.055 153.106 216.232 152.538C216.743 152.404 217.214 151.962 217.803 152.268C217.398 152.845 217.687 153.387 218.034 153.782C218.949 154.824 219.38 156.192 220.766 156.96C221.72 157.488 221.904 159.008 222.825 159.814C223.293 160.688 222.829 161.748 223.375 162.607C223.134 165.911 221.457 168.136 218.37 169.302C216.275 169.677 214.146 169.931 212.259 171.04C211.88 170.012 211.938 168.946 211.978 167.881C214.749 166.886 217.638 166.352 220.26 165.656C217.614 166.17 214.844 167.141 211.97 167.654Z"
            fill="#8771B0" />
        <path
            d="M216.15 81.1379C215.886 80.124 216.351 79.8037 217.287 79.7415C221.077 79.4896 224.865 79.2089 228.651 78.9026C229.342 78.8467 229.534 79.1069 229.582 79.7396C229.68 81.0346 229.826 82.3268 229.986 83.6158C230.083 84.3925 229.582 84.4177 229.049 84.4631C226.142 84.7106 223.239 85.014 220.328 85.1898C219.135 85.2619 217.53 86.0015 216.844 85.2652C215.929 84.2837 216.46 82.5179 216.15 81.1379Z"
            fill="#FBF1E9" />
        <path
            d="M268.984 187.898C270.18 189.391 271.605 190.667 273.01 192.193C271.478 192.051 269.154 189.558 268.984 187.898Z"
            fill="#676677" />
        <path
            d="M278.108 179.774C276.852 178.186 275.788 176.686 274.442 175.427C276.035 175.695 277.984 177.991 278.108 179.774Z"
            fill="#656474" />
        <path
            d="M115.544 71.8186C111.977 72.2114 108.162 68.8129 108.367 64.2441C108.488 61.5578 110.948 58.6605 114.641 58.6361C118.637 58.6096 121.864 62.3826 121.855 66.1118C121.848 68.9192 118.943 72.2395 115.544 71.8186Z"
            fill="#F5765A" />
        <path
            d="M169.693 134.062C172.997 134.232 174.758 139.925 174.979 144.485C173.326 140.966 173.787 136.353 169.693 134.062Z"
            fill="white" />
        <path
            d="M173.796 132.433C173.875 131.409 174.864 131.353 175.468 130.966C177.484 129.675 179.527 128.401 181.857 127.73C182.248 127.617 182.669 127.285 183.46 127.802C179.778 128.658 176.941 130.598 174.063 132.46C173.975 132.445 173.886 132.436 173.796 132.433Z"
            fill="white" />
        <path
            d="M153.708 144.005C153.899 142.579 154.366 141.253 155.236 140.086C155.374 139.902 155.56 139.704 155.799 139.881C156.021 140.045 155.946 140.305 155.828 140.508C155.005 141.917 154.342 143.356 154.793 145.063C154.822 145.173 154.653 145.407 154.521 145.473C154.274 145.597 154.117 145.421 153.982 145.205C153.752 144.834 153.674 144.441 153.708 144.005Z"
            fill="white" />
        <path
            d="M175.185 135.24C177.193 134.018 179.09 132.605 181.432 131.912C179.342 133.295 177.253 134.678 175.163 136.061C174.342 136.238 174.309 136.214 174.724 135.745C174.874 135.574 175.031 135.408 175.185 135.24Z"
            fill="white" />
        <path
            d="M174.397 145.62C173.165 147.205 171.832 148.66 169.822 149.278C171.431 148.156 172.658 146.578 174.397 145.62Z"
            fill="white" />
        <path
            d="M166.286 143.324C166.234 143.472 166.226 143.635 166.14 143.713C165.976 143.863 165.786 143.777 165.669 143.626C165.049 142.824 164.43 142.021 163.841 141.197C163.768 141.095 163.846 140.855 163.912 140.703C163.931 140.66 164.211 140.649 164.265 140.713C164.97 141.555 165.796 142.306 166.286 143.324Z"
            fill="white" />
        <path
            d="M175.745 139.975C175.731 139.649 175.684 139.282 176 139.086C178.014 137.838 179.97 136.476 182.162 135.553C182.221 135.65 182.28 135.746 182.339 135.843C180.14 137.219 177.942 138.596 175.743 139.972L175.745 139.975Z"
            fill="white" />
        <path
            d="M181.577 139.11C181.703 139.193 182.209 139.196 181.772 139.441C180.071 140.395 178.328 141.273 176.602 142.179C176.549 141.678 176.867 141.375 177.246 141.212C178.722 140.576 180.021 139.575 181.577 139.11Z"
            fill="white" />
        <path
            d="M185.255 144.402C182.659 144.924 180.206 145.811 177.982 147.288C178.839 145.636 183.065 143.984 185.255 144.402Z"
            fill="white" />
        <path
            d="M177.536 144.795C178.821 143.406 181.57 141.921 183.166 141.741C181.164 143.031 179.403 144.039 177.536 144.795Z"
            fill="white" />
        <path
            d="M166.67 156.858C166.243 157.01 166.062 156.68 165.862 156.465C165.391 155.959 164.797 155.291 165.036 154.686C165.35 153.89 165.593 154.667 165.784 154.95C165.963 155.215 166.115 155.498 166.27 155.778C166.456 156.117 166.823 156.395 166.67 156.858Z"
            fill="white" />
        <path
            d="M209.458 167.632C209.524 167.969 209.944 168.377 209.529 168.626C209.123 168.869 208.947 168.326 208.692 168.096C208.355 167.792 208.26 167.264 207.772 167.1C206.976 166.098 205.833 165.786 204.667 165.489C204.329 165.403 203.66 165.446 203.85 164.864C203.996 164.416 204.551 164.624 204.955 164.704C206.848 165.077 208.294 166.135 209.458 167.632Z"
            fill="white" />
        <path
            d="M198.132 154.018C199.367 153.404 200.552 153.95 201.738 154.059C202.545 154.134 203.327 154.497 204.116 154.746C204.334 154.815 204.57 154.948 204.527 155.219C204.483 155.498 204.231 155.576 203.992 155.499C202.077 154.879 200.093 154.543 198.132 154.018Z"
            fill="white" />
        <path
            d="M217.804 152.268C215.66 152.966 213.521 153.677 211.371 154.353C210.816 154.528 210.213 154.753 209.696 154.217C212.224 153.456 214.752 152.697 217.279 151.931C217.607 151.831 217.815 151.864 217.804 152.268Z"
            fill="white" />
        <path
            d="M200.004 172.936C200.15 173.527 200.746 174.014 200.419 174.828C199.605 174.09 199.448 172.959 198.593 172.373C199.525 171.398 199.534 172.748 200.004 172.936Z"
            fill="white" />
        <path
            d="M211.97 167.654C214.73 166.476 217.682 166.068 220.601 165.519C217.783 166.516 214.959 167.485 211.978 167.881C211.975 167.805 211.973 167.729 211.97 167.654Z"
            fill="white" />
        <path
            d="M212.386 163.038C215.287 161.803 218.344 161.147 221.438 160.625C221.474 160.757 221.509 160.889 221.545 161.021C218.527 161.823 215.509 162.625 212.491 163.428C212.456 163.298 212.421 163.168 212.386 163.038Z"
            fill="white" />
        <path
            d="M218.18 156.659C216.285 157.721 214.209 158.153 212.092 158.455C213.981 157.395 216.111 157.118 218.18 156.659Z"
            fill="white" />
    </g>
    <defs>
        <clipPath id="clip0_2_282">
            <rect fill="white" height="228" width="343" />
        </clipPath>
    </defs>
</svg>
