<svg fill="none" height="227" viewBox="0 0 343 227" width="343" xmlns="http://www.w3.org/2000/svg">
    <g clip-path="url(#clip0_2_833)">
        <path
            d="M29.1778 92.6813C32.6943 92.5477 36.2055 92.4556 39.7184 92.8542C44.8689 93.4388 48.2785 96.4728 50.9415 100.612C51.2377 101.073 51.5357 101.532 51.8329 101.992C52.4072 102.023 52.7215 102.459 53.0742 102.813C56.0806 105.828 59.1738 108.753 62.2374 111.709C64.4317 113.826 66.4416 116.134 68.6043 118.285C72.2476 121.909 75.879 125.544 79.4365 129.253C79.6625 129.488 79.8961 129.724 80.1821 129.874C81.3339 130.478 82.1514 131.381 82.6728 132.562C90.2132 140.241 95.7105 149.32 100.717 158.74C101.802 160.782 102.971 162.78 103.838 164.931C105.616 168.372 106.986 171.997 108.595 175.513C109.205 176.276 108.844 177.341 109.413 178.118C109.908 179.61 110.44 181.09 110.908 182.591C112.084 186.599 112.988 190.661 113.376 194.825C113.613 197.36 113.323 199.814 112.159 202.119C112.072 202.226 111.973 202.378 111.846 202.378C109.157 202.385 106.302 202.5 104.309 200.426C102.501 198.543 100.48 197.912 98.0571 198.166C95.1032 198.476 92.3373 197.988 89.7532 196.514C89.5977 196.426 89.4377 196.319 89.2182 196.427C89.11 196.942 89.3839 197.404 89.4963 197.887C90.2156 200.979 88.32 203.053 85.1874 202.479C82.9007 202.059 80.7149 201.248 78.5549 200.401C73.2799 198.333 68.1764 195.973 63.3836 192.87C59.7169 190.496 57.137 187.262 54.6607 183.85C51.1896 179.066 48.5706 173.786 45.9205 168.537C40.8664 158.527 36.0711 148.39 31.1961 138.293C27.2083 130.033 23.1675 121.796 19.5315 113.372C18.1915 110.267 16.8021 107.183 15.4966 104.065C14.0676 100.65 14.6067 98.9213 17.6382 96.8338C18.0584 96.5444 18.4958 96.2793 18.9041 95.9734C20.5449 94.7444 20.5195 94.0184 18.8128 93.1657C19.1144 93.1012 19.4253 92.9545 19.716 92.9872C20.702 93.098 21.0437 92.5967 21.054 91.7167C21.5613 92.6207 22.3413 92.8702 23.3479 92.8133C24.3541 92.7565 25.3652 92.7587 26.3725 92.67C27.3073 92.8343 28.2421 92.8561 29.1778 92.6813Z"
            fill="#1E2B38" />
        <path
            d="M186.005 22.7741C185.155 23.0134 184.52 22.4135 183.802 22.1794C176.656 19.8517 169.388 17.9702 162.085 16.2183C161.328 16.0369 160.576 15.8403 159.814 15.3451C160.678 15.2599 161.54 15.1035 162.404 15.1002C175.908 15.0483 189.412 15.0063 202.917 14.9846C208.159 14.9761 213.401 15.0239 218.643 15.0461C225.481 17.6988 232.137 20.7645 238.651 24.117C249.007 29.4474 259.085 35.2691 268.887 41.566C279.781 48.5645 290.375 55.9933 300.745 63.7368C309.661 70.3955 318.389 77.2985 326.969 84.3899C331.721 88.3175 336.516 92.1946 341.275 96.1159C341.715 96.4784 342.091 96.8622 342.341 97.3694C342.362 98.1995 342.401 99.0295 342.401 99.8595C342.4 113.496 342.395 127.133 342.387 140.769C342.387 141.323 342.351 141.876 342.332 142.429C341.503 143.064 340.559 142.83 339.646 142.769C334.778 142.447 329.914 142.497 325.043 142.751C322.173 142.9 319.297 142.972 316.426 143.125C308.879 143.526 301.299 143.587 293.893 145.395C289.25 146.53 284.641 147.829 279.898 148.508C278.023 148.776 276.144 149.201 274.23 148.845C273.356 148.491 273.933 148.094 274.202 147.708C275.757 145.48 277.461 143.358 278.946 141.079C280.149 139.381 281.362 137.691 282.581 136.006C285.183 132.407 288.889 131.263 293.016 131.242C296.55 131.224 300.037 130.966 303.521 130.42C304.507 130.265 304.742 129.993 304.235 129.123C303.901 128.55 303.704 127.881 303.959 127.254C305.07 124.516 305.21 121.57 305.765 118.722C306.282 116.079 307.572 113.916 309.058 111.792C311.545 108.743 314.689 106.456 317.898 104.249C320.187 102.675 322.54 101.196 324.877 99.6961C325.859 99.2721 325.835 98.7756 325.013 98.1745C324.72 97.9596 324.436 97.7286 324.136 97.519C323.118 96.5184 322.009 95.6205 320.923 94.696C305.65 81.6356 289.715 69.4495 272.803 58.5741C263.324 52.4789 253.536 46.9099 243.525 41.7138C231.899 35.6797 219.959 30.3909 207.683 25.8367C201.856 23.675 195.966 21.6919 190.124 19.575C188.995 19.1661 188.458 19.4074 187.992 20.4863C187.589 21.4177 187.301 22.5666 186.005 22.7741Z"
            fill="#263340" />
        <path
            d="M273.814 148.541C278.9 148.659 283.794 147.476 288.661 146.235C293.753 144.936 298.874 143.811 304.107 143.314C305.709 143.162 307.333 143.005 308.939 143.013C314.167 143.038 319.373 142.545 324.588 142.336C329.174 142.151 333.752 142.22 338.331 142.2C339.649 142.195 340.99 142.448 342.332 142.429C342.354 147.288 342.384 152.147 342.396 157.006C342.407 161.266 342.372 165.525 342.419 169.784C342.428 170.675 342.212 170.976 341.281 170.973C328.619 170.933 315.958 170.964 303.296 170.903C294.878 170.863 287.067 168.266 279.449 164.974C274.389 162.786 269.463 160.319 264.622 157.684C262.813 157.261 261.443 156.01 259.869 155.147C258.22 154.243 258.146 154.126 256.927 155.512C253.497 159.41 248.824 160.937 244.095 162.363C241.561 163.127 238.982 163.722 236.357 164.093C235.53 164.21 234.697 164.333 233.893 163.96C233.333 163.519 233.287 162.845 233.113 162.232C232.255 159.209 231.17 156.275 229.756 153.464C228.048 150.07 225.194 148.528 221.5 148.367C220.209 148.311 218.913 148.346 217.619 148.376C216.263 148.441 214.893 148.199 213.553 148.574C210.287 148.675 207.027 148.859 203.78 149.218C200.289 149.673 196.8 150.187 193.388 151.048C185.887 152.94 178.307 154.447 170.689 155.753C162.684 157.125 154.845 159.257 146.871 160.762C145.779 160.968 144.674 161.1 143.593 161.366C138.94 162.031 134.256 162.231 129.563 162.322C128.605 162.34 127.648 161.943 126.695 162.326C125.941 162.366 125.816 161.775 125.686 161.255C125.419 160.182 124.966 159.193 124.433 158.234C123.03 155.814 121.483 153.461 120.755 150.717C120.602 150.14 120.258 149.457 121.048 149.009C121.682 149.044 122.004 149.52 122.341 149.95C125.125 153.505 128.893 155.178 133.28 155.672C133.883 155.74 134.474 155.643 135.055 155.48C141.63 155.034 147.77 153.032 153.744 150.368C160.456 147.374 166.654 143.443 173.085 139.937C173.818 139.538 174.531 139.091 175.301 138.774C176.333 138.348 176.548 137.684 176.186 136.668C175.86 135.754 175.636 134.805 175.28 133.896C174.602 132.162 174.773 131.708 176.409 130.73C177.126 130.301 177.827 129.849 178.511 129.368C181.941 127.425 185.377 125.445 189.261 124.576C191.827 124.002 194.465 123.719 197.116 124.109C198.183 124.527 197.985 125.274 197.585 126.032C195.505 129.968 194.011 134.148 192.449 138.299C191.465 140.916 190.865 143.543 192.423 146.171C193.218 148.198 195.197 149.284 197.294 148.841C197.882 148.717 198.456 148.522 199.06 148.477C199.336 148.45 199.615 148.41 199.888 148.414C203.921 148.481 205.889 145.417 208.117 142.873C209.543 141.246 210.742 139.426 212.523 138.126C212.971 137.799 213.345 137.374 213.645 136.908C214.592 135.435 215.804 134.4 217.662 134.373C220.217 134.003 222.76 134.399 225.296 134.575C227.651 134.738 229.393 133.746 230.999 132.216C235.319 128.1 238.377 123.199 240.257 117.551C240.872 115.704 241.551 113.879 241.804 111.93C241.867 111.442 241.953 110.906 242.456 110.607C244.514 110.879 245.152 111.828 244.488 113.65C244.237 114.341 244.046 115.056 243.758 115.73C243.441 116.47 243.64 116.959 244.327 117.305C244.889 118.357 244.255 118.997 243.472 119.471C242.716 119.929 242.223 120.542 241.861 121.318C241.096 122.957 240.113 124.477 239.24 126.058C238.177 127.984 238.221 128.185 239.58 129.879C242.697 133.763 246.684 136.475 251.2 138.469C251.751 138.713 252.305 138.949 252.847 139.213C254.584 140.061 256.323 140.472 258.161 139.448C258.756 139.117 259.448 138.936 259.599 139.987C259.584 140.642 259.372 141.259 259.206 141.881C258.228 145.533 259.267 148.546 262.148 150.92C264.218 152.626 266.599 153.728 269.26 154.177C270.911 154.455 271.447 154.116 271.876 152.512C272.15 151.484 272.415 150.454 272.81 149.466C272.989 149.02 273.104 148.441 273.814 148.541Z"
            fill="#121924" />
        <path
            d="M82.3967 132.689C81.7078 130.601 79.5061 130.004 78.2112 128.464C75.7462 125.533 72.8658 122.962 70.1774 120.228C68.35 118.37 66.4039 116.558 64.6218 114.662C62.7907 112.714 60.8663 110.847 58.9611 108.996C56.5727 106.674 54.2057 104.329 51.8325 101.991C50.9651 98.6386 49.952 95.3269 49.3896 91.8928C48.4634 86.2371 48.7143 80.6953 50.0771 75.1041C50.8306 72.0128 51.2192 68.833 52.4622 65.8683C53.8645 62.5233 55.6295 59.368 57.8363 56.4952C60.7601 52.6891 63.1585 48.6149 64.9765 44.1668C67.4839 38.032 70.9948 32.6201 76.4608 28.6144C83.1369 23.7218 90.4132 21.5305 98.7001 23.0862C102.621 23.8224 106.545 24.4979 110.298 25.8998C112.216 26.616 113.988 27.5982 115.729 28.6779C118.249 30.241 119.632 32.4142 119.855 35.3577C120.041 37.8055 120.198 40.2475 119.482 42.6473C118.786 42.6064 118.912 42.0329 118.836 41.6172C118.696 40.8543 118.639 40.0738 118.293 39.2276C115.929 41.3707 113.252 42.8508 111.474 45.656C108.452 50.4229 103.726 53.0624 98.2163 54.2596C97.9445 54.3187 97.6648 54.3203 97.387 54.2702C97.11 54.1946 96.8556 54.0933 96.821 53.7542C97.7274 52.7789 99.0846 52.8071 100.198 52.2782C101.753 51.5397 103.254 50.741 104.65 49.7438C105.981 48.7935 107.334 47.8697 108.236 46.9825C105.251 49.6187 101.567 51.7447 97.3453 52.9153C96.455 53.1621 95.6913 53.1911 94.8903 52.53C94.034 51.8232 92.9729 51.6066 91.8972 52.1552C90.8559 52.6864 90.5928 53.6282 90.5499 54.7056C90.4846 56.3436 90.8148 57.8291 92.0427 59.0155C92.2456 59.2116 92.3806 59.4543 92.4221 59.7427C92.1636 61.7527 91.4998 63.6833 91.3993 65.7318C91.2645 68.4786 91.4439 71.1697 92.2727 73.8002C92.4541 74.3759 92.4972 74.9784 92.6714 75.5527C93.186 77.5476 93.1837 79.5558 92.8973 81.588C92.5221 84.2493 91.4689 86.5324 89.379 88.2856C88.2809 89.2067 87.287 90.2328 86.3455 91.3095C84.9305 92.8766 83.592 94.5213 81.8737 95.7893C80.2553 96.8222 79.381 98.3468 78.9348 100.166C78.825 100.614 78.6783 101.059 78.4959 101.482C77.1572 104.59 77.1159 107.74 78.0303 110.973C78.5579 112.838 78.536 114.755 77.7118 116.545C77.061 117.958 77.2786 119.216 77.9644 120.516C79.2174 122.89 80.3282 125.332 81.352 127.814C81.8299 128.973 82.1589 130.177 82.4882 131.382C82.6087 131.823 82.7832 132.279 82.3967 132.689Z"
            fill="#382728" />
        <path
            d="M126.426 162.208C126.858 161.975 127.202 161.662 127.798 161.702C132.646 162.03 137.471 161.688 142.286 161.125C142.743 161.072 143.206 161.06 143.666 161.028C144.028 160.882 144.341 160.876 144.134 161.383C144.031 161.635 143.665 161.641 143.396 161.712C139.105 162.843 134.811 163.955 130.306 163.558C130.829 163.656 131.693 163.926 130.879 164.387C128.418 165.783 127.746 168.3 126.546 170.503C126.954 169.883 127.179 169.176 127.508 168.519C127.906 167.725 127.903 167.734 128.777 167.991C128.966 168.046 128.882 167.832 128.907 167.755C129.381 166.307 130.357 165.192 131.323 164.066C131.582 163.764 131.878 163.589 132.277 163.577C139.99 163.345 147.344 161.084 154.811 159.515C164.883 157.398 174.863 154.855 184.998 153.017C190.337 152.049 195.605 150.725 200.929 149.678C203.07 149.257 205.235 148.984 207.413 149.019C211.214 149.08 214.997 148.529 218.797 148.734C220.739 148.838 222.706 148.881 224.562 149.536C227.283 150.497 228.898 152.598 230.05 155.119C230.314 155.697 230.534 156.297 230.801 156.874C229.967 154.935 229.189 153.001 227.615 151.454C226.031 149.896 224.15 149.173 222.03 148.973C220.834 148.86 219.643 148.634 218.43 148.704C218 148.728 217.519 148.685 217.82 148.014C219.619 147.968 221.41 147.926 223.208 148.207C226.446 148.712 228.678 150.491 230.129 153.356C231.824 156.704 233.025 160.231 233.953 163.858C234.191 164.084 234.391 164.338 234.467 164.663C235.324 168.305 236.561 171.838 237.554 175.44C237.663 175.836 237.813 176.239 237.599 176.651C238.218 179.734 239.203 182.72 240.057 185.739C242.598 194.724 244.56 203.879 247.908 212.63C248.146 213.255 248.442 213.861 247.26 213.858C239.703 213.839 232.146 213.866 224.589 213.868C224.372 213.868 224.156 213.761 223.939 213.704C224.316 213.171 224.901 213.201 225.443 213.198C227.887 213.184 230.331 213.133 232.772 213.222C234.272 213.323 235.797 213.054 236.932 213.383C236.036 213.04 235.266 212.033 234.506 211.051C232.761 208.795 231.574 206.227 230.485 203.616C227.757 197.078 224.578 190.733 222.118 184.08C220.132 178.709 219.044 173.221 219.942 167.47C220.171 166.008 220.655 164.597 220.793 163.119C221.078 161.572 221.772 160.167 222.315 158.706C221.659 160.356 220.995 162.003 220.148 163.569C219.841 164.137 219.57 164.732 218.882 164.953C209.861 166.44 200.816 167.773 191.789 169.223C182.029 170.792 172.175 171.749 162.468 173.652C157.778 174.572 153.129 175.706 148.444 176.662C147.894 176.774 147.053 177.212 146.856 176.508C146.686 175.903 147.594 175.73 148.134 175.502C150.637 174.443 153.148 173.401 155.65 172.342C145.04 176.664 134.436 180.997 123.618 184.783C121.06 185.678 118.398 186.07 115.744 186.507C114.841 186.656 113.74 185.657 113.152 184.336C112.709 183.341 113.451 182.998 114.049 182.595C117.039 180.58 119.616 178.149 121.623 175.136C119.822 177.775 117.645 180.042 115.031 181.884C114.727 182.098 114.399 182.269 114.092 182.477C113.89 182.615 113.626 182.669 113.444 182.501C113.184 182.263 113.346 181.974 113.509 181.759C113.875 181.278 114.348 180.901 114.578 180.705C113.539 181.499 112.396 182.768 110.538 182.477C109.97 181.027 109.416 179.573 109.164 178.027C109.31 177.349 109.902 177.091 110.409 176.809C115.537 173.956 119.996 170.234 124.242 166.233C125.12 165.406 125.945 164.536 126.513 163.456C126.682 163.135 126.952 162.804 126.444 162.53C126.381 162.461 126.358 162.39 126.374 162.318C126.39 162.244 126.407 162.208 126.426 162.208Z"
            fill="#3994AE" />
        <path
            d="M18.8126 93.1656C19.4351 93.4137 20.5053 92.7869 20.6761 93.546C20.8846 94.4728 20.3044 95.4216 19.4752 96.0422C18.4787 96.7879 17.3856 97.3854 16.4463 98.2311C14.9123 99.6121 14.7123 101.256 15.4564 103C17.7037 108.267 19.9508 113.537 22.3535 118.734C26.0592 126.75 29.8694 134.719 33.6829 142.685C36.1983 147.939 38.8436 153.131 41.3459 158.392C43.8663 163.691 46.5416 168.908 49.215 174.13C51.9433 179.46 55.3097 184.349 59.0365 189.005C59.6318 189.749 60.4434 190.343 61.2241 190.912C68.3316 196.092 76.2505 199.552 84.6601 202.022C88.287 203.087 90.0681 200.259 89.1057 197.69C88.877 197.08 88.2362 196.207 88.7286 195.795C89.282 195.332 89.8855 196.262 90.4847 196.539C92.7861 197.603 95.1459 198.082 97.7072 197.812C100.308 197.537 102.81 197.797 104.511 200.225C105.52 201.665 107.212 201.478 108.658 201.798C109.728 202.035 110.817 202.316 111.941 202.217C112.487 201.739 113.162 201.794 113.8 201.832C118.692 202.116 123.277 200.971 127.715 199.003C133.425 196.471 139.452 194.947 145.535 193.66C155.751 191.498 165.974 189.364 176.261 187.565C178.023 187.256 179.84 187.022 181.598 187.732C188.467 188.292 192.953 192.166 195.725 198.164C197.807 202.67 198.453 207.46 197.759 212.412C197.611 213.468 197.211 213.844 196.082 213.841C174.49 213.794 152.898 213.787 131.306 213.783C120.116 213.78 108.926 213.8 97.7359 213.802C96.9967 213.802 96.2575 213.736 95.5182 213.7C95.0561 212.066 94.0758 210.81 92.6373 209.939C88.7323 207.576 84.6733 205.547 80.1283 204.735C75.0004 203.819 69.9239 206.608 68.1544 211.234C67.5922 212.704 67.7321 212.927 69.3181 212.928C77.0162 212.936 84.7142 212.927 92.4122 212.938C93.1701 212.939 93.9767 212.812 94.6527 213.369C94.4827 213.878 94.1131 213.752 93.8332 213.753C81.1732 213.76 68.5132 213.761 55.8532 213.759C55.6657 213.759 55.4841 213.74 55.3153 213.652C53.7294 210.716 52.7018 207.55 51.6414 204.414C46.0099 187.756 38.4117 171.928 31.1642 155.956C23.5104 139.089 16.2253 122.07 9.37812 104.862C8.69506 103.145 7.79979 101.501 7.65697 99.6095C7.44233 96.7661 8.52922 95.1085 11.2644 94.3047C13.722 93.5825 16.2595 93.302 18.8126 93.1656Z"
            fill="#111923" />
        <path
            d="M171.257 101.552C171.688 101.332 171.937 100.993 172.137 100.538C175.063 93.8922 178.631 87.5974 182.356 81.3641C185.273 76.4831 188.273 71.6699 191.498 66.9917C191.786 66.5741 192.204 66.2147 192.383 65.7586C193.294 63.4471 195.207 63.4879 197.133 63.7708C204.535 64.8579 211.807 66.5759 219.033 68.4761C222.607 69.4159 226.13 70.5484 229.673 71.6067C230.411 71.8274 230.714 72.1943 230.307 73.04C229.305 75.1197 228.074 77.0897 227.29 79.2743C227.173 79.6008 226.824 79.9566 227.462 80.1239C227.812 80.4691 227.496 80.7367 227.308 80.9426C224.876 83.6039 223.479 86.9022 221.706 89.9686C219.17 94.0862 216.46 98.0961 214.003 102.264C213.533 103.06 213.121 103.881 212.724 104.712C211.302 107.493 209.849 110.258 208.781 113.204C207.81 115.024 205.557 115.432 203.93 114.103C203.454 113.714 203.585 113.415 203.997 113.121C204.448 112.798 205.01 112.654 205.416 112.256C205.728 111.95 205.966 111.598 205.808 111.147C205.639 110.664 205.177 110.559 204.773 110.65C200.583 111.587 196.23 110.584 192.059 111.724C191.335 111.922 190.596 112 189.901 111.583C185.162 110.264 180.408 109 175.687 107.615C175.466 107.551 175.243 107.487 175.085 107.304C174.871 106.356 175.372 105.546 175.526 104.93C175.657 104.507 175.298 104.69 175.481 104.656C175.54 104.646 175.556 104.689 175.528 104.787C175.478 104.966 175.546 104.739 175.494 104.917C174.789 107.33 174.799 107.3 172.343 106.465C171.723 106.254 171.624 106.043 171.89 105.491C172.342 104.551 172.873 103.648 173.242 102.67C172.882 103.626 172.348 104.5 171.903 105.416C171.613 106.013 171.674 106.301 172.385 106.496C173.316 106.752 174.274 106.965 175.132 107.45C179.628 108.828 184.183 109.99 188.703 111.274C189.104 111.388 189.509 111.482 189.877 111.685C190.227 112.234 189.719 112.435 189.43 112.654C187.224 114.329 184.955 115.917 182.654 117.459C182.188 117.771 181.682 117.991 181.103 117.996C176.492 117.16 171.931 116.085 167.336 115.175C166.043 114.919 165.853 114.479 166.196 113.172C166.336 112.635 166.476 112.095 166.729 111.596C167.831 109.095 168.71 106.499 169.902 104.035C170.447 103.259 170.555 102.243 171.257 101.552Z"
            fill="#FBF2DF" />
        <path
            d="M186.005 22.7741C187.136 21.9842 187.594 20.7517 188.047 19.5474C188.306 18.8593 188.527 18.6451 189.312 18.9153C206.724 24.9102 223.95 31.3314 240.41 39.6864C261.53 50.4076 281.42 63.0341 300.187 77.4549C307.067 82.7415 313.819 88.1818 320.416 93.8147C320.697 94.0548 320.953 94.3248 321.22 94.5808C321.052 95.3328 320.403 95.283 319.893 95.2657C316.097 95.1365 312.32 95.642 308.527 95.5727C307.781 95.559 307.049 95.4878 306.374 95.1388C299.786 90.8615 293.177 86.6092 286.654 82.226C285.157 81.2203 283.619 80.281 282.084 79.3348C281.753 79.1307 281.269 79.0298 281.334 78.4714C276.639 75.2419 271.729 72.3566 266.852 69.4183C255.423 62.5335 243.442 56.555 232.441 48.9822C220.88 41.0232 208.567 34.4062 196.197 27.8583C192.84 26.081 189.445 24.384 186.005 22.7741Z"
            fill="#99BEC2" />
        <path
            d="M181.598 187.732C176.104 187.438 170.858 188.932 165.564 190.005C156.407 191.861 147.187 193.426 138.146 195.826C134.784 196.719 131.448 197.725 128.301 199.209C123.1 201.663 117.65 202.6 111.941 202.217C112.608 199.873 113.286 197.532 113.022 195.046C112.609 191.149 111.833 187.323 110.778 183.55C110.679 183.198 110.617 182.835 110.538 182.477C112.593 181.995 114.2 180.692 115.819 179.411C115.899 179.51 115.978 179.609 116.058 179.707C115.164 180.525 114.27 181.343 113.377 182.162C113.465 182.248 113.553 182.334 113.641 182.42C117.103 180.218 119.974 177.387 122.357 174.018C121.508 175.989 120.118 177.558 118.744 179.129C117.33 180.745 115.55 181.941 113.805 183.151C113.144 183.61 113.341 183.852 113.583 184.437C114.683 187.091 116.788 185.975 118.487 185.667C124.167 184.639 129.446 182.336 134.788 180.249C141.687 177.554 148.592 174.878 155.502 172.212C155.816 172.091 156.145 171.796 156.631 172.072C153.383 173.527 150.195 174.954 147.007 176.382C147.026 176.451 147.046 176.52 147.066 176.589C149.989 175.959 152.919 175.358 155.834 174.696C162.135 173.265 168.478 172.114 174.895 171.3C181.523 170.459 188.115 169.33 194.724 168.337C201.699 167.289 208.677 166.254 215.653 165.21C216.746 165.046 217.837 164.859 218.929 164.683C218.633 165.941 217.379 166.142 216.545 166.786C215.245 167.788 213.79 168.399 212.059 168.261C210.749 168.157 209.777 169.141 208.652 169.622C208.16 169.832 208.273 170.499 208.187 170.996C208.095 171.524 208.358 172.247 207.532 172.457C207.532 171.443 206.992 171.884 206.583 172.128C204.518 173.363 202.431 174.566 200.411 175.871C194.462 179.715 188.538 183.596 182.311 186.988C182.006 187.154 181.578 187.24 181.598 187.732Z"
            fill="#2A687C" />
        <path
            d="M29.1777 92.6813C28.2858 93.1632 27.3224 92.8125 26.3983 92.9191C26.3342 92.8532 26.2577 92.7897 26.2275 92.7073C25.5376 90.8202 25.5384 90.8285 23.4018 90.818C22.6269 90.8142 21.8466 90.9178 21.0773 90.7384C20.6457 90.3365 20.1086 90.4953 19.6145 90.4869C17.2948 90.4473 14.9738 90.4624 12.6549 90.3978C9.89643 90.3208 9.21518 89.7636 8.45988 87.0864C8.00502 85.4742 7.75856 83.8216 7.75295 82.1501C7.71405 70.5532 9.18032 59.153 12.4693 48.0214C14.2923 41.8514 15.612 40.9189 22.0494 40.7778C23.7158 40.7413 25.3878 40.8637 27.0547 40.9574C30.4683 41.1493 32.9721 42.996 34.9943 45.5437C40.5277 52.5152 42.8316 60.5778 42.697 69.3613C42.6011 75.6182 40.9331 81.4969 37.9776 87.0343C36.7297 89.3722 35.1883 90.8457 32.2943 90.4699C30.7432 90.2685 29.1423 90.4778 27.5663 90.4272C26.77 90.4017 26.512 90.6414 26.5778 91.45C26.6379 92.1873 26.5529 92.8635 27.6529 92.6781C28.1468 92.5948 28.6686 92.6752 29.1777 92.6813Z"
            fill="#1E2C39" />
        <path
            d="M342.341 97.3694C335.802 92.0058 329.298 86.5998 322.714 81.2924C317.714 77.2619 312.613 73.3558 307.555 69.3965C296.15 60.4684 284.328 52.1176 272.232 44.1548C263.412 38.3488 254.357 32.9329 245.06 27.9109C236.94 23.5249 228.678 19.4592 220.111 16.0169C219.576 15.8016 218.933 15.6669 218.643 15.0461C223.329 15.0265 228.015 15.0065 232.701 14.9882C233.44 14.9853 234.011 15.4294 234.614 15.7549C247.265 22.5821 259.863 29.5029 272.15 36.9739C287.221 46.137 301.882 55.9041 315.976 66.5063C324.538 72.9477 332.992 79.5308 341.308 86.2884C342.098 86.9299 342.471 87.5594 342.434 88.615C342.33 91.5306 342.362 94.4509 342.341 97.3694Z"
            fill="#3D6471" />
        <path
            d="M207.532 172.457C207.59 172.387 207.707 172.307 207.698 172.248C207.288 169.639 209.107 168.773 211.029 167.984C211.196 167.915 211.385 167.752 211.526 167.786C214.449 168.498 216.296 166.483 218.393 165.105C218.583 164.981 218.751 164.824 218.929 164.683C220.189 163.18 220.805 161.329 221.68 159.617C221.907 159.173 222.087 158.704 222.568 158.332C222.092 159.888 221.617 161.444 221.141 163C220.123 166.496 218.838 169.946 218.757 173.638C218.641 178.872 219.861 183.859 222.244 188.48C226.214 196.181 229.469 204.188 232.822 212.157C233.013 212.612 233.344 213.053 233.112 213.599C230.054 213.634 226.996 213.669 223.939 213.703C222.692 211.189 221.402 208.694 220.211 206.153C219.358 204.331 218.229 202.746 216.856 201.274C212.265 196.351 208.846 190.775 207.63 184.045C206.934 180.192 206.967 176.325 207.532 172.457Z"
            fill="#134652" />
        <path
            d="M92.1992 59.5228C90.3852 58.148 89.601 55.5696 90.3486 53.4381C91.0498 51.4386 93.373 50.8105 95.1223 52.259C95.7519 52.7803 96.2277 52.8574 96.9721 52.657C101.669 51.3922 105.722 49.0094 109.33 45.8142C106.067 49.7749 101.916 52.3766 96.9661 53.7571C96.027 54.2838 95.1287 54.4672 94.1141 53.818C92.3833 52.7107 91.3922 53.2958 91.3057 55.3911C91.4181 54.0746 91.7317 53.7302 93.0854 53.9772C94.5533 54.2451 95.9878 54.2671 97.4433 54.0222C104.049 52.8777 109.065 49.4172 112.446 43.6504C112.938 42.8105 113.499 42.1845 114.341 41.7179C115.848 40.8824 117.213 39.8522 118.301 38.3449C119.239 39.6821 118.867 41.3082 119.482 42.6472C119.52 43.4616 119.142 44.3121 119.694 45.0817C120.199 45.7907 119.652 46.3835 119.48 47.0176C119.361 48.9726 118.512 50.6617 117.442 52.2293C116.621 53.4315 116.574 54.558 117.184 55.8551C117.962 57.5111 119.08 58.8953 120.316 60.2096C121.422 61.3856 121.347 61.9296 119.935 62.7375C119.457 63.0106 118.947 63.252 118.422 63.4119C117.144 63.8012 116.621 64.5907 116.954 65.9043C115.339 67.5602 113.3 67.661 111.403 67.6475C112.35 68.4658 113.987 68.9005 114.716 70.4198C113.903 71.4319 113.723 72.6951 113.369 73.8818C112.723 76.0457 112.144 76.3789 109.917 75.7753C109.384 75.6308 108.839 75.5292 108.299 75.4079C108.04 75.6501 108.302 76.0587 108.016 76.2925C107.439 76.2696 107.482 75.6173 107.098 75.3987C105.128 74.337 102.895 73.9085 100.935 72.8283C96.8257 70.9525 94.5538 67.8212 94.231 63.2687C94.1251 61.7737 94.3398 59.9749 92.1992 59.5228Z"
            fill="#F8A871" />
        <path
            d="M101.073 72.5104C103.225 73.384 105.376 74.2576 107.528 75.1311C107.604 76.2829 108.334 77.2822 108.307 78.4563C108.395 79.1576 108.63 79.8432 108.562 80.5632C108.618 80.8032 108.714 81.0274 108.835 81.2418C109.753 82.4333 110.737 83.5551 112.052 84.3342C112.939 85.1135 113.974 85.7483 114.457 86.9182C114.524 87.0804 114.76 86.5929 115.008 86.7954C115.791 88.3038 116.893 89.6515 117.235 91.3821C117.61 93.278 117.052 95.0511 116.606 96.8442C116.461 97.1087 116.387 97.3977 116.316 97.6885C116.127 98.4146 115.84 99.1309 116.129 99.8967C116.688 101.994 117.922 103.501 119.982 104.279C120.595 104.51 121.149 104.827 121.62 105.285C122.013 105.675 122.403 106.068 122.787 106.467C124.794 108.549 125.118 111.189 123.492 113.849C123.135 114.432 123.165 115.203 122.636 115.715C122.008 115.975 121.668 115.502 121.364 115.136C119.132 112.446 116.436 110.252 113.672 108.169C110.04 105.431 106.823 102.24 103.431 99.2395C102.99 98.75 102.452 98.3367 102.208 97.6921C102.004 96.6126 101.095 96.0139 100.437 95.2897C99.0871 93.8054 98.0751 92.0091 96.3785 90.8411C95.806 90.3296 95.5383 89.6681 95.425 88.9284C95.6596 83.535 96.8585 78.3973 99.5317 73.6595C99.8642 73.0702 100.166 72.3656 101.073 72.5104Z"
            fill="#382728" />
        <path
            d="M281.334 78.4714C289.6 83.8445 297.865 89.2177 306.131 94.5909C306.023 95.5028 305.266 95.4743 304.664 95.4955C299.402 95.6812 294.255 96.6552 289.114 97.6873C287.974 97.9161 286.87 98.2647 285.75 98.5639C283.716 99.1072 282.092 100.115 281.21 102.104C280.958 102.671 280.543 102.889 279.989 102.544C279.074 101.975 277.991 101.815 277.059 101.297C273.487 101.118 269.893 101.364 266.343 100.733C266.021 100.675 265.712 100.644 265.463 100.414C265.648 99.5478 266.432 99.6691 267.005 99.5526C269.541 99.037 271.641 96.6029 271.755 94.0329C271.888 91.0384 272.355 88.0755 272.69 85.1007C272.794 84.1769 272.927 83.2636 272.719 82.3478C272.496 81.3627 273.471 80.5981 273.191 79.6113C273.362 78.1634 274.542 78.3816 275.494 78.221C277.461 77.8433 279.385 78.4509 281.334 78.4714Z"
            fill="#385968" />
        <path
            d="M277.059 101.297C278.438 100.999 279.42 101.91 280.666 102.485C281.849 98.5368 285.422 98.1796 288.644 97.3979C293.076 96.3227 297.603 95.741 302.126 95.1814C302.904 95.0852 303.701 95.1441 304.49 95.1464C305.104 95.1482 305.701 95.1207 306.131 94.5908C308.097 95.6995 310.235 95.138 312.264 95.0429C314.767 94.9256 317.27 94.9571 319.769 94.8427C320.258 94.8203 320.801 95.0181 321.22 94.5807C322.302 95.4311 323.444 96.2175 324.252 97.3651C324.185 98.2652 323.447 98.3884 322.8 98.5803C321.544 98.9528 320.247 98.8949 318.958 98.8899C317.917 98.8898 316.869 98.7403 315.845 99.0546C312.558 99.4144 309.251 99.5954 305.982 100.123C301.614 100.514 297.249 100.964 292.882 101.387C290.631 101.605 288.385 101.926 286.15 102.282C284.618 102.526 283.939 103.841 283.218 105.035C281.663 107.608 280.338 110.314 278.719 112.85C277.876 114.17 277.417 114.161 276.542 112.86C275.497 110.848 275.906 109.044 277.602 107.364C275.386 107.007 273.453 107.43 271.539 107.593C268.985 107.81 266.44 107.748 263.891 107.802C255.351 107.982 246.821 107.313 238.281 107.532C238.049 107.538 237.817 107.528 237.589 107.571C236.859 107.733 236.228 107.425 235.647 107.072C234.302 106.255 232.63 105.985 231.586 104.664C231.672 103.888 231.618 103.045 232.537 102.663C232.788 103.188 233.262 102.962 233.641 102.956C247.682 102.732 261.73 102.675 275.742 101.563C276.185 101.528 276.68 101.678 277.059 101.297Z"
            fill="#437483" />
        <path
            d="M237.599 176.651C236.266 172.42 234.846 168.214 233.953 163.858C237.275 163.897 240.452 163.038 243.584 162.112C247.341 161.002 251.182 159.989 254.306 157.428C255.376 156.551 256.365 155.568 257.324 154.569C257.884 153.985 258.348 153.782 259.096 154.264C260.916 155.439 262.777 156.548 264.622 157.684C263.929 158.366 263.837 159.326 263.502 160.167C262.662 162.272 261.808 164.368 260.686 166.344C257.275 172.354 251.882 175.231 245.216 176.102C242.687 176.432 240.152 176.661 237.599 176.651Z"
            fill="#334E5C" />
        <path
            d="M232.537 102.663C232.256 103.311 231.976 103.959 231.695 104.608C231.793 105.31 231.702 105.95 231.313 106.584C229.436 109.645 228.189 113.004 227.187 116.408C226.701 118.058 225.911 119.432 225.044 120.828C223.166 123.855 221.452 126.978 219.548 129.99C218.83 131.126 218.144 132.282 217.28 133.311C216.772 133.916 216.999 134.285 217.534 134.643C215.671 134.827 214.871 136.404 213.603 137.433C210.099 140.277 207.853 144.218 204.484 147.2C202.713 148.768 200.867 148.181 199.139 148.819C198.992 148.134 199.513 147.804 199.924 147.469C202.461 145.406 204.511 142.912 206.543 140.369C209.55 136.605 212.744 132.986 215.345 128.914C218.339 124.229 221.503 119.615 223.739 114.518C226.938 107.226 230.276 99.9824 232.787 92.4068C233.649 89.8046 234.281 87.1373 234.618 84.4275C234.857 82.5068 234.41 80.5668 234.313 78.6351C233.974 77.9344 233.92 77.0114 232.9 76.842C232.584 76.7395 232.224 76.6852 232.209 76.2401C235.349 73.3727 238.596 75.5028 239.566 78.3075C240.291 80.4005 240.243 82.5045 239.616 84.5892C237.879 90.3586 235.383 95.8357 233.065 101.381C232.887 101.808 232.713 102.235 232.537 102.663Z"
            fill="#141F2B" />
        <path
            d="M121.393 105.453C120.84 105.04 120.227 104.753 119.586 104.487C117.535 103.634 116.269 102.105 115.846 99.9085C116.121 99.0833 116.126 98.2248 116.159 97.3698C116.194 97.0973 116.358 96.9347 116.606 96.8436C116.834 100.038 116.834 100.027 120.104 100.111C135.721 100.511 151.337 100.914 166.953 101.327C168.389 101.365 169.823 101.475 171.257 101.552C171.114 102.488 170.711 103.32 170.216 104.114C169.601 104.694 168.84 104.767 168.045 104.766C165.313 104.765 162.579 104.826 159.849 104.754C152.438 104.56 145.055 105.268 137.653 105.406C134.372 105.468 131.086 105.59 127.803 105.576C125.993 105.568 124.206 105.873 122.399 105.806C122.037 105.765 121.714 105.613 121.393 105.453Z"
            fill="#447483" />
        <path
            d="M55.3153 213.652C62.0866 213.632 68.8579 213.607 75.6293 213.596C81.4274 213.586 87.2255 213.593 93.0237 213.593C93.4664 213.593 93.909 213.593 94.3517 213.593C94.3516 213.512 94.3515 213.43 94.3514 213.349C93.8046 213.349 93.2577 213.349 92.7108 213.349C84.7325 213.35 76.7543 213.351 68.7761 213.351C66.9347 213.351 66.8822 213.267 67.5921 211.491C69.8943 205.733 75.3219 203.011 81.5536 204.597C85.9844 205.724 90.1072 207.606 93.7859 210.321C94.8088 211.076 96.1044 211.988 95.5182 213.7C95.108 213.742 94.6978 213.821 94.2875 213.821C81.6996 213.828 69.1116 213.829 56.5237 213.823C56.1181 213.823 55.6861 213.929 55.3153 213.652Z"
            fill="#202E3C" />
        <path
            d="M273.504 79.5346C273.075 82.7478 273.097 86.0006 272.608 89.2123C272.276 91.3883 272.174 93.5985 271.87 95.7796C271.661 97.2822 268.952 99.6959 267.424 99.8709C266.738 99.9494 266.066 100.051 265.463 100.413C261.111 99.3745 258.364 95.7529 258.307 90.7581C258.276 88.0135 258.847 85.3408 259.902 82.7933C260.576 81.1642 261.674 79.8854 263.224 79.0123C264.755 79.3955 266.214 78.8043 267.67 78.566C269.778 78.2212 271.673 78.5333 273.504 79.5346Z"
            fill="#457888" />
        <path
            d="M232.209 76.2402C232.397 76.6772 232.807 76.451 233.111 76.5404C233.645 76.942 233.819 77.5044 233.763 78.1335C233.482 81.2853 232.637 84.3011 231.52 87.2488C231.454 87.4233 231.315 87.5537 231.163 87.6622C230.927 87.7509 230.746 87.6531 230.588 87.4891C230.183 86.9381 230.842 86.4625 230.7 85.7929C229.704 86.605 228.866 87.4492 228.118 88.3872C227.334 89.3696 226.487 90.2965 225.444 91.0053C223.961 92.0132 222.795 91.4027 222.616 89.56C222.851 87.769 223.682 86.2334 224.632 84.7346C226.653 81.5467 229.071 78.7148 232.029 76.3546C232.069 76.2852 232.129 76.247 232.209 76.2402Z"
            fill="#F6EFD5" />
        <path
            d="M273.504 79.5346C273.266 79.6504 273.036 79.9193 272.752 79.7001C270.785 78.1804 268.6 78.9263 266.479 79.1079C265.798 79.1662 265.085 79.3002 264.472 79.5837C263.727 79.9284 263.515 79.4685 263.224 79.0123C265.373 77.4974 267.831 77.2909 270.327 77.4781C272.058 77.6079 273.772 77.9653 275.494 78.221C274.737 78.5167 273.715 78.4138 273.504 79.5346Z"
            fill="#7FB5C4" />
        <path
            d="M21.0773 90.7384C22.6779 90.0745 24.3413 90.4999 25.9763 90.4808C26.4006 90.4759 26.3539 90.9387 26.3662 91.2522C26.3881 91.8073 26.3887 92.3634 26.3983 92.9191C24.8471 93.4809 23.2407 93.1742 21.6653 93.1499C20.7673 93.1361 21.3088 92.1844 21.0538 91.7166C21.0617 91.3905 21.0695 91.0645 21.0773 90.7384Z"
            fill="#121A24" />
        <path
            d="M114.716 70.4198C113.286 69.3671 111.857 68.3143 110.427 67.2616C112.828 67.7682 114.908 66.9201 116.954 65.9043C117.576 66.7248 116.93 67.2018 116.394 67.5713C115.941 67.8837 115.79 68.0237 116.024 68.6253C116.52 69.9025 116.163 70.3122 114.716 70.4198Z"
            fill="#CE2E36" />
        <path
            d="M232.029 76.3546C232.043 76.8692 231.589 77.0394 231.29 77.2922C228.381 79.7517 226.28 82.8623 224.214 86.0014C223.493 87.0965 223.223 88.3689 222.847 89.5981C222.638 89.7273 222.801 88.6018 222.343 89.4582C222.183 89.7563 221.869 90.0353 221.429 89.8591C223.176 86.4511 224.955 83.0625 227.462 80.1238C228.929 78.8005 230.338 77.4078 232.029 76.3546Z"
            fill="#5D767E" />
        <path
            d="M119.48 47.0176C119.31 46.3456 119.659 45.7307 119.694 45.0815C120.931 42.1517 121.381 39.1031 121.08 35.9408C121.062 35.6313 120.727 35.2186 121.349 35.118C122.232 38.6924 122.048 42.1808 120.477 45.5474C120.226 46.0843 120.02 46.6685 119.48 47.0176Z"
            fill="#3E3231" />
        <path
            d="M115.008 86.7954C114.627 87.2408 114.354 87.1814 113.974 86.7205C113.352 85.9658 112.63 85.2925 111.95 84.585C110.68 83.6093 109.657 82.381 108.528 81.26C108.449 81.0712 108.37 80.8825 108.29 80.6937C108.437 79.6004 109.026 80.2195 109.498 80.3823C111.978 81.9694 114.443 83.5693 115.008 86.7954Z"
            fill="#64595A" />
        <path
            d="M109.498 80.3824C109.075 80.4061 108.538 79.9918 108.29 80.6937C108.215 80.0192 108.14 79.3447 108.065 78.6702C108.349 77.809 107.586 76.9989 107.941 76.1343C108.037 75.8805 107.933 75.5288 108.299 75.4078C108.65 77.0778 108.297 78.9166 109.498 80.3824Z"
            fill="#534744" />
        <path
            d="M121.349 35.118C121.038 35.3198 121.21 35.6795 121.08 35.9407C120.847 35.0732 120.613 34.2056 120.324 33.1315C121.093 33.7484 121.227 34.43 121.349 35.118Z"
            fill="#8D8A8A" />
        <path
            d="M82.3968 132.689C81.8388 129.604 80.5724 126.775 79.2401 123.97C78.7234 122.882 78.222 121.785 77.6602 120.72C76.9143 119.307 76.6 117.954 77.3701 116.381C78.2377 114.608 78.1677 112.68 77.6174 110.809C76.7246 107.772 76.731 104.797 77.9854 101.853C78.293 101.131 78.5822 100.384 78.7396 99.619C79.1294 97.7257 80.1417 96.3343 81.8499 95.4384C82.6691 95.8751 82.3366 96.5459 82.1525 97.1377C81.7269 98.5062 81.2511 99.8592 80.8051 101.222C80.6757 101.617 80.5369 102.01 80.4283 102.412C79.8877 104.412 80.6981 106.492 79.8054 108.547C78.992 110.419 79.4436 112.561 79.5106 114.594C79.4732 112.839 80.3275 111.318 80.8702 109.735C81.268 108.575 83.4485 108.539 83.9917 109.634C86.1146 113.916 89.135 117.515 92.4171 120.931C93.2484 121.797 93.9831 122.759 94.5193 123.849C95.4926 125.561 96.9224 126.915 98.2497 128.318C105.133 135.59 112.029 142.866 121.091 147.57C121.376 147.717 121.706 147.815 121.765 148.201C121.639 148.571 121.451 148.901 121.125 149.136C120.531 149.552 120.958 150.044 121.059 150.478C121.703 153.248 123.344 155.548 124.658 158.003C124.124 158.817 123.269 158.662 122.512 158.634C121.345 158.592 120.377 158.896 119.43 159.622C118.258 160.52 116.983 161.311 115.555 161.774C114.745 162.036 114.208 162.571 113.842 163.301C113.082 164.819 111.825 165.463 110.163 165.632C108.497 165.801 106.852 166.037 105.183 165.691C104.581 165.566 104.017 165.394 103.572 164.947C100.538 158.909 97.2376 153.026 93.6951 147.264C90.7409 142.459 87.2702 138.096 83.4781 133.955C83.1034 133.546 82.7565 133.112 82.3968 132.689Z"
            fill="#8771B0" />
        <path
            d="M103.572 164.947C105.936 165.722 108.327 165.536 110.74 165.216C112.271 165.013 113.093 164.062 113.694 162.805C114.013 162.139 114.448 161.693 115.196 161.498C116.795 161.084 118.193 160.187 119.421 159.169C120.307 158.436 121.148 158.22 122.194 158.273C123.026 158.315 123.863 158.334 124.658 158.003C125.718 159.207 125.803 160.82 126.426 162.208C126.416 162.291 126.416 162.374 126.428 162.457C126.623 163.368 125.994 163.954 125.487 164.496C121.52 168.743 117.206 172.565 111.885 175.072C110.77 175.597 109.618 176.149 108.303 175.861C106.726 172.223 105.149 168.585 103.572 164.947Z"
            fill="#C2B3DC" />
        <path
            d="M108.303 175.862C112.046 175.128 115.121 173.084 118.073 170.833C120.464 169.01 122.746 167.054 124.771 164.821C125.419 164.105 126.077 163.385 126.428 162.457C126.695 162.399 126.963 162.341 127.361 162.255C126.997 163.507 126.408 164.568 125.51 165.396C122.332 168.329 119.337 171.479 115.679 173.855C113.516 175.259 111.336 176.637 109.164 178.027C108.24 177.557 109.07 176.393 108.303 175.862Z"
            fill="#1D5461" />
        <path
            d="M305.828 99.8554C307.387 99.2674 309.056 99.3293 310.67 99.0842C312.384 98.8238 314.142 98.8536 315.881 98.7567C316.879 98.395 317.95 98.8557 318.949 98.4905C320.78 98.4168 322.702 98.7637 324.252 97.3652C325.158 97.4746 325.732 98.2329 326.109 98.8176C326.624 99.6187 325.411 99.4728 325.083 99.8755C322.735 100.339 320.419 100.162 318.06 99.7886C314.716 99.2596 311.809 101.26 310.867 104.501C310.171 106.897 309.97 109.39 309.469 111.824C308.264 113.301 307.307 114.971 306.597 116.691C305.962 118.228 305.875 119.995 305.589 121.668C305.272 123.521 305.192 125.42 304.331 127.155C303.869 128.086 304.431 128.878 304.909 129.597C305.447 130.408 305.335 130.601 304.345 130.776C299.649 131.606 294.872 131.343 290.167 131.903C287.514 132.218 285.221 133.362 283.435 135.586C281.932 137.456 280.693 139.514 279.111 141.316C278.494 141.667 278.2 141.249 277.912 140.816C277.994 139.686 278.754 138.892 279.345 138.029C281.673 134.627 284.235 131.404 286.89 128.251C291.069 123.288 294.75 117.952 298.486 112.658C300.809 109.368 303.012 105.996 305.26 102.656C305.68 102.032 306.072 101.412 305.991 100.618C306.072 100.337 305.957 100.095 305.828 99.8554Z"
            fill="#324D5A" />
        <path
            d="M278.069 140.762C278.399 140.979 278.649 141.346 279.111 141.316C277.53 143.86 275.798 146.292 273.813 148.541C272.681 149.805 272.562 151.458 272.17 152.986C271.862 154.188 271.154 154.816 270.007 154.635C265.512 153.926 261.606 152.2 259.308 147.962C257.858 145.287 258.551 142.603 259.337 139.927C259.571 138.082 260.676 136.615 261.469 135.012C263.314 131.923 265.172 128.842 266.887 125.678C267.437 124.637 268.062 123.634 268.494 122.532C269.162 121.486 269.375 120.198 270.234 119.252C271.483 118.221 272.037 116.707 272.888 115.402C273.467 114.514 273.952 113.562 274.532 112.67C274.808 112.247 275.086 111.802 275.663 111.727C276.342 111.857 276.536 112.475 276.883 112.938C277.405 113.915 277.834 113.698 278.304 112.87C279.692 110.422 281.234 108.052 282.479 105.534C283.667 103.131 285.291 101.734 288.074 101.549C291.842 101.299 295.594 100.804 299.353 100.417C301.509 100.194 303.654 99.8512 305.828 99.8555C306.073 99.8996 306.412 99.7877 306.528 100.066C306.661 100.382 306.332 100.363 306.144 100.424C305.344 101.031 304.353 100.927 303.47 100.984C298.15 101.328 292.861 101.973 287.555 102.442C285.537 102.62 284.375 103.703 283.469 105.337C281.132 109.551 278.74 113.736 276.216 117.84C272.963 123.129 269.89 128.523 266.736 133.869C264.794 137.16 263.551 140.759 262.938 144.545C262.589 146.701 263.592 148.45 265.653 149.132C268.328 150.017 271.961 149.971 274.092 146.515C275.041 144.978 276.019 143.458 276.962 141.916C277.241 141.46 277.412 140.87 278.069 140.762Z"
            fill="#2B4452" />
        <path
            d="M309.469 111.824C308.802 111.127 309.392 110.414 309.497 109.741C309.769 107.982 309.952 106.21 310.476 104.486C311.541 100.987 314.504 98.8609 318.073 99.3532C320.075 99.6294 322.035 100.144 324.068 99.6093C324.403 99.5212 324.816 99.5213 325.083 99.8755C321.583 102.33 317.874 104.48 314.496 107.11C312.678 108.526 310.936 110.031 309.469 111.824Z"
            fill="#375765" />
        <path
            d="M261.804 135.17C260.982 136.755 260.16 138.341 259.337 139.927C259.227 139.172 258.773 139.466 258.439 139.678C256.463 140.935 254.597 140.358 252.638 139.53C248.159 137.639 244.053 135.205 240.657 131.693C239.763 130.768 239.03 129.69 238.191 128.71C237.889 128.356 237.984 128.075 238.129 127.705C239.196 124.981 240.978 122.632 242.173 119.976C242.325 119.637 242.642 119.435 243.023 119.312C243.929 119.021 244.381 118.399 244.266 117.422C245.784 115.876 246.698 113.839 248.358 112.406C249.7 111.248 251.829 111.075 252.977 112.049C252.467 112.719 251.661 112.276 250.945 112.59C251.275 113.494 251.907 114.116 252.656 114.661C257.007 117.825 261.709 120.26 266.954 121.589C267.657 121.767 268.436 121.885 268.795 122.675C268.374 123.768 267.803 124.781 267.147 125.749C263.607 124.409 259.984 123.287 256.547 121.679C255.001 120.956 254.667 121.059 253.734 122.508C253.634 122.663 253.538 122.821 253.446 122.982C251.232 126.859 251.674 128.685 255.535 130.904C257.254 131.891 258.811 133.171 260.71 133.843C261.338 134.066 261.598 134.597 261.804 135.17Z"
            fill="#212F3D" />
        <path
            d="M217.534 134.643C217.111 134.549 216.515 134.889 216.303 134.356C216.216 134.136 216.547 133.699 216.762 133.417C220.182 128.923 222.604 123.807 225.73 119.133C226.95 117.307 227.184 115.141 227.915 113.155C228.638 111.189 229.565 109.347 230.45 107.473C230.895 106.529 231.466 105.644 231.695 104.607C233.498 105.679 235.357 106.639 237.302 107.428C239.201 108.036 240.806 109.184 242.458 110.242C242.621 110.346 242.677 110.524 242.604 110.721C241.839 112.978 241.462 115.336 240.671 117.597C238.765 123.046 235.841 127.799 231.832 131.984C229.455 134.464 226.746 135.423 223.487 134.877C221.495 134.544 219.517 134.724 217.534 134.643Z"
            fill="#212E3C" />
        <path
            d="M234.576 78.4468C234.887 81.1265 235.238 83.7823 234.698 86.5003C233.345 93.3053 230.491 99.5704 227.865 105.92C226.684 108.777 225.523 111.646 224.214 114.444C222.374 118.378 220.078 122.067 217.794 125.757C213.113 133.319 207.523 140.174 201.454 146.657C200.73 147.43 199.662 147.833 199.139 148.819C198.431 148.979 197.725 149.147 197.016 149.299C195.046 149.724 192.52 148.149 192.191 146.295C194.059 146.291 195.526 145.399 196.95 144.291C203.492 139.198 208.333 132.673 212.791 125.799C218.705 116.681 223.745 107.087 228.431 97.3048C230.814 92.3321 232.894 87.2267 234.046 81.7901C234.282 80.6779 233.771 79.4565 234.576 78.4468Z"
            fill="#1F2D3B" />
        <path
            d="M178.535 129.666C177.963 130.293 177.23 130.712 176.484 131.054C175.238 131.624 174.936 132.35 175.54 133.645C176.083 134.808 176.347 136.1 176.743 137.332C176.934 137.927 176.888 138.363 176.234 138.695C168.598 142.572 161.455 147.359 153.603 150.849C148.449 153.14 143.117 154.775 137.557 155.676C136.743 155.808 135.9 155.764 135.07 155.801C129.888 156.121 126.104 153.595 122.919 149.851C122.679 149.569 122.423 149.295 122.452 148.884C122.928 148.392 123.534 148.805 124.06 148.65C125.049 148.751 125.926 149.212 126.828 149.561C131.969 151.55 137.243 151.485 142.609 150.826C149.031 150.037 154.266 146.716 159.434 143.236C163.285 140.643 166.888 137.713 170.521 134.827C171.945 133.695 173.232 132.438 174.244 130.916C175.184 130.243 176.242 129.789 177.291 129.331C177.719 129.144 178.344 128.747 178.535 129.666Z"
            fill="#8771B0" />
        <path
            d="M234.576 78.4468C234.744 83.6022 232.709 88.2105 230.787 92.7893C227.168 101.41 222.855 109.707 218.128 117.768C214.156 124.543 210.059 131.274 204.888 137.234C202.222 140.308 199.246 143.113 195.904 145.472C194.836 146.226 193.651 147.036 192.191 146.295C190.385 143.8 191.03 141.195 191.943 138.64C193.524 134.214 195.177 129.814 197.345 125.628C197.544 125.242 198.097 124.756 197.228 124.449C197.594 123.896 198.134 124.134 198.604 124.183C199.565 124.284 200.526 124.133 201.484 124.222C202.298 124.839 201.738 125.491 201.453 126.05C200.067 128.771 198.832 131.55 197.854 134.446C197.262 136.2 196.768 137.977 196.354 139.777C196.206 140.424 195.776 141.182 196.495 141.7C197.192 142.202 197.798 141.625 198.386 141.283C198.586 141.167 198.766 141.019 198.96 140.894C202.314 138.208 205.089 134.998 207.528 131.482C209.351 128.854 210.931 126.075 212.58 123.339C216.655 116.779 220.144 109.896 223.758 103.081C225.92 98.4022 228.275 93.8096 230.045 88.9568C230.227 88.4586 230.274 87.8419 230.939 87.6668C232.143 84.6041 233.097 81.4775 233.344 78.1739C233.386 77.6164 233.353 77.0614 233.111 76.5404C234.216 76.7034 234.251 77.6861 234.576 78.4468Z"
            fill="#4D7883" />
        <path
            d="M242.604 110.721C240.965 109.418 238.917 108.77 237.302 107.428C237.545 107.045 237.936 107.106 238.3 107.106C242.376 107.103 246.468 106.88 250.525 107.159C256.125 107.545 261.717 107.349 267.309 107.341C271.009 107.335 274.707 106.936 278.42 106.713C278.41 106.864 278.439 106.988 278.392 107.034C276.707 108.703 275.667 110.531 276.883 112.938C276.399 112.683 276.042 112.298 275.752 111.843C274.201 111.188 272.562 111.346 270.968 111.463C266.189 111.814 261.433 112.458 256.632 112.529C256.259 112.534 255.919 112.718 255.548 112.736C254.628 112.726 253.707 112.72 252.943 112.088C250.428 111.281 248.784 111.94 247.062 114.318C246.247 115.445 245.793 116.924 244.266 117.422C243.274 117.381 242.783 117.043 243.301 115.968C243.579 115.391 243.742 114.759 243.954 114.152C244.746 111.879 244.745 111.879 242.604 110.721Z"
            fill="#3A5F6B" />
        <path
            d="M217.82 148.014C218.742 148.672 219.849 148.442 220.837 148.478C223.963 148.593 226.624 149.571 228.652 152.009C230.037 153.675 230.592 155.701 231.009 157.784C230.494 156.713 229.996 155.633 229.46 154.571C227.453 150.593 223.988 149.223 219.768 149.101C215.084 148.965 210.415 149.357 205.738 149.446C201.625 149.524 197.658 150.788 193.641 151.608C185.922 153.185 178.17 154.617 170.489 156.365C160.69 158.595 150.899 160.869 141.052 162.878C138.399 163.419 135.702 163.934 132.959 163.836C132.079 163.805 131.536 164.1 131.024 164.855C130.058 166.278 129.208 167.772 128.31 169.358C127.853 168.575 128.883 168.287 128.435 167.487C127.641 168.977 126.905 170.359 126.066 171.934C126.375 168.785 128.787 164.999 131.015 164.079C130.539 163.617 129.9 164.051 129.458 163.703C129.902 163.138 130.534 163.287 131.1 163.298C133.793 163.348 136.466 163.174 139.066 162.455C140.656 162.016 142.203 161.425 143.87 161.315C143.899 161.313 143.924 161.268 143.952 161.243C143.856 161.171 143.761 161.1 143.666 161.028C147.588 160.198 151.536 159.473 155.426 158.516C165.483 156.043 175.755 154.659 185.861 152.439C190.193 151.487 194.456 150.22 198.848 149.534C200.442 149.285 202.045 149.097 203.644 148.881C205.038 149.125 206.401 148.72 207.782 148.667C210.867 148.548 213.949 148.368 217.038 148.392C215.886 148.341 214.735 148.577 213.589 148.23C214.982 147.813 216.407 148.037 217.82 148.014Z"
            fill="#25748A" />
        <path
            d="M201.679 124.467C200.194 124.714 198.71 124.535 197.227 124.449C192.435 124.084 187.857 124.807 183.575 127.091C181.91 127.978 180.216 128.809 178.535 129.666C178.136 129.096 177.726 129.502 177.338 129.668C176.336 130.097 175.436 130.751 174.363 131.028C173.606 130.638 173.352 130.075 173.762 129.284C175.501 128.724 177 127.679 178.537 126.758C181.781 124.814 185.161 123.501 188.997 123.449C192.424 123.402 195.831 122.931 199.259 122.84C200.822 122.927 202.396 122.919 203.904 123.434C204.136 123.751 204.136 124.074 203.934 124.404C203.195 124.865 202.442 124.86 201.679 124.467Z"
            fill="#DE7D4D" />
        <path
            d="M122.544 148.795C125.071 151.732 127.699 154.498 131.728 155.391C132.843 155.638 134.031 155.1 135.07 155.801C132.546 156.47 130.247 155.574 127.978 154.702C125.105 153.598 123.002 151.492 121.125 149.136C121.156 148.746 121.093 148.296 121.686 148.266C122.169 148.123 122.496 148.234 122.544 148.795Z"
            fill="#8771B0" />
        <path
            d="M213.59 148.23C214.69 148.23 215.79 148.23 216.89 148.23C215.184 148.722 213.437 148.554 211.711 148.725C209.343 148.96 206.936 148.89 204.551 149.092C204.236 149.118 203.898 149.155 203.644 148.881C206.944 148.436 210.261 148.247 213.59 148.23Z"
            fill="#3994AE" />
        <path
            d="M94.3456 124.052C91.9415 120.501 88.6269 117.701 86.2018 114.153C85.0753 112.505 84.3092 110.68 83.1756 108.899C82.817 109.289 82.4756 109.717 81.8218 109.4C81.4503 109.22 81.099 109.552 81.0461 109.976C80.8241 111.757 79.5528 113.284 79.9369 115.282C79.0192 115.013 79.048 114.407 79.0593 113.822C79.1056 111.437 78.7562 108.999 80.0364 106.78C80.3538 106.23 79.928 105.703 79.87 105.167C79.6251 102.902 80.6126 100.93 81.1905 98.8479C81.4971 97.7438 82.4411 96.724 81.8498 95.4384C83.2389 94.0407 84.628 92.643 86.0171 91.2453C86.3868 90.9942 86.798 90.9781 87.2192 91.0437C90.3489 91.531 93.4958 91.4255 96.6411 91.3165C96.9758 91.3499 97.2544 91.4822 97.4577 91.7675C98.9582 93.8734 100.904 95.604 102.451 97.6709C102.842 98.1098 103.233 98.5488 103.624 98.9877C103.851 100.256 104.769 101.169 105.319 102.272C105.562 102.758 105.993 103.171 105.885 103.788C105.779 103.977 105.628 104.103 105.403 104.122C104.489 103.601 104.257 102.586 103.746 101.784C102.871 100.411 101.979 99.0669 100.745 97.9796C99.8216 97.1662 98.7802 96.7616 97.5445 97.024C96.6569 97.2125 95.8258 97.0104 94.9479 96.853C90.4176 96.0411 85.804 97.0052 83.9888 101.421C83.0268 103.762 83.0078 105.985 84.3998 108.306C86.6305 112.026 89.3203 115.372 92.128 118.641C93.1269 119.804 93.8769 121.141 94.8814 122.304C96.1645 123.79 97.6065 125.075 99.2009 126.198C100.517 127.126 101.435 128.414 102.376 129.668C102.809 130.245 103.129 130.959 102.876 131.753C102.338 132.207 102.042 131.689 101.725 131.43C99.015 129.222 96.6466 126.67 94.3456 124.052Z"
            fill="#8771B0" />
        <path
            d="M101.073 72.5104C99.9578 72.9652 99.6869 74.0874 99.2224 74.9964C96.9752 79.3938 96.1137 84.1554 95.6952 89.0204C94.9871 88.8976 94.9256 88.2802 94.8075 87.7702C94.0511 84.5027 93.278 81.2386 92.9693 77.8852C92.9006 77.1387 92.8895 76.3461 92.4158 75.6871C90.6196 70.5623 90.3365 65.405 92.0746 60.2016C92.1467 59.9855 92.1589 59.7495 92.199 59.5228C93.8634 59.4626 94.6643 60.0025 94.4683 61.9158C94.3369 63.1983 94.78 64.5585 95.0694 65.8612C95.8097 69.1937 98.1953 71.0818 101.073 72.5104Z"
            fill="#D36D3D" />
        <path
            d="M92.4159 75.6871C92.4298 75.6431 92.4411 75.5981 92.4581 75.5553C92.5095 75.426 92.6411 75.2897 92.6853 75.4979C92.9898 76.9324 93.2511 78.376 93.5433 79.8131C94.1095 82.5989 94.6794 85.3841 95.2707 88.1647C95.3349 88.4664 95.5502 88.7362 95.6954 89.0206C95.8248 89.6778 96.2277 90.1849 96.6204 90.6977C96.8164 90.9487 97.1267 91.1641 96.8867 91.5507C93.2461 92.067 89.6257 91.8674 86.0172 91.2453C86.6167 90.2977 87.361 89.4602 88.2558 88.8056C92.3648 85.7996 93.0325 81.5678 92.5861 76.9222C92.5464 76.5089 92.4734 76.0987 92.4159 75.6871Z"
            fill="#F8A46C" />
        <path
            d="M60.2149 55.2176C58.9595 59.1088 57.5616 62.586 55.9224 65.9316C51.9671 74.0045 50.6841 82.4401 51.8744 91.3112C52.1159 93.1116 52.1379 94.9413 52.2142 96.7663C47.862 81.7056 51.3592 68.1105 60.2149 55.2176Z"
            fill="#FCFAFB" />
        <path
            d="M90.9429 83.0472C90.6151 78.2906 89.0796 73.6552 89.8203 68.6625C90.0423 73.5979 92.2324 78.1927 90.9429 83.0472Z"
            fill="#E39E72" />
        <path
            d="M51.1795 97.328C49.3711 91.1384 48.4532 84.8875 50.0102 78.4924C49.2346 84.8408 49.7889 91.1061 51.1795 97.328Z"
            fill="#C5BBBF" />
        <path
            d="M76.3567 116.636C75.9083 113.353 75.2287 110.379 76.1733 107.355C76.3479 110.345 77.9819 113.29 76.3567 116.636Z"
            fill="#8771B0" />
        <path
            d="M97.4433 54.0222C96.2474 54.489 95.0145 54.7074 93.7397 54.4731C91.6958 54.0975 91.6993 54.0848 91.58 56.0742C91.5701 56.238 91.6246 56.443 91.2798 56.5429C90.7966 55.4276 90.9145 54.3247 91.4485 53.2949C91.818 52.5823 92.5965 52.8769 93.2171 52.8685C93.4301 52.8656 93.7358 52.9382 93.8446 53.0881C94.6949 54.2593 95.8207 54.0301 96.9661 53.757C97.1252 53.8454 97.2842 53.9338 97.4433 54.0222Z"
            fill="#CD774F" />
        <path
            d="M56.244 60.84C55.0187 63.3379 53.7936 65.8357 52.5684 68.3336C53.1283 65.5274 54.5986 63.1483 56.244 60.84Z"
            fill="#C6BBBD" />
        <path
            d="M80.1525 95.4182C81.4782 93.7007 83.2318 92.448 85.1493 91.3655C83.5789 92.8212 82.0086 94.2768 80.4383 95.7325C80.343 95.6278 80.2478 95.523 80.1525 95.4182Z"
            fill="#8771B0" />
        <path
            d="M233.112 213.6C230.803 208.208 228.547 202.793 226.166 197.433C224.852 194.475 223.312 191.617 221.905 188.699C219.521 183.759 218.123 178.564 218.415 173.059C218.601 169.549 219.539 166.166 221.141 163C221.113 164.763 220.476 166.418 220.246 168.155C219.721 172.115 220.106 175.972 221.15 179.782C222.79 185.773 225.487 191.351 228.022 196.988C229.631 200.567 230.989 204.259 232.84 207.729C233.712 209.364 234.667 210.94 236.04 212.22C236.59 212.733 237.003 213.427 237.831 213.599C236.258 213.6 234.685 213.6 233.112 213.6Z"
            fill="#296B7F" />
        <path
            d="M158.88 213.35C149.78 213.35 140.681 213.35 131.582 213.349C129.922 213.348 129.73 213.131 130.39 211.623C131.323 209.486 132.775 207.673 134.287 205.925C139.243 200.197 145.706 197.527 153.088 196.634C159.002 195.918 164.792 196.691 170.548 197.865C174.581 198.688 178.603 199.655 182.225 201.716C185.777 203.736 187.967 206.746 188.254 210.901C188.394 212.925 187.888 213.35 185.899 213.35C176.893 213.35 167.886 213.35 158.88 213.35Z"
            fill="#202E3C" />
        <path
            d="M122.243 105.434C126.673 104.967 131.125 105.346 135.556 105.118C140.215 104.879 144.885 104.888 149.532 104.56C155.875 104.112 162.214 104.482 168.553 104.314C169.108 104.299 169.662 104.183 170.216 104.114C169.181 106.601 168.145 109.089 167.11 111.576C158.959 111.845 151.049 113.88 142.997 114.881C137.795 115.528 132.573 115.939 127.353 116.374C125.222 116.552 123.663 114.838 124.178 112.757C124.813 110.192 124.473 108.006 122.468 106.183C122.257 105.992 122.133 105.739 122.243 105.434Z"
            fill="#3B606D" />
        <path
            d="M199.135 123.224C194.672 123.512 190.183 123.594 185.755 124.152C182.123 124.61 179.155 126.894 176.032 128.659C175.317 129.063 174.706 129.686 173.78 129.318C173.084 128.597 172.515 127.773 171.888 126.996C171.398 126.255 170.42 125.875 170.299 124.861C170.762 123.899 171.803 123.635 172.543 123.007C174.715 121.591 176.872 120.151 179.103 118.828C179.833 118.507 180.468 118.001 181.23 117.743C183.737 116.631 185.758 114.781 188.009 113.281C188.693 112.826 189.32 112.287 189.973 111.786C189.795 111.622 189.766 111.478 190.028 111.372C190.864 111.907 191.666 111.391 192.441 111.224C194.542 110.773 196.657 110.706 198.789 110.726C200.639 110.744 202.488 110.746 204.298 110.246C205.087 110.028 205.993 109.951 206.339 110.846C206.716 111.818 206.076 112.52 205.234 112.967C204.793 113.201 204.301 113.342 203.797 113.538C206.202 115.056 207.447 114.884 208.533 112.927C208.822 112.724 209.051 112.371 209.492 112.536C210.533 113.286 211.525 114.075 211.829 115.421C212.025 116.29 211.918 117.049 211.062 117.539C208.764 117.805 206.465 118.119 204.147 118.041C203.006 118.002 202.406 118.314 202.132 119.552C201.767 121.202 200.97 122.682 199.135 123.224Z"
            fill="#F8A771" />
        <path
            d="M211.125 117.391C211.954 116.172 211.582 115.062 210.771 114.03C210.38 113.533 209.897 113.109 209.455 112.652C209.084 112.192 209.407 111.785 209.56 111.37C210.198 109.64 211.146 108.058 211.928 106.396C212.2 105.816 212.553 105.263 212.533 104.586C213.035 102.836 214.133 101.391 215.057 99.874C217.116 96.4961 219.298 93.1928 221.429 89.8591C221.998 89.6206 222.277 89.0618 222.772 88.5098C222.805 88.9898 222.826 89.294 222.847 89.5982C223.219 91.3395 224.049 91.6968 225.403 90.6615C226.765 89.6196 227.751 88.2069 228.943 86.9965C229.611 86.318 230.241 85.5888 231.16 85.0508C231.657 86.0496 230.789 86.6019 230.579 87.3163C230.439 88.1751 229.858 88.7917 229.393 89.4738C226.48 93.7445 223.483 97.9625 221.103 102.56C221.732 103.187 222.524 102.698 223.213 102.878C223.49 102.918 223.756 102.981 223.929 103.229C222.915 105.251 221.926 107.285 220.882 109.291C218.363 114.134 215.745 118.922 212.801 123.525C211.555 122.592 210.204 121.802 209.008 120.803C208.534 120.407 207.903 119.99 208.526 119.228C209.514 118.789 210.434 118.252 211.125 117.391Z"
            fill="#1E2B38" />
        <path
            d="M181.23 117.743C180.737 118.367 180.049 118.706 179.343 119.017C174.586 119.353 169.843 119.67 165.053 119.323C161.782 119.085 158.481 118.977 155.192 118.965C145.822 118.93 136.451 118.953 127.081 118.953C126.246 118.953 125.41 118.938 124.588 119.109C124.319 119.172 123.985 119.24 123.839 118.974C123.287 117.967 122.433 117.081 122.489 115.814C122.682 115.056 122.797 114.266 123.1 113.554C123.275 113.141 123.571 112.792 123.768 112.339C124.869 109.812 123.824 107.988 122.133 106.278C121.874 106.016 121.639 105.729 121.393 105.453C121.676 105.447 121.96 105.441 122.243 105.434C122.788 106.059 123.397 106.64 123.866 107.317C124.97 108.911 124.999 110.702 124.544 112.496C124.062 114.396 125.302 116.173 127.246 115.975C130.998 115.592 134.761 115.325 138.515 114.969C145.807 114.278 152.965 112.748 160.212 111.787C162.319 111.508 164.414 111.268 166.537 111.218C166.884 111.21 167.059 111.228 167.11 111.576C166.927 112.178 166.824 112.821 166.542 113.373C166.075 114.285 166.335 114.622 167.298 114.814C171.41 115.632 175.511 116.505 179.616 117.362C180.157 117.475 180.692 117.615 181.23 117.743Z"
            fill="#334E5C" />
        <path
            d="M179.093 102.442C180.612 102.888 181.669 104.004 183.06 104.892C183.029 103.397 182.521 102.21 182.225 100.958C183.156 101.86 183.653 102.978 183.95 104.282C184.991 103.825 185.749 102.877 186.962 102.703C185.954 104.102 184.565 105.112 183.305 106.247C183.213 106.33 182.9 106.32 182.809 106.231C181.547 104.998 180.021 104.023 179.093 102.442Z"
            fill="#133945" />
        <path
            d="M196.876 72.6977C204.105 74.5661 211.467 75.5599 219.203 76.2936C215.364 76.9118 200.238 74.5048 196.876 72.6977Z"
            fill="#88A69C" />
        <path
            d="M218.612 72.9499C214.386 71.9072 210.174 70.8074 205.932 69.8413C202.871 69.1442 199.769 68.6251 196.692 67.9597C198.545 67.8852 200.346 68.3191 202.156 68.6297C204.072 68.9584 205.989 69.2969 207.885 69.7235C209.737 70.1402 211.564 70.6667 213.398 71.1573C215.232 71.6477 217.062 72.1532 218.893 72.6521C218.972 72.9145 218.892 73.0261 218.612 72.9499Z"
            fill="#7E9C96" />
        <path
            d="M193.509 75.045C199.811 76.4317 206.175 77.5012 212.477 78.8751C206.002 78.3517 199.723 76.8478 193.509 75.045Z"
            fill="#7D9D94" />
        <path
            d="M195.812 99.869C195.942 99.5676 196.074 99.3411 196.497 99.3484C200.301 99.4137 203.991 100 207.471 101.616C207.668 101.761 207.651 101.94 207.553 102.132C207.435 102.212 207.316 102.215 207.194 102.142C204.043 101.227 200.89 100.315 197.614 99.9502C197.113 99.8944 196.6 99.9429 196.093 99.9432C195.974 100.017 195.881 99.9876 195.812 99.869Z"
            fill="#1F434E" />
        <path
            d="M190.028 111.372C190.009 111.51 189.991 111.648 189.973 111.786C184.884 110.686 179.927 109.109 174.942 107.632C174.68 107.292 174.719 107.088 175.193 107.083C177.218 107.982 179.405 108.349 181.51 108.984C184.333 109.835 187.187 110.581 190.028 111.372Z"
            fill="#406768" />
        <path
            d="M204.97 80.7195C201.503 80.3111 198.201 79.2179 194.861 78.2797C194.015 78.0421 193.158 77.8431 192.308 77.6194C192.001 77.5387 191.582 77.4789 191.712 77.0397C191.839 76.6128 192.253 76.7714 192.544 76.8505C193.079 76.9958 193.605 77.1826 194.126 77.3743C197.828 78.7354 201.608 79.8081 205.506 80.4425C205.537 80.9385 205.251 80.823 204.97 80.7195Z"
            fill="#638782" />
        <path
            d="M204.965 82.9417C200.101 82.5372 195.531 80.9597 190.953 79.4046C195.809 80.4803 200.582 81.9192 205.509 82.6722C205.529 83.1676 205.243 83.0467 204.965 82.9417Z"
            fill="#618580" />
        <path
            d="M212.533 104.586C213.18 105.174 212.605 105.689 212.383 106.164C211.378 108.314 210.165 110.369 209.455 112.652C209.148 112.744 208.84 112.835 208.533 112.927C209.597 110.018 210.896 107.221 212.533 104.586Z"
            fill="#71A1AB" />
        <path
            d="M213.034 92.6814C210.369 92.1607 207.813 91.1811 205.1 90.8436C204.339 90.7488 203.525 90.8818 202.81 90.4743C202.672 90.5674 202.553 90.5477 202.453 90.4152C202.682 90.114 202.638 89.477 203.391 89.9801C203.877 90.3049 204.631 90.2612 205.271 90.3218C208.069 90.5867 210.738 91.3279 213.317 92.4249C213.34 92.6398 213.294 92.7784 213.034 92.6814Z"
            fill="#2D4B55" />
        <path
            d="M192.223 95.5389C188.851 95.0859 185.652 93.9625 182.479 92.7412C185.825 93.2975 189.048 94.2987 192.223 95.5389Z"
            fill="#578280" />
        <path
            d="M175.193 107.082C174.906 107.173 174.941 107.41 174.942 107.632C174.6 107.491 174.262 107.338 173.915 107.21C171.316 106.248 171.313 106.249 172.56 103.737C172.865 103.122 173.188 102.517 173.607 101.957C173.496 103.065 172.892 103.971 172.376 104.891C171.897 105.746 171.814 106.294 172.985 106.444C173.212 106.473 173.44 106.545 173.652 106.635C174.386 106.948 174.869 106.912 174.994 105.943C175.068 105.366 175.357 104.816 175.732 104.297C175.552 105.226 175.373 106.154 175.193 107.082Z"
            fill="#B0C2B6" />
        <path
            d="M207.194 102.142C207.296 102.143 207.398 102.144 207.5 102.145C207.672 102.255 207.674 102.446 207.727 102.613C206.817 104.567 206.175 106.586 206.326 108.83C206.732 108.002 207.138 107.175 207.544 106.347C207.649 106.396 207.753 106.445 207.858 106.494C207.468 107.349 207.08 108.206 206.687 109.06C206.569 109.315 206.414 109.593 206.092 109.527C205.732 109.453 205.806 109.103 205.802 108.843C205.775 107.02 206.198 105.285 206.866 103.602C207.053 103.13 207.292 102.676 207.194 102.142Z"
            fill="#9DAFA4" />
        <path
            d="M196.331 83.7889C194.183 83.1763 192.034 82.5638 189.886 81.9513C189.933 81.7901 189.98 81.6288 190.027 81.4677C192.373 81.9039 194.595 82.8155 196.877 83.4956C196.931 84.0319 196.597 83.8475 196.331 83.7889Z"
            fill="#58827F" />
        <path
            d="M218.612 72.9499C218.706 72.8505 218.799 72.7512 218.893 72.652C221.219 73.1829 223.548 73.7017 225.869 74.2572C226.227 74.343 227.074 74.1389 226.748 74.8713C226.488 75.454 226.356 74.5765 225.984 74.5239C224.033 74.2476 222.101 73.8365 220.163 73.4672C219.624 73.3644 219.076 73.2784 218.612 72.9499Z"
            fill="#ADBFB4" />
        <path
            d="M173.731 109.611C176.372 110.166 178.992 110.789 181.487 111.838C181.455 111.95 181.423 112.062 181.391 112.174C178.814 111.433 176.237 110.693 173.66 109.952C173.684 109.838 173.707 109.725 173.731 109.611Z"
            fill="#89A59C" />
        <path
            d="M193.12 90.9244C190.426 90.1989 187.691 89.6081 185.211 88.1908C187.874 88.9685 190.536 89.7463 193.199 90.524C193.172 90.6574 193.146 90.7909 193.12 90.9244Z"
            fill="#9FB8AC" />
        <path
            d="M209.556 97.1142C206.785 96.9496 204.117 96.3558 201.506 95.5178C201.536 95.3944 201.565 95.271 201.594 95.1476C204.248 95.8031 206.902 96.4586 209.556 97.1142Z"
            fill="#92AEA4" />
        <path
            d="M182.402 88.0845C183.501 85.3751 185.022 82.8777 186.926 80.6049C185.418 83.0981 183.91 85.5913 182.402 88.0845Z"
            fill="#95AC9D" />
        <path
            d="M202.453 90.4152C202.572 90.4349 202.691 90.4545 202.81 90.4742C201.099 92.7571 199.388 95.04 197.678 97.3229C199.153 94.9366 200.393 92.388 202.453 90.4152Z"
            fill="#7A8C81" />
        <path
            d="M196.331 83.7889C196.528 83.7192 196.78 83.751 196.877 83.4956C198.871 84.1355 200.865 84.7754 202.859 85.4153C202.821 85.5365 202.782 85.6577 202.744 85.7789C200.606 85.1155 198.469 84.4522 196.331 83.7889Z"
            fill="#A8BBB0" />
        <path
            d="M207.727 102.613C207.518 102.522 207.501 102.337 207.5 102.145C207.49 101.969 207.481 101.792 207.471 101.616C208.106 101.688 208.168 101.129 208.406 100.768C209.291 99.4262 209.989 97.9642 211.025 96.7204C211.166 96.698 211.232 96.7577 211.224 96.8996C210.058 98.8042 208.893 100.709 207.727 102.613Z"
            fill="#687C75" />
        <path
            d="M212.709 96.4548C213.72 94.3673 215.16 92.5677 216.451 90.6681C216.556 90.7354 216.66 90.8027 216.764 90.87C215.472 92.7849 214.18 94.6999 212.888 96.6148C212.75 96.6486 212.69 96.5953 212.709 96.4548Z"
            fill="#8CA197" />
        <path
            d="M203.911 105.981C202.038 105.584 200.165 105.186 198.292 104.788C200.267 104.611 202.128 105.053 203.979 105.55C203.956 105.694 203.934 105.838 203.911 105.981Z"
            fill="#8BA89E" />
        <path
            d="M204.97 80.7195C205.149 80.6271 205.328 80.5348 205.507 80.4425C207.364 80.7164 209.222 80.9904 211.08 81.2643C209.008 81.3942 206.97 81.2454 204.97 80.7195Z"
            fill="#A7BDAE" />
        <path
            d="M186.95 98.3214C185.017 97.5815 183.158 96.6189 180.988 97.2262C183.217 96.2964 185.152 97.0131 186.95 98.3214Z"
            fill="#B5CABE" />
        <path
            d="M195.812 99.869C195.906 99.8938 196 99.9185 196.093 99.9432C194.946 101.51 194.112 103.261 193.077 104.9C193.791 103.119 194.435 101.303 195.812 99.869Z"
            fill="#B6C2B2" />
        <path
            d="M220.437 85.1541C219.569 86.7828 218.569 88.3257 217.499 89.8228C217.396 89.7607 217.294 89.6986 217.191 89.6365C218.158 88.1376 219.125 86.6387 220.091 85.1399C220.211 85.0392 220.326 85.0439 220.437 85.1541Z"
            fill="#8EA59A" />
        <path
            d="M196.921 107.937C198.571 107.937 200.02 107.937 201.702 107.937C200.619 108.63 199.285 108.6 196.921 107.937Z"
            fill="#9EB8AC" />
        <path
            d="M213.034 92.6814C213.128 92.5959 213.222 92.5104 213.317 92.4249C214.089 92.4514 213.976 92.8194 213.682 93.3072C212.932 94.5523 212.16 95.7814 211.224 96.8994C211.156 96.8423 211.089 96.7826 211.025 96.7204C211.649 95.7655 212.278 94.8142 212.894 93.8542C213.126 93.4931 213.572 93.1407 213.034 92.6814Z"
            fill="#6B7F7A" />
        <path
            d="M212.888 96.6148C212.083 98.1143 211.277 99.6137 210.472 101.113C210.929 99.4185 211.598 97.8292 212.71 96.4551C212.768 96.5093 212.827 96.5626 212.888 96.6148Z"
            fill="#8CA197" />
        <path
            d="M204.965 82.9417C205.146 82.8518 205.328 82.762 205.509 82.6721C206.65 82.7174 207.75 82.9805 208.834 83.3626C207.524 83.4279 206.231 83.3315 204.965 82.9417Z"
            fill="#9CB4AA" />
        <path
            d="M192.211 72.1395C191.864 73.396 191.268 74.4416 190.186 75.1605C190.861 74.1535 191.536 73.1465 192.211 72.1395Z"
            fill="#A3B7A9" />
        <path
            d="M189.219 77.0486C188.739 77.917 188.357 78.8372 187.526 79.4301C187.848 78.4628 188.364 77.628 189.219 77.0486Z"
            fill="#90AA98" />
        <path
            d="M220.437 85.1541C220.322 85.1493 220.206 85.1446 220.091 85.1398C220.55 84.4185 221.009 83.6971 221.468 82.9756C221.51 83.9069 220.905 84.495 220.437 85.1541Z"
            fill="#9CAD9F" />
        <path
            d="M189.686 176.751C171.699 185.788 152.514 191.414 133.146 196.51C142.574 193.285 152.249 190.842 161.671 187.59C171.149 184.319 180.57 180.923 189.686 176.751Z"
            fill="#0B3844" />
        <path
            d="M111.332 65.1063C107.931 65.0953 105.338 63.23 104.621 60.2783C104.097 58.1239 105.288 56.7649 107.463 57.0342C111.172 57.4935 112.438 58.7184 113.076 62.4571C113.099 62.5923 113.146 62.7234 113.182 62.8563C113.712 64.8116 113.464 65.1132 111.332 65.1063Z"
            fill="#F38556" />
        <path
            d="M108.911 51.2304C110.186 49.5949 114.454 49.683 115.554 50.775C115.766 50.9853 115.942 51.1773 115.822 51.4859C115.727 51.7301 115.494 51.8879 115.275 51.7839C113.316 50.8554 111.255 50.7163 108.911 51.2304Z"
            fill="#40271E" />
        <path
            d="M114.444 54.8614C114.552 55.8024 113.674 55.7145 113.371 56.1035C112.787 56.8557 112.5 56.3166 111.974 56.1128C111.012 55.7396 110.057 55.4763 109.341 54.6238C109.003 54.2222 108.774 53.865 108.576 53.1363C110.484 54.4701 112.181 55.7079 114.444 54.8614Z"
            fill="#271B19" />
        <path
            d="M107.941 76.1343C107.859 76.9856 108.56 77.7987 108.065 78.6701C107.879 77.4914 107.371 76.3615 107.528 75.1311C107.666 75.4655 107.803 75.7999 107.941 76.1343Z"
            fill="#FDFDFD" />
        <path
            d="M122.489 115.814C123.039 116.905 123.589 117.996 124.139 119.086C125.257 120 125.112 121.39 125.435 122.593C125.77 123.838 125.849 125.12 125.55 126.398C125.422 126.697 125.21 126.891 124.876 126.929C123.816 125.726 122.655 124.608 121.716 123.298C119.552 120.282 116.804 117.957 113.537 116.185C111.331 114.988 110.149 112.822 109.009 110.729C107.996 108.87 107.207 106.888 106.104 105.067C105.866 104.673 105.638 104.261 105.8 103.766C105.093 102.557 104.398 101.341 103.674 100.142C103.435 99.7466 103.078 99.3988 103.624 98.9879C108.485 103.709 113.908 107.779 119.007 112.226C120.272 113.33 121.324 114.622 122.489 115.814Z"
            fill="#C2B3DC" />
        <path
            d="M96.8866 91.5507C96.7978 91.2663 96.7091 90.9819 96.6204 90.6976C98.9439 92.6021 100.724 94.978 102.45 97.4003C102.493 97.4604 102.453 97.5792 102.451 97.6708C100.196 95.9938 98.632 93.6899 96.8866 91.5507Z"
            fill="#4D5857" />
        <path
            d="M108.528 81.26C109.822 82.2115 110.841 83.4442 111.95 84.585C110.485 83.8096 109.307 82.7395 108.528 81.26Z"
            fill="#BCB4B3" />
        <path
            d="M115.915 96.628C116.005 94.7022 116.171 92.9779 116.003 91.1777C116.635 92.3868 116.622 95.2592 115.915 96.628Z"
            fill="#C9BCBF" />
        <path
            d="M116.159 97.3698C116.383 98.2564 117.036 99.196 115.845 99.9083C115.418 98.9967 115.836 98.1891 116.159 97.3698Z"
            fill="#F3F1F0" />
        <path
            d="M318.949 98.4905C317.968 99.0631 316.9 98.6262 315.881 98.7567C316.861 98.1868 317.929 98.6124 318.949 98.4905Z"
            fill="#375765" />
        <path
            d="M272.153 86.097C272.061 88.6331 271.804 91.152 271.344 93.6508C270.986 95.5945 269.905 97.1257 268.598 98.5245C267.763 99.4181 266.693 99.1303 265.733 98.8852C262.798 98.1353 260.518 95.2036 260.457 92.139C260.398 89.2058 260.907 86.3427 261.855 83.579C262.893 80.55 265.79 79.091 268.871 79.9228C270.675 80.4098 271.993 82.1509 272.147 84.294C272.189 84.8921 272.153 85.4958 272.153 86.097Z"
            fill="#8FBFC9" />
        <path
            d="M220.539 102.658C223.471 97.4863 226.822 92.5835 230.177 87.6827C230.276 87.5372 230.443 87.4376 230.579 87.3164C230.699 87.4332 230.819 87.5501 230.939 87.6668C229.202 92.6307 226.776 97.2966 224.672 102.102C224.489 102.519 224.387 102.992 223.929 103.229C223.668 103.204 223.407 103.18 223.146 103.155C222.518 102.973 221.875 103.112 221.242 103.064C220.946 103.042 220.562 103.156 220.539 102.658Z"
            fill="#FCFDFD" />
        <path
            d="M114.247 85.846C112.495 83.9239 110.36 82.887 109.251 80.81C111.178 82.0572 113.347 83.0607 114.247 85.846Z"
            fill="#F5F3F5" />
        <path
            d="M94.3456 124.052C95.51 124.828 96.3783 125.921 97.3587 126.89C99.0972 128.608 100.835 130.323 102.726 131.877C104.138 132.691 105.287 133.828 106.444 134.947C110.848 139.205 115.511 143.149 120.547 146.648C121.644 147.41 122.945 147.86 123.891 148.849C123.419 149.402 122.995 148.762 122.544 148.795C122.258 148.619 121.972 148.442 121.686 148.266C116.212 145.243 111.078 141.773 106.636 137.318C102.627 133.297 98.5494 129.345 94.8889 124.993C94.6476 124.706 94.3884 124.446 94.3456 124.052Z"
            fill="#8771B0" />
        <path
            d="M104.714 158.118C105.887 157.947 106.878 158.623 108.098 157.968C106.26 157.523 104.541 157.444 103.012 156.654C104.227 156.831 105.446 156.989 106.658 157.188C110.552 157.828 113.83 156.593 116.672 153.968C116.937 153.723 117.199 153.101 117.627 153.489C118.025 153.85 117.487 154.224 117.281 154.551C114.619 158.784 111.312 159.136 106.801 158.704C106.195 158.646 105.417 158.763 104.714 158.118Z"
            fill="white" />
        <path
            d="M278.069 140.762C276.758 142.879 275.498 145.029 274.125 147.105C272.094 150.175 267.083 150.979 264.102 148.784C262.661 147.723 262.313 146.231 262.549 144.586C263.116 140.642 264.5 136.959 266.491 133.534C271.983 124.085 277.79 114.818 283.071 105.248C284.391 102.857 286.243 102.183 288.819 101.949C294.593 101.426 300.359 100.824 306.144 100.424C306.653 101.134 306.299 101.718 305.898 102.322C298.877 112.892 291.67 123.322 283.462 133.032C281.434 135.432 279.603 138.002 278.069 140.762Z"
            fill="#A5DCE2" />
        <path
            d="M261.804 135.17C260.175 133.643 257.959 133.065 256.21 131.716C255.413 131.101 254.463 130.687 253.631 130.112C251.917 128.928 251.387 127.284 252.018 125.278C252.452 123.901 253.15 122.655 253.995 121.495C254.424 120.905 254.965 120.481 255.767 120.909C259.161 122.716 262.899 123.668 266.418 125.166C266.733 125.301 266.996 125.439 267.147 125.749C265.701 128.717 263.968 131.521 262.249 134.333C262.085 134.602 261.952 134.89 261.804 135.17Z"
            fill="#101923" />
        <path
            d="M252.942 112.088C253.762 112.193 254.581 112.298 255.401 112.404C256.727 112.351 257.911 112.853 259.106 113.331C261.726 114.379 264.32 115.499 267.147 115.933C268.159 116.088 269.167 116.148 270.184 116.199C271.771 116.278 272.077 116.862 271.289 118.224C271.058 118.623 270.799 119.007 270.442 119.312C269.893 120.433 269.344 121.554 268.795 122.675C267.013 121.777 265.049 121.403 263.174 120.776C259.053 119.396 255.486 117.051 251.965 114.61C251.149 114.045 250.734 113.158 250.266 112.088C251.229 112.088 252.086 112.088 252.942 112.088Z"
            fill="#111A24" />
        <path
            d="M270.442 119.312C270.46 119.221 270.456 119.119 270.499 119.041C271.828 116.608 271.826 116.665 269.095 116.547C266.635 116.441 264.28 115.79 261.987 114.896C259.801 114.043 257.597 113.233 255.401 112.403C257.085 111.75 258.886 112.048 260.607 111.934C265.153 111.632 269.669 110.87 274.244 110.982C274.95 110.999 275.538 111.048 275.752 111.843C274.528 112.708 274.114 114.138 273.337 115.313C272.527 116.537 271.8 117.817 271.027 119.066C270.902 119.27 270.811 119.646 270.442 119.312Z"
            fill="#344F5C" />
        <path
            d="M236.297 118.16C236.353 119.641 235.545 120.613 234.344 121.266C233.017 121.986 231.605 122.481 230.127 121.675C229.134 121.132 228.726 119.76 229.105 118.487C229.478 117.235 230.277 116.296 231.343 115.582C232.301 114.939 233.382 114.07 234.503 114.628C235.821 115.283 236.236 116.705 236.297 118.16Z"
            fill="#78B3BE" />
        <path
            d="M123.891 148.849C120.484 147.412 117.694 145.055 114.844 142.791C110.579 139.403 106.615 135.681 102.726 131.877C102.521 129.479 100.866 127.953 99.1734 126.663C96.6096 124.71 94.4272 122.507 92.6171 119.832C91.2556 117.819 89.514 116.063 87.9546 114.182C86.2096 112.078 84.862 109.703 83.4401 107.386C82.2477 105.443 83.0679 101.163 84.8781 99.2077C87.8386 96.0105 91.5245 95.7752 95.4642 96.665C95.9271 96.7696 96.4101 96.9136 96.8293 96.7827C99.6939 95.888 101.276 97.7 102.714 99.6166C103.762 101.012 104.59 102.571 105.517 104.057C106.661 105.353 107.453 106.916 108.019 108.471C109.735 113.193 112.874 116.904 116.069 120.618C118.995 124.021 122.499 126.856 125.435 130.246C125.771 130.633 126.2 130.913 126.627 131.193C126.74 131.276 126.859 131.355 126.945 131.462C128.998 134.038 131.71 135.628 134.777 136.69C135.039 136.781 135.3 136.885 135.536 137.032C135.849 137.227 136.258 137.444 136.132 137.86C135.996 138.306 135.523 138.2 135.169 138.155C134.061 138.015 132.95 138.079 131.794 138.058C133.856 138.611 135.021 138.514 137.026 137.919C145.887 135.291 154.418 131.799 162.852 128.068C164.667 127.265 166.43 126.327 168.226 125.469C168.764 125.212 169.281 124.866 169.927 124.963C170.804 125.423 171.249 126.385 172.12 126.856C172.679 127.673 173.646 128.216 173.78 129.318C173.729 129.971 174.092 130.484 174.363 131.028C173.959 132.695 172.581 133.631 171.394 134.584C166.572 138.457 161.778 142.39 156.492 145.633C153.066 147.735 149.58 149.865 145.593 150.696C138.203 152.236 130.897 152.12 123.891 148.849Z"
            fill="#C2B3DC" />
        <path
            d="M208.616 119.346C208.233 120.088 208.902 120.324 209.292 120.625C210.161 121.294 211.071 121.911 211.983 122.522C212.367 122.78 212.804 122.965 212.801 123.525C209.368 129.734 205.536 135.645 200.161 140.406C199.852 140.679 199.609 141.038 199.16 141.11C198.027 139.879 198.333 138.375 198.482 136.963C198.647 135.4 199.241 133.913 199.905 132.502C200.999 130.181 201.172 127.477 202.905 125.423C203.226 125.042 203.526 124.636 203.854 124.255C203.889 124.017 203.925 123.779 203.96 123.541C204.976 122.086 206.07 120.701 207.419 119.53C207.795 119.204 208.146 118.955 208.616 119.346Z"
            fill="#101923" />
        <path
            d="M203.854 124.255C203.67 124.923 203.376 125.508 202.924 126.064C201.406 127.936 201.32 130.412 200.302 132.514C199.669 133.822 199.281 135.264 198.909 136.678C198.519 138.159 198.755 139.65 199.16 141.11C198.633 141.643 198.026 142.044 197.292 142.235C196.213 142.516 195.537 141.869 195.763 140.758C196.827 135.534 198.698 130.6 201.136 125.869C201.366 125.423 201.677 125.003 201.679 124.467C202.404 124.396 203.129 124.326 203.854 124.255Z"
            fill="#1D2D3A" />
        <path
            d="M208.616 119.346C208.571 119.338 208.514 119.309 208.483 119.326C207.347 119.957 206.243 120.874 205.698 121.871C205.226 122.735 204.886 123.322 203.96 123.541C202.352 123.435 200.743 123.33 199.135 123.224C200.694 122.043 201.837 120.613 201.936 118.56C201.959 118.09 202.161 117.685 202.652 117.712C205.488 117.869 208.289 117.185 211.125 117.391C210.861 118.773 209.797 119.134 208.616 119.346Z"
            fill="#EC8E5B" />
        <path
            d="M126.407 131.322C125.063 130.777 124.256 129.591 123.352 128.584C122.178 127.276 120.923 126.083 119.636 124.893C116.995 122.45 114.914 119.481 112.452 116.876C110.207 114.5 109.289 111.525 107.962 108.71C107.216 107.127 106.336 105.606 105.517 104.057C105.611 103.96 105.705 103.863 105.8 103.766C107.241 106.287 108.344 108.996 109.805 111.484C110.959 113.447 112.335 115.315 114.618 116.451C117.872 118.071 120.392 120.685 122.449 123.688C122.928 124.387 123.551 124.928 124.127 125.522C124.495 125.9 124.817 126.27 124.76 126.838C123.998 127.936 123.397 127.256 122.938 126.835C123.855 127.491 124.62 128.609 125.544 129.575C125.995 130.047 126.599 130.507 126.407 131.322Z"
            fill="#8771B0" />
        <path
            d="M125.194 126.61C125.595 123.997 124.889 121.539 124.139 119.087C124.267 118.452 124.764 118.509 125.228 118.509C136.035 118.514 146.843 118.426 157.648 118.57C162.545 118.635 167.439 119.13 172.345 119.051C174.235 119.02 176.116 118.673 178.017 118.793C178.464 118.822 178.953 118.642 179.343 119.017C177.119 120.422 174.894 121.828 172.67 123.233C172.023 123.001 171.928 122.34 171.606 121.858C171.297 121.394 170.988 120.943 170.419 120.764C168.317 121.209 166.426 122.221 164.43 122.945C154.977 126.375 145.462 129.583 135.558 131.497C134.467 131.708 133.444 131.731 132.498 131.062C130.467 130.067 128.423 129.096 126.414 128.057C125.826 127.754 125.052 127.551 125.194 126.61Z"
            fill="#111923" />
        <path
            d="M125.194 126.61C125.232 127.265 125.812 127.375 126.241 127.591C128.349 128.651 130.473 129.681 132.591 130.721C132.737 131.297 132.614 131.787 132.134 132.165C132.444 132.046 132.582 131.714 132.875 131.573C133.321 131.358 133.808 131.32 134.199 131.587C134.597 131.859 134.487 132.328 134.368 132.738C134.29 133.005 134.174 133.259 134.116 133.532C133.942 134.352 134.013 134.565 135.064 134.447C138.346 134.078 141.559 133.462 144.753 132.629C148.675 131.606 152.397 130.047 156.17 128.628C159.86 127.241 163.527 125.793 167.29 124.615C168.844 124.128 169.808 123.285 169.677 121.552C169.617 120.761 170.053 120.479 170.75 120.425C171.816 121.071 172.073 122.268 172.67 123.233C171.923 123.79 171.177 124.347 170.431 124.904C170.381 125.031 170.293 125.121 170.167 125.174C168.36 125.503 166.811 126.495 165.217 127.284C159.275 130.222 153.111 132.609 146.939 134.989C143.265 136.405 139.494 137.515 135.723 138.63C134.24 139.069 132.788 138.744 131.343 138.428C131.1 138.374 130.83 138.195 130.85 137.705C132.533 137.767 134.215 137.497 135.982 137.795C132.425 136.136 128.683 134.785 126.407 131.322C125.228 129.415 123.505 127.954 121.922 125.937C123.029 126.407 123.616 127.708 124.76 126.838C124.905 126.762 125.05 126.686 125.194 126.61Z"
            fill="#8771B0" />
        <path
            d="M170.167 125.174C170.255 125.084 170.343 124.994 170.431 124.904C170.994 125.555 171.557 126.205 172.12 126.856C171.129 126.687 170.749 125.814 170.167 125.174Z"
            fill="#F08844" />
        <path
            d="M220.539 102.658C221.325 103.257 222.319 102.769 223.146 103.155C222.392 103.163 221.637 103.186 220.882 103.171C220.579 103.166 220.176 103.145 220.539 102.658Z"
            fill="#4D7883" />
        <path
            d="M264.877 139.628C266.45 134.789 269.495 130.704 271.771 126.224C271.896 125.978 272.056 125.749 272.193 125.508C274.207 121.971 273.239 122.407 277.389 123.022C279.815 123.382 282.219 123.891 284.642 124.275C285.525 124.415 285.518 124.728 285.026 125.306C283.616 126.96 282.249 128.653 280.785 130.258C279.91 131.218 278.954 130.295 278.036 130.165C276.515 130.151 275.106 129.532 273.366 129.253C274.715 130.018 276.117 129.907 277.161 130.72C277.586 131.15 278.214 131.154 278.707 131.216C280.037 131.385 279.702 131.971 279.221 132.672C278.358 133.932 277.476 135.18 276.616 136.442C276.197 137.056 275.739 137.246 274.969 136.976C273.18 136.349 271.385 135.713 269.509 135.383C268.739 135.248 268.585 134.9 268.964 134.253C269.829 132.776 270.696 131.3 271.552 129.818C271.702 129.558 272.053 129.361 271.841 128.908C271.41 128.742 271.219 129.097 271.036 129.384C269.916 131.14 268.823 132.913 267.69 134.661C267.159 135.48 267.672 135.713 268.311 135.903C270.174 136.458 272.042 137.001 273.904 137.559C274.343 137.69 274.827 137.72 275.195 138.099C274.459 138.929 273.606 139.488 272.425 139.333C271.041 139.038 269.534 139.332 268.284 138.384C267.413 137.723 266.753 138.526 266.028 138.821C265.712 139.251 265.25 139.577 265.106 140.128C264.645 140.137 264.757 139.885 264.877 139.628Z"
            fill="#101922" />
        <path
            d="M289.416 113.762C286.939 113.528 284.461 113.307 281.987 113.044C281.684 113.012 281.115 113.197 281.118 112.657C281.121 112.128 281.616 112.078 282.057 112.089C283.865 112.135 285.673 112.176 287.481 112.228C289.613 112.29 291.746 112.332 293.875 112.445C294.724 112.49 295.266 112.158 295.733 111.501C297.691 108.746 299.672 106.009 301.641 103.262C302.146 102.557 302.692 101.95 303.769 102.233C303.785 102.829 303.368 103.226 303.078 103.653C296.502 113.346 289.6 122.804 282.564 132.169C279.673 136.018 276.914 139.967 274.646 144.232C274.235 145.005 273.736 145.74 273.211 146.442C271.355 148.926 268.38 149.458 265.487 147.742C265.816 147.781 266.001 147.769 266.162 147.826C269.019 148.834 269.954 148.101 270.49 144.719C270.554 144.318 270.469 143.897 270.756 143.549C270.977 143.307 270.821 143.023 270.848 142.759C271.07 140.55 271.854 139.817 274.001 139.783C274.314 139.778 274.649 139.878 274.931 139.648C275.697 139.245 276.217 138.562 276.643 137.871C280.619 131.431 285.692 125.788 289.94 119.547C291.06 117.902 292.205 116.274 293.338 114.637C292.645 113.951 291.719 114.055 290.867 113.915C290.387 113.836 289.873 114.065 289.416 113.762Z"
            fill="#25414F" />
        <path
            d="M300.945 102.268C298.853 105.291 296.933 108.053 295.029 110.826C294.753 111.228 294.394 111.304 293.954 111.303C290.203 111.297 286.452 111.299 282.323 111.299C283.746 108.389 285.16 106.073 286.6 103.773C286.704 103.608 286.974 103.475 287.178 103.456C291.683 103.056 296.19 102.675 300.945 102.268Z"
            fill="#263848" />
        <path
            d="M285.267 118.283C284.597 119.271 283.918 120.254 283.262 121.252C283.102 121.496 282.696 121.748 282.993 122.072C283.3 122.407 283.764 122.398 284.142 122.153C284.404 121.982 284.635 121.732 284.819 121.475C286.001 119.826 287.318 118.248 288.29 116.482C289.14 114.938 290.143 114.213 291.879 114.641C292.094 114.755 292.352 114.839 292.223 115.173C290.504 117.574 288.752 119.952 287.084 122.387C286.535 123.189 285.96 123.45 285.004 123.281C281.913 122.735 278.808 122.265 275.706 121.765C276.436 119.36 276.667 119.209 279.015 119.471C280.209 119.604 281.421 119.619 282.598 119.832C283.585 120.009 283.844 119.248 284.342 118.764C284.612 118.629 284.524 118.283 284.726 118.11C284.995 117.881 285.243 117.738 285.267 118.283Z"
            fill="#14212D" />
        <path
            d="M285.267 118.283C284.618 117.791 284.781 118.855 284.342 118.764C284.61 118.069 284.179 118.003 283.653 117.959C281.759 117.8 279.875 117.488 277.733 117.686C278.445 116.592 279.061 115.643 279.681 114.696C279.911 114.344 280.257 114.273 280.652 114.293C282.951 114.406 285.251 114.513 287.689 114.628C286.937 115.996 286.189 117.194 285.267 118.283Z"
            fill="#203341" />
        <path
            d="M266.028 138.821C266.994 137.458 268.041 137.37 269.081 138.562C269.16 138.652 269.032 138.961 269.353 138.804C270.501 138.246 271.415 139.074 272.426 139.333C272.44 139.42 272.452 139.507 272.462 139.594C272.032 139.929 271.582 140.168 271.02 139.919C270.789 139.107 270.122 139.267 269.576 139.347C268.497 139.507 267.292 139.526 266.964 141.094C266.907 140.106 266.687 139.369 266.028 138.821Z"
            fill="#83BECA" />
        <path
            d="M271.02 139.919C271.464 139.651 271.966 139.638 272.461 139.595C273.285 139.612 274.108 139.63 274.931 139.648C274.861 139.706 274.778 139.826 274.723 139.814C272.029 139.265 271.613 141.264 271.027 143.083C270.973 143.25 270.848 143.394 270.756 143.549C270.679 143.177 270.538 142.981 270.095 143.156C269.549 143.373 269.145 143.027 268.538 142.565C270.557 142.623 270.254 140.838 271.02 139.919Z"
            fill="#72AFBA" />
        <path
            d="M277.161 130.72C275.872 130.413 274.58 130.118 273.297 129.791C273.002 129.715 272.582 129.585 272.666 129.195C272.765 128.733 273.21 128.756 273.574 128.859C275.065 129.283 276.549 129.728 278.036 130.165C277.671 130.235 277.193 130.127 277.161 130.72Z"
            fill="#90C1CC" />
        <path
            d="M292.223 115.173C292.109 114.996 291.994 114.819 291.879 114.641C291.922 114.528 292.509 114.62 292.023 114.316C291.228 113.82 290.194 114.381 289.416 113.762C290.674 113.586 291.896 113.888 293.129 114.039C293.622 114.099 293.694 114.29 293.338 114.638C292.717 114.3 292.657 115.124 292.223 115.173Z"
            fill="#7DB3BF" />
        <path
            d="M263.776 142.699C263.794 144.055 263.494 145.446 264.214 146.724C263.24 145.475 263.31 144.115 263.791 142.711L263.776 142.699Z"
            fill="#517B84" />
        <path
            d="M264.877 139.628C264.953 139.795 265.03 139.962 265.106 140.128C264.663 140.985 264.219 141.842 263.776 142.699C263.776 142.699 263.79 142.711 263.79 142.711C263.735 141.537 264.273 140.571 264.877 139.628Z"
            fill="#517B84" />
        <path
            d="M170.75 120.425C169.626 120.884 170.073 121.978 169.959 122.742C169.826 123.622 169.455 124.011 168.74 124.378C166.748 125.4 164.549 125.823 162.481 126.625C157.652 128.497 152.827 130.391 147.923 132.046C143.906 133.401 139.805 134.561 135.501 134.641C135.363 134.644 135.225 134.668 135.087 134.678C134.582 134.713 134.236 135.695 133.847 135.224C133.402 134.684 133.559 133.796 133.8 133.092C133.957 132.634 134.528 132.171 134.013 131.742C133.447 131.27 133.037 131.891 132.588 132.195C132.148 132.493 131.646 132.702 131.105 132.862C131.6 132.12 132.468 131.68 132.591 130.721C133.485 131.32 134.432 131.344 135.471 131.137C146.991 128.841 158.04 125.036 168.955 120.792C169.518 120.574 170.056 120.071 170.75 120.425Z"
            fill="#C2B3DC" />
        <path
            d="M274.102 126.161C276.021 126.659 278.264 127.237 280.504 127.826C280.82 127.909 281.171 128.021 281.023 128.472C280.91 128.816 280.664 129.008 280.276 128.906C277.991 128.304 275.706 127.705 273.426 127.089C273.105 127.002 272.806 126.82 272.969 126.39C273.121 125.991 273.44 126.007 274.102 126.161Z"
            fill="#8CCBD4" />
        <path
            d="M288.518 107.959C289.496 106.403 290.383 105.124 292.446 105.42C293.611 105.587 294.82 105.45 296.154 105.45C295.262 106.989 294.363 108.189 292.384 107.982C291.163 107.855 289.917 107.959 288.518 107.959Z"
            fill="#A7DDE4" />
        <path
            d="M285.837 122.8C285.656 122.667 285.469 122.594 285.391 122.458C285.222 122.166 285.457 121.923 285.609 121.719C286.407 120.647 287.254 119.612 288.035 118.528C288.76 117.52 289.538 116.543 290.074 115.407C290.184 115.175 290.375 114.89 290.709 115.102C290.894 115.219 290.83 115.431 290.714 115.587C289.115 117.732 287.699 119.994 286.373 122.314C286.269 122.496 286.049 122.613 285.837 122.8Z"
            fill="#8DC9D3" />
    </g>
    <defs>
        <clipPath id="clip0_2_833">
            <rect fill="white" height="227" width="343" />
        </clipPath>
    </defs>
</svg>
