<?xml version="1.0" encoding="UTF-8"?>
<svg height="512" version="1.1" width="512" xmlns="http://www.w3.org/2000/svg">
    <path
        d="M0 0 C1.12051758 0.01703979 1.12051758 0.01703979 2.26367188 0.03442383 C14.78717166 0.46844641 25.43274734 5.72607313 34.9375 13.625 C40.2169919 17.95647168 44.47255715 20.13545255 51.375 20.875 C58.59630723 20.10128851 62.68761436 17.8280274 68.125 13.1875 C82.17034559 1.22655382 97.06455084 -0.86039961 114.875 0.5 C126.19012345 2.4067867 134.88141998 8.25587495 143.6875 15.3125 C149.15984907 19.64761134 153.84012134 21.20348787 160.875 20.5 C166.25430917 19.02971419 170.56949778 17.04326656 174.625 13.1875 C186.34405637 2.11287239 201.0421707 -0.08686596 216.4609375 0.18359375 C222.79521876 0.4439813 228.16283763 1.73019154 233.875 4.5 C234.65488281 4.86222656 235.43476563 5.22445312 236.23828125 5.59765625 C240.57722032 7.80834196 244.19661111 10.51613343 247.9375 13.625 C253.18651201 17.93146496 257.42240532 20.05244143 264.25 20.9375 C271.45701934 20.06768732 276.935021 17.65581475 282.1875 12.625 C291.06090538 4.17713982 303.3413078 0.14650434 315.4375 0.125 C316.53094727 0.08826172 316.53094727 0.08826172 317.64648438 0.05078125 C322.84293362 0.02271762 325.81872101 0.99658543 329.875 4.5 C334.72404279 9.98598083 334.44397744 15.04843476 334.39398193 22.15512085 C334.40523381 23.92690529 334.40523381 23.92690529 334.416713 25.73448336 C334.43348259 29.0047653 334.43242614 32.27447914 334.42380548 35.54477477 C334.41885785 39.07440425 334.43694896 42.60392501 334.45222473 46.1335144 C334.4755338 52.24597037 334.48428542 58.35830771 334.48311615 64.47080612 C334.48144669 73.30839478 334.50178381 82.14582533 334.52747145 90.98337181 C334.56855232 105.32207741 334.59186533 119.66075456 334.60400391 133.99951172 C334.6158326 147.92727391 334.63602974 161.85498254 334.66748047 175.78271484 C334.66941657 176.64139323 334.67135267 177.50007161 334.67334744 178.38477056 C334.68311204 182.69255959 334.69304114 187.00034823 334.70305204 191.3081367 C334.78587383 227.03873349 334.83985977 262.76932571 334.875 298.5 C335.9683667 298.76337158 337.0617334 299.02674316 338.18823242 299.2980957 C339.63986461 299.65293913 341.09144043 300.00801319 342.54296875 300.36328125 C343.26158081 300.53573364 343.98019287 300.70818604 344.72058105 300.88586426 C360.18410634 304.69097865 371.41982468 314.12435449 379.875 327.5 C380.28363281 328.13164062 380.69226563 328.76328125 381.11328125 329.4140625 C388.91501573 343.08968974 389.6093777 359.80987729 385.7097168 374.68603516 C382.55949242 385.62641087 376.84583935 393.5150779 368.875 401.5 C368.31039063 402.07621094 367.74578125 402.65242188 367.1640625 403.24609375 C355.189483 414.49051596 339.64545984 416.95994546 323.90348816 416.88768005 C322.41079046 416.8918599 320.91809593 416.89734098 319.42540723 416.90399987 C315.34985482 416.91838803 311.27450577 416.91423063 307.19894254 416.90683305 C302.79321826 416.90208714 298.38753708 416.91462384 293.98182678 416.92485046 C285.36055278 416.94201642 276.73935173 416.94288299 268.11806508 416.93763756 C261.10757027 416.93359024 254.09709696 416.9350461 247.08660316 416.94038582 C245.58788078 416.94150845 245.58788078 416.94150845 244.05888117 416.94265376 C242.02886427 416.9441853 239.99884739 416.94572365 237.9688305 416.94726873 C218.94603551 416.960986 199.92328168 416.95556169 180.90048764 416.94408352 C163.51564775 416.93415371 146.13091432 416.94708885 128.74609085 416.97101771 C110.87564783 416.99542878 93.00525436 417.00501153 75.13479501 416.99836498 C65.10980751 416.99487701 55.08490185 416.99707691 45.05992699 417.01461601 C36.52520718 417.02936318 27.99062684 417.0299407 19.45590969 417.0125451 C15.1057641 417.00405309 10.7558674 417.00184126 6.40573502 417.01719666 C2.41515043 417.03110789 -1.57497356 417.02619887 -5.56553193 417.00695742 C-7.00083846 417.00321667 -8.43618246 417.00606318 -9.87145541 417.01656907 C-27.30605659 417.1350029 -42.02056199 412.46090832 -54.875 400.4375 C-66.08025986 388.56930268 -71.9780653 374.35531777 -72.625 358 C-72.01782668 342.17432109 -66.273148 327.0336804 -55.28125 315.4921875 C-46.6420557 307.5103232 -36.72673238 302.39408955 -25.26953125 299.859375 C-24.11428955 299.60124023 -22.95904785 299.34310547 -21.76879883 299.07714844 C-20.89634521 298.88668945 -20.0238916 298.69623047 -19.125 298.5 C-19.12410437 297.58931859 -19.12410437 297.58931859 -19.12319064 296.66023958 C-19.08730526 260.68606929 -19.0306795 224.71198996 -18.94707905 188.73789813 C-18.93706146 184.41950404 -18.92721735 180.10110958 -18.91748047 175.78271484 C-18.9155391 174.92299165 -18.91359772 174.06326846 -18.91159752 173.17749305 C-18.88056713 159.25265232 -18.86359397 145.32782807 -18.85180578 131.40295927 C-18.83939959 117.11726645 -18.81191026 102.83166022 -18.77038693 88.54602206 C-18.74523623 79.72931625 -18.73188386 70.91275402 -18.73357043 62.09601183 C-18.73360016 56.05197621 -18.71899357 50.00808698 -18.69283572 43.96410839 C-18.67817198 40.47576457 -18.6700018 36.98772094 -18.67919731 33.4993515 C-18.68580269 29.71761817 -18.66799761 25.93676547 -18.64398193 22.15512085 C-18.65174235 21.05200479 -18.65950277 19.94888873 -18.66749835 18.81234491 C-18.59879739 12.71999178 -18.21569608 9.12444768 -14.125 4.5 C-9.59836102 0.63107779 -5.80595093 -0.1501313 0 0 Z "
        fill="#0DB5D7" transform="translate(98.125,47.5)" />
    <path
        d="M0 0 C0.64676028 -0.00367669 1.29352056 -0.00735338 1.95987964 -0.01114148 C4.13697766 -0.02219465 6.31402799 -0.02602491 8.4911499 -0.02983093 C10.04819389 -0.03609439 11.60523638 -0.04274108 13.16227722 -0.04974365 C17.4000246 -0.06716512 21.63776068 -0.0777087 25.87553501 -0.08594918 C28.5225831 -0.09109729 31.16962767 -0.09717313 33.81667328 -0.10346031 C42.096955 -0.12251626 50.37722777 -0.1367461 58.65752721 -0.14507228 C68.21875732 -0.15484487 77.77975594 -0.1811632 87.34090447 -0.22157317 C94.72866522 -0.25172674 102.11635958 -0.26654046 109.50418067 -0.26985329 C113.91762793 -0.2722048 118.33082799 -0.28117805 122.74420929 -0.30631447 C126.89750079 -0.32958681 131.05038221 -0.33383194 135.203722 -0.32355309 C136.72669653 -0.32305739 138.24969119 -0.32938774 139.77260399 -0.34310913 C141.85532209 -0.3608217 143.93656744 -0.35372717 146.01928711 -0.34057617 C147.18367939 -0.34296453 148.34807167 -0.34535288 149.54774857 -0.34781361 C154.98055781 0.48840288 159.46079706 3.9398302 162.84564209 8.24482727 C164.82343803 12.34349375 164.47115511 16.75122467 163.76361084 21.14717102 C161.30793532 26.149473 157.76658014 29.64568637 152.76361084 32.14717102 C150.68677672 32.2499379 148.60658279 32.2867006 146.52722168 32.29434204 C145.8804614 32.29801873 145.23370112 32.30169542 144.56734204 32.30548352 C142.39024402 32.31653669 140.21319369 32.32036695 138.03607178 32.32417297 C136.47902779 32.33043643 134.9219853 32.33708313 133.36494446 32.34408569 C129.12719708 32.36150716 124.88946099 32.37205074 120.65168667 32.38029122 C118.00463858 32.38543933 115.35759401 32.39151517 112.7105484 32.39780235 C104.43026668 32.4168583 96.14999391 32.43108814 87.86969447 32.43941432 C78.30846436 32.44918691 68.74746574 32.47550524 59.18631721 32.51591522 C51.79855646 32.54606878 44.4108621 32.5608825 37.02304101 32.56419533 C32.60959375 32.56654685 28.19639369 32.57552009 23.78301239 32.60065651 C19.62972089 32.62392885 15.47683947 32.62817398 11.32349968 32.61789513 C9.80052515 32.61739943 8.27753049 32.62372979 6.75461769 32.63745117 C4.67189959 32.65516374 2.59065424 32.64806921 0.50793457 32.63491821 C-0.65645771 32.63730657 -1.82084999 32.63969492 -3.02052689 32.64215565 C-8.08888191 31.86203585 -11.17346128 29.32501003 -14.54888916 25.58467102 C-17.69324852 21.04281862 -17.89677 16.50359337 -17.23638916 11.14717102 C-13.3473795 3.51318909 -8.36041397 0.03072367 0 0 Z "
        fill="#E5EBFE" transform="translate(193.23638916015625,335.8528289794922)" />
    <path
        d="M0 0 C1.56587026 -0.00514134 3.13173473 -0.01242424 4.69758606 -0.02168274 C8.94158555 -0.04017949 13.18495588 -0.02726876 17.42892909 -0.00759244 C21.87527984 0.00881268 26.32159131 -0.00002156 30.76795959 -0.00511169 C38.23538237 -0.00963105 45.70255453 0.00622614 53.16992188 0.03417969 C61.79512518 0.0662192 70.41987623 0.06621991 79.0451116 0.04896492 C87.35106556 0.03308268 95.65685421 0.03984505 103.96280098 0.05690193 C107.49336731 0.06376274 111.02380074 0.06274993 114.55436516 0.05535698 C118.71517911 0.04767714 122.87548055 0.05987524 127.0362072 0.08720589 C128.5603483 0.09407352 130.08453741 0.0942051 131.60867691 0.08699036 C145.92844899 0.02703329 145.92844899 0.02703329 151.74243164 4.63110352 C155.04286637 8.18541784 156.00913772 10.89157224 156.17993164 15.63110352 C155.92485252 21.2938599 154.53873683 24.92934071 150.36743164 28.88110352 C145.65282758 32.02417289 141.93172396 32.88233579 136.27935791 32.9119873 C134.972883 32.92340759 133.66640808 32.93482788 132.32034302 32.94659424 C130.87933388 32.94908467 129.43832431 32.95133492 127.99731445 32.95336914 C126.47424847 32.96263157 124.95118711 32.97268171 123.4281311 32.98345947 C119.29572498 33.00965366 115.16338377 33.02258681 111.03090763 33.03148079 C108.44662929 33.03735108 105.86236853 33.04556235 103.27809906 33.05448914 C95.18523088 33.08182512 87.09240307 33.10116511 78.99949193 33.10889292 C69.67079342 33.11785079 60.34268153 33.15293576 51.01416135 33.21089411 C43.7944346 33.25418683 36.57487254 33.2743046 29.35501742 33.27697515 C25.04702852 33.27906711 20.73959156 33.29079171 16.43173981 33.32661438 C12.37672069 33.35967973 8.32266531 33.36383873 4.26755905 33.34633636 C2.784531 33.34480103 1.30145002 33.3534101 -0.18144608 33.37325287 C-9.0785258 33.48526447 -15.620522 32.97769046 -22.25756836 26.63110352 C-25.26166133 22.5346131 -25.79700411 18.77256905 -25.60522461 13.80297852 C-25.04449038 10.2999647 -23.55174648 8.28752029 -21.25756836 5.63110352 C-20.53327133 4.76240128 -19.8089743 3.89369904 -19.06272888 2.99867249 C-13.8467783 -1.22139845 -6.36275621 -0.05289012 0 0 Z "
        fill="#E3EBFE" transform="translate(201.257568359375,250.368896484375)" />
    <path
        d="M0 0 C13.13727104 2.81512951 21.55980315 5.36176774 32 13 C32.928125 13.67675781 32.928125 13.67675781 33.875 14.3671875 C39.02832002 18.43923055 42.52367719 23.47264673 46 29 C46.5878125 29.92039062 46.5878125 29.92039062 47.1875 30.859375 C54.98055156 44.61898165 55.75863884 61.21732757 51.8347168 76.18603516 C48.68449242 87.12641087 42.97083935 95.0150779 35 103 C34.43539062 103.57621094 33.87078125 104.15242188 33.2890625 104.74609375 C24.57779518 112.92618623 11.8881572 118 0 118 C0 79.06 0 40.12 0 0 Z "
        fill="#008EAB" transform="translate(432,346)" />
    <path
        d="M0 0 C0 38.94 0 77.88 0 118 C-17.27560118 116.27243988 -30.86076394 109.48750745 -42 96 C-51.83354901 82.02692859 -56.22174475 66.14641862 -53.33984375 49.09375 C-49.93252339 32.68077437 -41.76913439 18.87692996 -27.625 9.5625 C-19.60218315 4.78701378 -9.55573453 0 0 0 Z "
        fill="#008EAB" transform="translate(80,346)" />
    <path
        d="M0 0 C1.58126867 -0.00591831 3.16253285 -0.01316895 4.74378967 -0.02168274 C8.04810031 -0.03352445 11.35173573 -0.02692092 14.65600586 -0.00756836 C18.87059901 0.01530555 23.08317412 -0.0114624 27.29756832 -0.05263042 C30.56040404 -0.07832434 33.82276431 -0.07559726 37.08566475 -0.06473732 C38.63846227 -0.06326013 40.19129797 -0.07082981 41.74400139 -0.0879879 C49.88445057 -0.16335188 56.5221014 -0.05621795 63.18971252 5.13273621 C66.70794614 8.58710533 67.9128066 11.88048117 68.16015625 16.69921875 C67.94970511 21.30283743 66.66738785 24.84208358 63.3203125 28.14453125 C58.52435459 32.24865171 56.0397074 32.8334151 49.80029297 32.92382812 C48.72185371 32.94091324 48.72185371 32.94091324 47.62162781 32.95834351 C40.09171779 33.06909148 32.5608264 33.11644624 25.03027344 33.15917969 C21.46044662 33.18142868 17.89166959 33.22315512 14.32226562 33.28222656 C10.00801721 33.35348204 5.69475429 33.39003627 1.37994766 33.40229797 C-0.26030338 33.41267252 -1.90052621 33.43503516 -3.54043961 33.46989441 C-17.96957179 33.76066778 -17.96957179 33.76066778 -23.15966797 29.40429688 C-26.55398671 25.81795194 -28.50141294 22.36537313 -28.58984375 17.38671875 C-28.42510357 11.81300923 -26.7801401 8.19689808 -22.79075623 4.31266785 C-15.96797457 -0.74019682 -8.10397357 -0.0449865 0 0 Z "
        fill="#E3EBFE" transform="translate(204.21484375,164.30078125)" />
</svg>
