<svg fill="none" height="18" viewBox="0 0 18 18" width="18" xmlns="http://www.w3.org/2000/svg">
    <g clip-path="url(#clip0_62_1021)">
        <path
            d="M12 4H6M12 8H6M12 12H8M2 0H16V18L14.968 17.116C14.6055 16.8053 14.1439 16.6346 13.6665 16.6346C13.1891 16.6346 12.7275 16.8053 12.365 17.116L11.333 18L10.302 17.116C9.93946 16.8051 9.47761 16.6342 9 16.6342C8.52239 16.6342 8.06054 16.8051 7.698 17.116L6.667 18L5.635 17.116C5.27253 16.8053 4.81088 16.6346 4.3335 16.6346C3.85611 16.6346 3.39447 16.8053 3.032 17.116L2 18V0Z"
            stroke="#404040" stroke-linecap="round" stroke-linejoin="round" />
    </g>
    <defs>
        <clipPath id="clip0_62_1021">
            <rect fill="white" height="18" width="18" />
        </clipPath>
    </defs>
</svg>
