<svg fill="none" height="14" viewBox="0 0 14 14" width="14" xmlns="http://www.w3.org/2000/svg">
    <path
        d="M7 12.25C6.05889 12.25 5.28889 12.13 4.69 11.8901C4.09111 11.6497 3.79167 11.3398 3.79167 10.9602C3.79167 10.779 3.87722 10.6056 4.04833 10.4399C4.21906 10.2742 4.45317 10.1335 4.75067 10.0176L5.20975 10.4072C5.04758 10.4683 4.87978 10.5494 4.70633 10.6505C4.53328 10.7516 4.42497 10.851 4.38142 10.9486C4.44831 11.1419 4.73064 11.3099 5.22842 11.4526C5.72619 11.5953 6.31497 11.6667 6.99475 11.6667C7.67453 11.6667 8.26544 11.5953 8.7675 11.4526C9.26956 11.3099 9.55422 11.1419 9.6215 10.9486C9.59117 10.8486 9.47936 10.7481 9.28608 10.647C9.09281 10.5459 8.91042 10.4648 8.73892 10.4037L9.19392 10.0112C9.51864 10.1294 9.76889 10.2713 9.94467 10.437C10.1204 10.6023 10.2083 10.7749 10.2083 10.955C10.2083 11.3361 9.90889 11.6472 9.31 11.8883C8.71111 12.1294 7.94111 12.25 7 12.25ZM7.01458 9.77083C7.98447 9.01639 8.71072 8.27808 9.19333 7.55592C9.67594 6.83375 9.91706 6.12403 9.91667 5.42675C9.91667 4.40592 9.60244 3.63514 8.974 3.11442C8.34633 2.59369 7.69028 2.33333 7.00583 2.33333C6.32139 2.33333 5.66319 2.59389 5.03125 3.115C4.39931 3.63611 4.08333 4.40806 4.08333 5.43083C4.08333 6.10244 4.32347 6.79622 4.80375 7.51217C5.28364 8.22811 6.02058 8.981 7.01458 9.77083ZM7 10.5C5.82517 9.60789 4.94822 8.74125 4.36917 7.90008C3.79011 7.05892 3.50039 6.23525 3.5 5.42908C3.5 4.82008 3.60519 4.28731 3.81558 3.83075C4.02636 3.37381 4.29994 2.99094 4.63633 2.68217C4.97272 2.37339 5.34917 2.14083 5.76567 1.9845C6.18217 1.82817 6.59419 1.75 7.00175 1.75C7.40931 1.75 7.82075 1.82817 8.23608 1.9845C8.65142 2.14083 9.02728 2.37339 9.36367 2.68217C9.70006 2.99094 9.97364 3.374 10.1844 3.83133C10.3952 4.28867 10.5004 4.82067 10.5 5.42733C10.5 6.23389 10.2103 7.05775 9.63083 7.89892C9.05139 8.74008 8.17444 9.60711 7 10.5ZM7.00583 6.29358C7.26289 6.29358 7.48319 6.20356 7.66675 6.0235C7.85031 5.84344 7.94208 5.62119 7.94208 5.35675C7.94208 5.09231 7.84992 4.86811 7.66558 4.68417C7.48125 4.50022 7.25939 4.40844 7 4.40883C6.74644 4.40883 6.52594 4.501 6.3385 4.68533C6.15106 4.86967 6.05733 5.09153 6.05733 5.35092C6.05733 5.61925 6.15106 5.84344 6.3385 6.0235C6.52594 6.20356 6.74819 6.29358 7.00525 6.29358"
        fill="#69747B" />
</svg>
