<svg fill="none" height="14" viewBox="0 0 11 14" width="11" xmlns="http://www.w3.org/2000/svg">
    <path
        d="M9.46234 9.94495L5.75 13.6573L2.03767 9.94495C1.30345 9.21073 0.803442 8.27526 0.600875 7.25687C0.398308 6.23847 0.502279 5.18287 0.899641 4.22356C1.297 3.26425 1.96991 2.44432 2.83327 1.86745C3.69662 1.29057 4.71165 0.982666 5.75 0.982666C6.78835 0.982666 7.80338 1.29057 8.66674 1.86745C9.5301 2.44432 10.203 3.26425 10.6004 4.22356C10.9977 5.18287 11.1017 6.23847 10.8991 7.25687C10.6966 8.27526 10.1966 9.21073 9.46234 9.94495ZM5.75 7.39929C6.05942 7.39929 6.35617 7.27637 6.57496 7.05758C6.79375 6.83879 6.91667 6.54204 6.91667 6.23262C6.91667 5.9232 6.79375 5.62645 6.57496 5.40766C6.35617 5.18887 6.05942 5.06595 5.75 5.06595C5.44058 5.06595 5.14384 5.18887 4.92504 5.40766C4.70625 5.62645 4.58334 5.9232 4.58334 6.23262C4.58334 6.54204 4.70625 6.83879 4.92504 7.05758C5.14384 7.27637 5.44058 7.39929 5.75 7.39929Z"
        fill="#F7741A" />
</svg>
