<svg fill="none" height="123" viewBox="0 0 123 123" width="123" xmlns="http://www.w3.org/2000/svg">
    <circle cx="61.5" cy="61.5" fill="#EDEAF1" r="61.5" />
    <g clip-path="url(#clip0_1_308)">
        <path
            d="M61.5 24C40.7884 24 24 40.7884 24 61.5C24 82.2116 40.7884 99 61.5 99C82.2116 99 99 82.2116 99 61.5C99 40.7884 82.2116 24 61.5 24ZM61.5 93.1406C44.0249 93.1406 29.8594 78.9751 29.8594 61.5C29.8594 44.0249 44.0249 29.8594 61.5 29.8594C78.9751 29.8594 93.1406 44.0249 93.1406 61.5C93.1406 78.9751 78.9751 93.1406 61.5 93.1406Z"
            fill="#7CBD25" />
        <path
            d="M67.3594 59.1562H66.1143C66.16 58.7877 66.1875 58.3963 66.1875 57.9844C66.1875 56.0503 64.0772 54.4688 61.5 54.4688C58.9228 54.4688 56.8125 56.0503 56.8125 57.9844C56.8125 58.3963 56.84 58.7877 56.8857 59.1562H55.6406C54.9929 59.1562 54.4688 59.6804 54.4688 60.3281V67.3594C54.4688 68.0071 54.9929 68.5312 55.6406 68.5312H67.3594C68.0071 68.5312 68.5312 68.0071 68.5312 67.3594V60.3281C68.5312 59.6804 68.0071 59.1562 67.3594 59.1562ZM59.1562 59.1562C58.4536 57.7509 60.2114 56.3433 61.5 56.3433C62.7886 56.3433 64.5464 57.7509 63.8438 59.1562H59.1562Z"
            fill="#7CBD25" />
        <path
            d="M78.332 69.5842L82.8273 61.5H80.0166C79.8998 50.9027 71.7219 42.8209 61.4451 42.8073C51.102 42.7958 42.7294 51.1683 42.7432 61.5116C42.7546 71.857 51.1454 80.2478 61.4886 80.257C67.3297 80.2708 72.5344 77.602 75.9609 73.4272L73.7224 69.6942C71.0948 73.6516 66.5973 76.2494 61.4819 76.2425C53.3566 76.2379 46.7626 69.6438 46.7557 61.5162C46.7466 53.3887 53.3246 46.8129 61.4498 46.8221C69.5385 46.8359 75.9632 53.5283 76.0319 61.5003L73.2418 61.4957L78.332 69.5842Z"
            fill="#7CBD25" />
    </g>
    <defs>
        <clipPath id="clip0_1_308">
            <rect fill="white" height="75" transform="translate(24 24)" width="75" />
        </clipPath>
    </defs>
</svg>
