<svg fill="none" height="130" viewBox="0 0 200 130" width="200" xmlns="http://www.w3.org/2000/svg">
    <rect fill="#EDEAF1" height="130" rx="15" width="200" />
    <path d="M99.5 67.0156H113.094V109.453H99.5V67.0156Z" fill="#E7B40B" />
    <path
        d="M98.8033 26.8707C92.4312 19.7662 82.083 19.7851 75.7279 26.8896C72.6693 30.2998 70.9531 34.9224 70.9531 39.7345V67.0158H103.578V39.7345C103.595 34.9035 101.862 30.2808 98.8033 26.8707Z"
        fill="#E5E5E5" />
    <path
        d="M122.609 21.5469H87.2656C96.2545 21.528 103.561 29.6555 103.578 39.6776C103.578 39.6965 103.578 39.7155 103.578 39.7344V67.0156H138.922V39.7344C138.922 29.6934 131.615 21.5469 122.609 21.5469Z"
        fill="#B8AF92" />
    <path
        d="M131.088 24.218C132.652 27.0598 133.484 30.3374 133.484 33.6717V48.828C133.484 55.5157 128.608 60.953 122.609 60.953H103.578V67.0155H138.922V39.7342C138.922 33.3876 135.948 27.5145 131.088 24.218Z"
        fill="#E7B40B" />
    <path d="M60.0781 39.8859V66.8451L73.6039 53.3749L60.0781 39.8859Z" fill="#E7B40B" />
    <path
        d="M95.4219 66.8451L81.8961 53.375L79.5512 55.7053C78.5146 56.7283 76.9514 56.7283 75.9318 55.7053L73.6039 53.375L60.0781 66.8451V67.0156H95.4219V66.8451Z"
        fill="#E7B40B" />
    <path d="M95.4218 66.8451V39.8859L81.896 53.3749L95.4218 66.8451Z" fill="#E7B40B" />
    <path
        d="M73.6039 53.375L75.9488 55.7053C76.9854 56.7283 78.5486 56.7283 79.5682 55.7053L81.8961 53.375L95.4219 39.8859V39.7344H60.0781V39.8859L73.6039 53.375Z"
        fill="#E7B40B" />
    <path
        d="M70.9531 67.0156L67.4867 74.7453C66.824 76.242 67.3678 78.0607 68.7101 78.8186C69.084 79.027 69.5088 79.1406 69.9336 79.1406H96.4754C97.5119 79.1406 98.4465 78.4965 98.9053 77.4734L103.578 67.0156H70.9531Z"
        fill="#E5E5E5" />
    <path d="M95.4219 60.9531H103.578V67.0156H95.4219V60.9531Z" fill="#E5E5E5" />
    <path
        d="M122.609 20.0312H85.9062C85.7363 20.0312 85.5834 20.0691 85.4305 20.1449C76.9514 21.149 70.3244 28.7461 69.6617 38.2188H60.0781C59.3305 38.2188 58.7188 38.9008 58.7188 39.7344V67.0156C58.7188 67.8492 59.3305 68.5312 60.0781 68.5312H68.7611L66.2803 74.0822C65.2777 76.3367 66.0934 79.0648 68.0984 80.1826C68.6592 80.5047 69.2879 80.6562 69.9166 80.6562H96.4584C97.0361 80.6562 97.6139 80.5236 98.1406 80.2584V109.453C98.1406 110.287 98.7523 110.969 99.5 110.969H113.094C113.841 110.969 114.453 110.287 114.453 109.453V68.5312H138.922C139.67 68.5312 140.281 67.8492 140.281 67.0156V39.7344C140.264 28.8598 132.363 20.0502 122.609 20.0312ZM87.2656 23.0625C95.5068 23.0436 102.202 30.4891 102.219 39.6775C102.219 39.6965 102.219 39.7154 102.219 39.7344V65.5H96.7812V39.7344C96.7812 38.9008 96.1695 38.2188 95.4219 38.2188H72.3805C73.0941 29.6365 79.5342 23.0814 87.2656 23.0625ZM63.4766 65.5L73.6039 55.4211L75.0312 56.8609C76.5775 58.3955 78.9225 58.3955 80.4688 56.8609L81.8961 55.4211L92.0234 65.5H63.4766ZM83.9521 53.375L94.0625 43.2771V63.4539L83.9521 53.375ZM78.6676 54.5875C78.1578 55.099 77.3762 55.099 76.8494 54.5875L63.4766 41.25H92.0234L78.6676 54.5875ZM71.5648 53.375L61.4375 63.4539V43.2771L71.5648 53.375ZM96.4584 77.625H69.9166C69.1689 77.625 68.5572 76.943 68.5572 76.1094C68.5572 75.882 68.6082 75.6357 68.6932 75.4273L71.7857 68.5312H101.369L97.6648 76.7914C97.4439 77.3029 96.9682 77.625 96.4584 77.625ZM111.734 107.938H100.859V76.4693L104.411 68.5312H111.734V107.938ZM137.562 65.5H104.938V39.7344C104.954 32.952 101.828 26.6432 96.6793 23.0625H122.609C130.868 23.0814 137.546 30.527 137.562 39.7344V65.5Z"
        fill="white" />
</svg>
