<?xml version="1.0" encoding="UTF-8"?>
<svg height="512" version="1.1" width="512" xmlns="http://www.w3.org/2000/svg">
    <path
        d="M0 0 C7.57898145 5.6013011 11.5480261 12.77198441 14.3203125 21.71484375 C14.3203125 23.03484375 14.3203125 24.35484375 14.3203125 25.71484375 C14.96468262 25.59367187 15.60905273 25.4725 16.27294922 25.34765625 C19.24543253 24.794141 22.22027129 24.25443456 25.1953125 23.71484375 C26.20851562 23.5240625 27.22171875 23.33328125 28.265625 23.13671875 C37.33234523 21.50935871 45.99120532 19.97868476 54.3203125 24.71484375 C55.0436377 25.59350098 55.76696289 26.4721582 56.51220703 27.37744141 C59.19322059 30.11060417 59.19322059 30.11060417 63.08154297 29.74755859 C64.53870456 29.50265484 65.99088568 29.22678748 67.4375 28.92578125 C68.21288116 28.78790192 68.98826233 28.65002258 69.78713989 28.50796509 C72.26227447 28.06176196 74.72790119 27.57677579 77.1953125 27.08984375 C78.84717043 26.7838242 80.49951335 26.48041036 82.15234375 26.1796875 C85.2050419 25.62222894 88.25359921 25.04780623 91.30029297 24.45849609 C107.67671225 21.35028936 122.12536482 21.76045734 136.5625 30.76953125 C151.01487022 40.96397937 155.66057789 55.24476992 158.76831055 72.0715332 C159.21386399 74.65609517 159.65151627 77.24110747 160.08203125 79.828125 C160.31975008 81.21833114 160.55827665 82.60839937 160.79756165 83.99833679 C161.41686583 87.60522421 162.02769495 91.21348593 162.63586426 94.82226562 C163.61756231 100.64221761 164.60974968 106.46036638 165.60718727 112.27763939 C165.95272888 114.30290819 166.29287463 116.32903141 166.63249207 118.3553009 C166.83973404 119.57134506 167.04697601 120.78738922 167.26049805 122.0402832 C167.44162643 123.11502396 167.62275482 124.18976471 167.80937195 125.29707336 C168.07781646 127.65422284 168.07781646 127.65422284 169.3203125 128.71484375 C170.10792969 127.67328125 170.89554687 126.63171875 171.70703125 125.55859375 C177.888977 117.4131064 184.16931708 109.37240117 190.64868164 101.46142578 C194.82246017 96.35585925 198.86249891 91.16361082 202.86328125 85.921875 C206.8282453 80.73053464 210.88618584 75.61154809 214.92919922 70.48095703 C217.22905487 67.56113327 219.52447195 64.63782482 221.8203125 61.71484375 C222.7369576 60.54816014 223.65362427 59.38149348 224.5703125 58.21484375 C225.2509375 57.34859375 225.2509375 57.34859375 225.9453125 56.46484375 C227.3203125 54.71484375 228.6953125 52.96484375 230.0703125 51.21484375 C230.7516626 50.3472644 230.7516626 50.3472644 231.44677734 49.4621582 C232.35749648 48.30360561 233.26926943 47.14588058 234.18212891 45.98901367 C236.57439939 42.95438219 238.94301012 39.90463537 241.28125 36.828125 C241.76916016 36.19197266 242.25707031 35.55582031 242.75976562 34.90039062 C243.68982503 33.68688455 244.61344522 32.46840499 245.52929688 31.24414062 C248.13772072 27.85755684 250.38228441 25.4312729 254.3203125 23.71484375 C255.62871094 23.61945312 256.93710937 23.5240625 258.28515625 23.42578125 C261.62787377 23.11056369 263.05842983 22.42074362 265.26171875 19.87890625 C266.15759764 18.71597389 267.03114268 17.53553149 267.8828125 16.33984375 C271.5095004 11.35926486 274.20523132 8.64058755 280.3203125 6.71484375 C285.7076736 5.95209237 291.33355599 5.76457612 296.2578125 8.33984375 C300.65538227 11.75020398 304.18517847 15.48517627 306.3203125 20.71484375 C307.23470797 28.15759759 306.77296121 34.56046435 302.3203125 40.71484375 C300.47393093 42.8599047 298.59821242 44.93545269 296.61328125 46.953125 C296.18660156 47.53449219 295.75992187 48.11585937 295.3203125 48.71484375 C295.6503125 49.70484375 295.9803125 50.69484375 296.3203125 51.71484375 C296.82825943 57.91179632 296.3223868 60.71225088 292.3203125 65.71484375 C291.5571875 66.58109375 290.7940625 67.44734375 290.0078125 68.33984375 C288.12724346 70.50099297 288.12724346 70.50099297 288.3203125 72.71484375 C289.63867138 75.35156151 291.47436467 77.42139341 293.3203125 79.71484375 C296.4241548 86.12064594 296.52633761 93.56415834 294.55078125 100.36328125 C291.73010534 106.52291982 287.39607809 111.50092474 282.9921875 116.5859375 C280.33333055 119.66446164 277.84388647 122.85215552 275.3828125 126.08984375 C272.33871264 130.08544979 269.27337061 134.06073013 266.15966797 138.00244141 C264.31901805 140.33290551 262.48645687 142.66962965 260.65625 145.00830078 C259.7697737 146.14069649 258.88176571 147.27189491 257.9921875 148.40185547 C256.73869581 149.99939664 255.49800964 151.60695996 254.2578125 153.21484375 C253.54496094 154.13265625 252.83210938 155.05046875 252.09765625 155.99609375 C248.51939524 161.46965345 248.11613631 166.00777168 248.3203125 172.46484375 C248.39609221 174.88032201 248.41274879 177.29994555 248.3203125 179.71484375 C246.3203125 181.71484375 246.3203125 181.71484375 243.8828125 181.77734375 C241.3203125 180.71484375 241.3203125 180.71484375 239.5078125 177.77734375 C236.82651165 170.21114423 237.94060494 162.87015491 240.875 155.5546875 C243.34539255 150.70069997 246.61435043 146.54160799 250.02880859 142.31689453 C251.35730677 140.66895408 252.66338271 139.00529599 253.96484375 137.3359375 C256.26896507 134.38274453 258.58633602 131.44033213 260.90869141 128.50146484 C265.05855553 123.24918092 269.19427339 117.98585872 273.3203125 112.71484375 C273.78953125 112.11655762 274.25875 111.51827148 274.7421875 110.90185547 C276.12628834 109.13417998 277.50526682 107.36263035 278.8828125 105.58984375 C279.68847656 104.55601563 280.49414062 103.5221875 281.32421875 102.45703125 C285.14912328 97.20246573 286.28281213 93.19492844 285.3203125 86.71484375 C284.21713092 84.3597909 282.98749608 82.74672373 281.3203125 80.71484375 C278.10477407 83.77656371 275.4358233 87.05151647 272.7578125 90.58984375 C271.8704446 91.75570559 270.98240022 92.92105278 270.09375 94.0859375 C269.40877441 94.98481689 269.40877441 94.98481689 268.70996094 95.90185547 C266.45917807 98.83831253 264.17230413 101.74602604 261.8828125 104.65234375 C261.42575928 105.23290527 260.96870605 105.8134668 260.49780273 106.41162109 C259.56920379 107.59080986 258.64041129 108.76984623 257.71142578 109.94873047 C255.41157013 112.86855423 253.11615305 115.79186268 250.8203125 118.71484375 C249.9036674 119.88152736 248.98700073 121.04819402 248.0703125 122.21484375 C247.6165625 122.79234375 247.1628125 123.36984375 246.6953125 123.96484375 C234.3203125 139.71484375 221.9453125 155.46484375 209.5703125 171.21484375 C208.88932495 172.08157715 208.88932495 172.08157715 208.19458008 172.96582031 C207.28041235 174.12927698 206.36618734 175.29268864 205.4519043 176.45605469 C203.1215255 179.42146274 200.79223135 182.38771232 198.46484375 185.35546875 C197.99457764 185.95359375 197.52431152 186.55171875 197.03979492 187.16796875 C196.10902762 188.35666341 195.183311 189.54933188 194.26293945 190.74609375 C192.19721126 193.41766358 190.14194387 195.89815182 187.78125 198.32421875 C183.55205038 202.70066592 183.55205038 202.70066592 182.30151367 208.43945312 C182.48689697 209.46876953 182.67228027 210.49808594 182.86328125 211.55859375 C183.07476807 212.79351562 183.28625488 214.0284375 183.50415039 215.30078125 C183.63290558 215.9959082 183.76166077 216.69103516 183.89431763 217.40722656 C184.36503888 219.95712684 184.80782154 222.5110257 185.24780273 225.06640625 C186.47753858 232.17470075 187.73959897 239.27719322 189.01220703 246.37792969 C189.55952062 249.43736983 190.10048968 252.49787937 190.640625 255.55859375 C190.80934113 256.48990112 190.97805725 257.4212085 191.15188599 258.3807373 C191.94291686 262.88530647 192.52429083 267.11916451 192.3203125 271.71484375 C193.17971436 271.5547583 194.03911621 271.39467285 194.92456055 271.22973633 C211.06845044 268.78186346 228.81563775 269.46484312 244.3203125 274.71484375 C245.26487305 275.02832764 245.26487305 275.02832764 246.22851562 275.34814453 C261.89132356 280.6660104 274.61900714 289.15222053 286.3203125 300.71484375 C287.03574219 301.35808594 287.75117188 302.00132812 288.48828125 302.6640625 C304.23447719 317.15307713 315.30782586 341.60878949 316.49731445 362.88012695 C317.04080405 392.90630306 317.04080405 392.90630306 312.3203125 406.71484375 C312.11132324 407.34310059 311.90233398 407.97135742 311.68701172 408.61865234 C306.36967871 424.28387386 297.88455041 437.01190433 286.3203125 448.71484375 C285.67707031 449.43027344 285.03382813 450.14570313 284.37109375 450.8828125 C269.69331057 466.83415604 244.92782153 477.92566873 223.38452148 478.83935547 C193.07781727 479.55151768 166.56498453 474.43481358 143.3203125 453.71484375 C142.41925781 452.60109375 142.41925781 452.60109375 141.5 451.46484375 C139.33628148 449.37724844 139.33628148 449.37724844 135.8671875 449.54296875 C134.61421875 449.6821875 133.36125 449.82140625 132.0703125 449.96484375 C130.80703125 450.09375 129.54375 450.22265625 128.2421875 450.35546875 C127.27796875 450.4740625 126.31375 450.59265625 125.3203125 450.71484375 C124.9903125 452.03484375 124.6603125 453.35484375 124.3203125 454.71484375 C106.35077816 458.48692692 88.26361093 461.59383762 70.17702866 464.74150252 C67.54749779 465.19928437 64.91809204 465.65777823 62.28872681 466.11651039 C53.08762383 467.72175883 43.88607185 469.3244039 34.68408203 470.92456055 C26.14660098 472.40923639 17.61015335 473.89975285 9.07415581 475.39293212 C1.70018486 476.68257207 -5.67449338 477.96811179 -13.04972649 479.25051385 C-17.43548172 480.01317794 -21.82094177 480.77744581 -26.20568848 481.5458889 C-30.32219547 482.26718007 -34.43956604 482.98332587 -38.55763054 483.69566917 C-40.05905646 483.95625695 -41.56017715 484.21861125 -43.06094551 484.48295975 C-61.88495111 487.79594645 -78.83529215 489.81625181 -95.6328125 478.7734375 C-112.13500919 466.17135013 -115.22472213 448.3812933 -118.51904297 429.0871582 C-118.88290983 427.00097653 -119.24767189 424.91495082 -119.61325455 422.82906914 C-120.6034114 417.16482929 -121.58111404 411.49850257 -122.55664301 405.83172774 C-123.59830621 399.79387855 -124.65157918 393.75805462 -125.70358276 387.72200012 C-127.47688493 377.53874482 -129.24327853 367.35431262 -131.00476074 357.16900635 C-133.37585334 343.45967054 -135.75943813 329.75253584 -138.14774752 316.04619002 C-142.75042882 289.63076954 -147.33597727 263.21239485 -151.9161756 236.79306805 C-153.63160847 226.89881679 -155.34882732 217.00487606 -157.06641304 207.11099833 C-158.95914311 196.20799303 -160.85070616 185.30478559 -162.74172592 174.40148354 C-163.53318332 169.83819315 -164.32504607 165.2749734 -165.11725235 160.71181297 C-166.03608375 155.41898241 -166.95389338 150.12597567 -167.8708992 144.83282852 C-168.2055451 142.90215825 -168.54054356 140.97154905 -168.87592316 139.04100609 C-169.33313309 136.40882571 -169.78905807 133.77642588 -170.24465942 131.14396667 C-170.4426338 130.00687839 -170.4426338 130.00687839 -170.64460766 128.84681863 C-173.28625961 113.54959317 -173.90214167 99.25351106 -165.59375 85.37890625 C-154.51326421 69.95667909 -140.60784821 64.76630474 -122.6796875 61.71484375 C-120.63775027 61.42366197 -118.59471071 61.14013297 -116.55078125 60.86328125 C-115.5141333 60.71262207 -114.47748535 60.56196289 -113.40942383 60.40673828 C-111.37587425 60.11730487 -109.33755763 59.85922454 -107.2956543 59.63623047 C-102.11205606 59.0219203 -102.11205606 59.0219203 -98.21972656 55.88989258 C-97.14284262 53.79181609 -97.14284262 53.79181609 -96.42529297 51.66040039 C-95.12014039 48.25478123 -92.80564947 46.35613039 -89.6796875 44.71484375 C-85.73711257 43.38718308 -81.75783651 42.51841991 -77.6796875 41.71484375 C-76.67421875 41.50859375 -75.66875 41.30234375 -74.6328125 41.08984375 C-70.23976943 40.23498131 -66.16681518 39.61049194 -61.6796875 39.71484375 C-61.73769531 38.626875 -61.79570313 37.53890625 -61.85546875 36.41796875 C-62.28852817 24.8154196 -61.00094419 15.63691899 -53.3671875 6.33984375 C-52.1678072 5.10193946 -50.9387067 3.8920399 -49.6796875 2.71484375 C-49.09574219 2.16054688 -48.51179688 1.60625 -47.91015625 1.03515625 C-33.83578165 -10.8762092 -14.75639906 -9.45982322 0 0 Z "
        fill="#313357" transform="translate(179.6796875,17.28515625)" />
    <path
        d="M0 0 C0.69609375 0.38285156 1.3921875 0.76570313 2.109375 1.16015625 C7.67771778 5.78350655 10.01520948 11.04224709 11.24609375 18.0234375 C11.40194443 18.82921234 11.5577951 19.63498718 11.71836853 20.46517944 C12.25331262 23.28537218 12.75469678 26.11007995 13.25 28.9375 C13.44297668 30.02760376 13.63595337 31.11770752 13.83477783 32.24084473 C15.37726356 41.00645049 16.84913436 49.78340029 18.3125 58.5625 C18.96562438 62.45945127 19.61985685 66.35621421 20.27474976 70.25286865 C20.69402049 72.75117531 21.11171781 75.2497466 21.52774048 77.74859619 C22.39905625 82.96777186 23.28132367 88.18183633 24.26123047 93.38183594 C24.48231728 94.56596573 24.48231728 94.56596573 24.70787048 95.77401733 C25.08538809 97.77197081 25.47458241 99.76770888 25.86499023 101.76318359 C26.24254572 104.87604116 26.19322364 106.9629195 25.25 109.9375 C23.708725 111.70425782 22.1178939 113.42812607 20.5 115.125 C13.05408342 123.82752225 12.36496671 135.01971288 10.72167969 145.97167969 C10.1286331 149.70062891 9.30974914 153.32695087 8.4375 157 C7.56821268 160.77307688 7.22284397 163.67342095 7.6875 167.5 C8.01148575 172.88626305 4.06984988 176.6073684 0.71850586 180.42211914 C-0.84622481 182.1864706 -0.84622481 182.1864706 -2.75 184.9375 C-2.71336294 187.26725876 -2.71336294 187.26725876 -1.75 188.9375 C0.23 188.9375 2.21 188.9375 4.25 188.9375 C4.51425781 188.37417969 4.77851563 187.81085938 5.05078125 187.23046875 C6.35065953 184.74503372 7.79493621 182.52402996 9.4375 180.25 C9.98792969 179.46238281 10.53835938 178.67476562 11.10546875 177.86328125 C14.0218612 175.24437145 16.39819022 175.40733169 20.25 174.9375 C22.7552693 173.81658015 25.10356974 172.68473732 27.5 171.375 C33.87720157 167.9375 33.87720157 167.9375 37.25 167.9375 C38.2124478 173.25327382 39.17263256 178.56945001 40.13085938 183.88598633 C40.45610701 185.68882882 40.78193781 187.49156622 41.10839844 189.29418945 C42.80374472 198.65759737 44.47958866 208.01362721 45.8605957 217.42944336 C46.1927685 219.5688861 46.61819427 221.69350344 47.0625 223.8125 C46.03143249 227.77814429 44.92815726 228.08621224 41.5 230.1875 C40.49324219 230.76757812 39.48648437 231.34765625 38.44921875 231.9453125 C31.66963099 236.16703382 25.51707554 241.93853774 20.59985352 248.23632812 C14.50829872 255.89820763 9.5484729 259.58175968 -0.46777344 260.85717773 C-1.9368234 261.00919905 -3.40589977 261.16096525 -4.875 261.3125 C-6.44904815 261.51876099 -8.02228993 261.73125612 -9.59472656 261.94946289 C-12.92626916 262.40761869 -16.25973266 262.84044539 -19.59667969 263.25732422 C-27.38830417 264.25590449 -35.12248593 265.60359454 -42.86434937 266.92630005 C-45.52036159 267.37846641 -48.17752218 267.82314665 -50.83520508 268.26538086 C-68.5904537 271.22058791 -86.31967971 274.32102025 -104.04351807 277.45843506 C-106.90182812 277.96437457 -109.76023771 278.46974937 -112.61865234 278.97509766 C-118.66276933 280.04401508 -124.70645537 281.11535185 -130.75 282.1875 C-131.69090485 282.35426239 -132.63180969 282.52102478 -133.60122681 282.69284058 C-144.99603138 284.71358854 -156.38048864 286.77857935 -167.75 288.9375 C-167.792721 290.60361905 -167.79063832 292.27132885 -167.75 293.9375 C-167.42 294.2675 -167.09 294.5975 -166.75 294.9375 C-157.88583151 294.41870911 -149.20165356 292.66529801 -140.48126221 291.07223511 C-119.27156921 287.20242646 -98.02023954 283.59043919 -76.75875473 280.01957703 C-55.55380182 276.46515746 -55.55380182 276.46515746 -34.3828125 272.71484375 C-33.47012604 272.54869064 -32.55743958 272.38253754 -31.61709595 272.21134949 C-27.56042346 271.47036798 -23.50577372 270.72009631 -19.45361328 269.95483398 C-11.2303867 268.42196353 -3.10865514 267.37033968 5.25 266.9375 C3.74269046 271.62055925 2.1613826 276.21414206 0.25 280.75 C-9.71623732 305.26465271 -7.80186694 333.11049934 2.1015625 357.23828125 C2.48054688 358.12902344 2.85953125 359.01976562 3.25 359.9375 C3.91980791 361.60290673 4.58752698 363.26916199 5.25 364.9375 C-2.43822657 366.78579826 -10.19814385 368.02271538 -18.00299072 369.25085449 C-31.65700069 371.40455032 -45.27670656 373.70726966 -58.875 376.1875 C-77.05445505 379.50110201 -95.26971161 382.58991782 -113.49349976 385.6494751 C-131.48814274 388.66238455 -131.48814274 388.66238455 -149.44140625 391.91015625 C-150.21633423 392.05532181 -150.99126221 392.20048737 -151.78967285 392.35005188 C-155.18411337 392.98827828 -158.57467072 393.63944837 -161.96240234 394.31274414 C-182.26852417 398.19601501 -182.26852417 398.19601501 -190.75 392.9375 C-196.11023863 387.90061683 -198.57966721 382.84441454 -199.78393555 375.58862305 C-199.96167007 374.53533813 -200.1394046 373.48205322 -200.32252502 372.39685059 C-200.50870895 371.25913208 -200.69489288 370.12141357 -200.88671875 368.94921875 C-201.08680038 367.75550659 -201.28688202 366.56179443 -201.49302673 365.33190918 C-202.03382174 362.10109967 -202.56983548 358.86953944 -203.10401154 355.63763046 C-203.66367212 352.26003253 -204.23002119 348.88355913 -204.79638672 345.50708008 C-204.90908401 344.83510684 -205.02178131 344.1631336 -205.13789368 343.47079754 C-205.36519984 342.11550537 -205.59252778 340.76021686 -205.81987762 339.40493202 C-206.16032732 337.37397947 -206.50007711 335.3429109 -206.83966064 333.31181335 C-208.6359299 322.57414031 -210.48510692 311.84655183 -212.375 301.125 C-212.65271371 299.54663868 -212.93038289 297.96826952 -213.20800781 296.38989258 C-213.62497981 294.01980742 -214.04205127 291.64974006 -214.45950317 289.27973938 C-216.21763295 279.29335571 -217.95164748 269.3027751 -219.6875 259.3125 C-220.0241553 257.37572988 -220.36082523 255.4389623 -220.69750977 253.50219727 C-221.88543272 246.66826517 -223.0729021 239.83425428 -224.26037598 233.00024414 C-225.44415834 226.18761773 -226.62815787 219.37502912 -227.8125 212.5625 C-227.97902069 211.60462585 -228.14554138 210.64675171 -228.31710815 209.65985107 C-230.76092093 195.6043318 -233.21450174 181.55054864 -235.67752075 167.49838257 C-237.36625811 157.86363705 -239.048326 148.22778268 -240.71875 138.58984375 C-240.88564331 137.62777512 -241.05253662 136.66570648 -241.2244873 135.67448425 C-242.06899789 130.80604105 -242.91188719 125.93732739 -243.75195312 121.06811523 C-245.37892843 111.66115756 -247.04778648 102.26497054 -248.8125 92.8828125 C-249.14213713 91.11340175 -249.47156813 89.34395258 -249.80078125 87.57446289 C-250.40867066 84.30763823 -251.03312555 81.04463752 -251.66796875 77.78295898 C-256.37268827 52.95939514 -256.37268827 52.95939514 -251.125 45.25 C-245.82649838 39.15251797 -239.79742572 37.1226562 -232.125 35.75 C-231.24360352 35.58274414 -230.36220703 35.41548828 -229.45410156 35.24316406 C-222.89188466 34.03844781 -216.41558302 33.26815491 -209.75 32.9375 C-209.63930176 33.5672876 -209.52860352 34.1970752 -209.41455078 34.84594727 C-208.90516526 37.73131675 -208.39012767 40.61565036 -207.875 43.5 C-207.70097656 44.49064453 -207.52695313 45.48128906 -207.34765625 46.50195312 C-206.40551439 51.75352165 -205.33650382 56.84210711 -203.75 61.9375 C-200.47830331 62.99092117 -198.17652725 62.85840553 -194.81640625 62.22265625 C-193.80006104 62.03541992 -192.78371582 61.84818359 -191.73657227 61.65527344 C-190.60662842 61.4390332 -189.47668457 61.22279297 -188.3125 61 C-186.42784982 60.6518807 -184.54319035 60.30381021 -182.65830994 59.9569397 C-180.54913982 59.5680439 -178.44059219 59.17587558 -176.33203125 58.78369141 C-167.83332605 57.20858761 -159.32222459 55.7016806 -150.8125 54.1875 C-149.87649963 54.02060669 -148.94049927 53.85371338 -147.97613525 53.6817627 C-131.72745239 50.78647643 -115.46113683 48.00120449 -99.1875 45.25 C-77.8350626 41.6442336 -77.8350626 41.6442336 -56.5 37.9375 C-55.37650146 37.74196533 -54.25300293 37.54643066 -53.09545898 37.3449707 C-52.11005127 37.16925537 -51.12464355 36.99354004 -50.109375 36.8125 C-49.27889648 36.66554687 -48.44841797 36.51859375 -47.59277344 36.3671875 C-45.74345402 36.10697475 -45.74345402 36.10697475 -44.75 34.9375 C-44.89532495 27.62653737 -45.92682211 20.48743465 -47.33984375 13.328125 C-47.82434752 10.50416015 -47.90453939 7.79647878 -47.75 4.9375 C-42.66404463 1.98759889 -36.8454993 1.58297423 -31.12524414 0.65039062 C-29.08489745 0.31616885 -27.04741328 -0.03255712 -25.00976562 -0.3828125 C-6.09784242 -3.56471615 -6.09784242 -3.56471615 0 0 Z "
        fill="#EBE9FC" transform="translate(294.75,75.0625)" />
    <path
        d="M0 0 C4.24162301 3.42275759 8.14557904 7.15120593 12 11 C12.72832031 11.71671875 13.45664062 12.4334375 14.20703125 13.171875 C31.41281545 31.22607065 38.56494634 55.93259016 38.41967773 80.37353516 C38.03292265 95.48309875 33.70036347 108.56297639 27 122 C26.47664062 123.05960938 25.95328125 124.11921875 25.4140625 125.2109375 C14.45494407 145.57886005 -6.11723583 161.73403221 -28.046875 168.703125 C-53.71425461 176.20028547 -80.23279284 174.72800779 -104 162 C-113.07054127 156.83559049 -120.60981759 150.2850589 -128 143 C-128.73089844 142.28199219 -129.46179688 141.56398438 -130.21484375 140.82421875 C-140.7209174 129.77723834 -146.65087719 116.41009357 -151 102 C-151.3403125 100.9584375 -151.680625 99.916875 -152.03125 98.84375 C-157.99099951 77.87426097 -154.36971524 52.59832393 -144.21582031 33.49145508 C-143.17556958 31.63985671 -142.10078315 29.81619249 -141 28 C-140.65453125 27.42459473 -140.3090625 26.84918945 -139.953125 26.25634766 C-127.60496816 6.13875817 -107.04640655 -10.08016375 -84 -16 C-82.98550781 -16.27714844 -81.97101563 -16.55429687 -80.92578125 -16.83984375 C-52.70244176 -23.57742864 -23.18779138 -17.37432801 0 0 Z "
        fill="#F569A2" transform="translate(450,315)" />
    <path
        d="M0 0 C1.32 7.92 2.64 15.84 4 24 C1.999375 24.31453125 -0.00125 24.6290625 -2.0625 24.953125 C-4.02538142 25.27331133 -5.98824816 25.59359536 -7.95068359 25.91650391 C-9.30181398 26.1363805 -10.65370187 26.35165867 -12.00634766 26.56201172 C-25.62605129 28.46154243 -25.62605129 28.46154243 -36.5 36.3125 C-43.48677348 47.1832655 -37.68686312 65.27610671 -35.5 77.0625 C-35.13477801 79.08585326 -34.77095602 81.10945965 -34.40844727 83.13330078 C-33.65542717 87.33123178 -32.89645393 91.52802092 -32.13330078 95.72412109 C-30.51676279 104.64030885 -28.97723119 113.56974538 -27.43481445 122.49899292 C-26.60472838 127.29944344 -25.76915631 132.09893768 -24.93359375 136.8984375 C-24.68940201 138.30158455 -24.68940201 138.30158455 -24.4402771 139.733078 C-22.7997685 149.15648011 -21.1505172 158.57834663 -19.5 168 C-15.98791018 188.04807516 -12.50072822 208.10045389 -9.01611328 228.15332031 C-7.51128515 236.81271383 -6.00509221 245.47186998 -4.49899292 254.13104248 C-3.66593849 258.92068511 -2.83297382 263.71034335 -2 268.5 C-1.6666671 270.41666674 -1.33333376 272.33333341 -1 274.25 C-0.33333333 278.08333333 0.33333333 281.91666667 1 285.75 C1.16497986 286.69855865 1.32995972 287.64711731 1.49993896 288.62442017 C1.83357876 290.5430017 2.16711538 292.46160118 2.50054932 294.38021851 C3.32835291 299.14273947 4.15788937 303.90494514 4.99121094 308.66650391 C6.5595827 317.63906058 8.1095297 326.61379574 9.60217285 335.5993042 C10.30740618 339.83845835 11.02199218 344.07601303 11.73730469 348.31347656 C12.07531885 350.331904 12.40875996 352.35110334 12.73730469 354.37109375 C13.19347476 357.17395316 13.66541448 359.97375278 14.140625 362.7734375 C14.26955139 363.59218353 14.39847778 364.41092957 14.53131104 365.25448608 C15.7024099 371.99817927 17.73643123 378.30169537 23 382.9375 C33.86876087 390.4097731 50.89996923 384.69233347 62.875 382.5 C64.92086512 382.13358775 66.96693087 381.76829418 69.01318359 381.40405273 C73.25241918 380.64854234 77.49076005 379.88827843 81.72851562 379.12451172 C90.42054702 377.56142405 99.12217971 376.05423046 107.82415771 374.54769897 C111.58696394 373.89585587 115.34930778 373.24136496 119.11166382 372.58692932 C132.18486932 370.31318685 145.25901139 368.0448279 158.3336792 365.7795105 C160.5730112 365.3914591 162.81231088 365.00322118 165.05157471 364.61477661 C171.10791218 363.56432114 177.16515974 362.51940842 183.22338867 361.47991943 C185.96338839 361.00632808 188.70149065 360.52281172 191.43945312 360.03759766 C193.08981137 359.75013958 194.74020015 359.46285671 196.390625 359.17578125 C197.13938904 359.04036423 197.88815308 358.9049472 198.65960693 358.76542664 C203.7732159 357.88660795 203.7732159 357.88660795 206 359 C205.67 359.99 205.34 360.98 205 362 C206.84890882 367.03607545 209.64835841 371.68443726 212.8125 376 C215 379 215 379 215 381 C193.21117535 384.97555255 171.4015797 388.8101652 149.5625 392.5 C134.68840458 395.0134283 119.81609992 397.53336955 104.95837402 400.14205933 C102.57955034 400.55950792 100.20044888 400.97534103 97.82128906 401.39086914 C89.84970353 402.78523737 81.8820365 404.19894404 73.91896057 405.64118958 C69.73793284 406.39662198 65.555343 407.1431758 61.37252808 407.88864136 C59.36325803 408.24903192 57.35470139 408.61342742 55.34695435 408.98220825 C24.90564657 414.57045987 24.90564657 414.57045987 11 407 C-0.03085765 399.12299254 -6.43335105 389.00477717 -8.87207031 375.75756836 C-9.11487389 374.28620385 -9.34991821 372.81354276 -9.578125 371.33984375 C-9.7100676 370.52989456 -9.84201019 369.71994537 -9.97795105 368.88545227 C-10.26076973 367.14513677 -10.54032044 365.40428753 -10.81686401 363.66296387 C-11.56690974 358.94337792 -12.3423484 354.22792925 -13.11328125 349.51171875 C-13.34912682 348.06226364 -13.34912682 348.06226364 -13.58973694 346.58352661 C-15.13200408 337.12589268 -16.77280109 327.68673522 -18.4375 318.25 C-18.72630503 316.6093056 -19.01504148 314.96859912 -19.30371094 313.32788086 C-19.74492981 310.82048615 -20.18623939 308.31310773 -20.62796021 305.80580139 C-22.26348812 296.51714611 -23.87711817 287.22469949 -25.49075317 277.93222046 C-28.15363721 262.59945323 -30.82042381 247.2673596 -33.5 231.9375 C-33.64165588 231.12687103 -33.78331177 230.31624207 -33.92926025 229.48104858 C-35.56834953 220.10664282 -37.22215851 210.73501771 -38.8984375 201.3671875 C-42.74492416 179.86234936 -46.49336078 158.34396768 -50.134552 136.80334473 C-52.51397954 122.72771406 -54.90836974 108.65518959 -57.36956787 94.59359741 C-57.66263196 92.91890799 -57.95516145 91.24412492 -58.24713135 89.56924438 C-59.55215854 82.08364814 -60.86595525 74.6028595 -62.3203125 67.14453125 C-65.27515832 51.9716325 -67.91390422 37.29815772 -59.375 23.375 C-50.64474481 11.1353122 -40.3097041 6.56779524 -26 4 C-25.06236816 3.82936035 -24.12473633 3.6587207 -23.15869141 3.48291016 C-18.05334249 2.55842149 -12.94499633 1.65095823 -7.83203125 0.76953125 C-6.97327393 0.62104736 -6.1145166 0.47256348 -5.22973633 0.31958008 C-3 0 -3 0 0 0 Z "
        fill="#52538C" transform="translate(81,84)" />
    <path
        d="M0 0 C1.0113501 0.01160156 2.0227002 0.02320313 3.06469727 0.03515625 C19.7246342 0.40039385 35.38921166 6.28479627 47.3984375 18.11328125 C48.11257812 18.85964844 48.82671875 19.60601562 49.5625 20.375 C50.25601563 21.04917969 50.94953125 21.72335938 51.6640625 22.41796875 C55.88973215 26.76600335 58.98361786 31.46003942 61.875 36.75 C62.36347412 37.63196045 62.36347412 37.63196045 62.86181641 38.53173828 C67.56433026 47.56750983 69.08708349 56.70796539 68.9375 66.8125 C68.92009766 68.32952515 68.92009766 68.32952515 68.90234375 69.87719727 C68.47842363 89.21387696 60.23050409 106.20224226 46.26171875 119.578125 C31.52341306 132.21785034 12.76799537 137.70017918 -6.4375 136.375 C-26.70889666 133.19239072 -43.13175935 123.64297609 -55.3125 107.125 C-66.11026805 90.67312795 -69.06971929 71.40019435 -66.07128906 52.00634766 C-62.03137414 34.11229621 -49.64938192 19.01461501 -34.4375 9.375 C-23.34350876 2.95674852 -12.82696156 -0.18988521 0 0 Z "
        fill="#95C1AC" transform="translate(192.4375,147.625)" />
    <path
        d="M0 0 C1.485 -0.07347656 1.485 -0.07347656 3 -0.1484375 C7.21317168 0.58667318 9.07055223 2.30842914 12 5.375 C13.28515625 8.34375 13.28515625 8.34375 14.0625 11.875 C14.21041992 12.5342749 14.35833984 13.1935498 14.51074219 13.87280273 C15.04796356 16.36692712 15.52843037 18.86759813 16 21.375 C16.32363525 23.09227295 16.32363525 23.09227295 16.65380859 24.84423828 C17.83054007 31.19138213 18.96507625 37.54613372 20.046875 43.91015625 C20.32289551 45.52482788 20.32289551 45.52482788 20.60449219 47.17211914 C21.0281267 50.60277422 21.06644536 53.92174772 21 57.375 C20.4373645 57.4722084 19.874729 57.56941681 19.29504395 57.66957092 C-16.04491842 63.7751153 -16.04491842 63.7751153 -51.375 69.9375 C-52.95246975 70.21380982 -54.52994372 70.49009557 -56.10742188 70.76635742 C-65.03140513 72.32920541 -65.03140513 72.32920541 -73.9552002 73.89312744 C-80.27081368 75.00042003 -86.58676208 76.10576977 -92.90313721 77.20870972 C-94.94553707 77.56569395 -96.98781704 77.92336494 -99.02996826 78.2817688 C-101.87383457 78.78078929 -104.71811529 79.27738162 -107.5625 79.7734375 C-108.40027985 79.92102005 -109.23805969 80.0686026 -110.10122681 80.22065735 C-115.05641076 81.08174573 -120.00456754 81.78919542 -125 82.375 C-125.13575439 81.5092334 -125.27150879 80.6434668 -125.41137695 79.75146484 C-125.92831549 76.46694718 -126.44877065 73.18302351 -126.97143555 69.89941406 C-127.19480044 68.49175154 -127.4168556 67.08388041 -127.63745117 65.67578125 C-128.97426401 57.14941237 -130.487577 48.72158773 -132.39550781 40.30126953 C-133.51944098 34.86045249 -133.90787189 31.06552008 -131.1875 26 C-128.40999607 22.66699528 -126.18478695 21.22756315 -122.00317383 20.45629883 C-121.19643723 20.30456711 -120.38970062 20.15283539 -119.55851746 19.99650574 C-118.67940201 19.83910416 -117.80028656 19.68170258 -116.89453125 19.51953125 C-115.96687454 19.3483931 -115.03921783 19.17725494 -114.08345032 19.00093079 C-103.75392346 17.11251868 -93.39977948 15.36311383 -83.04397583 13.62573242 C-77.26024905 12.65519588 -71.47777648 11.67724666 -65.6953125 10.69921875 C-64.54001541 10.50391571 -63.38471832 10.30861267 -62.19441223 10.10739136 C-49.47390655 7.95338745 -36.76566891 5.73066111 -24.05932617 3.49487305 C-23.28102448 3.35792526 -22.50272278 3.22097748 -21.70083618 3.07987976 C-20.2755373 2.82888637 -18.85029935 2.57754654 -17.42514038 2.32575989 C-5.24741751 0.17764695 -5.24741751 0.17764695 0 0 Z "
        fill="#F8B242" transform="translate(221,47.625)" />
    <path
        d="M0 0 C1.15628906 0.00607269 1.15628906 0.00607269 2.3359375 0.01226807 C3.12742187 0.01035461 3.91890625 0.00844116 4.734375 0.00646973 C6.4088574 0.00510789 8.08335035 0.00880425 9.7578125 0.01715088 C12.32576131 0.02785067 14.89301053 0.01725582 17.4609375 0.00445557 C19.08593905 0.00577716 20.71094016 0.00833956 22.3359375 0.01226807 C23.10679687 0.0082196 23.87765625 0.00417114 24.671875 0 C30.10601618 0.04797174 30.10601618 0.04797174 32.3359375 2.27789307 C32.51096745 4.85892613 32.56756029 7.33097469 32.53125 9.91070557 C32.5284201 10.6625412 32.52559021 11.41437683 32.52267456 12.18899536 C32.51146624 14.59378884 32.48636102 16.99821188 32.4609375 19.40289307 C32.45090852 21.03179394 32.44178253 22.66070065 32.43359375 24.28961182 C32.41152485 28.28584862 32.37699101 32.28180801 32.3359375 36.27789307 C33.86516846 36.26218262 33.86516846 36.26218262 35.42529297 36.24615479 C39.20097352 36.21000579 42.97663871 36.1870113 46.75244141 36.16802979 C48.38788422 36.15796052 50.02330899 36.14430426 51.65869141 36.12701416 C54.0068812 36.10280602 56.35483338 36.09141949 58.703125 36.08258057 C59.43651093 36.072258 60.16989685 36.06193542 60.92550659 36.05130005 C62.73056447 36.05089938 64.5350158 36.15576552 66.3359375 36.27789307 C68.88159162 38.82354719 68.5831776 40.46965021 68.61383057 43.94195557 C68.6097821 44.71281494 68.60573364 45.48367432 68.6015625 46.27789307 C68.60347595 47.06937744 68.6053894 47.86086182 68.60736084 48.67633057 C68.60872268 50.35081296 68.60502632 52.02530592 68.59667969 53.69976807 C68.5859799 56.26771688 68.59657475 58.8349661 68.609375 61.40289307 C68.6080534 63.02789462 68.60549101 64.65289573 68.6015625 66.27789307 C68.60561096 67.04875244 68.60965942 67.81961182 68.61383057 68.61383057 C68.56585882 74.04797174 68.56585882 74.04797174 66.3359375 76.27789307 C63.75490444 76.45292302 61.28285587 76.50951586 58.703125 76.47320557 C57.57537155 76.46896072 57.57537155 76.46896072 56.42483521 76.46463013 C54.02004172 76.45342181 51.61561869 76.42831659 49.2109375 76.40289307 C47.58203662 76.39286408 45.95312992 76.38373809 44.32421875 76.37554932 C40.32798194 76.35348041 36.33202256 76.31894657 32.3359375 76.27789307 C32.34641113 77.29738037 32.35688477 78.31686768 32.36767578 79.36724854 C32.40382477 83.14292908 32.42681927 86.91859428 32.44580078 90.69439697 C32.45587004 92.32983979 32.46952631 93.96526456 32.48681641 95.60064697 C32.51102455 97.94883677 32.52241107 100.29678894 32.53125 102.64508057 C32.54157257 103.37846649 32.55189514 104.11185242 32.56253052 104.86746216 C32.56293118 106.67252004 32.45806505 108.47697137 32.3359375 110.27789307 C29.79028338 112.82354719 28.14418036 112.52513317 24.671875 112.55578613 C23.51558594 112.54971344 23.51558594 112.54971344 22.3359375 112.54351807 C21.54445313 112.54543152 20.75296875 112.54734497 19.9375 112.54931641 C18.2630176 112.55067824 16.58852465 112.54698188 14.9140625 112.53863525 C12.34611369 112.52793547 9.77886447 112.53853032 7.2109375 112.55133057 C5.58593595 112.55000897 3.96093484 112.54744658 2.3359375 112.54351807 C1.56507813 112.54756653 0.79421875 112.55161499 0 112.55578613 C-5.43414118 112.50781439 -5.43414118 112.50781439 -7.6640625 110.27789307 C-7.83909245 107.69686 -7.89568529 105.22481144 -7.859375 102.64508057 C-7.8565451 101.89324493 -7.85371521 101.1414093 -7.85079956 100.36679077 C-7.83959124 97.96199729 -7.81448602 95.55757426 -7.7890625 93.15289307 C-7.77903352 91.52399219 -7.76990753 89.89508548 -7.76171875 88.26617432 C-7.73964985 84.26993751 -7.70511601 80.27397813 -7.6640625 76.27789307 C-9.19329346 76.29360352 -9.19329346 76.29360352 -10.75341797 76.30963135 C-14.52909852 76.34578034 -18.30476371 76.36877483 -22.08056641 76.38775635 C-23.71600922 76.39782561 -25.35143399 76.41148187 -26.98681641 76.42877197 C-29.3350062 76.45298011 -31.68295838 76.46436664 -34.03125 76.47320557 C-35.13132889 76.48868942 -35.13132889 76.48868942 -36.25363159 76.50448608 C-38.05868947 76.50488675 -39.8631408 76.40002061 -41.6640625 76.27789307 C-44.20971662 73.73223894 -43.9113026 72.08613592 -43.94195557 68.61383057 C-43.9379071 67.84297119 -43.93385864 67.07211182 -43.9296875 66.27789307 C-43.93160095 65.48640869 -43.9335144 64.69492432 -43.93548584 63.87945557 C-43.93684768 62.20497317 -43.93315132 60.53048022 -43.92480469 58.85601807 C-43.9141049 56.28806925 -43.92469975 53.72082003 -43.9375 51.15289307 C-43.9361784 49.52789152 -43.93361601 47.9028904 -43.9296875 46.27789307 C-43.93373596 45.50703369 -43.93778442 44.73617432 -43.94195557 43.94195557 C-43.89398382 38.50781439 -43.89398382 38.50781439 -41.6640625 36.27789307 C-39.08302944 36.10286312 -36.61098087 36.04627028 -34.03125 36.08258057 C-32.90349655 36.08682541 -32.90349655 36.08682541 -31.75296021 36.09115601 C-29.34816672 36.10236433 -26.94374369 36.12746955 -24.5390625 36.15289307 C-22.91016162 36.16292205 -21.28125492 36.17204804 -19.65234375 36.18023682 C-15.65610694 36.20230572 -11.66014756 36.23683956 -7.6640625 36.27789307 C-7.67977295 34.74866211 -7.67977295 34.74866211 -7.69580078 33.1885376 C-7.73194977 29.41285705 -7.75494427 25.63719185 -7.77392578 21.86138916 C-7.78399504 20.22594634 -7.79765131 18.59052158 -7.81494141 16.95513916 C-7.83914955 14.60694937 -7.85053607 12.25899719 -7.859375 9.91070557 C-7.87485886 8.81062668 -7.87485886 8.81062668 -7.89065552 7.68832397 C-7.89105618 5.88326609 -7.78619005 4.07881477 -7.6640625 2.27789307 C-5.11840838 -0.26776106 -3.47230536 0.03065297 0 0 Z "
        fill="#ECE9FC" transform="translate(379.6640625,335.72210693359375)" />
    <path
        d="M0 0 C7.19949197 3.87040358 11.50623157 10.40150722 14.078125 18.1171875 C15.17667984 27.7816889 13.59541407 35.06460148 8.078125 43.1171875 C4.83086311 46.71361734 1.43535919 49.04322014 -2.921875 51.1171875 C-2.06207031 51.20355469 -1.20226562 51.28992188 -0.31640625 51.37890625 C14.95877352 53.19460374 28.43263762 58.19079553 38.765625 70.1171875 C39.52875 71.1071875 40.291875 72.0971875 41.078125 73.1171875 C34.95211011 86.0125887 21.5892053 93.32796727 8.63671875 97.96484375 C-11.03569856 104.33516549 -29.27649364 100.85108581 -47.32421875 91.8984375 C-49.921875 90.1171875 -49.921875 90.1171875 -50.9453125 88.24609375 C-50.8513352 79.70982205 -43.20115207 71.40591066 -37.6484375 65.6015625 C-32.08652345 60.53368666 -25.95932686 56.75781127 -18.921875 54.1171875 C-21.25052563 52.56475375 -23.28446926 51.45335549 -25.796875 50.3046875 C-29.5634732 48.442084 -32.12714283 46.30007692 -34.921875 43.1171875 C-35.623125 42.3540625 -36.324375 41.5909375 -37.046875 40.8046875 C-41.74668018 34.06830007 -42.94518443 27.25714886 -41.921875 19.1171875 C-39.59306774 10.52277976 -33.9679068 3.55044614 -26.296875 -0.8828125 C-17.64349617 -4.76236684 -8.46652142 -3.96014712 0 0 Z "
        fill="#34907C" transform="translate(205.921875,182.8828125)" />
    <path
        d="M0 0 C11.28272277 9.56193015 14.59741511 20.72241608 16.93359375 34.8203125 C17.11962662 35.90722382 17.30565948 36.99413513 17.49732971 38.11398315 C18.08819682 41.57489777 18.66934328 45.03735927 19.25 48.5 C19.63540808 50.76964336 20.02147076 53.03917566 20.40820312 55.30859375 C20.9829004 58.68119209 21.5558593 62.05402072 22.12216187 65.42803955 C23.05193279 70.96174716 24.00799927 76.48824045 25.02392578 82.00683594 C25.31058861 83.58330399 25.31058861 83.58330399 25.6030426 85.19161987 C25.96449877 87.17083274 26.33316234 89.14874806 26.71031189 91.12503052 C26.87044266 92.00786713 27.03057343 92.89070374 27.19555664 93.80029297 C27.33933243 94.56663055 27.48310822 95.33296814 27.63124084 96.12252808 C27.96336429 100.24976089 27.25740743 102.76964837 24.80859375 106.1015625 C23.96425781 107.05804688 23.11992187 108.01453125 22.25 109 C17.42038399 114.57007544 13.061952 120.34505135 8.8125 126.375 C6.76100697 123.29776045 6.35109908 121.7152617 5.76269531 118.14208984 C5.58179352 117.06653336 5.40089172 115.99097687 5.21450806 114.88282776 C4.93043594 113.12711708 4.93043594 113.12711708 4.640625 111.3359375 C4.43762787 110.11853378 4.23463074 108.90113007 4.02548218 107.64683533 C3.59070353 105.0358112 3.158449 102.42451156 2.73028564 99.81240845 C2.06408095 95.75126234 1.38579366 91.69219879 0.70458984 87.63354492 C0.47835656 86.28495897 0.25212974 84.93637194 0.02590942 83.58778381 C-0.0855328 82.92352953 -0.19697502 82.25927525 -0.31179428 81.57489204 C-0.86653727 78.26517617 -1.41896003 74.9550739 -1.97167969 71.64501953 C-4.05348789 59.17097016 -4.05348789 59.17097016 -6.20910645 46.70953369 C-6.55194616 44.74788654 -6.88117268 42.78387536 -7.20996094 40.81982422 C-9.04318189 30.1353506 -9.04318189 30.1353506 -15.2578125 21.53515625 C-15.93585938 21.17292969 -16.61390625 20.81070313 -17.3125 20.4375 C-17.99570312 20.05722656 -18.67890625 19.67695312 -19.3828125 19.28515625 C-27.47080765 15.20614571 -36.92944558 17.95835432 -45.51904297 19.45629883 C-47.57785882 19.81517724 -49.63827352 20.16334519 -51.69921875 20.50976562 C-60.13387616 21.40823399 -60.13387616 21.40823399 -67.1875 25.375 C-68.5075 16.795 -69.8275 8.215 -71.1875 -0.625 C-49.02088024 -6.95831993 -20.05766168 -14.76674347 0 0 Z "
        fill="#51528B" transform="translate(313.1875,56.625)" />
    <path
        d="M0 0 C0.33 0.66 0.66 1.32 1 2 C0.46375 3.010625 -0.0725 4.02125 -0.625 5.0625 C-2.928614 9.42090559 -4.31358471 13.91219798 -5.6875 18.625 C-5.90164551 19.35340088 -6.11579102 20.08180176 -6.33642578 20.83227539 C-10.99859209 37.1461426 -10.5626247 55.6964833 -6 72 C-5.7215625 73.01707031 -5.443125 74.03414063 -5.15625 75.08203125 C-1.35480231 87.5842062 4.8161031 98.85073949 13 109 C13.67675781 109.84175781 14.35351562 110.68351562 15.05078125 111.55078125 C30.14103035 129.28941045 53.63317237 142.69163743 77 145 C94.67547604 146.11865887 110.71996753 144.49303947 127.20703125 137.890625 C130 137 130 137 133 138 C112.14106322 154.40014686 86.57860483 160.72773826 60.39160156 157.69824219 C37.98629575 154.46259857 19.96260895 143.73554481 4 128 C3.26910156 127.28199219 2.53820312 126.56398438 1.78515625 125.82421875 C-8.7209174 114.77723834 -14.65087719 101.41009357 -19 87 C-19.3403125 85.9584375 -19.680625 84.916875 -20.03125 83.84375 C-26.20856326 62.10875889 -22.09683454 36.2103406 -11.203125 16.65234375 C-7.8000782 10.87367276 -3.98671519 5.38944831 0 0 Z "
        fill="#ED4083" transform="translate(318,330)" />
    <path
        d="M0 0 C5.11647571 1.56062386 8.61223467 4.74078034 12.625 8.125 C18.92029104 13.34525572 25.30129782 18.30239317 32 23 C30.56997559 27.29007324 28.45268442 30.09880655 25.5 33.5 C21.9008902 37.70736393 18.41635382 41.96937762 15.0625 46.375 C11.57790737 50.94612702 8.05977332 55.48711801 4.5 60 C-0.72163623 66.62474162 -5.87154091 73.30296665 -11 80 C-15.55757329 79.10877146 -18.44576439 76.46655308 -21.9375 73.5625 C-23.26995184 72.4741803 -24.60330342 71.38696134 -25.9375 70.30078125 C-26.94683594 69.47634521 -26.94683594 69.47634521 -27.9765625 68.63525391 C-31.08916936 66.11978084 -34.25839675 63.68055476 -37.4375 61.25 C-37.99880615 60.82017822 -38.5601123 60.39035645 -39.13842773 59.94750977 C-40.42462586 58.96370741 -41.71214699 57.98163501 -43 57 C-41.49940214 52.33147333 -38.77488016 48.96341995 -35.6875 45.25 C-34.59465855 43.91153891 -33.5035752 42.57164084 -32.4140625 41.23046875 C-31.84977539 40.53614746 -31.28548828 39.84182617 -30.70410156 39.12646484 C-27.92306331 35.65614347 -25.24567595 32.1086643 -22.5625 28.5625 C-17.08670117 21.34519314 -11.4260923 14.295974 -5.6796875 7.29296875 C-3.72374368 4.90542854 -1.82114624 2.49308641 0 0 Z "
        fill="#5979EB" transform="translate(422,67)" />
    <path
        d="M0 0 C3.19072826 0.60649842 5.16589161 1.6408631 7.72265625 3.625 C8.77078491 4.43191284 8.77078491 4.43191284 9.84008789 5.25512695 C10.57348389 5.83093506 11.30687988 6.40674316 12.0625 7 C12.8145874 7.58289795 13.5666748 8.1657959 14.34155273 8.76635742 C20.31039988 13.41035407 26.19724428 18.14974846 32 23 C31.47530091 27.30253257 28.76865117 30.13787611 26.125 33.375 C25.1170126 34.63267235 24.10920505 35.89048884 23.1015625 37.1484375 C22.5849707 37.7887793 22.06837891 38.42912109 21.53613281 39.08886719 C19.16487424 42.03899626 16.83340087 45.01990773 14.5 48 C13.59265681 49.15511203 12.68510352 50.31005906 11.77734375 51.46484375 C9.85225887 53.91488948 7.92788788 56.36549408 6.00390625 58.81640625 C5.51148438 59.44353516 5.0190625 60.07066406 4.51171875 60.71679688 C3.57533586 61.90935999 2.63912577 63.10205882 1.703125 64.29492188 C-0.84792835 67.54346866 -3.41458807 70.7787327 -6 74 C-9.91973727 72.30782074 -13.07233272 69.7120793 -16.375 67.0625 C-17.614498 66.07801755 -18.8540841 65.09364602 -20.09375 64.109375 C-20.73183594 63.60083984 -21.36992187 63.09230469 -22.02734375 62.56835938 C-25.2980439 59.96799084 -28.58730673 57.39132418 -31.875 54.8125 C-33.05998233 53.88162051 -34.24488627 52.95064122 -35.4296875 52.01953125 C-36.27789062 51.35308594 -37.12609375 50.68664062 -38 50 C-35.18207964 45.65870274 -32.16213878 41.54976183 -28.9375 37.5 C-28.45853271 36.89397949 -27.97956543 36.28795898 -27.48608398 35.66357422 C-25.99272673 33.77411975 -24.49666144 31.88683783 -23 30 C-15.16774681 20.12024281 -7.52685659 10.11462404 0 0 Z "
        fill="#EAE8FB" transform="translate(372,130)" />
    <path
        d="M0 0 C4.6085494 0.97488545 5.82127143 3.5470087 8.49609375 7.26171875 C25.54279362 30.83855755 56.82244716 40.5073245 84.0703125 45.0234375 C85.463231 45.24673827 86.856337 45.46889389 88.25 45.6875 C88.25 46.0175 88.25 46.3475 88.25 46.6875 C86.97398926 46.89842285 85.69797852 47.1093457 84.38330078 47.32666016 C78.38015994 48.31968943 72.37748432 49.3155105 66.375 50.3125 C65.29065674 50.49257599 64.20631348 50.67265198 63.08911133 50.85818481 C47.57911691 53.43672569 32.08288719 56.07941907 16.60986328 58.87158203 C10.4994094 59.96805042 4.42184579 61.00953209 -1.75 61.6875 C-1.88575439 60.8217334 -2.02150879 59.9559668 -2.16137695 59.06396484 C-2.67831549 55.77944718 -3.19877065 52.49552351 -3.72143555 49.21191406 C-3.94480044 47.80425154 -4.1668556 46.39638041 -4.38745117 44.98828125 C-5.72426401 36.46191237 -7.237577 28.03408773 -9.14550781 19.61376953 C-10.26944098 14.17295249 -10.65787189 10.37802008 -7.9375 5.3125 C-5.48215172 2.36608207 -3.73767192 0.93441798 0 0 Z "
        fill="#ED991D" transform="translate(97.75,68.3125)" />
    <path
        d="M0 0 C0.99 0.99 0.99 0.99 2 2 C1.625 4.625 1.625 4.625 1 7 C-5.23429915 8.96802736 -11.5295879 10.03767483 -17.97265625 11.1015625 C-19.14754105 11.29900055 -20.32242584 11.4964386 -21.53291321 11.69985962 C-24.71469646 12.23408708 -27.89701763 12.76496146 -31.07958221 13.29450989 C-36.44293643 14.18841257 -41.80464561 15.09217678 -47.16664886 15.99414062 C-49.20400278 16.33674198 -51.2414351 16.67887449 -53.27886963 17.02099609 C-65.32020618 19.04478945 -77.34872109 21.13887703 -89.375 23.25 C-105.23315538 26.03288916 -121.10762881 28.68790357 -137.01318359 31.18652344 C-137.74546173 31.30272537 -138.47773987 31.41892731 -139.23220825 31.53865051 C-141.18988948 31.84916756 -143.14814696 32.15604549 -145.10644531 32.46264648 C-147.92769273 32.84868526 -147.92769273 32.84868526 -150 34 C-152.01564712 34.32558177 -154.03799394 34.61002447 -156.0625 34.875 C-162.48744924 35.75112944 -168.85393197 36.82766714 -175.22485352 38.03466797 C-182.40268913 39.3564308 -182.40268913 39.3564308 -186 39 C-188 37 -188 37 -188.125 34.375 C-188.08375 33.59125 -188.0425 32.8075 -188 32 C-185.18445356 30.45545857 -182.75430662 29.63270537 -179.58740234 29.13378906 C-178.71642914 28.99314026 -177.84545593 28.85249146 -176.9480896 28.70758057 C-176.00357941 28.56173523 -175.05906921 28.41588989 -174.0859375 28.265625 C-173.08462799 28.10511658 -172.08331848 27.94460815 -171.05166626 27.77923584 C-167.82706556 27.26326735 -164.60116547 26.75608414 -161.375 26.25 C-157.21552368 25.5924116 -153.05673731 24.93061176 -148.8984375 24.265625 C-147.80745758 24.09130447 -146.71647766 23.91698395 -145.59243774 23.73738098 C-136.66525515 22.29768657 -127.76126898 20.73898342 -118.859375 19.15234375 C-106.3118604 16.91662975 -93.75277905 14.76293087 -81.1796875 12.67578125 C-80.34689144 12.53747517 -79.51409538 12.39916908 -78.65606308 12.25667191 C-72.72943151 11.27292472 -66.80227088 10.2923867 -60.875 9.3125 C-54.8711542 8.31984462 -48.86751547 7.32596409 -42.86432266 6.32936668 C-40.52076654 5.94087927 -38.17688727 5.55439075 -35.83297729 5.16804504 C-34.3675982 4.92528216 -32.90227509 4.68218109 -31.43701172 4.4387207 C-30.7333441 4.32209233 -30.02967648 4.20546396 -29.30468559 4.0853014 C-25.72882827 3.48515685 -22.16439875 2.84768704 -18.60601807 2.15097046 C-17.53311618 1.9419587 -17.53311618 1.9419587 -16.43853951 1.72872448 C-14.48136141 1.34336825 -12.52601992 0.94871693 -10.5708313 0.5533905 C-6.95458229 -0.00703862 -3.65195342 -0.23916273 0 0 Z "
        fill="#575790" transform="translate(306,292)" />
    <path
        d="M0 0 C3.6384458 2.16356492 6.55776295 4.57163288 9.3125 7.8125 C10.01375 8.59625 10.715 9.38 11.4375 10.1875 C14.80548455 14.90267837 16.51041854 19.03327875 16.3125 24.8125 C15.72003479 24.910504 15.12756958 25.008508 14.51715088 25.10948181 C8.35257886 26.12953777 2.1883881 27.15187399 -3.97558594 28.17553711 C-6.27627004 28.55730789 -8.57705083 28.93849652 -10.87792969 29.3190918 C-14.18450074 29.86614529 -17.49071883 30.41528915 -20.796875 30.96484375 C-21.82617126 31.1346727 -22.85546753 31.30450165 -23.91595459 31.47947693 C-25.35699554 31.71961266 -25.35699554 31.71961266 -26.82714844 31.96459961 C-27.67098083 32.10449814 -28.51481323 32.24439667 -29.38421631 32.38853455 C-31.66139699 32.77791714 -31.66139699 32.77791714 -33.76080322 33.35768127 C-36.74816703 34.06288254 -39.63598839 33.92765138 -42.6875 33.8125 C-44.29010138 32.20989862 -43.89648122 30.52751415 -43.9375 28.3125 C-43.80964517 19.33709064 -40.83034638 12.35476912 -34.6875 5.8125 C-25.08766463 -2.67676618 -11.9651747 -5.73030957 0 0 Z "
        fill="#F8C76D" transform="translate(169.6875,21.1875)" />
    <path
        d="M0 0 C-0.54140625 0.70576172 -0.54140625 0.70576172 -1.09375 1.42578125 C-1.5578125 2.04839844 -2.021875 2.67101562 -2.5 3.3125 C-2.9640625 3.92738281 -3.428125 4.54226563 -3.90625 5.17578125 C-5.25711283 7.07433005 -5.25711283 7.07433005 -5 10 C-5.69843018 10.03013184 -6.39686035 10.06026367 -7.11645508 10.09130859 C-16.83369629 10.66394956 -26.24747113 12.32815229 -35.80737305 14.09350586 C-40.81039402 15.01675555 -45.81744211 15.91769101 -50.82421875 16.8203125 C-52.35742264 17.09739044 -52.35742264 17.09739044 -53.92160034 17.38006592 C-63.93222215 19.18239644 -73.96310026 20.85153636 -84 22.5 C-98.93547238 24.95949417 -113.84845084 27.53009049 -128.75 30.1875 C-129.66201172 30.35008301 -130.57402344 30.51266602 -131.51367188 30.68017578 C-134.17073441 31.15437558 -136.82759737 31.62967549 -139.484375 32.10546875 C-140.33753296 32.25801117 -141.19069092 32.41055359 -142.06970215 32.56771851 C-146.73015207 33.40365667 -151.38697238 34.25650228 -156.04101562 35.12744141 C-157.03941467 35.31293045 -158.03781372 35.49841949 -159.06646729 35.68952942 C-160.9849392 36.04650083 -162.90274849 36.40705831 -164.81976318 36.77177429 C-165.68651672 36.93256973 -166.55327026 37.09336517 -167.44628906 37.2590332 C-168.58665619 37.474002 -168.58665619 37.474002 -169.75006104 37.6933136 C-172.22733167 38.0309873 -174.50388262 38.18270902 -177 38 C-179 36 -179 36 -179.125 33.375 C-179.08375 32.59125 -179.0425 31.8075 -179 31 C-175.25358265 28.72837249 -171.25899727 28.21612576 -167.00390625 27.5546875 C-166.20114258 27.42415482 -165.39837891 27.29362213 -164.57128906 27.15913391 C-162.8244201 26.87547984 -161.07709336 26.59463399 -159.32937622 26.31625366 C-154.54008444 25.55247084 -149.75454629 24.76580861 -144.96875 23.98046875 C-143.9730751 23.81748795 -142.97740021 23.65450714 -141.95155334 23.48658752 C-131.80407658 21.81818557 -121.6832459 20.00986235 -111.5625 18.1875 C-90.96919034 14.48751239 -70.34514478 10.97724184 -49.71313477 7.50073242 C-48.52379837 7.30021774 -47.33446198 7.09970306 -46.10908508 6.89311218 C-43.77170573 6.49929414 -41.43421378 6.10614368 -39.09660339 5.71369934 C-33.50719867 4.77279819 -27.92206373 3.81371052 -22.34277344 2.81445312 C-21.29145233 2.62715637 -20.24013123 2.43985962 -19.1569519 2.24688721 C-17.19481457 1.89589417 -15.23342387 1.54068902 -13.27297974 1.18035889 C-8.78603611 0.37893588 -4.58115733 -0.2059584 0 0 Z "
        fill="#565790" transform="translate(305,333)" />
    <path
        d="M0 0 C5.11647571 1.56062386 8.61223467 4.74078034 12.625 8.125 C18.92029104 13.34525572 25.30129782 18.30239317 32 23 C30.56997559 27.29007324 28.45268442 30.09880655 25.5 33.5 C21.9008902 37.70736393 18.41635382 41.96937762 15.0625 46.375 C11.57790737 50.94612702 8.05977332 55.48711801 4.5 60 C-0.72163623 66.62474162 -5.87154091 73.30296665 -11 80 C-12.32 79.67 -13.64 79.34 -15 79 C-14.6757605 78.13556274 -14.6757605 78.13556274 -14.3449707 77.25366211 C-6.20417026 55.32215112 -1.27199203 35.42985346 -1.91992188 12.02929688 C-1.95279297 10.75505859 -1.98566406 9.48082031 -2.01953125 8.16796875 C-2.06182861 7.02610107 -2.10412598 5.8842334 -2.14770508 4.70776367 C-2 2 -2 2 0 0 Z "
        fill="#3761D9" transform="translate(422,67)" />
    <path
        d="M0 0 C2.40421273 3.6063191 2.9408652 7.00207749 3.69140625 11.18359375 C3.841577 11.99433853 3.99174774 12.80508331 4.14646912 13.64039612 C4.46327208 15.36047093 4.77658253 17.0811921 5.08666992 18.80249023 C5.55539903 21.39817686 6.03752857 23.99109904 6.52148438 26.58398438 C8.13895679 35.37266371 9.54810146 44.05781809 10 53 C8.98679687 53.39832031 7.97359375 53.79664063 6.9296875 54.20703125 C5.57806929 54.74204679 4.22650991 55.27721096 2.875 55.8125 C2.20984375 56.07353516 1.5446875 56.33457031 0.859375 56.60351562 C-2.2999909 57.85796973 -5.3273006 59.1651691 -8.3671875 60.69921875 C-11 62 -11 62 -13 62 C-14.14388479 55.23806852 -15.28269362 48.47529633 -16.41796875 41.71191406 C-16.80481872 39.41093566 -17.19283254 37.11015261 -17.58203125 34.80957031 C-18.14108084 31.50376174 -18.69594847 28.19727443 -19.25 24.890625 C-19.42499023 23.86132874 -19.59998047 22.83203247 -19.78027344 21.77154541 C-19.94043945 20.81085144 -20.10060547 19.85015747 -20.265625 18.86035156 C-20.40774414 18.01651917 -20.54986328 17.17268677 -20.69628906 16.30328369 C-21 14 -21 14 -21 10 C-14.07 6.7 -7.14 3.4 0 0 Z "
        fill="#51528B" transform="translate(354,239)" />
    <path
        d="M0 0 C1.98 0 3.96 0 6 0 C4.50558576 4.68702647 2.91096582 9.27763111 1 13.8125 C-8.96623732 38.32715271 -7.05186694 66.17299934 2.8515625 90.30078125 C3.23054688 91.19152344 3.60953125 92.08226562 4 93 C4.66980791 94.66540673 5.33752698 96.33166199 6 98 C0.00679849 99.45933748 -5.85845775 100.41509121 -12 101 C-12.103125 100.030625 -12.20625 99.06125 -12.3125 98.0625 C-12.7113734 95.1963097 -13.42107994 92.70532005 -14.4375 90 C-20.63900355 71.88188178 -19.80336688 50.06835289 -14 32 C-13.79632813 31.36400879 -13.59265625 30.72801758 -13.3828125 30.07275391 C-9.82014691 19.39300404 -4.1941118 10.31565036 2 1 C1.34 0.67 0.68 0.34 0 0 Z "
        fill="#C1BFFA" transform="translate(294,342)" />
    <path
        d="M0 0 C0.99 0.99 0.99 0.99 2 2 C1.625 4.625 1.625 4.625 1 7 C-8.6618721 9.70576655 -18.42251637 11.34143292 -28.31591797 12.93304443 C-32.98449826 13.68427088 -37.65054598 14.45083466 -42.31640625 15.21875 C-43.23680695 15.37004364 -44.15720764 15.52133728 -45.10549927 15.67721558 C-53.98100351 17.14520912 -62.82268602 18.76793916 -71.65258789 20.48974609 C-85.34879411 23.1205273 -85.34879411 23.1205273 -90 23 C-90.66 22.34 -91.32 21.68 -92 21 C-91.8125 18.5 -91.8125 18.5 -91 16 C-87.51700636 13.67800424 -85.15132825 13.35821339 -81.02734375 12.703125 C-80.32431625 12.58900269 -79.62128876 12.47488037 -78.8969574 12.3572998 C-77.37449727 12.11083702 -75.85150663 11.86763413 -74.32806396 11.62731934 C-70.25927956 10.9851148 -66.1944318 10.31871464 -62.12890625 9.65625 C-60.874729 9.45295074 -60.874729 9.45295074 -59.59521484 9.24554443 C-50.84171519 7.82268071 -42.10734144 6.29667522 -33.375 4.75 C-31.96476283 4.50162501 -30.55452521 4.25325255 -29.14428711 4.00488281 C-22.77252668 2.87785849 -16.41420434 1.72069295 -10.08642578 0.36523438 C-6.63774329 -0.23846665 -3.49452474 -0.24960891 0 0 Z "
        fill="#575790" transform="translate(228,389)" />
    <path
        d="M0 0 C2.82745759 1.32760441 5.2466298 2.82204666 7.72265625 4.72265625 C8.77078491 5.52473511 8.77078491 5.52473511 9.84008789 6.34301758 C10.57348389 6.91044678 11.30687988 7.47787598 12.0625 8.0625 C12.8145874 8.64088623 13.5666748 9.21927246 14.34155273 9.81518555 C20.32139196 14.43193087 26.20323506 19.15475587 32 24 C30.50923566 27.2826932 28.61379679 29.93077441 26.375 32.75 C25.74335938 33.54921875 25.11171875 34.3484375 24.4609375 35.171875 C23.97882813 35.77515625 23.49671875 36.3784375 23 37 C18.86921259 34.66487204 15.19454125 31.89572384 11.5 28.9375 C10.26870034 27.96034349 9.03691704 26.98379613 7.8046875 26.0078125 C7.17916992 25.5118457 6.55365234 25.01587891 5.90917969 24.50488281 C2.83450999 22.08131964 -0.26877745 19.69540902 -3.375 17.3125 C-3.94025391 16.8786499 -4.50550781 16.4447998 -5.08789062 15.99780273 C-6.3914458 14.99790739 -7.69564412 13.9988506 -9 13 C-6.08301409 8.59958963 -3.08423844 4.28366451 0 0 Z "
        fill="#5978E9" transform="translate(328,186)" />
    <path
        d="M0 0 C4.64609064 0.48681464 7.4836042 2.57017741 11 5.4375 C12.13855891 6.3486118 13.27790674 7.25873846 14.41796875 8.16796875 C15.00239746 8.63638184 15.58682617 9.10479492 16.18896484 9.58740234 C18.00502145 11.0039167 19.8581061 12.34585334 21.73828125 13.67578125 C22.33705078 14.10769775 22.93582031 14.53961426 23.55273438 14.98461914 C24.70377605 15.81228965 25.86502612 16.62598995 27.03710938 17.42358398 C29.83443364 19.47261534 30.91793132 20.56788328 31.57421875 24.0234375 C30.90706658 27.48173652 29.92631609 28.86202976 27.5 31.375 C26.8503125 32.06335938 26.200625 32.75171875 25.53125 33.4609375 C25.0259375 33.96882813 24.520625 34.47671875 24 35 C19.13394512 33.45800538 15.79746197 30.64312165 11.9375 27.4375 C10.61320799 26.35656569 9.28766884 25.27715765 7.9609375 24.19921875 C7.30061523 23.66216309 6.64029297 23.12510742 5.95996094 22.57177734 C1.40532197 18.9192156 -3.30177635 15.46461185 -8 12 C-6.59023295 8.96147295 -4.91129772 6.4060405 -2.875 3.75 C-2.06675781 2.69039062 -2.06675781 2.69039062 -1.2421875 1.609375 C-0.83226562 1.07828125 -0.42234375 0.5471875 0 0 Z "
        fill="#5978E9" transform="translate(436,49)" />
    <path
        d="M0 0 C4.04328551 1.72713183 7.28807902 4.45963175 10.6875 7.1875 C11.93329393 8.18006392 13.17938812 9.17225111 14.42578125 10.1640625 C15.03244629 10.6477832 15.63911133 11.13150391 16.26416016 11.62988281 C19.30629884 14.03107582 22.41361547 16.3475795 25.5234375 18.66015625 C26.01070313 19.10230469 26.49796875 19.54445312 27 20 C27 20.66 27 21.32 27 22 C23.10720293 23.84014116 19.21107802 25.6729839 15.31176758 27.49926758 C13.98694578 28.12099064 12.66303824 28.74466591 11.34008789 29.37036133 C9.43355042 30.27164662 7.52378792 31.16575885 5.61328125 32.05859375 C3.89298706 32.86768188 3.89298706 32.86768188 2.13793945 33.69311523 C-0.62321388 34.84307663 -3.05530052 35.55383341 -6 36 C-7.37648516 32.19562932 -6.65006527 29.26687116 -5.8203125 25.37109375 C-5.55089844 24.08912109 -5.28148437 22.80714844 -5.00390625 21.48632812 C-4.71097369 20.1367109 -4.41800455 18.7871016 -4.125 17.4375 C-3.83907785 16.08414596 -3.55391336 14.73063161 -3.26953125 13.37695312 C-1.18097694 3.54293083 -1.18097694 3.54293083 0 0 Z "
        fill="#3661D8" transform="translate(316,207)" />
    <path
        d="M0 0 C4.34426379 2.25567543 7.05791513 4.46846864 9 9 C9.48315004 13.96264108 8.48505728 16.56767632 5.75 20.6875 C5.14671875 21.61949219 4.5434375 22.55148438 3.921875 23.51171875 C2.09713686 25.87423541 0.40367032 27.28090747 -2 29 C-2.47421387 28.61142822 -2.94842773 28.22285645 -3.43701172 27.82250977 C-5.58141165 26.06721254 -7.72817145 24.31482587 -9.875 22.5625 C-10.62136719 21.95083984 -11.36773437 21.33917969 -12.13671875 20.70898438 C-12.85214844 20.12568359 -13.56757813 19.54238281 -14.3046875 18.94140625 C-14.96452637 18.40201416 -15.62436523 17.86262207 -16.30419922 17.30688477 C-17.97603488 15.93208673 -17.97603488 15.93208673 -20 15 C-15.85075641 6.20989627 -10.61138115 -1.30315207 0 0 Z "
        fill="#50518A" transform="translate(469,32)" />
    <path
        d="M0 0 C2.375 1.8125 2.375 1.8125 3.5 4.1875 C3.32040306 7.9590358 2.09325496 9.23015779 -0.625 11.8125 C-5.82038162 14.4875414 -9.94471302 15.31035743 -15.75 15.25 C-16.43964844 15.26998047 -17.12929687 15.28996094 -17.83984375 15.31054688 C-22.72256376 15.30587888 -25.16420249 14.21269988 -28.625 10.8125 C-28.625 8.125 -28.625 8.125 -27.625 4.8125 C-20.10678877 -1.82741552 -9.37021832 -3.06955428 0 0 Z "
        fill="#FAC86C" transform="translate(224.625,59.1875)" />
    <path
        d="M0 0 C2.51640184 1.25820092 2.61551938 2.14093969 3.6875 4.6875 C7.09031687 11.68078909 12.65489133 15.3320727 19.7109375 18.25390625 C23.14757783 19.37403987 26.39973954 19.73816288 30 20 C30 20.33 30 20.66 30 21 C25.99947048 21.71978137 21.99760376 22.43155655 17.99438477 23.13623047 C16.63527901 23.37659457 15.27654467 23.61906945 13.91821289 23.86376953 C11.95560266 24.21693847 9.99147925 24.56166482 8.02734375 24.90625 C6.25991821 25.22045898 6.25991821 25.22045898 4.45678711 25.54101562 C0.91737816 26.01097034 -2.43389322 26.14941243 -6 26 C-7.60260138 24.39739862 -7.20898122 22.71501415 -7.25 20.5 C-7.15907447 12.54401645 -4.70654458 6.32949098 0 0 Z "
        fill="#EA971F" transform="translate(133,29)" />
    <path
        d="M0 0 C0.495 3.96 0.495 3.96 1 8 C0.27039063 8.13148438 -0.45921875 8.26296875 -1.2109375 8.3984375 C-10.11524773 10.318975 -14.74370129 14.38292341 -19.75 21.75 C-20.18521973 22.43658691 -20.62043945 23.12317383 -21.06884766 23.83056641 C-24.30900295 28.76742051 -24.30900295 28.76742051 -28.203125 30.078125 C-31 30 -31 30 -33 28 C-32.70155936 21.26717905 -27.31536359 15.45642855 -22.90283203 10.71972656 C-17.31008242 5.66515532 -7.69233505 0 0 0 Z "
        fill="#C2BFFA" transform="translate(332,243)" />
    <path
        d="M0 0 C2.875 1.5625 2.875 1.5625 5 4 C5.625 7.4375 5.625 7.4375 5 11 C2.55804571 14.37564269 1.0769435 15.75320045 -3 16.6875 C-6.42905924 15.90167392 -8.06237136 14.62880414 -10.1484375 11.7890625 C-11.67373104 8.58454672 -11.04902601 6.27049287 -10 3 C-7.07633177 -0.35680426 -4.30565927 -0.61509418 0 0 Z "
        fill="#FAC86C" transform="translate(183,63)" />
</svg>
