<svg fill="none" height="57" viewBox="0 0 57 57" width="57" xmlns="http://www.w3.org/2000/svg">
    <g filter="url(#filter0_d_2070_1639)">
        <circle cx="28.5" cy="24.5" fill="#F7741A" r="24.5" />
    </g>
    <path
        d="M29 35C30.3797 35 31.4989 33.8809 31.4989 32.5H26.5012C26.5012 33.8809 27.6203 35 29 35ZM37.4137 29.152C36.659 28.341 35.2469 27.1211 35.2469 23.125C35.2469 20.0898 33.1188 17.6602 30.2492 17.0641V16.25C30.2492 15.5598 29.6899 15 29 15C28.3102 15 27.7508 15.5598 27.7508 16.25V17.0641C24.8813 17.6602 22.7532 20.0898 22.7532 23.125C22.7532 27.1211 21.341 28.341 20.5864 29.152C20.352 29.4039 20.2481 29.7051 20.25 30C20.2543 30.6406 20.7571 31.25 21.5039 31.25H36.4961C37.243 31.25 37.7461 30.6406 37.75 30C37.752 29.7051 37.6481 29.4035 37.4137 29.152Z"
        fill="white" />
    <defs>
        <filter color-interpolation-filters="sRGB" filterUnits="userSpaceOnUse" height="57" id="filter0_d_2070_1639" width="57"
            x="0" y="0">
            <feFlood flood-opacity="0" result="BackgroundImageFix" />
            <feColorMatrix in="SourceAlpha" result="hardAlpha"
                type="matrix" values="0 0 0 0 0 0 0 0 0 0 0 0 0 0 0 0 0 0 127 0" />
            <feOffset dy="4" />
            <feGaussianBlur stdDeviation="2" />
            <feComposite in2="hardAlpha" operator="out" />
            <feColorMatrix type="matrix" values="0 0 0 0 0 0 0 0 0 0 0 0 0 0 0 0 0 0 0.25 0" />
            <feBlend in2="BackgroundImageFix" mode="normal" result="effect1_dropShadow_2070_1639" />
            <feBlend in="SourceGraphic" in2="effect1_dropShadow_2070_1639" mode="normal"
                result="shape" />
        </filter>
    </defs>
</svg>
