<svg fill="none" height="18" viewBox="0 0 18 18" width="18" xmlns="http://www.w3.org/2000/svg">
    <g clip-path="url(#clip0_142_1507)">
        <path
            d="M11.25 7.94025V6.75H10.125V6.375C10.125 4.9275 8.9475 3.75 7.5 3.75C6.0525 3.75 4.875 4.9275 4.875 6.375V6.75H3.75V11.25C3.75 12.0773 4.42275 12.75 5.25 12.75H7.55175C7.617 12.2257 7.74825 11.7233 7.94025 11.25H5.25V8.25H9.75V8.82C10.2015 8.45775 10.7055 8.16075 11.25 7.94025ZM6.375 6.375C6.375 5.75475 6.87975 5.25 7.5 5.25C8.12025 5.25 8.625 5.75475 8.625 6.375V6.75H6.375V6.375ZM16.875 13.5C16.875 13.155 16.8083 12.8288 16.7115 12.5153L17.7735 11.9032L17.025 10.6042L15.9667 11.214C15.513 10.725 14.922 10.3695 14.2493 10.2157V9H12.7493V10.2157C12.0773 10.3695 11.4855 10.725 11.0317 11.214L9.9735 10.6042L9.22425 11.9032L10.287 12.5153C10.1902 12.8288 10.1235 13.155 10.1235 13.5C10.1235 13.845 10.191 14.1712 10.287 14.4847L9.22425 15.0968L9.9735 16.3958L11.0317 15.786C11.4855 16.275 12.0765 16.6305 12.7493 16.7843V18H14.2493V16.7843C14.9213 16.6305 15.513 16.275 15.9667 15.786L17.025 16.3958L17.7735 15.0968L16.7115 14.4847C16.8083 14.1712 16.875 13.845 16.875 13.5ZM13.5 15.375C12.4657 15.375 11.625 14.5343 11.625 13.5C11.625 12.4657 12.4657 11.625 13.5 11.625C14.5343 11.625 15.375 12.4657 15.375 13.5C15.375 14.5343 14.5343 15.375 13.5 15.375ZM6.75 10.5V9H8.25V10.5H6.75ZM8.11575 16.1355C8.34 16.593 8.6175 17.0175 8.946 17.4C8.3925 17.6715 7.97325 17.7952 7.4685 18C5.361 16.908 0.198 14.3685 0 8.99325V4.107C0 3.138 0.6195 2.28075 1.5405 1.9755L7.5 0L13.4587 1.97625C14.3805 2.2815 15 3.138 15 4.10775V7.69725C14.52 7.5735 14.019 7.50075 13.5 7.50075V4.1085C13.5 3.78675 13.2945 3.5025 12.987 3.40125L7.5 1.58175L2.013 3.40125C1.70625 3.50325 1.5 3.7875 1.5 4.1085V8.99475C1.5 13.0568 6.1185 15.6825 7.5345 16.3905C7.6905 16.3275 7.89075 16.2412 8.115 16.1362L8.11575 16.1355Z"
            fill="#71028C" />
    </g>
    <defs>
        <clipPath id="clip0_142_1507">
            <rect fill="white" height="18" width="18" />
        </clipPath>
    </defs>
</svg>
