<svg fill="none" height="25" viewBox="0 0 25 25" width="25" xmlns="http://www.w3.org/2000/svg">
    <path
        d="M10.5574 22.5037C11.6312 22.5037 12.5018 21.6332 12.5018 20.5593C12.5018 19.4855 11.6312 18.615 10.5574 18.615C9.48356 18.615 8.61304 19.4855 8.61304 20.5593C8.61304 21.6332 9.48356 22.5037 10.5574 22.5037Z"
        fill="#F7741A" stroke="#F7741A" stroke-linecap="round" stroke-linejoin="round"
        stroke-width="1.5" />
    <path
        d="M19.0288 22.5037C20.1027 22.5037 20.9732 21.6332 20.9732 20.5593C20.9732 19.4855 20.1027 18.615 19.0288 18.615C17.955 18.615 17.0845 19.4855 17.0845 20.5593C17.0845 21.6332 17.955 22.5037 19.0288 22.5037Z"
        fill="#F7741A" stroke="#F7741A" stroke-linecap="round" stroke-linejoin="round"
        stroke-width="1.5" />
    <path
        d="M6.05037 5.13477L8.34793 12.4093C8.70114 13.5272 8.87717 14.0861 9.21666 14.4999C9.51386 14.8657 9.90136 15.148 10.3392 15.3229C10.8364 15.5207 11.4216 15.5207 12.5944 15.5207H17.001C18.1737 15.5207 18.759 15.5207 19.2551 15.3229C19.694 15.148 20.0804 14.8657 20.3787 14.4999C20.7171 14.0861 20.8931 13.5272 21.2474 12.4093L21.715 10.9278L21.9893 10.0522L22.3677 8.85203C22.5027 8.42395 22.535 7.97008 22.4619 7.52721C22.3888 7.08433 22.2124 6.6649 21.947 6.30289C21.6817 5.94088 21.3347 5.64647 20.9344 5.44353C20.534 5.24059 20.0914 5.13481 19.6426 5.13477H6.05037ZM6.05037 5.13477L6.03779 5.09248C5.98953 4.9308 5.93616 4.77069 5.87776 4.61239C5.64635 4.02661 5.25392 3.51827 4.74581 3.14609C4.23771 2.77391 3.63467 2.55309 3.00638 2.50914C2.88864 2.5 2.75948 2.5 2.5 2.5"
        fill="#F7741A" />
    <path
        d="M6.05037 5.13477L8.34793 12.4093C8.70114 13.5272 8.87717 14.0861 9.21666 14.4999C9.51386 14.8657 9.90136 15.148 10.3392 15.3229C10.8364 15.5207 11.4216 15.5207 12.5944 15.5207H17.001C18.1737 15.5207 18.759 15.5207 19.2551 15.3229C19.694 15.148 20.0804 14.8657 20.3787 14.4999C20.7171 14.0861 20.8931 13.5272 21.2474 12.4093L21.715 10.9278L21.9893 10.0522L22.3677 8.85203C22.5027 8.42395 22.535 7.97008 22.4619 7.52721C22.3888 7.08433 22.2124 6.6649 21.947 6.30289C21.6817 5.94088 21.3347 5.64647 20.9344 5.44353C20.534 5.24059 20.0914 5.13481 19.6426 5.13477H6.05037ZM6.05037 5.13477L6.03779 5.09248C5.98953 4.9308 5.93616 4.77069 5.87776 4.61239C5.64635 4.02661 5.25392 3.51827 4.74581 3.14609C4.23771 2.77391 3.63467 2.55309 3.00638 2.50914C2.88864 2.5 2.75948 2.5 2.5 2.5"
        stroke="#F7741A" stroke-linecap="round" stroke-linejoin="round" stroke-width="1.5" />
</svg>
