<?xml version="1.0" encoding="UTF-8"?>
<svg height="512" version="1.1" width="512" xmlns="http://www.w3.org/2000/svg">
    <path
        d="M0 0 C1.01790619 0.00215515 2.03581238 0.0043103 3.08456421 0.00653076 C17.69363523 0.05620146 32.02575853 0.30709809 46.375 3.3125 C47.34985352 3.51117676 48.32470703 3.70985352 49.32910156 3.91455078 C97.7109774 14.03517194 141.69928269 35.9516877 177.375 70.3125 C178.3640332 71.26068604 178.3640332 71.26068604 179.37304688 72.22802734 C188.86130305 81.37247479 197.6012044 90.66984009 205.375 101.3125 C206.23306152 102.46355017 207.09113451 103.61459177 207.94921875 104.765625 C213.98736829 112.95680614 219.34595521 121.47054105 224.375 130.3125 C224.73948242 130.94430176 225.10396484 131.57610352 225.47949219 132.22705078 C247.08534998 169.97532572 256.85198095 212.74189997 256.6875 255.9375 C256.68534485 256.95540619 256.6831897 257.97331238 256.68096924 259.02206421 C256.63129854 273.63113523 256.38040191 287.96325853 253.375 302.3125 C253.07698486 303.77478027 253.07698486 303.77478027 252.77294922 305.26660156 C242.65232806 353.6484774 220.7358123 397.63678269 186.375 433.3125 C185.74287598 433.97185547 185.11075195 434.63121094 184.45947266 435.31054688 C175.31502521 444.79880305 166.01765991 453.5387044 155.375 461.3125 C154.22394983 462.17056152 153.07290823 463.02863451 151.921875 463.88671875 C143.73224019 469.92427396 135.22961724 475.30707302 126.375 480.3125 C125.66778809 480.7146875 124.96057617 481.116875 124.23193359 481.53125 C101.09654164 494.5566741 75.92537591 503.30551461 49.9375 508.625 C49.21860596 508.77235596 48.49971191 508.91971191 47.7590332 509.0715332 C33.08339502 511.86090125 18.55831162 512.66142619 3.64770508 512.62817383 C0.70811513 512.6250221 -2.2304558 512.64854926 -5.16992188 512.67382812 C-18.54306192 512.71848737 -31.43916711 511.51301542 -44.625 509.3125 C-46.33055054 509.03031616 -46.33055054 509.03031616 -48.07055664 508.74243164 C-91.33802759 500.97044532 -132.38793216 480.98345309 -165.625 452.3125 C-166.37007813 451.67828125 -167.11515625 451.0440625 -167.8828125 450.390625 C-181.38779833 438.57948485 -194.05918743 425.82889772 -204.625 411.3125 C-205.48149066 410.16255169 -206.33826433 409.01281411 -207.1953125 407.86328125 C-213.23534209 399.67315742 -218.61867614 391.16870382 -223.625 382.3125 C-224.0271875 381.60528809 -224.429375 380.89807617 -224.84375 380.16943359 C-237.8691741 357.03404164 -246.61801461 331.86287591 -251.9375 305.875 C-252.08485596 305.15610596 -252.23221191 304.43721191 -252.3840332 303.6965332 C-255.35789088 288.05024391 -255.99800362 272.57681954 -255.9375 256.6875 C-255.93534485 255.66959381 -255.9331897 254.65168762 -255.93096924 253.60293579 C-255.88129854 238.99386477 -255.63040191 224.66174147 -252.625 210.3125 C-252.42632324 209.33764648 -252.22764648 208.36279297 -252.02294922 207.35839844 C-241.90232806 158.9765226 -219.9858123 114.98821731 -185.625 79.3125 C-184.99287598 78.65314453 -184.36075195 77.99378906 -183.70947266 77.31445312 C-174.56502521 67.82619695 -165.26765991 59.0862956 -154.625 51.3125 C-153.47394983 50.45443848 -152.32290823 49.59636549 -151.171875 48.73828125 C-142.98224019 42.70072604 -134.47961724 37.31792698 -125.625 32.3125 C-124.91778809 31.9103125 -124.21057617 31.508125 -123.48193359 31.09375 C-100.34654164 18.0683259 -75.17537591 9.31948539 -49.1875 4 C-48.46860596 3.85264404 -47.74971191 3.70528809 -47.0090332 3.5534668 C-31.36274391 0.57960912 -15.88931954 -0.06050362 0 0 Z "
        fill="#40D9F8" transform="translate(255.625,-0.3125)" />
    <path
        d="M0 0 C13.32346296 7.36938794 25.42678233 16.11048169 37 26 C37.74894531 26.63679688 38.49789063 27.27359375 39.26953125 27.9296875 C52.76520621 39.74702468 65.43558025 52.48551588 76 67 C76.85649066 68.14994831 77.71326433 69.29968589 78.5703125 70.44921875 C84.6109414 78.64089526 89.97005071 87.15645078 95 96 C95.36448242 96.63180176 95.72896484 97.26360352 96.10449219 97.91455078 C117.71034998 135.66282572 127.47698095 178.42939997 127.3125 221.625 C127.31034485 222.64290619 127.3081897 223.66081238 127.30596924 224.70956421 C127.25629854 239.31863523 127.00540191 253.65075853 124 268 C123.70198486 269.46228027 123.70198486 269.46228027 123.39794922 270.95410156 C113.27732806 319.3359774 91.3608123 363.32428269 57 399 C56.36787598 399.65935547 55.73575195 400.31871094 55.08447266 400.99804688 C45.94002521 410.48630305 36.64265991 419.2262044 26 427 C24.84894983 427.85806152 23.69790823 428.71613451 22.546875 429.57421875 C14.35724019 435.61177396 5.85461724 440.99457302 -3 446 C-3.70721191 446.4021875 -4.41442383 446.804375 -5.14306641 447.21875 C-28.27845836 460.2441741 -53.44962409 468.99301461 -79.4375 474.3125 C-80.15639404 474.45985596 -80.87528809 474.60721191 -81.6159668 474.7590332 C-96.29160498 477.54840125 -110.81668838 478.34892619 -125.72729492 478.31567383 C-128.66688487 478.3125221 -131.6054558 478.33604926 -134.54492188 478.36132812 C-147.91806192 478.40598737 -160.81416711 477.20051542 -174 475 C-175.70555054 474.71781616 -175.70555054 474.71781616 -177.44555664 474.42993164 C-220.71302759 466.65794532 -261.76293216 446.67095309 -295 418 C-296.11761719 417.04867187 -296.11761719 417.04867187 -297.2578125 416.078125 C-310.76025054 404.26921309 -323.44444708 391.52115207 -334 377 C-334.90362953 375.77993584 -335.80727566 374.55988398 -336.7109375 373.33984375 C-341.25919786 367.13767053 -345.53756733 360.88841868 -349 354 C-342.30633399 355.39616406 -335.62593133 356.80770132 -329 358.5 C-293.88685523 367.40662823 -257.74027016 368.38203638 -222 363 C-221.0817041 362.87141602 -220.1634082 362.74283203 -219.21728516 362.61035156 C-199.59678554 359.81909135 -180.61360061 353.72189876 -162.1159668 346.71679688 C-160 346 -160 346 -158 346 C-157.97812622 347.11072876 -157.97812622 347.11072876 -157.95581055 348.24389648 C-157.88072778 351.64225413 -157.78426719 355.0396934 -157.6875 358.4375 C-157.66494141 359.60216797 -157.64238281 360.76683594 -157.61914062 361.96679688 C-157.48188231 373.14142588 -157.48188231 373.14142588 -152.3737793 382.66967773 C-145.57841874 388.23694877 -136.39413703 387.20908343 -128.0625 387.25 C-127.01642578 387.270625 -125.97035156 387.29125 -124.89257812 387.3125 C-117.21183492 387.35112096 -111.40366694 386.58974658 -105.125 381.8125 C-99.75917265 374.71066968 -100.6338584 365.4371389 -100.625 356.9375 C-100.60050781 355.69677734 -100.57601562 354.45605469 -100.55078125 353.17773438 C-100.52434882 344.94403249 -101.29680202 340.58027119 -106.484375 334.1640625 C-111.27854198 330.48194457 -118.13846054 329.62356803 -124 329 C-120.71695361 326.23169511 -117.35936803 323.94178611 -113.68432617 321.75366211 C-104.70941024 316.39987621 -96.73367256 310.19652165 -88.75878906 303.46630859 C-86.40452748 301.50355248 -83.97807603 299.6364846 -81.5625 297.75 C-69.83790626 288.13618788 -59.2935334 276.95363898 -50 265 C-49.07629795 263.88521047 -48.14897312 262.77341642 -47.21875 261.6640625 C-14.99499235 222.93565591 3.64312303 174.43150111 11 125 C11.12004395 124.20255371 11.24008789 123.40510742 11.36376953 122.58349609 C16.63360551 85.74176645 12.11361127 48.76921831 2.75683594 13.02832031 C1.67889738 8.71517518 0.80742432 4.37097237 0 0 Z "
        fill="#0DB5D7" transform="translate(385,34)" />
    <path
        d="M0 0 C1.21171875 -0.00773437 2.4234375 -0.01546875 3.671875 -0.0234375 C15.39816377 0.00156525 26.82654221 1.20421673 38 4.875 C38.79599609 5.13297363 39.59199219 5.39094727 40.41210938 5.65673828 C52.9909169 9.8972074 64.27780928 15.90112107 74.625 24.25 C75.34042969 24.81332031 76.05585938 25.37664062 76.79296875 25.95703125 C89.97765232 36.84650878 98.49131577 51.83804577 102.625 68.25 C102.98078125 69.50296875 103.3365625 70.7559375 103.703125 72.046875 C108.28159292 90.60311024 103.56776301 112.19850258 93.87011719 128.34619141 C90.06654808 134.16192315 85.44859669 139.27090902 80.625 144.25 C79.85800781 145.04664063 79.09101563 145.84328125 78.30078125 146.6640625 C68.22111794 156.339132 55.75298225 163.66317738 44 171.125 C38.61777933 174.56085947 33.4843531 178.10360219 28.625 182.25 C27.56152344 183.13558594 27.56152344 183.13558594 26.4765625 184.0390625 C19.6530976 190.20301035 15.83945752 197.42407833 15.2421875 206.671875 C15.1372397 209.02472116 15.06243902 211.37706484 14.99291992 213.73120117 C14.70155251 221.81471313 12.95454465 228.01912924 7.4375 234.125 C0.94041252 239.9476017 -5.68032661 242.01364905 -14.375 241.703125 C-21.62049427 240.60875347 -27.76439054 236.91446306 -32.375 231.25 C-33.01236084 230.5540271 -33.01236084 230.5540271 -33.66259766 229.84399414 C-38.65273449 223.44916438 -38.09673752 216.06795276 -37.97192383 208.35205078 C-37.9377724 206.01861196 -37.95125287 203.68900753 -37.97070312 201.35546875 C-37.95311355 182.87054875 -31.09898406 168.65461322 -18.375 155.25 C-9.51430078 147.11857643 0.64228561 141.02192941 10.85180664 134.74072266 C25.86632186 125.46506245 40.07015786 115.91452641 45.875 98.5 C47.93938379 89.03359144 47.33779613 79.53052429 42.37109375 71.12890625 C35.52761649 61.26460252 25.56609923 56.10728783 14.03588867 53.66015625 C-3.57459407 50.66414501 -21.00313179 54.53494948 -35.58203125 64.8046875 C-43.51844098 71.14774537 -47.89787268 79.61185442 -51.4375 88.9375 C-54.99594212 98.28717807 -59.13091909 104.86585869 -68.375 109.25 C-75.42956224 111.97737857 -82.89443918 112.64009089 -90.1953125 110.375 C-99.64927179 105.98049905 -104.73467778 99.85966779 -108.375 90.25 C-108.705 89.59 -109.035 88.93 -109.375 88.25 C-111.70120115 72.87940508 -102.06597359 56.74391008 -93.5625 44.6875 C-74.69081566 19.62020608 -48.54287963 5.62002224 -17.68066406 0.64916992 C-11.79101127 -0.06202523 -5.92500063 -0.03757929 0 0 Z "
        fill="#FDFEFE" transform="translate(264.375,95.75)" />
    <path
        d="M0 0 C6.41174517 6.39658738 7.14279654 10.85335087 7.18554688 19.82617188 C7.18619141 21.10041016 7.18683594 22.37464844 7.1875 23.6875 C7.19974609 24.94240234 7.21199219 26.19730469 7.22460938 27.49023438 C7.24814283 42.3869133 7.24814283 42.3869133 3.25 48.8125 C-3.68556337 55.55540883 -11.64419235 55.1820555 -20.6875 55.1875 C-22.2643457 55.20586914 -22.2643457 55.20586914 -23.87304688 55.22460938 C-31.58229381 55.23900125 -38.68036064 55.02866849 -45.375 50.9375 C-51.6122427 43.95772841 -51.44652676 35.45298769 -51.3125 26.5 C-51.31572266 25.42363281 -51.31894531 24.34726562 -51.32226562 23.23828125 C-51.22100588 8.12296367 -51.22100588 8.12296367 -47.3359375 2.66015625 C-36.43288897 -6.2230048 -11.88699701 -8.49071215 0 0 Z "
        fill="#FDFEFE" transform="translate(278,367)" />
</svg>
