<svg fill="none" height="15" viewBox="0 0 13 15" width="13" xmlns="http://www.w3.org/2000/svg">
    <g clip-path="url(#clip0_439_15031)">
        <path
            d="M8.09068 12.9025C7.8587 13.3982 7.70535 13.936 7.64661 14.5001L12.5558 13.4945C12.7878 12.999 12.941 12.461 12.9999 11.897L8.09068 12.9025Z"
            fill="black" />
        <path
            d="M12.5556 10.4819C12.7875 9.9864 12.9409 9.44842 12.9996 8.88436L9.17552 9.66805V8.16151L12.5554 7.46941C12.7874 6.97388 12.9408 6.4359 12.9995 5.87184L9.1754 6.65486V1.23689C8.58944 1.55391 8.06904 1.9759 7.64601 2.47365V6.9682L6.11662 7.28143V0.5C5.53065 0.816908 5.01026 1.23901 4.58723 1.73677V7.59455L1.16521 8.29522C0.933227 8.79075 0.779768 9.32874 0.720905 9.8928L4.58723 9.10109V10.9983L0.443707 11.8467C0.211725 12.3423 0.0583809 12.8802 -0.000366211 13.4443L4.33674 12.5562C4.68981 12.4854 4.99326 12.2843 5.19054 12.0075L5.98594 10.8713V10.871C6.06851 10.7535 6.11662 10.6117 6.11662 10.4591V8.78786L7.64601 8.47463V11.4877L12.5554 10.4817L12.5556 10.4819Z"
            fill="black" />
    </g>
    <defs>
        <clipPath id="clip0_439_15031">
            <rect fill="white" height="14" transform="translate(0 0.5)" width="13" />
        </clipPath>
    </defs>
</svg>
