<svg fill="none" height="24" viewBox="0 0 24 24" width="24" xmlns="http://www.w3.org/2000/svg">
    <g clip-path="url(#clip0_200_1799)">
        <g clip-path="url(#clip1_200_1799)">
            <path
                d="M17.717 16.617L22 20.899L20.585 22.314L16.303 18.031C14.7097 19.3082 12.728 20.0029 10.686 20C5.718 20 1.686 15.968 1.686 11C1.686 6.032 5.718 2 10.686 2C15.654 2 19.686 6.032 19.686 11C19.6889 13.042 18.9942 15.0237 17.717 16.617ZM15.711 15.875C16.9801 14.5699 17.6889 12.8204 17.686 11C17.686 7.132 14.553 4 10.686 4C6.818 4 3.686 7.132 3.686 11C3.686 14.867 6.818 18 10.686 18C12.5064 18.0029 14.2559 17.2941 15.561 16.025L15.711 15.875Z"
                fill="#6A717B" />
        </g>
    </g>
    <defs>
        <clipPath id="clip0_200_1799">
            <rect fill="white" height="24" width="24" />
        </clipPath>
        <clipPath id="clip1_200_1799">
            <rect fill="white" height="24" width="24" />
        </clipPath>
    </defs>
</svg>
