<svg fill="none" height="25" viewBox="0 0 25 25" width="25" xmlns="http://www.w3.org/2000/svg">
    <path clip-rule="evenodd" d="M21.8499 8.504C21.7932 8.50067 21.7329 8.49933 21.6689 8.5H19.1439C17.0759 8.5 15.3069 10.128 15.3069 12.25C15.3069 14.372 17.0769 16 19.1439 16H21.6689C21.7329 16.0007 21.7936 15.9993 21.8509 15.996C22.2759 15.9704 22.6771 15.7911 22.9798 15.4916C23.2824 15.1921 23.4658 14.7927 23.4959 14.368C23.4999 14.308 23.4999 14.243 23.4999 14.183V10.317C23.4999 10.257 23.4999 10.192 23.4959 10.132C23.4658 9.70726 23.2824 9.30793 22.9798 9.00842C22.6771 8.7089 22.2749 8.52963 21.8499 8.504ZM18.9229 13.25C19.4549 13.25 19.8859 12.802 19.8859 12.25C19.8859 11.698 19.4549 11.25 18.9229 11.25C18.3899 11.25 17.9589 11.698 17.9589 12.25C17.9589 12.802 18.3899 13.25 18.9229 13.25Z"
        fill="#F7741A"
        fill-rule="evenodd" />
    <path clip-rule="evenodd" d="M21.668 17.5C21.7026 17.4986 21.737 17.5054 21.7684 17.5198C21.7999 17.5342 21.8275 17.5558 21.849 17.5829C21.8706 17.61 21.8854 17.6418 21.8924 17.6757C21.8993 17.7096 21.8981 17.7446 21.889 17.778C21.689 18.49 21.37 19.098 20.859 19.608C20.11 20.358 19.161 20.689 17.989 20.847C16.849 21 15.394 21 13.556 21H11.444C9.606 21 8.15 21 7.011 20.847C5.839 20.689 4.89 20.357 4.141 19.609C3.393 18.86 3.061 17.911 2.903 16.739C2.75 15.599 2.75 14.144 2.75 12.306V12.194C2.75 10.356 2.75 8.9 2.903 7.76C3.061 6.588 3.393 5.639 4.141 4.89C4.89 4.142 5.839 3.81 7.011 3.652C8.151 3.5 9.606 3.5 11.444 3.5H13.556C15.394 3.5 16.85 3.5 17.989 3.653C19.161 3.811 20.11 4.143 20.859 4.891C21.37 5.403 21.689 6.01 21.889 6.722C21.8981 6.75537 21.8993 6.79042 21.8924 6.82432C21.8854 6.85822 21.8706 6.89 21.849 6.91708C21.8275 6.94417 21.7999 6.96579 21.7684 6.9802C21.737 6.9946 21.7026 7.00139 21.668 7H19.144C16.307 7 13.807 9.24 13.807 12.25C13.807 15.26 16.307 17.5 19.144 17.5H21.668ZM6.5 7.5C6.30109 7.5 6.11032 7.57902 5.96967 7.71967C5.82902 7.86032 5.75 8.05109 5.75 8.25C5.75 8.44891 5.82902 8.63968 5.96967 8.78033C6.11032 8.92098 6.30109 9 6.5 9H10.5C10.6989 9 10.8897 8.92098 11.0303 8.78033C11.171 8.63968 11.25 8.44891 11.25 8.25C11.25 8.05109 11.171 7.86032 11.0303 7.71967C10.8897 7.57902 10.6989 7.5 10.5 7.5H6.5Z"
        fill="#F7741A"
        fill-rule="evenodd" />
</svg>
