<svg fill="none" height="25" viewBox="0 0 25 25" width="25" xmlns="http://www.w3.org/2000/svg">
    <path
        d="M18.75 11.5C18.75 11.7652 18.6446 12.0196 18.4571 12.2071C18.2696 12.3946 18.0152 12.5 17.75 12.5C17.4848 12.5 17.2304 12.3946 17.0429 12.2071C16.8554 12.0196 16.75 11.7652 16.75 11.5C16.75 11.2348 16.8554 10.9804 17.0429 10.7929C17.2304 10.6054 17.4848 10.5 17.75 10.5C18.0152 10.5 18.2696 10.6054 18.4571 10.7929C18.6446 10.9804 18.75 11.2348 18.75 11.5Z"
        fill="#9CA3AF" />
    <path clip-rule="evenodd" d="M10.7527 3.5H13.7758C15.5613 3.5 16.9757 3.5 18.0822 3.64863C19.2207 3.80211 20.1426 4.12463 20.8702 4.85126C21.7678 5.74983 22.0543 6.95246 22.1583 8.51354C22.7188 8.75931 23.1423 9.28097 23.188 9.94154C23.1928 10.0008 23.1928 10.0639 23.1928 10.1222V13.8778C23.1928 13.9361 23.1928 13.9992 23.189 14.0575C23.1423 14.7181 22.7188 15.2407 22.1583 15.4874C22.0543 17.0475 21.7678 18.2502 20.8702 19.1487C20.1426 19.8754 19.2207 20.1979 18.0822 20.3514C16.9747 20.5 15.5613 20.5 13.7758 20.5H10.7527C8.96724 20.5 7.55284 20.5 6.44639 20.3514C5.30787 20.1979 4.38599 19.8754 3.65839 19.1487C2.93176 18.4211 2.60924 17.4993 2.45576 16.3607C2.30713 15.2533 2.30713 13.8399 2.30713 12.0544V11.9456C2.30713 10.1601 2.30713 8.74571 2.45576 7.63926C2.60924 6.50074 2.93176 5.57886 3.65839 4.85126C4.38599 4.12463 5.30787 3.80211 6.44639 3.64863C7.55381 3.5 8.96724 3.5 10.7527 3.5ZM20.6846 15.6429H18.802C16.7183 15.6429 14.9347 14.0614 14.9347 12C14.9347 9.93863 16.7183 8.35714 18.801 8.35714H20.6836C20.5729 7.05446 20.3232 6.36571 19.8385 5.88194C19.4276 5.47103 18.8642 5.22429 17.8869 5.09314C16.8892 4.95909 15.573 4.95714 13.7204 4.95714H10.8062C8.95364 4.95714 7.63833 4.95909 6.63873 5.09314C5.66244 5.22429 5.09901 5.47103 4.6881 5.88194C4.27719 6.29286 4.03141 6.85629 3.90027 7.83257C3.76621 8.8312 3.76427 10.1465 3.76427 11.999C3.76427 13.8515 3.76621 15.1678 3.90027 16.1665C4.03141 17.1427 4.27816 17.7062 4.68907 18.1171C5.09999 18.528 5.66341 18.7747 6.64067 18.9059C7.6393 19.0399 8.95462 19.0419 10.8071 19.0419H13.7214C15.5739 19.0419 16.8902 19.0399 17.8888 18.9059C18.8651 18.7747 19.4286 18.528 19.8395 18.1171C20.3242 17.6333 20.5739 16.9455 20.6846 15.6419M6.19284 8.11429C6.19284 7.92106 6.2696 7.73574 6.40624 7.59911C6.54287 7.46247 6.72819 7.38571 6.92141 7.38571H10.8071C11.0004 7.38571 11.1857 7.46247 11.3223 7.59911C11.4589 7.73574 11.5357 7.92106 11.5357 8.11429C11.5357 8.30751 11.4589 8.49283 11.3223 8.62946C11.1857 8.7661 11.0004 8.84286 10.8071 8.84286H6.92141C6.72819 8.84286 6.54287 8.7661 6.40624 8.62946C6.2696 8.49283 6.19284 8.30751 6.19284 8.11429ZM21.419 9.81429H18.802C17.4187 9.81429 16.3919 10.843 16.3919 12C16.3919 13.157 17.4187 14.1857 18.801 14.1857H21.4414C21.6415 14.1731 21.7279 14.0381 21.7347 13.9565V10.0435C21.7279 9.96194 21.6415 9.82691 21.4414 9.81526L21.419 9.81429Z"
        fill="#9CA3AF"
        fill-rule="evenodd" />
</svg>
