<?xml version="1.0" encoding="UTF-8"?>
<svg height="512" version="1.1" width="512" xmlns="http://www.w3.org/2000/svg">
    <path
        d="M0 0 C1.27101562 -0.020625 2.54203125 -0.04125 3.8515625 -0.0625 C5.68847656 -0.07023437 5.68847656 -0.07023437 7.5625 -0.078125 C8.67753906 -0.0874707 9.79257813 -0.09681641 10.94140625 -0.10644531 C14.44582459 0.30195593 16.28582578 0.99841334 19 3.25 C19.33 4.9 19.66 6.55 20 8.25 C26.27 8.25 32.54 8.25 39 8.25 C39.33 6.6 39.66 4.95 40 3.25 C44.05422336 -0.3249721 48.39705672 -0.17403045 53.5443573 -0.13095093 C54.40320331 -0.1356309 55.26204933 -0.14031087 56.14692098 -0.14513266 C59.02412991 -0.15709621 61.90086372 -0.1476199 64.77807617 -0.13818359 C66.84138263 -0.14224884 68.90468691 -0.14759045 70.96798706 -0.15411377 C76.57360972 -0.16780302 82.17906693 -0.16248089 87.78469253 -0.15297651 C93.65369219 -0.14538319 99.52267764 -0.15242509 105.39167786 -0.15713501 C115.25341331 -0.16259566 125.11508141 -0.15539506 134.97680664 -0.14111328 C146.36648161 -0.12480883 157.75599529 -0.13005804 169.1456663 -0.1465925 C178.92929594 -0.16022554 188.71287712 -0.16211744 198.49651319 -0.15427649 C204.33743099 -0.14960707 210.17827312 -0.14895458 216.01918602 -0.15888596 C221.51609554 -0.16757893 227.01279824 -0.16149102 232.50968552 -0.14420319 C234.52279505 -0.14024983 236.53592211 -0.14135258 238.54902458 -0.14799118 C252.03914789 -0.18836089 264.33108386 -0.17454925 275 9.25 C281.27517461 16.74796024 283.31610865 23.74674614 283.1953125 33.3671875 C283.19106766 34.6529216 283.19106766 34.6529216 283.18673706 35.96463013 C283.17559999 38.68489932 283.1505076 41.40483141 283.125 44.125 C283.11496182 45.97655772 283.10583744 47.82812064 283.09765625 49.6796875 C283.07568188 54.2032536 283.041197 58.72656977 283 63.25 C283.89456406 63.24333817 284.78912811 63.23667633 285.71080017 63.22981262 C294.16975064 63.16952885 302.62862823 63.12393812 311.08774471 63.09456348 C315.43595026 63.07895365 319.78397726 63.05780169 324.13208008 63.02368164 C328.33367717 62.99092017 332.53510327 62.97311182 336.73681831 62.96536827 C338.33428193 62.95985473 339.93173693 62.94908858 341.52912712 62.93280983 C352.33043372 62.82718224 362.25789624 62.89868547 371 70.25 C375.71412244 76.56104739 377.14900455 81.54700495 377.14717102 89.40440369 C377.15084771 90.24535648 377.1545244 91.08630928 377.1583125 91.9527455 C377.16935782 94.78092174 377.17319457 97.60906126 377.17700195 100.43725586 C377.18326579 102.46074033 377.18991252 104.48422364 377.19691467 106.50770569 C377.21432775 112.01174931 377.22487655 117.51578425 377.2331202 123.01984859 C377.23826804 126.45602428 377.24434376 129.89219726 377.25063133 133.32837105 C377.26968135 144.07222648 377.28391481 154.81607502 377.2922433 165.55994409 C377.30202632 177.97599568 377.32837444 190.3918695 377.36874419 202.80785841 C377.39885649 212.39686327 377.41370739 221.98581702 377.41702431 231.57486826 C377.41937971 237.30613084 377.42840417 243.03720344 377.45348549 248.76841545 C377.4766868 254.15695406 377.48103153 259.54517654 377.47072411 264.93375206 C377.47022675 266.91391804 377.47660558 268.89409917 377.49028015 270.87421799 C377.5078769 273.57273308 377.50095375 276.27009841 377.48774719 278.96861267 C377.50420106 280.15036911 377.50420106 280.15036911 377.52098733 281.35599941 C377.47917761 284.88213915 377.26686268 286.8854554 375.1570158 289.76758671 C373 291.25 373 291.25 370 291.25 C370.02279401 294.35579494 370.10007819 297.45790484 370.1875 300.5625 C370.19330078 301.44357422 370.19910156 302.32464844 370.20507812 303.23242188 C370.28855337 305.67175397 370.41193015 307.88000423 371 310.25 C373.33309215 312.38618264 373.33309215 312.38618264 376 313.25 C377.77598636 315.02598636 377.15533828 317.61481943 377.17700195 320.01977539 C377.18983719 321.2551857 377.20267242 322.49059601 377.21589661 323.76344299 C377.22406761 325.12484334 377.23151065 326.48624822 377.23828125 327.84765625 C377.24235678 328.5318054 377.2464323 329.21595455 377.25063133 329.92083549 C377.27152333 333.54805069 377.28580644 337.17522781 377.29516602 340.80249023 C377.30618441 344.53600582 377.34052092 348.26891775 377.38033772 352.00222111 C377.40660213 354.88230937 377.4148669 357.76225669 377.41844749 360.64245415 C377.42329512 362.01747104 377.43485681 363.39248242 377.45348549 364.76738167 C377.57482401 374.32370987 376.98310474 380.5133349 370.6875 388 C363.72903438 393.82569215 357.73592396 395.37907759 348.73120117 395.36352539 C348.01846039 395.36367142 347.3057196 395.36381744 346.57138062 395.3639679 C344.2285451 395.36327432 341.88579028 395.355508 339.54296875 395.34765625 C337.91343733 395.3457901 336.28390535 395.34436713 334.65437317 395.34336853 C330.37511636 395.33955888 326.09589374 395.32974188 321.81665039 395.31866455 C317.44613101 395.30841702 313.07560607 395.30386376 308.70507812 395.29882812 C300.1367031 395.28811818 291.56835581 395.27106045 283 395.25 C283.0314209 396.94358643 283.0314209 396.94358643 283.06347656 398.67138672 C283.13644468 402.90188676 283.18200412 407.13233237 283.21972656 411.36328125 C283.23971364 413.18661892 283.26691286 415.00989356 283.30175781 416.83300781 C283.51823005 428.45884053 283.41865108 437.49206306 276.875 447.5 C266.74346521 457.19103328 256.18307934 458.56118481 242.70703125 458.5859375 C241.44283859 458.5925943 240.17864594 458.5992511 238.87614441 458.60610962 C236.2142416 458.6162015 233.55274797 458.62179678 230.89086914 458.62060547 C227.48788585 458.62040137 224.08572919 458.64782432 220.68294239 458.68214989 C217.42016983 458.7097621 214.15740481 458.70856678 210.89453125 458.7109375 C209.67675491 458.72530853 208.45897858 458.73967957 207.20429993 458.75448608 C206.0692955 458.74833282 204.93429108 458.74217957 203.76489258 458.73583984 C202.76976151 458.73868988 201.77463043 458.74153992 200.74934387 458.74447632 C197.18985676 458.10429373 195.52939689 456.79942904 193 454.25 C192.67 452.93 192.34 451.61 192 450.25 C185.73 450.25 179.46 450.25 173 450.25 C172.67 451.9 172.34 453.55 172 455.25 C168.08685776 458.58358776 164.60616734 458.62664734 159.59455872 458.63095093 C158.49004955 458.63797089 158.49004955 458.63797089 157.36322707 458.64513266 C154.90057713 458.65708011 152.43848396 458.64762644 149.97583008 458.63818359 C148.20808589 458.64224959 146.44034425 458.64759163 144.67260742 458.65411377 C139.87273503 458.66779484 135.07305603 458.66248411 130.27318025 458.65297651 C125.24499635 458.64537809 120.21682896 458.65242659 115.18864441 458.65713501 C106.73925814 458.66259454 98.2899505 458.65539839 89.84057617 458.64111328 C80.08683917 458.6248128 70.33329057 458.63005555 60.57955819 458.6465925 C52.19718851 458.6602333 43.81487536 458.66211356 35.43249816 458.65427649 C30.42994617 458.64961082 25.42748252 458.64894409 20.42493629 458.65888596 C15.71595893 458.66759015 11.00722266 458.66147089 6.29827118 458.64420319 C4.57542253 458.64025559 2.8525534 458.6413426 1.12971306 458.64799118 C-11.55944338 458.69242164 -23.05123069 458.0383966 -33 449.25 C-39.27517461 441.75203976 -41.31610865 434.75325386 -41.1953125 425.1328125 C-41.1924826 424.27565643 -41.18965271 423.41850037 -41.18673706 422.53536987 C-41.17559999 419.81510068 -41.1505076 417.09516859 -41.125 414.375 C-41.11496182 412.52344228 -41.10583744 410.67187936 -41.09765625 408.8203125 C-41.07568188 404.2967464 -41.041197 399.77343023 -41 395.25 C-42.34184608 395.25999275 -42.34184608 395.25999275 -43.71080017 395.27018738 C-52.16975064 395.33047115 -60.62862823 395.37606188 -69.08774471 395.40543652 C-73.43595026 395.42104635 -77.78397726 395.44219831 -82.13208008 395.47631836 C-86.33367717 395.50907983 -90.53510327 395.52688818 -94.73681831 395.53463173 C-96.33428193 395.54014527 -97.93173693 395.55091142 -99.52912712 395.56719017 C-110.33043372 395.67281776 -120.25789624 395.60131453 -129 388.25 C-133.46772289 382.26882085 -135.12178887 377.67697131 -135.15390015 370.15858459 C-135.1582824 369.43197126 -135.16266465 368.70535793 -135.1671797 367.95672601 C-135.18056278 365.51550027 -135.18674536 363.07431062 -135.19287109 360.63305664 C-135.20077221 358.88543027 -135.20904117 357.13780552 -135.21765137 355.3901825 C-135.24386208 349.64685625 -135.25917428 343.90352273 -135.2734375 338.16015625 C-135.27879685 336.18434583 -135.28417436 334.20853546 -135.28956985 332.23272514 C-135.3111938 324.01712329 -135.32993266 315.80152341 -135.34119225 307.58590031 C-135.35744728 295.80234406 -135.39066824 284.0191167 -135.44759309 272.23568445 C-135.48623941 263.95452585 -135.50581841 255.67345543 -135.51111281 247.39220899 C-135.51477248 242.44335615 -135.52685951 237.49485417 -135.55921555 232.54609871 C-135.58920426 227.89290532 -135.59564111 223.24027682 -135.58383179 218.58700752 C-135.5836103 216.87774046 -135.59197694 215.16844787 -135.60948563 213.45927048 C-135.63206775 211.12829356 -135.623936 208.79938436 -135.60800171 206.46839905 C-135.61131186 205.16334947 -135.614622 203.85829988 -135.61803246 202.51370335 C-135 199.25 -135 199.25 -132.58699989 196.79885006 C-130 195.25 -130 195.25 -128 195.25 C-128 188.98 -128 182.71 -128 176.25 C-129.65 175.92 -131.3 175.59 -133 175.25 C-135.5785038 171.3822443 -135.29544076 168.16905995 -135.29052734 163.68286133 C-135.29724457 162.80769867 -135.30396179 161.93253601 -135.31088257 161.03085327 C-135.3299133 158.13118847 -135.33378985 155.23175467 -135.3359375 152.33203125 C-135.34236382 150.31524053 -135.34909206 148.29845074 -135.35610962 146.28166199 C-135.36809644 142.04899944 -135.37178919 137.81641857 -135.37060547 133.58374023 C-135.37040264 128.17107436 -135.39766119 122.75893568 -135.43214989 117.34639454 C-135.45444015 113.17782712 -135.45844229 109.0093859 -135.45738602 104.840765 C-135.45974044 102.84614947 -135.46855502 100.85153038 -135.48405075 98.85697365 C-135.50374578 96.05898362 -135.49785805 93.26212127 -135.48583984 90.46411133 C-135.49707886 89.64666946 -135.50831787 88.8292276 -135.51989746 87.98701477 C-135.44329621 80.93455015 -133.21028832 75.87845098 -128.6875 70.5 C-121.72903438 64.67430785 -115.73592396 63.12092241 -106.73120117 63.13647461 C-106.01846039 63.13632858 -105.3057196 63.13618256 -104.57138062 63.1360321 C-102.2285451 63.13672568 -99.88579028 63.144492 -97.54296875 63.15234375 C-95.91343733 63.1542099 -94.28390535 63.15563287 -92.65437317 63.15663147 C-88.37511636 63.16044112 -84.09589374 63.17025812 -79.81665039 63.18133545 C-75.44613101 63.19158298 -71.07560607 63.19613624 -66.70507812 63.20117188 C-58.1367031 63.21188182 -49.56835581 63.22893955 -41 63.25 C-41.0314209 61.55641357 -41.0314209 61.55641357 -41.06347656 59.82861328 C-41.13644468 55.59811324 -41.18200412 51.36766763 -41.21972656 47.13671875 C-41.23971364 45.31338108 -41.26691286 43.49010644 -41.30175781 41.66699219 C-41.73665591 18.31040612 -41.73665591 18.31040612 -32.97265625 8.8515625 C-22.8407146 0.62562968 -12.46295774 0.05055967 0 0 Z "
        fill="#F1EFF2" transform="translate(135,26.75)" />
    <path
        d="M0 0 C1.27101562 -0.020625 2.54203125 -0.04125 3.8515625 -0.0625 C5.68847656 -0.07023437 5.68847656 -0.07023437 7.5625 -0.078125 C8.67753906 -0.0874707 9.79257813 -0.09681641 10.94140625 -0.10644531 C14.44582459 0.30195593 16.28582578 0.99841334 19 3.25 C19.33 4.9 19.66 6.55 20 8.25 C26.27 8.25 32.54 8.25 39 8.25 C39.33 6.6 39.66 4.95 40 3.25 C44.05422336 -0.3249721 48.39705672 -0.17403045 53.5443573 -0.13095093 C54.40320331 -0.1356309 55.26204933 -0.14031087 56.14692098 -0.14513266 C59.02412991 -0.15709621 61.90086372 -0.1476199 64.77807617 -0.13818359 C66.84138263 -0.14224884 68.90468691 -0.14759045 70.96798706 -0.15411377 C76.57360972 -0.16780302 82.17906693 -0.16248089 87.78469253 -0.15297651 C93.65369219 -0.14538319 99.52267764 -0.15242509 105.39167786 -0.15713501 C115.25341331 -0.16259566 125.11508141 -0.15539506 134.97680664 -0.14111328 C146.36648161 -0.12480883 157.75599529 -0.13005804 169.1456663 -0.1465925 C178.92929594 -0.16022554 188.71287712 -0.16211744 198.49651319 -0.15427649 C204.33743099 -0.14960707 210.17827312 -0.14895458 216.01918602 -0.15888596 C221.51609554 -0.16757893 227.01279824 -0.16149102 232.50968552 -0.14420319 C234.52279505 -0.14024983 236.53592211 -0.14135258 238.54902458 -0.14799118 C252.03914789 -0.18836089 264.33108386 -0.17454925 275 9.25 C281.27517461 16.74796024 283.31610865 23.74674614 283.1953125 33.3671875 C283.19106766 34.6529216 283.19106766 34.6529216 283.18673706 35.96463013 C283.17559999 38.68489932 283.1505076 41.40483141 283.125 44.125 C283.11496182 45.97655772 283.10583744 47.82812064 283.09765625 49.6796875 C283.07568188 54.2032536 283.041197 58.72656977 283 63.25 C283.89456406 63.24333817 284.78912811 63.23667633 285.71080017 63.22981262 C294.16975064 63.16952885 302.62862823 63.12393812 311.08774471 63.09456348 C315.43595026 63.07895365 319.78397726 63.05780169 324.13208008 63.02368164 C328.33367717 62.99092017 332.53510327 62.97311182 336.73681831 62.96536827 C338.33428193 62.95985473 339.93173693 62.94908858 341.52912712 62.93280983 C352.33043372 62.82718224 362.25789624 62.89868547 371 70.25 C375.71412244 76.56104739 377.14900455 81.54700495 377.14717102 89.40440369 C377.15084771 90.24535648 377.1545244 91.08630928 377.1583125 91.9527455 C377.16935782 94.78092174 377.17319457 97.60906126 377.17700195 100.43725586 C377.18326579 102.46074033 377.18991252 104.48422364 377.19691467 106.50770569 C377.21432775 112.01174931 377.22487655 117.51578425 377.2331202 123.01984859 C377.23826804 126.45602428 377.24434376 129.89219726 377.25063133 133.32837105 C377.26968135 144.07222648 377.28391481 154.81607502 377.2922433 165.55994409 C377.30202632 177.97599568 377.32837444 190.3918695 377.36874419 202.80785841 C377.39885649 212.39686327 377.41370739 221.98581702 377.41702431 231.57486826 C377.41937971 237.30613084 377.42840417 243.03720344 377.45348549 248.76841545 C377.4766868 254.15695406 377.48103153 259.54517654 377.47072411 264.93375206 C377.47022675 266.91391804 377.47660558 268.89409917 377.49028015 270.87421799 C377.5078769 273.57273308 377.50095375 276.27009841 377.48774719 278.96861267 C377.50420106 280.15036911 377.50420106 280.15036911 377.52098733 281.35599941 C377.47917761 284.88213915 377.26686268 286.8854554 375.1570158 289.76758671 C373 291.25 373 291.25 370 291.25 C370.02279401 294.35579494 370.10007819 297.45790484 370.1875 300.5625 C370.19330078 301.44357422 370.19910156 302.32464844 370.20507812 303.23242188 C370.28855337 305.67175397 370.41193015 307.88000423 371 310.25 C373.33309215 312.38618264 373.33309215 312.38618264 376 313.25 C377.77598636 315.02598636 377.15533828 317.61481943 377.17700195 320.01977539 C377.18983719 321.2551857 377.20267242 322.49059601 377.21589661 323.76344299 C377.22406761 325.12484334 377.23151065 326.48624822 377.23828125 327.84765625 C377.24235678 328.5318054 377.2464323 329.21595455 377.25063133 329.92083549 C377.27152333 333.54805069 377.28580644 337.17522781 377.29516602 340.80249023 C377.30618441 344.53600582 377.34052092 348.26891775 377.38033772 352.00222111 C377.40660213 354.88230937 377.4148669 357.76225669 377.41844749 360.64245415 C377.42329512 362.01747104 377.43485681 363.39248242 377.45348549 364.76738167 C377.57482401 374.32370987 376.98310474 380.5133349 370.6875 388 C363.72903438 393.82569215 357.73592396 395.37907759 348.73120117 395.36352539 C348.01846039 395.36367142 347.3057196 395.36381744 346.57138062 395.3639679 C344.2285451 395.36327432 341.88579028 395.355508 339.54296875 395.34765625 C337.91343733 395.3457901 336.28390535 395.34436713 334.65437317 395.34336853 C330.37511636 395.33955888 326.09589374 395.32974188 321.81665039 395.31866455 C317.44613101 395.30841702 313.07560607 395.30386376 308.70507812 395.29882812 C300.1367031 395.28811818 291.56835581 395.27106045 283 395.25 C283.0314209 396.94358643 283.0314209 396.94358643 283.06347656 398.67138672 C283.13644468 402.90188676 283.18200412 407.13233237 283.21972656 411.36328125 C283.23971364 413.18661892 283.26691286 415.00989356 283.30175781 416.83300781 C283.51823005 428.45884053 283.41865108 437.49206306 276.875 447.5 C266.74346521 457.19103328 256.18307934 458.56118481 242.70703125 458.5859375 C241.44283859 458.5925943 240.17864594 458.5992511 238.87614441 458.60610962 C236.2142416 458.6162015 233.55274797 458.62179678 230.89086914 458.62060547 C227.48788585 458.62040137 224.08572919 458.64782432 220.68294239 458.68214989 C217.42016983 458.7097621 214.15740481 458.70856678 210.89453125 458.7109375 C209.67675491 458.72530853 208.45897858 458.73967957 207.20429993 458.75448608 C206.0692955 458.74833282 204.93429108 458.74217957 203.76489258 458.73583984 C202.76976151 458.73868988 201.77463043 458.74153992 200.74934387 458.74447632 C197.24139763 458.11356348 195.5560378 456.68097439 193 454.25 C191.72496438 451.61492639 191.92605355 450.5256186 192.6875 447.6875 C194.19217639 444.89310099 195.28954815 443.87595278 198 442.25 C200.73193359 441.87145996 200.73193359 441.87145996 203.8984375 441.86523438 C205.08646973 441.85512329 206.27450195 441.84501221 207.49853516 441.83459473 C209.41738525 441.83912659 209.41738525 441.83912659 211.375 441.84375 C213.38646721 441.82719497 215.39793445 441.81062367 217.40939331 441.79308319 C221.65444886 441.760883 225.89962182 441.75520014 230.14477539 441.74468994 C233.64172448 441.73500835 237.13841928 441.71958029 240.63525391 441.68908691 C243.2572473 441.66750705 245.87938996 441.65921257 248.50146484 441.66540527 C249.68949707 441.65529419 250.8775293 441.64518311 252.1015625 441.63476562 C253.14650879 441.63271118 254.19145508 441.63065674 255.26806641 441.62854004 C258.37042756 441.19867311 259.64089101 440.23248449 262 438.25 C262.66 438.25 263.32 438.25 264 438.25 C264.309375 437.46625 264.61875 436.6825 264.9375 435.875 C266 433.25 266 433.25 267 431.25 C267.09969686 429.33756895 267.13390146 427.42161189 267.1386652 425.50658989 C267.14413964 424.27645255 267.14961409 423.04631521 267.15525442 421.77890098 C267.15633076 420.40133729 267.15731543 419.02377353 267.15821838 417.64620972 C267.16278132 416.19255248 267.16778094 414.73889656 267.17318195 413.2852422 C267.18680307 409.2764098 267.19419287 405.2675859 267.20060861 401.25873637 C267.20859515 396.94106592 267.22229891 392.62341328 267.23532104 388.30575562 C267.25710863 380.82036775 267.27524475 373.3349781 267.29092598 365.84957504 C267.31360386 355.02683528 267.34174955 344.20411522 267.37124526 333.38139214 C267.41894674 315.82376881 267.46220398 298.26613744 267.50268555 280.70849609 C267.54202748 263.64924493 267.58346196 246.59000096 267.62768555 229.53076172 C267.63180981 227.93832411 267.63180981 227.93832411 267.63601738 226.31371605 C267.65753555 218.01155479 267.6791754 209.70939385 267.70085371 201.407233 C267.80714668 160.68816981 267.90282334 119.96908794 268 79.25 C170.98 79.25 73.96 79.25 -26 79.25 C-25.90957742 141.69046365 -25.90957742 141.69046365 -25.79101562 204.13085938 C-25.77296477 212.54256137 -25.7551007 220.95426374 -25.73754883 229.3659668 C-25.73534114 230.42027317 -25.73313345 231.47457954 -25.73085886 232.56083459 C-25.69546477 249.59379523 -25.67062002 266.62675582 -25.64965298 283.65973964 C-25.62790967 301.13317502 -25.59487327 318.60656258 -25.55129844 336.07995731 C-25.52475638 346.86665201 -25.50707983 357.65328709 -25.50065396 368.44001285 C-25.49540789 375.83146688 -25.47921725 383.22284581 -25.45433434 390.61425962 C-25.44029253 394.88215227 -25.4311585 399.14991041 -25.43499184 403.41782761 C-25.43839328 407.32321392 -25.42808828 411.22831255 -25.40676448 415.13363991 C-25.40148089 416.54824531 -25.4012781 417.96288047 -25.40660437 419.37748571 C-25.41309848 421.29747543 -25.39944889 423.21750188 -25.38476086 425.1374464 C-25.38286225 426.20484025 -25.38096365 427.2722341 -25.37900752 428.37197322 C-24.94684532 431.65363469 -23.80167085 433.51204906 -22 436.25 C-22 436.91 -22 437.57 -22 438.25 C-21.38125 438.559375 -20.7625 438.86875 -20.125 439.1875 C-18.75 439.875 -17.375 440.5625 -16 441.25 C-13.59303251 441.34664267 -11.21496662 441.3828584 -8.80778503 441.37457275 C-7.68345305 441.37668798 -7.68345305 441.37668798 -6.53640729 441.37884593 C-4.01147625 441.38251128 -1.48660093 441.37915711 1.03833008 441.37597656 C2.84329777 441.37737075 4.64826513 441.37926968 6.45323181 441.38163757 C10.34705175 441.38614092 14.24086113 441.3879908 18.13468361 441.38809967 C24.29014902 441.38923788 30.44555416 441.40206044 36.60099792 441.41766357 C37.63889412 441.42023643 38.67679032 441.42280928 39.74613792 441.4254601 C41.86881324 441.43072685 43.99148852 441.43601233 46.11416376 441.44131613 C60.44924667 441.47645705 74.78425523 441.5029768 89.11938477 441.50048828 C98.78262482 441.49890094 108.44566007 441.51490675 118.10883445 441.55119491 C123.22480503 441.56967855 128.34043359 441.57897692 133.45643044 441.56671906 C138.26891263 441.55530058 143.08078217 441.56694323 147.89318275 441.59635353 C149.66004833 441.60300607 151.42696978 441.60110687 153.19381332 441.59005547 C155.60555609 441.5762213 158.01521977 441.59303196 160.42683411 441.61749268 C161.12684015 441.6061373 161.82684619 441.59478192 162.54806453 441.58308244 C166.33091343 441.65774143 167.93121521 442.19592347 170.94207287 444.56296921 C173 447.25 173 447.25 173.5 450.875 C173 454.25 173 454.25 171.6875 456.125 C167.88460202 458.66026532 164.26695744 458.38044694 159.83506775 458.39044189 C159.10043716 458.39341302 158.36580656 458.39638414 157.60891443 458.3994453 C155.14022512 458.40813651 152.67158427 458.40964092 150.20288086 458.41113281 C148.43543392 458.41576084 146.66798798 458.42078548 144.90054321 458.42617798 C140.0923519 458.43930909 135.28417457 458.44574882 130.47596812 458.45018864 C127.47058026 458.45311941 124.4651962 458.45722432 121.45981026 458.46169281 C112.05291605 458.47537224 102.64603057 458.4850356 93.2391271 458.4888947 C82.38811498 458.49337077 71.53722913 458.51089587 60.6862554 458.5398953 C52.29544726 458.56153929 43.90467457 458.5716005 35.51383883 458.57293582 C30.50453214 458.57398229 25.49534406 458.57985596 20.48606682 458.59775543 C15.76893437 458.61428214 11.05200909 458.61636933 6.33485794 458.60761642 C4.60877616 458.6068484 2.88268303 458.61115772 1.15662956 458.62107468 C-11.54839974 458.68975536 -23.03709523 458.05088337 -33 449.25 C-39.27517461 441.75203976 -41.31610865 434.75325386 -41.1953125 425.1328125 C-41.1924826 424.27565643 -41.18965271 423.41850037 -41.18673706 422.53536987 C-41.17559999 419.81510068 -41.1505076 417.09516859 -41.125 414.375 C-41.11496182 412.52344228 -41.10583744 410.67187936 -41.09765625 408.8203125 C-41.07568188 404.2967464 -41.041197 399.77343023 -41 395.25 C-42.34184608 395.25999275 -42.34184608 395.25999275 -43.71080017 395.27018738 C-52.16975064 395.33047115 -60.62862823 395.37606188 -69.08774471 395.40543652 C-73.43595026 395.42104635 -77.78397726 395.44219831 -82.13208008 395.47631836 C-86.33367717 395.50907983 -90.53510327 395.52688818 -94.73681831 395.53463173 C-96.33428193 395.54014527 -97.93173693 395.55091142 -99.52912712 395.56719017 C-110.33043372 395.67281776 -120.25789624 395.60131453 -129 388.25 C-133.46772289 382.26882085 -135.12178887 377.67697131 -135.15390015 370.15858459 C-135.1582824 369.43197126 -135.16266465 368.70535793 -135.1671797 367.95672601 C-135.18056278 365.51550027 -135.18674536 363.07431062 -135.19287109 360.63305664 C-135.20077221 358.88543027 -135.20904117 357.13780552 -135.21765137 355.3901825 C-135.24386208 349.64685625 -135.25917428 343.90352273 -135.2734375 338.16015625 C-135.27879685 336.18434583 -135.28417436 334.20853546 -135.28956985 332.23272514 C-135.3111938 324.01712329 -135.32993266 315.80152341 -135.34119225 307.58590031 C-135.35744728 295.80234406 -135.39066824 284.0191167 -135.44759309 272.23568445 C-135.48623941 263.95452585 -135.50581841 255.67345543 -135.51111281 247.39220899 C-135.51477248 242.44335615 -135.52685951 237.49485417 -135.55921555 232.54609871 C-135.58920426 227.89290532 -135.59564111 223.24027682 -135.58383179 218.58700752 C-135.5836103 216.87774046 -135.59197694 215.16844787 -135.60948563 213.45927048 C-135.63206775 211.12829356 -135.623936 208.79938436 -135.60800171 206.46839905 C-135.61131186 205.16334947 -135.614622 203.85829988 -135.61803246 202.51370335 C-135 199.25 -135 199.25 -132.58699989 196.79885006 C-130 195.25 -130 195.25 -128 195.25 C-128 188.98 -128 182.71 -128 176.25 C-129.65 175.92 -131.3 175.59 -133 175.25 C-135.5785038 171.3822443 -135.29544076 168.16905995 -135.29052734 163.68286133 C-135.29724457 162.80769867 -135.30396179 161.93253601 -135.31088257 161.03085327 C-135.3299133 158.13118847 -135.33378985 155.23175467 -135.3359375 152.33203125 C-135.34236382 150.31524053 -135.34909206 148.29845074 -135.35610962 146.28166199 C-135.36809644 142.04899944 -135.37178919 137.81641857 -135.37060547 133.58374023 C-135.37040264 128.17107436 -135.39766119 122.75893568 -135.43214989 117.34639454 C-135.45444015 113.17782712 -135.45844229 109.0093859 -135.45738602 104.840765 C-135.45974044 102.84614947 -135.46855502 100.85153038 -135.48405075 98.85697365 C-135.50374578 96.05898362 -135.49785805 93.26212127 -135.48583984 90.46411133 C-135.49707886 89.64666946 -135.50831787 88.8292276 -135.51989746 87.98701477 C-135.44329621 80.93455015 -133.21028832 75.87845098 -128.6875 70.5 C-121.72903438 64.67430785 -115.73592396 63.12092241 -106.73120117 63.13647461 C-106.01846039 63.13632858 -105.3057196 63.13618256 -104.57138062 63.1360321 C-102.2285451 63.13672568 -99.88579028 63.144492 -97.54296875 63.15234375 C-95.91343733 63.1542099 -94.28390535 63.15563287 -92.65437317 63.15663147 C-88.37511636 63.16044112 -84.09589374 63.17025812 -79.81665039 63.18133545 C-75.44613101 63.19158298 -71.07560607 63.19613624 -66.70507812 63.20117188 C-58.1367031 63.21188182 -49.56835581 63.22893955 -41 63.25 C-41.0314209 61.55641357 -41.0314209 61.55641357 -41.06347656 59.82861328 C-41.13644468 55.59811324 -41.18200412 51.36766763 -41.21972656 47.13671875 C-41.23971364 45.31338108 -41.26691286 43.49010644 -41.30175781 41.66699219 C-41.73665591 18.31040612 -41.73665591 18.31040612 -32.97265625 8.8515625 C-22.8407146 0.62562968 -12.46295774 0.05055967 0 0 Z "
        fill="#010202" transform="translate(135,26.75)" />
    <path
        d="M0 0 C26.07 0 52.14 0 79 0 C79 82.17 79 164.34 79 249 C54.58 249 30.16 249 5 249 C-0.62487199 242.25015361 -0.62487199 242.25015361 -0.61904907 235.73091125 C-0.62528805 235.02144684 -0.63152703 234.31198243 -0.63795507 233.5810191 C-0.65281937 231.21530178 -0.63226774 228.85125104 -0.61181641 226.4855957 C-0.61535894 224.78516049 -0.62113808 223.08472868 -0.62898254 221.38430786 C-0.64114817 217.72885192 -0.63771053 214.07386292 -0.62215042 210.41842079 C-0.5978311 204.64113325 -0.60932856 198.86425461 -0.62582397 193.08695984 C-0.65030627 182.91346541 -0.64451934 172.74015723 -0.63201904 162.56665039 C-0.61342156 147.2380616 -0.61823104 131.90950737 -0.65205324 116.58094472 C-0.66358677 110.8346934 -0.65910262 105.08873902 -0.64203286 99.34250414 C-0.63415355 95.77397719 -0.63837438 92.20553733 -0.64574242 88.63701248 C-0.64655484 86.97894019 -0.64217552 85.32085626 -0.63229942 83.66281319 C-0.61949443 81.40433435 -0.62492341 79.14661361 -0.63491821 76.88813782 C-0.63303308 75.62293462 -0.63114796 74.35773142 -0.6292057 73.05418873 C-0.75667049 70.04975949 -0.75667049 70.04975949 -2.27281761 68.13199139 C-4.2408396 66.70679037 -4.2408396 66.70679037 -8 66 C-8 59.4 -8 52.8 -8 46 C-6.02 45.01 -4.04 44.02 -2 43 C-0.2827468 39.56549361 -0.75483538 35.61958239 -0.68359375 31.8359375 C-0.66494263 31.03196533 -0.6462915 30.22799316 -0.6270752 29.3996582 C-0.55868985 26.39155239 -0.49859713 23.38326267 -0.4375 20.375 C-0.293125 13.65125 -0.14875 6.9275 0 0 Z "
        fill="#CAC3CB" transform="translate(15,157)" />
    <path
        d="M0 0 C26.07 0 52.14 0 79 0 C79.02578125 11.28703125 79.0515625 22.5740625 79.078125 34.203125 C79.10328173 41.33986127 79.12944166 48.47657032 79.16015625 55.61328125 C79.20875485 66.94905428 79.25317532 78.2847367 79.27099609 89.62060547 C79.28399245 97.87565663 79.31090532 106.13052425 79.35461307 114.38547206 C79.37727344 118.7574756 79.39290795 123.1292524 79.39188385 127.50131989 C79.39113992 131.61527146 79.40898226 135.72872094 79.44116783 139.84254265 C79.44969649 141.35341796 79.45139669 142.86434939 79.44580269 144.37523842 C79.43918519 146.43696726 79.45702508 148.49708796 79.48101807 150.55865479 C79.48470524 151.7127396 79.48839241 152.86682442 79.49219131 154.0558815 C80.11165355 157.64733292 81.14585545 158.80162408 84 161 C84.99 161.33 85.98 161.66 87 162 C87 168.6 87 175.2 87 182 C85.35 182.66 83.7 183.32 82 184 C79.36768552 186.63231448 79.74920026 187.80118377 79.74462891 191.47192383 C79.73766998 192.61683792 79.73071106 193.76175201 79.72354126 194.94136047 C79.72503677 196.80536751 79.72503677 196.80536751 79.7265625 198.70703125 C79.70627129 201.32096781 79.68542046 203.93490007 79.6640625 206.54882812 C79.63931797 210.68334726 79.62414929 214.81780369 79.61914062 218.95239258 C79.61315504 222.93333606 79.57586613 226.9137519 79.5390625 230.89453125 C79.54410797 232.13112991 79.54915344 233.36772858 79.55435181 234.64179993 C79.54108856 235.7961705 79.52782532 236.95054108 79.51416016 238.13989258 C79.51131012 239.15312088 79.50846008 240.16634918 79.50552368 241.21028137 C78.865663 244.74133504 77.45089785 246.42803861 75 249 C72.03592441 250.48203779 69.37920835 250.11920826 66.07177734 250.11352539 C65.00332329 250.11374443 65.00332329 250.11374443 63.9132843 250.1139679 C61.55413794 250.11327011 59.19507011 250.10548397 56.8359375 250.09765625 C55.20211836 250.0957916 53.56829866 250.09436792 51.93447876 250.09336853 C47.6305182 250.08954709 43.32659129 250.07971998 39.02264404 250.06866455 C33.86062312 250.05664574 28.69859096 250.05204641 23.53656006 250.04621124 C15.69101662 250.03650804 7.84554705 250.01734888 0 250 C0 231.85 0 213.7 0 195 C24.75 194.75 24.75 194.75 32.54980469 194.70214844 C34.59051783 194.67278339 36.63121071 194.64195845 38.671875 194.609375 C39.73100098 194.60824707 40.79012695 194.60711914 41.88134766 194.60595703 C42.89600098 194.5861377 43.9106543 194.56631836 44.95605469 194.54589844 C45.83541687 194.53701599 46.71477905 194.52813354 47.62078857 194.51898193 C50.80668772 193.82403567 52.0364399 192.56120565 54 190 C54.08916154 186.37350049 54.08916154 186.37350049 53 183 C49.76496746 180.84331164 48.81178264 180.73770956 45.06958008 180.68115234 C44.05480591 180.66109131 43.04003174 180.64103027 41.99450684 180.62036133 C40.93026489 180.60900146 39.86602295 180.5976416 38.76953125 180.5859375 C37.29969788 180.55947144 37.29969788 180.55947144 35.8001709 180.5324707 C32.13778124 180.46937727 28.47511582 180.42320885 24.8125 180.375 C16.624375 180.25125 8.43625 180.1275 0 180 C0 161.85 0 143.7 0 125 C25.3125 124.75 25.3125 124.75 33.2980957 124.70214844 C35.38234686 124.67278945 37.46657812 124.64196561 39.55078125 124.609375 C41.17953186 124.60768311 41.17953186 124.60768311 42.84118652 124.60595703 C44.39380188 124.57622803 44.39380188 124.57622803 45.9777832 124.54589844 C47.32680473 124.53257477 47.32680473 124.53257477 48.70307922 124.51898193 C51.13844682 124.18257072 51.13844682 124.18257072 52.8177948 122.19244385 C54.62296112 118.84469525 53.99366793 116.57720454 53 113 C50.0576907 110.99648419 47.55319691 110.73535872 44.04785156 110.68115234 C43.05350098 110.66109131 42.05915039 110.64103027 41.03466797 110.62036133 C39.4783667 110.60332153 39.4783667 110.60332153 37.890625 110.5859375 C36.93140137 110.56829346 35.97217773 110.55064941 34.98388672 110.5324707 C31.40609395 110.4694794 27.82802206 110.42324043 24.25 110.375 C16.2475 110.25125 8.245 110.1275 0 110 C0 92.51 0 75.02 0 57 C24.75 56.75 24.75 56.75 32.54980469 56.70214844 C34.59051783 56.67278339 36.63121071 56.64195845 38.671875 56.609375 C39.73100098 56.60824707 40.79012695 56.60711914 41.88134766 56.60595703 C43.40332764 56.57622803 43.40332764 56.57622803 44.95605469 56.54589844 C45.83541687 56.53701599 46.71477905 56.52813354 47.62078857 56.51898193 C50.80668772 55.82403567 52.0364399 54.56120565 54 52 C54.08916154 48.37350049 54.08916154 48.37350049 53 45 C49.76496746 42.84331164 48.81178264 42.73770956 45.06958008 42.68115234 C43.56836357 42.65134781 43.56836357 42.65134781 42.03681946 42.62094116 C40.95861435 42.60938995 39.88040924 42.59783875 38.76953125 42.5859375 C37.66397385 42.56657135 36.55841644 42.5472052 35.4193573 42.5272522 C31.88381699 42.46741164 28.34824421 42.4210527 24.8125 42.375 C22.41730341 42.33682438 20.0221206 42.2977729 17.62695312 42.2578125 C11.75137331 42.16005589 5.87594265 42.08052139 0 42 C0 28.14 0 14.28 0 0 Z "
        fill="#CAC3CB" transform="translate(418,156)" />
    <path
        d="M0 0 C3.24931927 -0.17455021 6.49743448 -0.28091753 9.75 -0.375 C11.13058594 -0.45041016 11.13058594 -0.45041016 12.5390625 -0.52734375 C15.15507806 -0.58421365 17.44437576 -0.57031011 20 0 C22.578125 2.9609375 22.578125 2.9609375 24 6 C25.80333052 7.80333052 28.27014365 7.12684194 30.67132008 7.13660604 C31.49240439 7.13485567 32.3134887 7.13310529 33.15945435 7.13130188 C34.02516646 7.13341759 34.89087858 7.13553331 35.7828244 7.13771313 C38.70695396 7.14374282 41.63104073 7.14271087 44.55517578 7.1418457 C46.64246189 7.1448753 48.72974734 7.14839619 50.81703186 7.15237427 C55.32419026 7.16028005 59.83134068 7.16541453 64.33850479 7.16866493 C71.46477954 7.17456149 78.59100398 7.19108966 85.71725464 7.21000671 C88.15450474 7.21634465 90.59175488 7.22267027 93.02900505 7.22898388 C94.86030232 7.2337326 94.86030232 7.2337326 96.7285955 7.23857725 C113.32686715 7.28069007 129.92511601 7.31362393 146.5234375 7.32592773 C157.70836405 7.33430413 168.8931668 7.3567819 180.07803142 7.3952834 C185.99997871 7.41506314 191.92174085 7.42744235 197.8437233 7.42244911 C203.41696673 7.41780752 208.98985943 7.43158173 214.56303215 7.45946121 C216.60802878 7.46638196 218.65306161 7.46649008 220.69805717 7.45926094 C223.49200373 7.45038242 226.28479131 7.46605053 229.0786438 7.48774719 C229.88634378 7.47930466 230.69404375 7.47086212 231.52621949 7.46216375 C237.13934114 7.5426568 240.47567717 8.59092371 245 12 C249 19 249 19 249 56 C151.98 56 54.96 56 -45 56 C-45 19 -45 19 -41 12 C-36.67757113 8.3016551 -33.62095913 7.50478596 -27.9921875 7.49609375 C-26.67605469 7.47740234 -25.35992187 7.45871094 -24.00390625 7.43945312 C-22.6276062 7.43699954 -21.25130177 7.43636631 -19.875 7.4375 C-17.16320232 7.432738 -14.45401088 7.40702075 -11.7421875 7.37109375 C-10.5444873 7.37036865 -9.34678711 7.36964355 -8.11279297 7.36889648 C-4.71739309 6.96650831 -3.34008997 6.46228152 -1 4 C-0.20376178 1.90584196 -0.20376178 1.90584196 0 0 Z "
        fill="#0CB4D5" transform="translate(154,35)" />
    <path
        d="M0 0 C9.24 0 18.48 0 28 0 C28.09040144 44.72355017 28.16202545 89.44707844 28.20426132 134.17070184 C28.20926422 139.44916922 28.2144415 144.72763641 28.21972656 150.00610352 C28.2207758 151.05696374 28.22182505 152.10782397 28.22290608 153.19052844 C28.2403175 170.21219231 28.27185926 187.23380221 28.30861118 204.25543404 C28.34600008 221.7175461 28.36823151 239.17962987 28.37635398 256.64178032 C28.381846 267.41931334 28.39920023 278.19669384 28.43166587 288.97417992 C28.45278842 296.36188923 28.45920516 303.74951954 28.45400551 311.13725687 C28.45144021 315.40141482 28.45540864 319.66530598 28.4768219 323.92941666 C28.49628516 327.83370038 28.4972717 331.73753787 28.48359558 335.64184212 C28.48190528 337.05381018 28.48698168 338.46580606 28.49953273 339.87771935 C28.60943261 353.0046727 28.60943261 353.0046727 24 359 C20.2401922 362.67678365 17.24567187 363.24685108 12.1640625 363.390625 C9.98403117 363.36420038 7.80416985 363.31673547 5.625 363.25 C4.50738281 363.23195313 3.38976562 363.21390625 2.23828125 363.1953125 C-0.5087003 363.14835555 -3.25390047 363.08269468 -6 363 C-5.72285156 362.45730469 -5.44570313 361.91460937 -5.16015625 361.35546875 C-4.79792969 360.64003906 -4.43570312 359.92460937 -4.0625 359.1875 C-3.52302734 358.12595703 -3.52302734 358.12595703 -2.97265625 357.04296875 C-1.29357244 353.51621842 -0.86887555 350.75270376 -0.84178162 346.89375305 C-0.8319928 345.8378598 -0.82220398 344.78196655 -0.81211853 343.69407654 C-0.80636307 342.53602005 -0.8006076 341.37796356 -0.79467773 340.18481445 C-0.78477814 338.96518005 -0.77487854 337.74554565 -0.76467896 336.48895264 C-0.73848479 333.14420085 -0.71662539 329.79947301 -0.69667697 326.45468163 C-0.6748107 322.95927883 -0.64742515 319.46391943 -0.62062073 315.96855164 C-0.57070251 309.349431 -0.52576045 302.73028626 -0.48259836 296.1111185 C-0.43321855 288.5754926 -0.37830318 281.03991025 -0.32291877 273.50432646 C-0.2091121 258.00292454 -0.10227019 242.50148258 0 227 C-0.66 226.67 -1.32 226.34 -2 226 C-1.814375 224.88625 -1.62875 223.7725 -1.4375 222.625 C-0.68319343 219.17431139 -0.68319343 219.17431139 -2 217 C-1.34 217 -0.68 217 0 217 C-0.10752977 209.61984341 -0.22016894 202.23978349 -0.33933926 194.85980511 C-0.39451353 191.43301772 -0.44792466 188.00622172 -0.49731445 184.5793457 C-0.55416665 180.64004749 -0.61867312 176.7008926 -0.68359375 172.76171875 C-0.70030624 171.53039719 -0.71701874 170.29907562 -0.73423767 169.03044128 C-0.75418289 167.88948502 -0.77412811 166.74852875 -0.79467773 165.57299805 C-0.81022202 164.567061 -0.8257663 163.56112396 -0.84178162 162.52470398 C-0.8996397 159.87395947 -0.8996397 159.87395947 -2 157 C-1.34 157 -0.68 157 0 157 C0 130.93 0 104.86 0 78 C-0.66 77.67 -1.32 77.34 -2 77 C-1.835 75.906875 -1.67 74.81375 -1.5 73.6875 C-0.93281816 70.12474127 -0.93281816 70.12474127 -1 67 C-0.97171755 64.83631288 -0.94067785 62.67266146 -0.90820312 60.5090332 C-0.89844955 59.8551059 -0.88869598 59.20117859 -0.87864685 58.5274353 C-0.84639348 56.36854738 -0.81382308 54.20966437 -0.78125 52.05078125 C-0.75881023 50.55291269 -0.73639025 49.05504383 -0.71398926 47.55717468 C-0.65500329 43.61656399 -0.59574843 39.67595738 -0.53643799 35.73535156 C-0.47595282 31.7135441 -0.4157214 27.69173283 -0.35546875 23.66992188 C-0.2372278 15.77994417 -0.11867941 7.88997112 0 0 Z "
        fill="#E1DDE1" transform="translate(375,106)" />
    <path
        d="M0 0 C1.30349899 0.01110306 2.60699799 0.02220612 3.94999695 0.03364563 C4.6724913 0.0329155 5.39498566 0.03218536 6.13937378 0.03143311 C8.51542072 0.03490257 10.88948029 0.07372845 13.2651825 0.11299133 C14.91712371 0.12232186 16.5690788 0.12943684 18.22103882 0.13442993 C22.55985504 0.15348117 26.8978286 0.20256492 31.23631287 0.25794983 C36.44662818 0.31819779 41.65722595 0.34106757 46.86779022 0.37021637 C54.77557919 0.41863209 62.68152082 0.5144576 70.58940125 0.60127258 C70.58940125 12.15127258 70.58940125 23.70127258 70.58940125 35.60127258 C44.51940125 35.60127258 18.44940125 35.60127258 -8.41059875 35.60127258 C-8.41059875 1.48274916 -8.41059875 1.48274916 0 0 Z "
        fill="#0CB4D6" transform="translate(23.410598754882813,105.39872741699219)" />
    <path
        d="M0 0 C17.97765965 -0.20054405 17.97765965 -0.20054405 25.65625 -0.24414062 C30.8905581 -0.27400044 36.1244278 -0.30927766 41.35839844 -0.37719727 C45.57946441 -0.43162831 49.80006013 -0.46144371 54.02145004 -0.47438622 C55.62981441 -0.48360633 57.23815379 -0.5016116 58.84631729 -0.52865028 C61.10399707 -0.56509091 63.359748 -0.5699395 65.61767578 -0.56762695 C66.90118927 -0.57873001 68.18470276 -0.58983307 69.5071106 -0.60127258 C73 0 73 0 79 5 C79 14.9 79 24.8 79 35 C52.93 35 26.86 35 0 35 C0 23.45 0 11.9 0 0 Z "
        fill="#0CB4D6" transform="translate(418,106)" />
    <path
        d="M0 0 C1.30109207 -0.01134979 2.60218414 -0.02269958 3.94270325 -0.03439331 C5.38787903 -0.03174986 6.83305425 -0.02877861 8.27822876 -0.0255127 C9.79763922 -0.03285075 11.31704409 -0.0414362 12.83644104 -0.05117798 C16.96668187 -0.07343242 21.09672342 -0.07632266 25.22701597 -0.07443047 C28.67386358 -0.07431093 32.12066871 -0.08286835 35.56750453 -0.09120798 C43.69946084 -0.11045677 51.8313145 -0.11332076 59.96328735 -0.10656738 C68.35390471 -0.0999274 76.74408237 -0.12278562 85.13461053 -0.15988111 C92.33641388 -0.19056647 99.53807572 -0.20193936 106.73994315 -0.1980443 C111.04215008 -0.19597532 115.34401504 -0.20147845 119.64616013 -0.22593689 C123.6928776 -0.24818211 127.73888007 -0.2463454 131.78560066 -0.22600937 C133.27028647 -0.22259513 134.75502019 -0.22770637 136.23964119 -0.24199295 C138.26735156 -0.26015815 140.29528091 -0.24444401 142.32299805 -0.22705078 C143.45751593 -0.22776329 144.59203381 -0.2284758 145.76093102 -0.2292099 C149.74537574 0.59151128 151.25332082 2.28637689 153.78848267 5.39440918 C154.41348267 7.89440918 154.41348267 7.89440918 153.78848267 10.39440918 C151.26106694 13.48729333 149.7473616 15.19372311 145.78213501 16.02361488 C144.65758911 16.02550001 143.53304321 16.02738514 142.37442017 16.02932739 C141.07899292 16.04342651 139.78356567 16.05752563 138.44888306 16.072052 C137.02041275 16.06233126 135.59194591 16.05209046 134.16348267 16.04138184 C132.65362494 16.04815973 131.14377548 16.05706384 129.63394165 16.06793213 C125.53878482 16.09071212 121.44425832 16.08189487 117.34909058 16.0660367 C113.06194368 16.05337082 108.77485045 16.06511972 104.48770142 16.07296753 C97.28838417 16.08206211 90.08932346 16.0700813 82.89004517 16.04626465 C74.56865379 16.01905359 66.24787494 16.0278679 57.92649841 16.05539668 C50.77982849 16.07809229 43.63334288 16.08128566 36.48664856 16.06820333 C32.2191565 16.06041125 27.95195228 16.05936037 23.68447876 16.07588577 C19.67215324 16.09033805 15.6606168 16.08029594 11.64837646 16.05141449 C10.17660838 16.04480758 8.70477379 16.04669475 7.23303223 16.05772781 C5.22289412 16.07140681 3.21261076 16.05120447 1.20254517 16.02932739 C0.07799927 16.02744226 -1.04654663 16.02555714 -2.20516968 16.02361488 C-6.19848899 15.18784352 -7.72978837 13.57102829 -10.21151733 10.39440918 C-10.21151733 6.92978732 -10.04358295 4.58927 -8.03723717 1.70812225 C-5.36106802 -0.21753925 -3.27574983 0.01077326 0 0 Z "
        fill="#040404" transform="translate(221.21151733398438,260.6055908203125)" />
    <path
        d="M0 0 C1.28708359 -0.00701431 2.57416718 -0.01402863 3.9002533 -0.02125549 C5.32449497 -0.01382796 6.74873508 -0.00609682 8.17297363 0.00190735 C9.67444613 -0.0005209 11.17591701 -0.00424055 12.67738342 -0.00915527 C16.75381771 -0.01856339 20.83001185 -0.00913958 24.90642738 0.00417686 C29.1713426 0.01549036 33.43624597 0.01138392 37.70117188 0.00942993 C44.86352463 0.00854692 52.02578274 0.01962874 59.18811035 0.03804016 C67.47013609 0.0592079 75.75202318 0.0627177 84.03407049 0.0564782 C91.99934057 0.05078446 99.96456179 0.05643033 107.92982483 0.06765175 C111.32048953 0.07229759 114.71112436 0.07317165 118.10179138 0.0710659 C122.09416829 0.06918291 126.08640399 0.07728773 130.0787487 0.0931263 C131.54449314 0.09737051 133.01025189 0.09821878 134.47599983 0.0954361 C136.47562422 0.09221568 138.47525682 0.10251852 140.47485352 0.11352539 C141.59424568 0.11557826 142.71363785 0.11763113 143.86695099 0.11974621 C146.74694071 0.37506524 148.35773728 0.76651234 150.73742676 2.3742218 C152.73742676 5.3742218 152.73742676 5.3742218 152.54992676 8.8742218 C151.49532845 13.41710683 151.49532845 13.41710683 148.73742676 15.3742218 C145.94314671 15.75733185 145.94314671 15.75733185 142.48121643 15.76863098 C141.17026505 15.77998077 139.85931366 15.79133057 138.50863647 15.80302429 C137.05242859 15.80038085 135.59622127 15.7974096 134.14001465 15.79414368 C132.60912963 15.80148162 131.07825015 15.81006704 129.54737854 15.81980896 C125.38621447 15.84206268 121.2252482 15.84495374 117.06403279 15.84306145 C113.59223777 15.84294192 110.12048493 15.85149856 106.64870161 15.85983896 C98.45925401 15.87908687 90.26990836 15.88195179 82.08044434 15.87519836 C73.6273244 15.86855589 65.17464063 15.89142685 56.72160918 15.9285121 C49.46801738 15.95918239 42.2145661 15.97057206 34.96091074 15.96667528 C30.62687867 15.96460502 26.29318595 15.97012926 21.95921516 15.99456787 C17.88377512 16.01678874 13.80904546 16.01499678 9.73360252 15.99464035 C8.23720883 15.99122197 6.74076774 15.99635508 5.24443817 16.01062393 C3.20324006 16.02874671 1.161825 16.01309686 -0.87937927 15.99568176 C-2.02219329 15.99639427 -3.16500731 15.99710678 -4.34245205 15.99784088 C-7.26257324 15.3742218 -7.26257324 15.3742218 -9.66152287 13.06194305 C-11.26257324 10.3742218 -11.26257324 10.3742218 -11.26257324 6.7492218 C-9.44321154 0.60887606 -6.02125138 -0.00090229 0 0 Z "
        fill="#050505" transform="translate(222.2625732421875,319.6257781982422)" />
    <path
        d="M0 0 C1.28708359 -0.00701431 2.57416718 -0.01402863 3.9002533 -0.02125549 C5.32449497 -0.01382796 6.74873508 -0.00609682 8.17297363 0.00190735 C9.67444613 -0.0005209 11.17591701 -0.00424055 12.67738342 -0.00915527 C16.75381771 -0.01856339 20.83001185 -0.00913958 24.90642738 0.00417686 C29.1713426 0.01549036 33.43624597 0.01138392 37.70117188 0.00942993 C44.86352463 0.00854692 52.02578274 0.01962874 59.18811035 0.03804016 C67.47013609 0.0592079 75.75202318 0.0627177 84.03407049 0.0564782 C91.99934057 0.05078446 99.96456179 0.05643033 107.92982483 0.06765175 C111.32048953 0.07229759 114.71112436 0.07317165 118.10179138 0.0710659 C122.09416829 0.06918291 126.08640399 0.07728773 130.0787487 0.0931263 C131.54449314 0.09737051 133.01025189 0.09821878 134.47599983 0.0954361 C136.47562422 0.09221568 138.47525682 0.10251852 140.47485352 0.11352539 C141.59424568 0.11557826 142.71363785 0.11763113 143.86695099 0.11974621 C146.74694071 0.37506524 148.35773728 0.76651234 150.73742676 2.3742218 C152.73742676 5.3742218 152.73742676 5.3742218 152.61242676 8.8742218 C151.73742676 12.3742218 151.73742676 12.3742218 150.07889557 14.06832123 C147.03024925 15.76863385 144.88563491 15.75716773 141.39892578 15.76863098 C140.09501389 15.77998077 138.79110199 15.79133057 137.44767761 15.80302429 C136.0045465 15.80038103 134.56141597 15.79740981 133.11828613 15.79414368 C131.59710567 15.80148373 130.07593079 15.81006978 128.55476379 15.81980896 C124.42464924 15.84203815 120.29473411 15.84495503 116.16456795 15.84306145 C112.71757593 15.84294183 109.2706263 15.851502 105.82364607 15.85983896 C97.69315232 15.87907729 89.56276125 15.88195496 81.43225098 15.87519836 C73.04102504 15.86855359 64.65023824 15.89143825 56.25910139 15.9285121 C49.05644425 15.95918176 41.8539286 15.97057222 34.65120745 15.96667528 C30.34848843 15.9646053 26.04611125 15.9701253 21.74345398 15.99456787 C17.69836762 16.01678825 13.65399698 16.01499724 9.6089077 15.99464035 C8.12380101 15.99122211 6.63864657 15.99635451 5.15360451 16.01062393 C3.1277872 16.02874772 1.10175127 16.01309632 -0.92407227 15.99568176 C-2.62528355 15.99675053 -2.62528355 15.99675053 -4.36086273 15.99784088 C-7.26257324 15.3742218 -7.26257324 15.3742218 -9.65872955 13.06194305 C-11.26257324 10.3742218 -11.26257324 10.3742218 -11.26257324 6.7492218 C-9.44321154 0.60887606 -6.02125138 -0.00090229 0 0 Z "
        fill="#030303" transform="translate(222.2625732421875,170.6257781982422)" />
    <path
        d="M0 0 C1.0402533 -0.01134979 2.08050659 -0.02269958 3.15228271 -0.03439331 C4.8635585 -0.02999741 4.8635585 -0.02999741 6.60940552 -0.0255127 C7.81125488 -0.03398224 9.01310425 -0.04245178 10.25137329 -0.05117798 C13.54912899 -0.07058937 16.84631924 -0.07632354 20.14409399 -0.07443047 C22.89753953 -0.07431084 25.65093201 -0.08287172 28.4043628 -0.09120798 C34.90145724 -0.11045102 41.3984232 -0.11332298 47.89553833 -0.10656738 C54.59572143 -0.0999287 61.29535372 -0.1227812 67.99542511 -0.15988111 C73.74926389 -0.19058422 79.50292558 -0.20193744 85.25684464 -0.1980443 C88.69276964 -0.19597701 92.12826625 -0.20145147 95.56411362 -0.22593689 C99.39713845 -0.25234949 103.22944302 -0.23847134 107.06253052 -0.2208252 C108.19933258 -0.23408844 109.33613464 -0.24735168 110.50738525 -0.26101685 C118.19442494 -0.17863509 118.19442494 -0.17863509 122.17022705 2.77661133 C123.96536255 5.39440918 123.96536255 5.39440918 124.59036255 7.89440918 C123.6249417 11.75609256 122.16855874 13.00570979 118.96536255 15.39440918 C115.0455674 16.15203245 111.16811598 16.07722869 107.18606567 16.04138184 C105.99367783 16.05014343 104.80128998 16.05890503 103.57276917 16.06793213 C100.31009272 16.08614788 97.04843319 16.08190804 93.78577232 16.0660367 C90.367465 16.05335522 86.94922437 16.06512402 83.53091431 16.07296753 C77.79100391 16.08205765 72.05141545 16.07009331 66.31155396 16.04626465 C59.68058806 16.01905407 53.05039088 16.02786872 46.41944361 16.05539668 C40.7207312 16.07810531 35.02224988 16.08127942 29.32350683 16.06820333 C25.92230477 16.06041825 22.52146373 16.05934061 19.12028503 16.07588577 C15.32787953 16.08856995 11.53695452 16.0692474 7.74465942 16.04138184 C6.62035019 16.05150299 5.49604095 16.06162415 4.33766174 16.072052 C-3.23114024 15.9689062 -3.23114024 15.9689062 -7.27084351 13.08053589 C-9.03463745 10.39440918 -9.03463745 10.39440918 -9.03463745 6.76940918 C-7.42798573 1.34695963 -5.601743 0.02307583 0 0 Z "
        fill="#040404" transform="translate(220.03463745117188,394.6055908203125)" />
    <path
        d="M0 0 C0.90562683 -0.01134979 1.81125366 -0.02269958 2.74432373 -0.03439331 C3.73556244 -0.03146271 4.72680115 -0.0285321 5.74807739 -0.0255127 C6.79386963 -0.03398224 7.83966187 -0.04245178 8.91714478 -0.05117798 C12.38321 -0.07462671 15.84883329 -0.07556816 19.31497192 -0.07434082 C21.7200946 -0.08143814 24.12521557 -0.0891365 26.53033447 -0.09741211 C31.57594506 -0.11087542 36.62139915 -0.11241756 41.66702271 -0.10656738 C48.13605043 -0.10067277 54.60432728 -0.13124541 61.07320976 -0.17168427 C66.04203342 -0.19752339 71.01067546 -0.20044202 75.97955704 -0.1967926 C78.36461396 -0.1984877 80.74967893 -0.20816749 83.13467026 -0.22593689 C86.46985964 -0.24804831 89.80351867 -0.23846269 93.13870239 -0.2208252 C94.12589264 -0.23408844 95.11308289 -0.24735168 96.13018799 -0.26101685 C100.75172442 -0.20417081 102.90441977 -0.09640259 106.7210083 2.70629883 C108.57278442 5.39440918 108.57278442 5.39440918 108.63528442 9.01940918 C107.45631457 12.76437223 106.8464181 13.45320587 103.57278442 15.39440918 C101.42350101 15.77751923 101.42350101 15.77751923 99.0632782 15.78881836 C98.16469086 15.80016815 97.26610352 15.81151794 96.34028625 15.82321167 C94.87284721 15.81881577 94.87284721 15.81881577 93.37576294 15.81433105 C92.33957825 15.8228006 91.30339355 15.83127014 90.23580933 15.83999634 C86.80764522 15.86341192 83.37992873 15.8643874 79.95169067 15.86315918 C77.57041747 15.87025785 75.18914599 15.87795641 72.80787659 15.88623047 C67.81532029 15.8996857 62.82292215 15.90123924 57.83035278 15.89538574 C51.42973209 15.88948805 45.0298695 15.92008027 38.62939548 15.96050262 C33.71118576 15.98634035 28.79315952 15.98926058 23.87489128 15.98561096 C21.51495394 15.9873058 19.15500844 15.9969831 16.79513741 16.01475525 C13.49597418 16.03686687 10.19835795 16.02728149 6.89920044 16.00964355 C5.92293198 16.0229068 4.94666351 16.03617004 3.94081116 16.04983521 C-0.65729767 15.99265873 -2.77475295 15.87397334 -6.57261658 13.08251953 C-8.42721558 10.39440918 -8.42721558 10.39440918 -8.42721558 6.76940918 C-6.93666889 1.73881413 -5.27521663 0.02498797 0 0 Z "
        fill="#050505" transform="translate(219.42721557617188,230.6055908203125)" />
    <path
        d="M0 0 C2.94392657 2.06898336 5.48193864 4.43615571 8 7 C8.48210938 6.57847656 8.96421875 6.15695312 9.4609375 5.72265625 C10.09257813 5.17480469 10.72421875 4.62695312 11.375 4.0625 C12.31472656 3.24458984 12.31472656 3.24458984 13.2734375 2.41015625 C15.82065635 0.32973543 17.00842296 -0.00093588 20.375 -0.375 C24 0 24 0 26.4375 2.1875 C28.15980391 5.28764703 28.42320717 6.53074614 28 10 C26.46875 12.23828125 26.46875 12.23828125 24.5 14.3125 C23.8503125 15.00988281 23.200625 15.70726562 22.53125 16.42578125 C22.0259375 16.94527344 21.520625 17.46476562 21 18 C22.32051249 20.89520813 23.41454259 22.43382364 25.6875 24.8125 C28 28 28 28 28.0625 31.6875 C27 35 27 35 25.3125 36.9375 C22.09779685 38.41452577 20.51426683 38.68907193 17 38 C14.39636188 35.89403919 12.18391832 33.53282835 10 31 C7.49727006 32.17496584 5.77942805 33.19672633 3.6875 35.0625 C0.33394927 37.48017611 -1.87887724 38 -6 38 C-8.4375 36.5 -8.4375 36.5 -10 34 C-10.625 30.6875 -10.625 30.6875 -10 27 C-8.53812578 25.03161725 -6.99167805 23.36397529 -5.21484375 21.67578125 C-3.78348843 20.07448857 -3.78348843 20.07448857 -4.12109375 18.00390625 C-5.13210543 15.69879961 -6.34207205 14.39134257 -8.125 12.625 C-10.99189957 9.42122255 -10.99189957 9.42122255 -11.0625 5.75 C-8.81609575 -0.06422278 -6.26131086 -1.0264444 0 0 Z "
        fill="#050405" transform="translate(44,255)" />
    <path
        d="M0 0 C4.09010999 1.08970084 6.54337801 4.38868494 9.140625 7.5703125 C10.28688822 6.59164912 11.43262288 5.61236663 12.578125 4.6328125 C13.21621094 4.08753906 13.85429688 3.54226563 14.51171875 2.98046875 C15.41053649 2.20235555 16.29999028 1.41094722 17.140625 0.5703125 C20.07005042 0.28217229 22.29010867 0.08417793 25.140625 0.5703125 C27.703125 2.6953125 27.703125 2.6953125 29.140625 5.5703125 C29.36900326 9.07211255 28.76637528 10.83133122 26.5 13.5078125 C24.76222647 15.25971427 22.99046421 16.93781732 21.140625 18.5703125 C21.55054687 19.04082031 21.96046875 19.51132812 22.3828125 19.99609375 C22.92164063 20.61871094 23.46046875 21.24132812 24.015625 21.8828125 C24.54929688 22.49769531 25.08296875 23.11257813 25.6328125 23.74609375 C27.56745384 26.08670905 29.02090695 27.92041451 29.578125 30.9453125 C28.92266177 34.87809186 27.3262179 36.26584104 24.140625 38.5703125 C20.52367467 38.7676007 18.27369876 38.57658991 15.5 36.11328125 C13.953125 34.4453125 13.953125 34.4453125 12.59765625 32.75 C11.19785282 31.34371703 11.19785282 31.34371703 9.1796875 31.69921875 C6.85738083 32.69131528 5.50466075 33.87288265 3.703125 35.6328125 C1.44929634 37.63139988 0.43312452 38.50228936 -2.546875 39.1953125 C-5.80407833 38.31498728 -6.9620836 37.38111457 -8.859375 34.5703125 C-9.74601047 29.65351583 -9.74601047 29.65351583 -8.859375 26.5703125 C-6.81128188 23.87170842 -4.47846977 21.70834904 -1.859375 19.5703125 C-2.26929688 19.09980469 -2.67921875 18.62929688 -3.1015625 18.14453125 C-3.64039063 17.52191406 -4.17921875 16.89929688 -4.734375 16.2578125 C-5.26804687 15.64292969 -5.80171875 15.02804687 -6.3515625 14.39453125 C-9.8930947 10.10982778 -9.8930947 10.10982778 -9.671875 6.5703125 C-8.1623406 0.99664702 -5.91084266 -0.15324407 0 0 Z "
        fill="#030303" transform="translate(42.859375,324.4296875)" />
    <path
        d="M0 0 C1.875 1.0625 1.875 1.0625 3 3 C3.710348 6.374153 3.93353784 7.78994006 3 11 C1.05479274 13.70093145 -1.1097671 15.98853544 -3.4375 18.3671875 C-5.94993796 20.94856431 -8.19214139 23.6227826 -10.4375 26.4375 C-11.95649853 28.2931701 -13.47739692 30.14728634 -15 32 C-15.41427246 32.51369141 -15.82854492 33.02738281 -16.25537109 33.55664062 C-17.5242348 35.11757875 -18.82447502 36.65284117 -20.125 38.1875 C-20.89070313 39.10917969 -21.65640625 40.03085937 -22.4453125 40.98046875 C-25 43 -25 43 -28.49609375 43.5546875 C-32.62787133 42.90060454 -34.00421367 41.86102497 -36.9375 38.9375 C-40.04946606 35.89690931 -43.14398056 33.06448035 -46.5625 30.375 C-49.33291489 27.94244059 -50.00057582 26.99840965 -51.3125 23.375 C-51 20 -51 20 -49 17 C-46 15 -46 15 -42.75 14.6875 C-37.39530023 16.56164492 -33.97428401 20.04373995 -30 24 C-26.60550558 20.64778576 -23.327901 17.2229706 -20.125 13.6875 C-18.82949219 12.25857422 -18.82949219 12.25857422 -17.5078125 10.80078125 C-14.75298076 7.72412337 -12.04771226 4.60908415 -9.375 1.4609375 C-6.38379153 -1.7172215 -4.01693527 -0.98373925 0 0 Z "
        fill="#050405" transform="translate(188,381)" />
    <path
        d="M0 0 C2.375 1 2.375 1 4 3 C4.79508575 6.42498477 4.95772065 7.72960165 4 11 C1.81416862 14.41536154 -0.79703582 17.37032275 -3.52294922 20.36523438 C-5.73736059 22.81609364 -7.88315411 25.32496773 -10.03833008 27.82788086 C-12.19158157 30.3244978 -14.35696784 32.81005734 -16.54101562 35.27978516 C-18.01260919 36.96825285 -18.01260919 36.96825285 -19.25585938 38.74755859 C-21.478013 41.78987904 -22.84511301 42.94999711 -26.47265625 44.12109375 C-30.8438059 43.97103213 -32.20617291 42.9481279 -35.4375 40.0625 C-36.83935547 38.81533203 -36.83935547 38.81533203 -38.26953125 37.54296875 C-39.17058594 36.70378906 -40.07164062 35.86460937 -41 35 C-42.21236328 33.94232422 -42.21236328 33.94232422 -43.44921875 32.86328125 C-46.87205311 29.73541286 -48.76343961 27.70968117 -50.25 23.25 C-50 20 -50 20 -48.5 17.5625 C-44.85072045 15.28170028 -43.26951532 15.1736422 -39 16 C-36.20598534 17.88920631 -33.68279735 19.94158331 -31.13671875 22.15234375 C-29.13919325 24.03321721 -29.13919325 24.03321721 -27 25 C-26.75507813 24.43539063 -26.51015625 23.87078125 -26.2578125 23.2890625 C-24.773105 20.58707928 -22.98033665 18.62705 -20.875 16.375 C-16.89899164 12.05213469 -13.21779467 7.58102299 -9.62890625 2.93359375 C-6.76187248 -0.46971972 -4.30277963 -0.34422237 0 0 Z "
        fill="#040404" transform="translate(187,306)" />
    <path
        d="M0 0 C1.875 1.0625 1.875 1.0625 3 3 C3.710348 6.374153 3.93353784 7.78994006 3 11 C1.05479274 13.70093145 -1.1097671 15.98853544 -3.4375 18.3671875 C-5.94993796 20.94856431 -8.19214139 23.6227826 -10.4375 26.4375 C-11.95649853 28.2931701 -13.47739692 30.14728634 -15 32 C-15.41427246 32.51369141 -15.82854492 33.02738281 -16.25537109 33.55664062 C-17.5242348 35.11757875 -18.82447502 36.65284117 -20.125 38.1875 C-20.89070313 39.10917969 -21.65640625 40.03085937 -22.4453125 40.98046875 C-25 43 -25 43 -28.42578125 43.625 C-32.84986877 42.85138907 -35.04297693 40.92800791 -38.0625 37.8125 C-39.05208438 36.8385201 -40.04296815 35.86585863 -41.03515625 34.89453125 C-41.51766846 34.41129395 -42.00018066 33.92805664 -42.49731445 33.43017578 C-44.03151027 31.97001021 -45.63517799 30.66742639 -47.296875 29.35546875 C-50 27 -50 27 -51.1875 23.5 C-51 20 -51 20 -49 17 C-46 15 -46 15 -42.75 14.6875 C-37.39530023 16.56164492 -33.97428401 20.04373995 -30 24 C-26.60550558 20.64778576 -23.327901 17.2229706 -20.125 13.6875 C-18.82949219 12.25857422 -18.82949219 12.25857422 -17.5078125 10.80078125 C-14.75298076 7.72412337 -12.04771226 4.60908415 -9.375 1.4609375 C-6.38379153 -1.7172215 -4.01693527 -0.98373925 0 0 Z "
        fill="#040404" transform="translate(188,232)" />
    <path
        d="M0 0 C2.375 1 2.375 1 4 3 C4.51603027 7.84663726 4.65075577 9.97262573 2.015625 14.1328125 C1.1132373 15.14787329 0.19003472 16.14470072 -0.75 17.125 C-1.75824121 18.24180061 -2.76603748 19.35900304 -3.7734375 20.4765625 C-4.30163086 21.04922852 -4.82982422 21.62189453 -5.37402344 22.21191406 C-8.12436486 25.2364637 -10.73812614 28.37668838 -13.375 31.5 C-16.76820845 35.50739939 -20.23595096 39.32905464 -24 43 C-24.33 43.33 -24.66 43.66 -25 44 C-28.60111216 44 -30.88028639 43.89073847 -33.73828125 41.6171875 C-34.90304251 40.4229725 -36.0454524 39.20666407 -37.16796875 37.97265625 C-39.65061657 35.29944271 -42.41022465 33.01623174 -45.203125 30.67578125 C-47.87426379 28.18465399 -49.79949824 26.14572434 -50.4375 22.5 C-50 20 -50 20 -48.5 17.6875 C-45.72274482 15.81285275 -43.59643696 15.19941337 -40.23046875 15.33203125 C-36.30220121 16.50844762 -33.74780036 19.32229477 -30.8828125 22.15234375 C-29.1272486 24.06440639 -29.1272486 24.06440639 -27 25 C-26.72978027 24.41210693 -26.45956055 23.82421387 -26.18115234 23.21850586 C-25.0074271 21.01395 -23.75118114 19.37063498 -22.1015625 17.50390625 C-21.53953125 16.86259766 -20.9775 16.22128906 -20.3984375 15.56054688 C-19.81320313 14.90119141 -19.22796875 14.24183594 -18.625 13.5625 C-17.47048172 12.25207021 -16.3168168 10.94088803 -15.1640625 9.62890625 C-14.34470215 8.69908936 -14.34470215 8.69908936 -13.50878906 7.75048828 C-12.20040307 6.23250648 -10.94991162 4.66499003 -9.7109375 3.08984375 C-6.81389868 -0.44877673 -4.43285029 -0.35462802 0 0 Z "
        fill="#040404" transform="translate(187,157)" />
    <path
        d="M0 0 C3.125 0.5 3.125 0.5 6.0625 2.5625 C8.125 5.5 8.125 5.5 8.5 8.6875 C7.4278744 13.37046369 3.90988463 16.43251632 0.6796875 19.796875 C-2.75739536 23.43366604 -5.82323921 27.33075341 -8.9296875 31.25 C-11.27179174 33.95893984 -13.03184963 35.32352667 -16.5625 36.0625 C-21.62013689 35.203656 -24.26010196 31.95869874 -27.875 28.5 C-28.844375 27.736875 -29.81375 26.97375 -30.8125 26.1875 C-32.875 24.5 -32.875 24.5 -33.875 22.5 C-34.44971264 15.25862069 -34.44971264 15.25862069 -32.3125 12.4375 C-28.75822776 11.07047222 -26.54010039 11.55212921 -22.875 12.5 C-20.84860681 13.79286829 -18.84418846 15.12156808 -16.875 16.5 C-15.73611328 15.14455078 -15.73611328 15.14455078 -14.57421875 13.76171875 C-13.57038445 12.57025187 -12.56647422 11.37884898 -11.5625 10.1875 C-11.06298828 9.59259766 -10.56347656 8.99769531 -10.04882812 8.38476562 C-9.56220703 7.80791016 -9.07558594 7.23105469 -8.57421875 6.63671875 C-8.12908936 6.10780029 -7.68395996 5.57888184 -7.2253418 5.03393555 C-3.29897353 0.57373453 -3.29897353 0.57373453 0 0 Z "
        fill="#040404" transform="translate(67.875,187.5)" />
</svg>
