<svg fill="none" height="12" viewBox="0 0 12 12" width="12" xmlns="http://www.w3.org/2000/svg">
    <path
        d="M7.62003 11.375H4.38003C3.43503 11.375 2.74503 10.98 2.48003 10.3C2.20503 9.59 2.46003 8.71 3.12003 8.115L5.44003 6L3.12003 3.885C2.46003 3.29 2.20503 2.41 2.48003 1.7C2.74503 1.015 3.43503 0.625 4.38003 0.625H7.62003C8.56503 0.625 9.25503 1.02 9.52003 1.7C9.79503 2.41 9.54003 3.29 8.88003 3.885L6.56003 6L8.88503 8.115C9.54003 8.71 9.80003 9.59 9.52503 10.3C9.25503 10.98 8.56503 11.375 7.62003 11.375ZM6.00003 6.505L3.62503 8.665C3.20503 9.05 3.02003 9.61 3.18003 10.025C3.33003 10.41 3.75503 10.625 4.38003 10.625H7.62003C8.24503 10.625 8.67003 10.415 8.82003 10.025C8.98003 9.61 8.80003 9.05 8.37503 8.665L6.00003 6.505ZM4.38003 1.375C3.75503 1.375 3.33003 1.585 3.18003 1.975C3.02003 2.39 3.20003 2.95 3.62503 3.335L6.00003 5.495L8.37503 3.335C8.79503 2.95 8.98003 2.39 8.82003 1.975C8.67003 1.59 8.24503 1.375 7.62003 1.375H4.38003Z"
        fill="#676767" />
</svg>
