<svg fill="none" height="20" viewBox="0 0 20 20" width="20" xmlns="http://www.w3.org/2000/svg">
    <path
        d="M9.99996 2.70801C9.8342 2.70801 9.67523 2.77386 9.55802 2.89107C9.44081 3.00828 9.37496 3.16725 9.37496 3.33301C9.37496 3.49877 9.44081 3.65774 9.55802 3.77495C9.67523 3.89216 9.8342 3.95801 9.99996 3.95801C11.6023 3.95801 13.139 4.59454 14.2721 5.72757C15.4051 6.8606 16.0416 8.39732 16.0416 9.99967C16.0416 11.602 15.4051 13.1387 14.2721 14.2718C13.139 15.4048 11.6023 16.0413 9.99996 16.0413C9.8342 16.0413 9.67523 16.1072 9.55802 16.2244C9.44081 16.3416 9.37496 16.5006 9.37496 16.6663C9.37496 16.8321 9.44081 16.9911 9.55802 17.1083C9.67523 17.2255 9.8342 17.2913 9.99996 17.2913C11.9338 17.2913 13.7885 16.5231 15.1559 15.1557C16.5234 13.7882 17.2916 11.9335 17.2916 9.99967C17.2916 8.0658 16.5234 6.21114 15.1559 4.84369C13.7885 3.47623 11.9338 2.70801 9.99996 2.70801Z"
        fill="#404040" />
    <path
        d="M6.27496 7.9417C6.38536 7.82322 6.44546 7.66652 6.4426 7.5046C6.43975 7.34268 6.37415 7.18819 6.25964 7.07368C6.14513 6.95917 5.99064 6.89358 5.82873 6.89072C5.66681 6.88787 5.5101 6.94797 5.39162 7.05837L2.89163 9.55837C2.77458 9.67556 2.70884 9.83441 2.70884 10C2.70884 10.1657 2.77458 10.3245 2.89163 10.4417L5.39162 12.9417C5.44884 13.0031 5.51784 13.0524 5.59451 13.0865C5.67118 13.1207 5.75394 13.139 5.83786 13.1405C5.92178 13.142 6.00513 13.1266 6.08296 13.0951C6.16078 13.0637 6.23147 13.0169 6.29082 12.9576C6.35017 12.8982 6.39696 12.8275 6.42839 12.7497C6.45983 12.6719 6.47527 12.5885 6.47378 12.5046C6.4723 12.4207 6.45394 12.3379 6.41978 12.2613C6.38562 12.1846 6.33637 12.1156 6.27496 12.0584L4.84163 10.625H11.6666C11.8324 10.625 11.9914 10.5592 12.1086 10.442C12.2258 10.3248 12.2916 10.1658 12.2916 10C12.2916 9.83428 12.2258 9.6753 12.1086 9.55809C11.9914 9.44088 11.8324 9.37504 11.6666 9.37504H4.84163L6.27496 7.9417Z"
        fill="#404040" />
</svg>
