<svg fill="none" height="18" viewBox="0 0 18 18" width="18" xmlns="http://www.w3.org/2000/svg">
    <g clip-path="url(#clip0_142_1919)">
        <path
            d="M17.7803 10.7198C18.0735 11.013 18.0735 11.487 17.7803 11.7802C17.634 11.9265 17.442 12 17.25 12C17.058 12 16.866 11.9265 16.7197 11.7802L15 10.0605L13.2803 11.7802C13.134 11.9265 12.942 12 12.75 12C12.558 12 12.366 11.9265 12.2197 11.7802C11.9265 11.487 11.9265 11.013 12.2197 10.7198L13.9395 9L12.2197 7.28025C11.9265 6.987 11.9265 6.513 12.2197 6.21975C12.513 5.9265 12.987 5.9265 13.2803 6.21975L15 7.9395L16.7197 6.21975C17.013 5.9265 17.487 5.9265 17.7803 6.21975C18.0735 6.513 18.0735 6.987 17.7803 7.28025L16.0605 9L17.7803 10.7198ZM1.5 4.5C1.5 2.01825 3.51825 0 6 0C8.48175 0 10.5 2.01825 10.5 4.5C10.5 6.98175 8.48175 9 6 9C3.51825 9 1.5 6.98175 1.5 4.5ZM3 4.5C3 6.1545 4.3455 7.5 6 7.5C7.6545 7.5 9 6.1545 9 4.5C9 2.8455 7.6545 1.5 6 1.5C4.3455 1.5 3 2.8455 3 4.5ZM6 10.5C2.69175 10.5 0 13.1918 0 16.5V17.25C0 17.6647 0.336 18 0.75 18C1.164 18 1.5 17.6647 1.5 17.25V16.5C1.5 14.0182 3.51825 12 6 12C8.48175 12 10.5 14.0182 10.5 16.5V17.25C10.5 17.6647 10.836 18 11.25 18C11.664 18 12 17.6647 12 17.25V16.5C12 13.1918 9.30825 10.5 6 10.5Z"
            fill="#EB1313" fill-opacity="0.98" />
    </g>
    <defs>
        <clipPath id="clip0_142_1919">
            <rect fill="white" height="18" width="18" />
        </clipPath>
    </defs>
</svg>
