<svg width="12" height="12" viewBox="0 0 12 12" fill="none" xmlns="http://www.w3.org/2000/svg">
<g clip-path="url(#clip0_118_749)">
<path d="M7.5899 6.00015C7.5899 6.88015 6.87991 7.59015 5.99991 7.59015C5.11991 7.59015 4.40991 6.88015 4.40991 6.00015C4.40991 5.12015 5.11991 4.41016 5.99991 4.41016C6.87991 4.41016 7.5899 5.12015 7.5899 6.00015Z" stroke="#545454" stroke-width="1.5" stroke-linecap="round" stroke-linejoin="round"/>
<path d="M5.99999 9.75C7.72499 9.75 9.31498 8.61 10.335 6.67C10.555 6.255 10.555 5.745 10.335 5.33C9.31498 3.39 7.72499 2.25 5.99999 2.25C4.27499 2.25 2.685 3.39 1.665 5.33C1.445 5.745 1.445 6.255 1.665 6.67C2.685 8.61 4.27499 9.75 5.99999 9.75Z" stroke="#545454" stroke-width="1.5" stroke-linecap="round" stroke-linejoin="round"/>
</g>
<defs>
<clipPath id="clip0_118_749">
<rect width="12" height="12" fill="white"/>
</clipPath>
</defs>
</svg>
