<svg fill="none" height="32" viewBox="0 0 32 32" width="32" xmlns="http://www.w3.org/2000/svg">
    <circle cx="16" cy="16" fill="#DDEDFF" r="16" />
    <g clip-path="url(#clip0_51_1332)">
        <path
            d="M16.3092 14.9105C16.2989 15.743 17.0308 16.2075 17.5821 16.4838C18.1485 16.7671 18.3388 16.9489 18.3366 17.2023C18.3323 17.5901 17.8847 17.7613 17.4659 17.768C16.7351 17.7796 16.3102 17.5651 15.9724 17.4029L15.7092 18.6694C16.0481 18.8299 16.6756 18.9699 17.3264 18.9761C18.8539 18.9761 19.8533 18.2008 19.8587 16.9989C19.8647 15.4734 17.8064 15.389 17.8205 14.7072C17.8253 14.5004 18.0172 14.2798 18.4377 14.2237C18.6458 14.1954 19.2203 14.1737 19.8717 14.4821L20.1273 13.2568C19.777 13.1256 19.3268 13.0001 18.7663 13.0001C17.3286 13.0001 16.3173 13.7859 16.3092 14.9105ZM22.5839 13.1056C22.305 13.1056 22.0699 13.2729 21.965 13.5296L19.783 18.8861H21.3094L21.6132 18.023H23.4784L23.6546 18.8861H25L23.826 13.1056H22.5839ZM22.7975 14.6671L23.238 16.8378H22.0315L22.7975 14.6671ZM14.4585 13.1057L13.2553 18.886H14.7098L15.9125 13.1055L14.4585 13.1057ZM12.3067 13.1057L10.7927 17.04L10.1803 13.6947C10.1084 13.3213 9.82466 13.1056 9.50952 13.1056H7.03466L7 13.2735C7.50808 13.3868 8.08534 13.5696 8.43508 13.7653C8.64911 13.8847 8.71014 13.9892 8.78045 14.2732L9.9404 18.8861H11.4775L13.8341 13.1056L12.3067 13.1057Z"
            fill="url(#paint0_linear_51_1332)" />
    </g>
    <defs>
        <linearGradient gradientUnits="userSpaceOnUse" id="paint0_linear_51_1332" x1="834.532" x2="852.315"
            y1="30.9639" y2="-582.752">
            <stop stop-color="#222357" />
            <stop offset="1" stop-color="#254AA5" />
        </linearGradient>
        <clipPath id="clip0_51_1332">
            <rect fill="white" height="6" transform="translate(7 13)" width="18" />
        </clipPath>
    </defs>
</svg>
